<?xml version="1.0" encoding="utf-8"?>
<!-- Generator: Adobe Illustrator 16.0.0, SVG Export Plug-In . SVG Version: 6.00 Build 0)  -->
<!DOCTYPE svg PUBLIC "-//W3C//DTD SVG 1.1//EN" "http://www.w3.org/Graphics/SVG/1.1/DTD/svg11.dtd">
<svg version="1.1" id="圖層_1" xmlns="http://www.w3.org/2000/svg" xmlns:xlink="http://www.w3.org/1999/xlink" x="0px" y="0px"
	 width="164.754px" height="86.156px" viewBox="0 0 164.754 86.156" enable-background="new 0 0 164.754 86.156"
	 xml:space="preserve">
<g>
	<g>
		<g>
			<g>
				<path fill="#90BDE5" d="M46.198,62.227c0.021-0.011,0.038-0.022,0.059-0.032c-0.002-0.002-0.002-0.003-0.003-0.005
					C46.235,62.202,46.216,62.215,46.198,62.227z"/>
				<polygon fill="#182987" points="46.304,62.42 46.213,62.273 46.155,62.387 46.211,62.272 46.199,62.251 46.1,62.35 
					46.06,62.293 46.185,62.229 46.072,62.046 46.208,61.954 46.416,62.024 46.435,62.061 46.619,62.244 				"/>
			</g>
			<g>
				<path fill="#FFFFFF" d="M46.256,62.194c-0.021,0.01-0.038,0.021-0.059,0.032c-0.6,0.412-1.219,0.786-1.849,1.105
					c-0.581,0.352-1.148,0.701-1.698,1.044c5.024,5.341,12.244,10.659,22.793,14.394c1.496-0.088,3.044-0.247,4.646-0.489
					C58.653,74.101,51.212,68.044,46.256,62.194z"/>
				<path fill="#182987" d="M65.413,78.992l-0.042-0.015c-9.239-3.27-16.937-8.132-22.88-14.45l-0.185-0.196l0.229-0.142
					c0.55-0.344,1.118-0.694,1.699-1.047c0.614-0.312,1.228-0.678,1.839-1.097l0.201-0.113l0.151,0.118
					c5.979,7.06,13.967,12.451,23.739,16.021l0.809,0.297l-0.852,0.129c-1.555,0.236-3.124,0.4-4.665,0.491L65.413,78.992z
					 M42.997,64.421c5.86,6.162,13.422,10.914,22.479,14.125c1.229-0.072,2.48-0.194,3.725-0.361
					c-9.408-3.572-17.138-8.851-22.986-15.702c-0.591,0.4-1.184,0.752-1.765,1.045C43.961,63.824,43.473,64.125,42.997,64.421z"/>
			</g>
			<g>
				<path fill="#FFFFFF" d="M42.651,64.376c-1.255,0.783-2.413,1.528-3.41,2.183c4.756,4.534,11.213,8.917,20.075,12.17
					c1.933,0.143,3.976,0.166,6.128,0.041C54.895,75.035,47.675,69.717,42.651,64.376z"/>
				<path fill="#182987" d="M62.661,79.071L62.661,79.071c-1.126,0-2.258-0.041-3.36-0.122l-0.06-0.014
					c-7.917-2.905-14.697-7.018-20.152-12.218l-0.201-0.191l0.231-0.152c1.135-0.744,2.283-1.479,3.416-2.185l0.153-0.096
					l0.124,0.132c5.895,6.267,13.534,11.09,22.706,14.336l1.028,0.364l-1.09,0.063C64.522,79.044,63.582,79.071,62.661,79.071z
					 M59.363,78.511c1.084,0.079,2.192,0.12,3.298,0.12l0,0c0.552,0,1.11-0.011,1.671-0.03c-8.714-3.238-16.016-7.926-21.717-13.941
					c-1.002,0.626-2.017,1.274-3.021,1.931C44.963,71.652,51.614,75.663,59.363,78.511z"/>
			</g>
			<g>
				<path fill="#FFFFFF" d="M50.069,60.057c-1.273,0.678-2.561,1.403-3.813,2.138c4.956,5.85,12.396,11.906,23.833,16.086
					c1.293-0.196,2.619-0.444,3.98-0.756C62.196,72.9,54.808,66.231,50.069,60.057z"/>
				<path fill="#182987" d="M70.066,78.507l-0.054-0.021c-9.844-3.598-17.895-9.031-23.925-16.151l-0.169-0.199l0.227-0.133
					c1.336-0.783,2.621-1.503,3.82-2.142l0.164-0.088l0.114,0.148C56.117,67.576,64.16,73.429,74.15,77.32l0.669,0.261l-0.7,0.16
					c-1.331,0.302-2.677,0.557-3.997,0.757L70.066,78.507z M46.595,62.251c5.949,6.948,13.86,12.265,23.516,15.803
					c1.061-0.162,2.137-0.359,3.208-0.59c-9.692-3.893-17.532-9.651-23.311-17.126C48.93,60.915,47.784,61.558,46.595,62.251z"/>
			</g>
			<g>
				<path fill="#FFFFFF" d="M74.07,77.524c1.179-0.268,2.381-0.58,3.608-0.94C65.717,71.54,58.572,64.398,54.125,58.063
					c-1.297,0.574-2.669,1.255-4.056,1.994C54.808,66.231,62.196,72.9,74.07,77.524z"/>
				<path fill="#182987" d="M74.052,77.755L73.99,77.73c-10.066-3.921-18.174-9.823-24.096-17.54l-0.159-0.207l0.23-0.122
					c1.468-0.782,2.838-1.456,4.069-2.001l0.165-0.072l0.105,0.147c5.658,8.061,13.551,14.267,23.459,18.444l0.57,0.241
					l-0.595,0.174c-1.21,0.355-2.429,0.674-3.621,0.946L74.052,77.755z M50.403,60.128c5.847,7.537,13.813,13.312,23.684,17.167
					c0.969-0.222,1.952-0.473,2.937-0.752c-9.658-4.181-17.385-10.303-22.975-18.205C52.935,58.835,51.709,59.438,50.403,60.128z"/>
			</g>
			<g>
				<path fill="#FFFFFF" d="M31.63,65.772c0,0,12.3,11.821,27.686,12.956c-8.862-3.253-15.319-7.636-20.075-12.17
					C37.066,67.983,31.63,65.772,31.63,65.772z"/>
				<path fill="#182987" d="M60.871,79.065l-1.57-0.116C44.011,77.821,31.6,66.05,31.477,65.931l-0.828-0.795l1.064,0.432
					c0.03,0.013,3.098,1.249,5.481,1.249c0.829,0,1.477-0.149,1.924-0.442l0.147-0.097l0.126,0.121
					c5.412,5.159,12.14,9.238,20,12.123L60.871,79.065z M32.624,66.366c2.895,2.505,12.932,10.47,25.067,11.979
					c-7.196-2.839-13.407-6.708-18.481-11.512c-0.508,0.281-1.185,0.423-2.015,0.423C35.597,67.257,33.758,66.743,32.624,66.366z"/>
			</g>
			<g>
				<path fill="#182987" d="M77.678,76.584c0.914-0.27,1.88-0.469,2.783-0.889c2.683-1.243,1.627-1.553,1.874-1.656l-7.348-9.467
					l-0.068-1.753c-5.542-1.697-10.587-5.41-13.809-6.381c-1.448-0.437-4.019,0.311-6.986,1.624
					C58.572,64.398,65.717,71.54,77.678,76.584z"/>
				<path fill="#182987" d="M77.666,76.817l-0.073-0.03c-9.985-4.212-17.941-10.468-23.649-18.598l-0.153-0.22l0.245-0.109
					c3.384-1.497,5.774-2.045,7.14-1.633c1.423,0.429,3.162,1.365,5.174,2.45c2.592,1.396,5.527,2.979,8.638,3.931l0.149,0.046
					l0.07,1.839l7.48,9.64l-0.139,0.059c0.077,0.444-0.3,0.919-1.993,1.704c-0.684,0.317-1.398,0.511-2.089,0.697
					c-0.244,0.066-0.485,0.133-0.725,0.202L77.666,76.817z M54.459,58.156C60.093,66.09,67.908,72.21,77.693,76.35
					c0.217-0.063,0.436-0.122,0.657-0.183c0.674-0.182,1.37-0.37,2.019-0.671c0.702-0.326,1.86-0.924,1.735-1.268
					c-0.022-0.064-0.031-0.117-0.027-0.164l-7.307-9.412l-0.063-1.669c-3.096-0.969-6.001-2.534-8.567-3.918
					c-1.991-1.073-3.711-2-5.092-2.416C59.833,56.283,57.589,56.795,54.459,58.156z"/>
			</g>
			<g>
				<path fill="#90BDE5" d="M46.198,62.227c-0.627,0.369-1.245,0.738-1.849,1.105C44.979,63.013,45.598,62.639,46.198,62.227z"/>
				<path fill="#182987" d="M44.449,63.527l-0.215-0.385c0.605-0.367,1.226-0.736,1.853-1.106l0.236,0.373
					C45.696,62.84,45.065,63.216,44.449,63.527z"/>
			</g>
			<g>
				<path fill="#90BDE5" d="M46.198,62.227c-0.627,0.369-1.245,0.738-1.849,1.105C44.979,63.013,45.598,62.639,46.198,62.227z"/>
				<path fill="#182987" d="M44.449,63.527l-0.215-0.385c0.605-0.367,1.226-0.736,1.853-1.106l0.236,0.373
					C45.696,62.84,45.065,63.216,44.449,63.527z"/>
			</g>
		</g>
		<g>
			<path fill="#182987" d="M99.74,47.013c0,0-0.378,2.271-3.913,2.271c-2.792,0-7.147-1.715-7.527,1.954
				c-2.443-3.427-4.737-1.954-7.529-1.954c-3.534,0-3.913-2.271-3.913-2.271c-1.263,12.75,9.089,11.108,9.089,11.108
				s0.195,0.022,0.49-0.021c-0.128,1.993-0.888,4.164-3.259,5.224c-2.6,1.162-9.214-2.783-16.88-12.413
				c-1.604-2.449-2.802-4.392-3.091-4.793c-1.677-2.326,5.962-22.545,7.514-24.167c2.03-2.122,4.406-3.087,5.01-4.392
				c0.603-1.31,0.538-4.242,0.135-6.154s-3.622-2.515-5.282-3.202c-1.66-0.688-15.044,3.401-19.07,4.107
				c-4.024,0.703-4.527,2.414-4.527,2.414c-0.815,4.475,1.007,9.359,2.516,10.767c1.511,1.41,4.402,1.09,6.918-1.324
				c2.515-2.416-0.368-6.92,9.484-8.637c6.229-1.085-0.937,15.542-2.749,21.277c-1.812,5.734-5.937,5.333-8.027,3.415
				c-5.81-5.328-15.739-8.097-20.669-8.397c-4.931-0.301-11.723,1.963-11.823,4.132c-1.119,24.088,8.007,29.676,14.415,34.319
				c4.841,3.507,17.969-10.963,21.491-11.97c3.522-1.006,6.92,6.367,10.889,11.257c2.353,2.901,9.558,6.732,11.608,5.913
				c3.319-1.328,5.171-3.205,6.332-5.441c2.804-4.312,3.55-9.562,3.747-11.866C93.116,58.306,100.841,58.128,99.74,47.013z"/>
		</g>
		<g>
			<path fill="#009FE8" d="M11.121,18.201c0,0,0.246-7.629-1.477-11.197c-1.722-3.565,3.813-8.98,7.752-6.274
				C21.333,3.438,19.855,12.172,11.121,18.201z"/>
		</g>
		<g>
			<path fill="#009FE8" d="M7.102,29.669c0,0-5.905,21.883-3.198,34.513c2.707,12.633,6.643,18.498,11.441,17.37
				c4.798-1.129,5.057-11.335,6.151-18.047c1.139-6.979,0.388-10.44-0.369-6.653c-1.6,8.008-4.307,11.955-6.767,8.234
				c-2.461-3.723-2.782-30.212-0.983-33.724C14.063,30.022,10.178,27.077,7.102,29.669z"/>
		</g>
		<g>
			<circle fill="#F5F5F5" cx="35.763" cy="35.196" r="2.684"/>
		</g>
		<g>
			<circle fill="#182987" cx="35.27" cy="34.86" r="1.902"/>
		</g>
		<g>
			<g>
				<path fill="#009FE8" d="M63.292,46.117c-1.677-2.326,5.962-22.545,7.514-24.167c2.031-2.122,4.407-3.087,5.01-4.392
					c0.604-1.31,0.538-4.242,0.135-6.154s-3.621-2.515-5.282-3.202c-1.66-0.688-15.043,3.401-19.069,4.107
					c-4.025,0.703-4.527,2.414-4.527,2.414c-0.817,4.475,1.007,9.359,2.516,10.767c1.51,1.41,4.4,1.09,6.916-1.324
					c2.518-2.416-0.368-6.92,9.485-8.637c6.229-1.085-0.938,15.542-2.748,21.277c-1.659,5.251-5.256,5.355-7.457,3.863
					c2.854,2.227,6.073,4.771,8.271,6.62C63.675,46.694,63.409,46.279,63.292,46.117z"/>
			</g>
		</g>
		<g>
			<g>
				<path fill="#90BDE5" d="M46.198,62.736c0.021-0.009,0.038-0.018,0.059-0.027c-0.002-0.001-0.002-0.002-0.003-0.003
					C46.235,62.717,46.216,62.727,46.198,62.736z"/>
				<polygon fill="#182987" points="46.291,62.937 46.215,62.785 46.155,62.904 46.214,62.784 46.2,62.753 46.081,62.843 
					46.199,62.752 46.093,62.542 46.248,62.457 46.408,62.537 46.575,62.808 				"/>
			</g>
			<g>
				<path fill="#FFFFFF" d="M49.543,60.467c1.311-1.083,2.327-2.193,2.861-3.088c-0.304-0.391-0.598-0.776-0.871-1.151
					c-0.577-0.848-1.08-1.656-1.53-2.431c-0.883-0.549-1.925-1.158-3.069-1.798c-0.985-0.552-2.045-1.124-3.134-1.698
					c-0.406-0.215-0.817-0.429-1.229-0.642c0.724,1.884,1.849,4.152,3.621,6.758C47.123,57.694,48.227,59.061,49.543,60.467z"/>
				<path fill="#182987" d="M49.524,60.769l-0.142-0.15c-1.209-1.292-2.341-2.66-3.369-4.072c-1.575-2.315-2.802-4.604-3.648-6.808
					l-0.208-0.541l0.516,0.267c0.412,0.213,0.824,0.428,1.23,0.642c1.148,0.606,2.204,1.179,3.14,1.701
					c1.169,0.653,2.205,1.26,3.078,1.803l0.046,0.029l0.028,0.048c0.479,0.826,0.977,1.617,1.521,2.416
					c0.268,0.368,0.561,0.753,0.863,1.142l0.092,0.119l-0.077,0.13c-0.564,0.942-1.598,2.059-2.911,3.144L49.524,60.769z
					 M42.994,50.128c0.822,2.002,1.958,4.073,3.38,6.164c0.974,1.336,2.046,2.639,3.188,3.871c1.125-0.949,2.049-1.943,2.575-2.77
					c-0.272-0.352-0.536-0.698-0.781-1.037c-0.545-0.798-1.038-1.583-1.514-2.401c-0.857-0.531-1.873-1.125-3.016-1.764
					c-0.932-0.521-1.983-1.092-3.13-1.696C43.464,50.374,43.23,50.25,42.994,50.128z"/>
			</g>
			<g>
				<path fill="#FFFFFF" d="M25.629,47.285c-0.383,1.169-0.489,2.619-0.179,4.319c0.157,0.855,0.339,1.652,0.542,2.404
					c0.994,3.695,2.512,6.171,4.301,7.798c1.384,1.256,2.928,2.01,4.515,2.422c0.825,0.215,1.663,0.335,2.496,0.392
					c-3.141-2.641-5.429-5.286-7.137-7.634C27.339,52.83,26.156,49.528,25.629,47.285z"/>
				<path fill="#182987" d="M37.961,64.885L37.29,64.84c-0.913-0.062-1.742-0.192-2.538-0.397c-1.75-0.454-3.3-1.286-4.606-2.473
					c-1.967-1.789-3.437-4.448-4.365-7.902c-0.21-0.776-0.393-1.591-0.546-2.423c-0.301-1.645-0.237-3.134,0.187-4.428l0.245-0.746
					l0.179,0.765c0.714,3.042,2.229,6.28,4.506,9.626c2.047,2.813,4.369,5.298,7.096,7.589L37.961,64.885z M25.628,48.168
					c-0.199,1.025-0.187,2.163,0.039,3.396c0.151,0.821,0.333,1.623,0.538,2.388c0.907,3.372,2.332,5.959,4.236,7.69
					c1.253,1.139,2.74,1.938,4.421,2.372c0.566,0.147,1.149,0.254,1.771,0.324c-2.528-2.191-4.706-4.559-6.645-7.224
					C27.884,54.022,26.42,51.018,25.628,48.168z"/>
			</g>
			<g>
				<path fill="#FFFFFF" d="M42.424,64.241c0.424-0.106,0.847-0.235,1.268-0.383c0.221-0.078,0.438-0.162,0.657-0.249
					c0.604-0.29,1.222-0.582,1.849-0.873c0.019-0.01,0.037-0.02,0.056-0.03c-2.272-2.122-4.026-4.207-5.403-6.099
					c-2.99-4.396-4.143-7.835-4.622-10.076c-0.575-0.268-1.132-0.522-1.657-0.758c-1.221-0.547-2.282-0.99-3.104-1.293
					c-0.371-0.137-0.688-0.243-0.952-0.318c0.138,1.311,0.365,5.83,4.995,12.635C37.176,59.088,39.399,61.663,42.424,64.241z"/>
				<path fill="#182987" d="M42.368,64.48l-0.086-0.072c-2.629-2.238-4.967-4.755-6.951-7.482
					c-4.434-6.516-4.871-11.035-5.015-12.521l-0.055-0.545l0.313,0.09c0.27,0.077,0.595,0.186,0.969,0.322
					c0.815,0.302,1.894,0.751,3.117,1.3c0.525,0.236,1.084,0.491,1.661,0.76l0.099,0.047l0.024,0.106
					c0.674,3.149,2.217,6.513,4.588,9.997c1.603,2.201,3.361,4.187,5.37,6.063l0.222,0.207l-0.322,0.179
					c-0.639,0.296-1.255,0.588-1.858,0.878c-0.234,0.094-0.456,0.179-0.679,0.257c-0.439,0.155-0.873,0.286-1.287,0.39L42.368,64.48
					z M30.766,44.47c0.152,1.559,0.661,5.937,4.926,12.202c1.938,2.663,4.223,5.129,6.789,7.327c0.368-0.095,0.75-0.212,1.139-0.35
					c0.217-0.075,0.432-0.159,0.646-0.245c0.518-0.248,1.056-0.503,1.602-0.758c-1.935-1.831-3.636-3.767-5.195-5.91
					c-2.381-3.497-3.938-6.877-4.637-10.051c-0.539-0.251-1.061-0.488-1.556-0.71c-1.214-0.545-2.283-0.991-3.091-1.289
					C31.162,44.604,30.954,44.53,30.766,44.47z"/>
			</g>
			<g>
				<path fill="#FFFFFF" d="M40.878,64.511c0.105-0.012,0.211-0.024,0.315-0.036c0.409-0.052,0.82-0.133,1.23-0.233
					c-3.025-2.578-5.248-5.153-6.915-7.444c-4.63-6.805-4.857-11.324-4.995-12.635c-0.192-0.055-0.36-0.096-0.486-0.111
					c-0.688-0.092-1.372,0.02-2,0.313c-1.046,0.49-1.93,1.491-2.398,2.921c0.526,2.243,1.71,5.545,4.538,9.701
					c1.708,2.348,3.996,4.993,7.137,7.634c0.257,0.017,0.515,0.028,0.771,0.033C39.032,64.673,39.975,64.614,40.878,64.511z"/>
				<path fill="#182987" d="M38.439,64.878L38.439,64.878c-0.122-0.001-0.245-0.002-0.367-0.004
					c-0.261-0.005-0.521-0.017-0.782-0.034l-0.072-0.005l-0.056-0.047c-2.755-2.315-5.101-4.825-7.172-7.673
					c-2.312-3.396-3.85-6.685-4.574-9.778l-0.014-0.062l0.019-0.059c0.468-1.428,1.36-2.511,2.514-3.052
					c0.673-0.314,1.401-0.428,2.123-0.334c0.127,0.017,0.291,0.054,0.518,0.119l0.143,0.041l0.038,0.371
					c0.142,1.458,0.569,5.894,4.937,12.31c1.959,2.693,4.274,5.186,6.877,7.399l0.326,0.28l-0.417,0.104
					c-0.446,0.11-0.858,0.188-1.257,0.238l-0.316,0.036C40.031,64.829,39.224,64.878,38.439,64.878z M37.391,64.405
					c0.229,0.014,0.459,0.023,0.688,0.027c0.893,0.02,1.784-0.027,2.774-0.141l0.313-0.036c0.254-0.032,0.512-0.075,0.783-0.132
					c-2.492-2.167-4.719-4.587-6.619-7.198c-4.434-6.516-4.871-11.035-5.015-12.521l-0.007-0.071
					C30.179,44.3,30.077,44.279,30,44.27c-0.643-0.086-1.284,0.016-1.88,0.295c-1.027,0.481-1.828,1.449-2.262,2.732
					c0.719,3.023,2.229,6.241,4.491,9.564C32.383,59.655,34.687,62.125,37.391,64.405z"/>
			</g>
			<g>
				<path fill="#FFFFFF" d="M46.253,62.706c0.107-0.06,0.217-0.114,0.322-0.176c0.885-0.506,1.71-1.073,2.465-1.66
					c0.173-0.134,0.339-0.269,0.503-0.403c-1.316-1.406-2.421-2.772-3.352-4.05c-1.772-2.605-2.897-4.874-3.621-6.758
					c-0.628-0.324-1.258-0.647-1.89-0.964c-1.022-0.515-2.037-1.014-3.016-1.483c-0.49-0.235-0.971-0.462-1.438-0.681
					c0.479,2.241,1.632,5.681,4.622,10.076C42.227,58.499,43.981,60.584,46.253,62.706z"/>
				<path fill="#182987" d="M46.22,62.978l-0.117-0.11c-2.032-1.896-3.808-3.901-5.431-6.131c-2.407-3.536-3.974-6.952-4.66-10.158
					l-0.093-0.433l0.402,0.187c0.468,0.219,0.947,0.445,1.439,0.681c0.977,0.469,1.992,0.968,3.02,1.485
					c0.632,0.316,1.263,0.641,1.892,0.966l0.074,0.038l0.03,0.078c0.834,2.172,2.044,4.43,3.597,6.712
					c1.014,1.391,2.135,2.746,3.331,4.023l0.16,0.171l-0.182,0.15c-0.165,0.137-0.333,0.272-0.507,0.408
					c-0.82,0.637-1.659,1.2-2.491,1.677c-0.064,0.038-0.131,0.073-0.198,0.109L46.22,62.978z M36.543,46.923
					c0.719,3.022,2.228,6.235,4.489,9.56c1.571,2.159,3.293,4.109,5.255,5.954c0.061-0.032,0.12-0.063,0.18-0.099
					c0.813-0.465,1.635-1.018,2.438-1.642c0.106-0.083,0.212-0.168,0.316-0.252c-1.148-1.24-2.228-2.55-3.209-3.898
					c-1.558-2.288-2.772-4.55-3.619-6.729c-0.602-0.311-1.207-0.62-1.812-0.924c-1.025-0.516-2.039-1.014-3.013-1.482
					C37.221,47.244,36.879,47.081,36.543,46.923z"/>
			</g>
			<g>
				<path fill="#182987" d="M52.405,57.379c0.262-0.436,0.409-0.82,0.421-1.122c0.002-0.085,0.012-0.173-0.007-0.244
					c-0.104-0.395-1.181-1.201-2.815-2.216c0.45,0.774,0.953,1.583,1.53,2.431C51.807,56.603,52.101,56.988,52.405,57.379z"/>
			</g>
			<g>
				<path fill="#90BDE5" d="M46.198,62.736c-0.627,0.291-1.245,0.583-1.849,0.873C44.979,63.356,45.598,63.062,46.198,62.736z"/>
				<path fill="#182987" d="M44.43,63.813l-0.177-0.403c0.605-0.29,1.224-0.583,1.852-0.874l0.197,0.395
					C45.671,63.271,45.042,63.569,44.43,63.813z"/>
			</g>
			<g>
				<path fill="#90BDE5" d="M46.198,62.736c-0.627,0.291-1.245,0.583-1.849,0.873C44.979,63.356,45.598,63.062,46.198,62.736z"/>
				<path fill="#182987" d="M44.43,63.813l-0.177-0.403c0.605-0.29,1.224-0.583,1.852-0.874l0.197,0.395
					C45.671,63.271,45.042,63.569,44.43,63.813z"/>
			</g>
		</g>
		<g>
			<circle fill="#F5F5F5" cx="35.136" cy="34.262" r="0.914"/>
		</g>
		<g>
			<circle fill="#009FE8" cx="77.653" cy="22.123" r="1.777"/>
		</g>
		<g>
			<circle fill="#009FE8" cx="73.621" cy="26.292" r="0.752"/>
		</g>
		<g>
			<circle fill="#009FE8" cx="79.363" cy="10.843" r="1.846"/>
		</g>
		<g>
			<circle fill="#009FE8" cx="82.644" cy="14.262" r="0.889"/>
		</g>
		<g>
			<circle fill="#009FE8" cx="45.731" cy="25.336" r="0.889"/>
		</g>
		<g>
			<circle fill="#009FE8" cx="42.518" cy="19.252" r="2.461"/>
		</g>
	</g>
	<g>
		<g>
			<g>
				<path fill="#231815" d="M131.39,16.598c-0.298-1.349,1.572-1.428,1.407-3.283c-1.506-0.354-4.581-0.613-4.925,0.938
					c1.173,0,2.344,0,3.518,0c-0.441,0.73-1.007,1.338-1.407,2.11c0.107,0.988,1.109,1.079,1.407,1.876
					c-1.564,0.937-3.427,1.577-3.986,3.519c2.285,2.668,6.513-0.339,6.8-3.283c1.035,0.019,2.077,0.045,2.11-0.938
					C134.062,16.735,131.853,18.698,131.39,16.598z M129.279,21.991c0.084-1.751,2.248-2.549,3.283-2.579
					C132.865,20.65,130.56,22.336,129.279,21.991z"/>
				<path fill="#231815" d="M135.141,8.156c-2.841-0.768-8.041,3.224-10.084,3.283c1.458-2.062,5.028-2.007,5.864-4.69
					c-0.816-0.46-2.723-0.307-3.284,0.235c-0.07,1.011,0.96,0.916,1.173,1.642c-1.962,1.333-5.399,2.399-5.627,4.688
					c3.157-1.922,7.584-2.576,11.489-3.751c0.233,0.314,0.635,0.461,0.704,0.938c0.1,0.96-0.496,1.225-0.938,1.642
					C138.074,13.433,137.132,8.694,135.141,8.156z"/>
			</g>
			<g>
				<path fill-rule="evenodd" clip-rule="evenodd" d="M114.249,19.652c1.899,0.354,4.153,1.341,3.43,3.132
					C117.33,22.909,114.595,21.104,114.249,19.652z"/>
				<path fill-rule="evenodd" clip-rule="evenodd" d="M109.091,11.938c-0.236,0.353,0.349,0.64,0.6,0.627
					c0.109-0.007,0.069-0.627,0.237-0.744c0.44-0.31,2.861-1.703,3.955-2.143c0.948-0.379,1.781-0.846,2.338-1.196
					c1.452-0.919,0.146-2.193-1.055-2.37c-1.886-0.278-3.257,1.954-4.633,2.469c-0.474-0.412-0.739-1.018-1.475-1.186
					c-0.073,1.393,0.789,2.746,1.896,3.356C110.095,11.351,109.329,11.586,109.091,11.938z M111.798,10.16
					c-0.562-1.611,2.087-4.692,3.264-2.568C114.408,8.855,113.025,9.437,111.798,10.16z"/>
				<g>
					<path fill-rule="evenodd" clip-rule="evenodd" d="M106.556,9.022c0.321-1.317-0.637-2.264-1.962-2.603
						c-0.461,0.833,0.511,1.55,0.472,2.481C105.058,9.085,106.345,9.891,106.556,9.022z"/>
					<path fill-rule="evenodd" clip-rule="evenodd" d="M105.464,19.596c1.206-0.668,1.335-1.586,2.515-2.279
						c-1.588,1.547-1.079,3.696-2.666,4.981c-1.818-1.571-1.908-5.608-0.902-8.662c0.308-0.938,1.332-0.163,1.332-0.163
						C105.373,15.519,104.654,17.415,105.464,19.596z"/>
				</g>
				<path fill-rule="evenodd" clip-rule="evenodd" d="M117.02,11.712c-1.686-0.042-6.366,1.353-6.366,1.353
					c-0.604,0.259-0.991,1.44-1.145,2.135c-0.154,0.694,0.303,0.825,0.753,0.839c0.467,0.014,5.767-1.111,6.906-1.354
					c0.423-0.089,1.237-1.369,1.196-1.803C118.323,12.447,117.266,11.719,117.02,11.712z M115.608,13.67
					c-0.529,0.24-4.44,1.253-4.427,0.936c0.015-0.316,0.271-1.033,0.473-1.112c0,0,2.438-0.514,3.039-0.658
					C115.554,12.63,116.135,13.429,115.608,13.67z"/>
				<path fill-rule="evenodd" clip-rule="evenodd" d="M109.049,17.1c0,0,9.119-2.598,8.558,0.1c-0.02,0.097-0.79-0.208-1.515-0.224
					c-0.724-0.016-6.573,1.155-6.706,1.116C108.867,17.941,108.576,17.101,109.049,17.1z"/>
				<path fill-rule="evenodd" clip-rule="evenodd" d="M108.643,19.131c0,0,9.381-2.556,9.236-0.186
					c-0.025,0.431-1.374-0.398-2.547-0.196c-1.174,0.203-4.619,1.392-5.396,1.369C109.16,20.096,108.266,19.579,108.643,19.131z"/>
				<path fill-rule="evenodd" clip-rule="evenodd" d="M112.728,11.324c0,0,0.307,3.709-0.028,5.511
					c-0.44,2.381-3.452,5.505-4.107,5.78c-0.655,0.274,1.402,0.006,2.742-0.87c2.953-1.933,3.121-7.704,3.022-10.825
					C114.342,10.418,112.572,11.243,112.728,11.324z"/>
				<path fill-rule="evenodd" clip-rule="evenodd" d="M109.873,12.004c0,0,2.398-1.036,3.039-1.227
					c0.573-0.169,3.215-1.149,4.301-0.862c0.649,0.171,1.524,0.871,1.431,1.115s-0.407,0.023-1.328,0.012
					c-2.777-0.041-7.508,1.793-7.715,1.489C109.061,11.742,109.426,12.316,109.873,12.004z"/>
			</g>
			<g>
				<path fill="#231815" d="M150.142,15.217c0.96-2.422,1.425-6.09-0.488-7.807c-2.44,0.244-3.024,2.342-4.881,3.172
					c-0.741-0.233-0.493-1.458-1.708-1.22c-1.002,0.134-1.282,0.995-1.219,2.195c0.725-0.124,1.889-1.45,2.44-0.244
					c-0.624,1.689-4.057,5-1.222,6.345c1.869-0.571,1.629-3.252,1.708-5.612c1.499-1.27,2.168-3.363,4.638-3.661
					c1.361,0.83,0.858,4.94-0.244,5.613c-0.085-0.566-0.158-1.144-0.977-0.977c-1.515,0.295-1.009,1.418-0.977,2.93
					c-0.929,1.674-2.406,2.799-2.195,5.613c1.522-0.467,1.849-3.309,3.66-2.686c0.403,2.356-1.988,1.915-2.196,3.66
					c0.746-0.176,0.889,0.249,1.465,0.245c1.473-0.576,2.296-3.518,1.22-5.126c-0.756-0.321-1.354,0.724-1.708,0
					C147.648,16.141,149.164,15.946,150.142,15.217z M143.065,16.683c-0.666-0.527,0.084-1.688,0.245-2.196
					C143.977,15.013,143.226,16.177,143.065,16.683z"/>
				<path fill="#231815" d="M155.268,9.119c-1.955-0.999-3.372,0.488-3.661,1.95C152.685,10.042,155.704,11.948,155.268,9.119z"/>
				<path fill="#231815" d="M156,12.534c-3-0.134-5.119,1.849-5.613,3.417c1.221,0.689,2.409-1.697,3.661-0.977
					c-0.938,1.503-2.324,2.555-2.929,4.392C152.669,17.236,157.118,15.743,156,12.534z"/>
				<path fill="#231815" d="M157.464,18.391c-0.132,0.943,0.435,1.191,0.244,2.196c-1.854,1.38-4.081-0.036-4.394-1.708
					c-1.826,3.718,4.085,5.146,5.612,2.686C158.538,20.408,158.379,19.022,157.464,18.391z"/>
			</g>
		</g>
		<g>
			<g>
				<path fill="#231815" d="M131.39,42.775c-0.298-1.347,1.572-1.427,1.407-3.282c-1.506-0.354-4.581-0.613-4.925,0.938
					c1.173,0,2.346,0,3.518,0c-0.441,0.73-1.007,1.338-1.407,2.11c0.107,0.988,1.109,1.08,1.407,1.875
					c-1.564,0.938-3.425,1.577-3.985,3.519c2.284,2.668,6.512-0.338,6.8-3.282c1.034,0.019,2.076,0.045,2.109-0.938
					C134.062,42.913,131.853,44.877,131.39,42.775z M129.279,48.17c0.084-1.751,2.248-2.55,3.284-2.579
					C132.865,46.829,130.56,48.514,129.279,48.17z"/>
				<path fill="#231815" d="M135.141,34.335c-2.841-0.768-8.041,3.224-10.083,3.283c1.457-2.063,5.027-2.007,5.863-4.69
					c-0.816-0.461-2.723-0.307-3.284,0.235c-0.07,1.01,0.96,0.917,1.174,1.642c-1.963,1.333-5.4,2.399-5.628,4.688
					c3.159-1.922,7.584-2.576,11.489-3.751c0.233,0.313,0.635,0.461,0.704,0.938c0.101,0.96-0.496,1.225-0.938,1.642
					C138.074,39.61,137.132,34.872,135.141,34.335z"/>
			</g>
			<g>
				<path fill-rule="evenodd" clip-rule="evenodd" d="M114.249,46.061c1.899,0.354,4.155,1.341,3.43,3.133
					C117.33,49.316,114.595,47.513,114.249,46.061z"/>
				<path fill-rule="evenodd" clip-rule="evenodd" d="M109.091,38.348c-0.236,0.353,0.349,0.64,0.601,0.626
					c0.108-0.005,0.069-0.626,0.236-0.744c0.44-0.311,2.861-1.702,3.956-2.141c0.947-0.38,1.78-0.848,2.337-1.198
					c1.452-0.918,0.146-2.193-1.055-2.37c-1.886-0.278-3.257,1.954-4.633,2.469c-0.474-0.413-0.739-1.017-1.474-1.185
					c-0.073,1.392,0.788,2.745,1.895,3.357C110.095,37.76,109.329,37.995,109.091,38.348z M111.798,36.568
					c-0.562-1.611,2.087-4.692,3.264-2.566C114.408,35.265,113.025,35.845,111.798,36.568z"/>
				<g>
					<path fill-rule="evenodd" clip-rule="evenodd" d="M106.556,35.432c0.321-1.317-0.637-2.264-1.962-2.603
						c-0.461,0.833,0.511,1.55,0.472,2.481C105.058,35.493,106.345,36.301,106.556,35.432z"/>
					<path fill-rule="evenodd" clip-rule="evenodd" d="M105.464,46.006c1.206-0.67,1.335-1.588,2.515-2.28
						c-1.588,1.546-1.079,3.696-2.666,4.981c-1.818-1.571-1.908-5.608-0.902-8.663c0.31-0.938,1.332-0.163,1.332-0.163
						C105.373,41.927,104.654,43.824,105.464,46.006z"/>
				</g>
				<path fill="#231815" d="M117.02,38.12c-1.684-0.041-6.365,1.354-6.365,1.354c-0.604,0.259-0.991,1.44-1.146,2.134
					c-0.153,0.694,0.303,0.826,0.753,0.84c0.467,0.014,5.767-1.113,6.906-1.354c0.423-0.091,1.237-1.37,1.196-1.804
					C118.323,38.856,117.266,38.127,117.02,38.12z M115.608,40.078c-0.527,0.24-4.44,1.254-4.427,0.937
					c0.015-0.317,0.271-1.033,0.474-1.113c0,0,2.438-0.514,3.038-0.656C115.554,39.038,116.135,39.838,115.608,40.078z"/>
				<path fill-rule="evenodd" clip-rule="evenodd" d="M109.049,43.509c0,0,9.119-2.598,8.558,0.1
					c-0.019,0.095-0.789-0.209-1.515-0.224c-0.724-0.017-6.572,1.155-6.706,1.116C108.865,44.351,108.576,43.511,109.049,43.509z"/>
				<path fill-rule="evenodd" clip-rule="evenodd" d="M108.643,45.539c0,0,9.381-2.555,9.236-0.185
					c-0.025,0.43-1.374-0.399-2.547-0.196c-1.173,0.202-4.619,1.392-5.396,1.369C109.16,46.504,108.266,45.988,108.643,45.539z"/>
				<path fill-rule="evenodd" clip-rule="evenodd" d="M112.728,37.733c0,0,0.307,3.708-0.028,5.511
					c-0.44,2.38-3.452,5.506-4.107,5.78s1.402,0.006,2.743-0.871c2.953-1.933,3.119-7.703,3.022-10.824
					C114.342,36.826,112.571,37.652,112.728,37.733z"/>
				<path fill-rule="evenodd" clip-rule="evenodd" d="M109.873,38.412c0,0,2.398-1.037,3.039-1.225
					c0.573-0.169,3.215-1.152,4.302-0.863c0.648,0.17,1.523,0.872,1.43,1.114c-0.094,0.244-0.407,0.024-1.328,0.012
					c-2.777-0.04-7.508,1.795-7.713,1.489C109.062,38.151,109.425,38.727,109.873,38.412z"/>
			</g>
			<g>
				<path fill-rule="evenodd" clip-rule="evenodd" d="M146.886,35.437c3.608-0.849,6.042-2.298,8.712-1.276
					c0.868,2.824-2.563,3.34-2.218,5.676c-0.029,0.607-4.964,0.547-6.67,0.603l0.444-0.621c2.848-0.265,5.087-2.355,6.029-4.479
					c-1.671,0.006-4.501,1.07-6.276,0.965L146.886,35.437z"/>
				<path fill-rule="evenodd" clip-rule="evenodd" d="M147.063,40.402c3.612,2.654,7.517,4.774,11.584,7.012
					c1.194,0.637,1.272,0.751-1.906,1.271c-6.161-1.184-6.502-4.729-9.971-7c-1.006,2.431-1.283,7.757-4.699,6.729l-0.632-0.32
					l0.645-0.471c1.678-1.248,4.624-5.399,3.388-12.468c0,0-0.031-0.894,0.144-0.851c0.191,0.036,1.637,0.513,1.683,1.044
					C147.4,36.508,147.238,39.963,147.063,40.402z"/>
			</g>
		</g>
		<g>
			<g>
				<path fill-rule="evenodd" clip-rule="evenodd" d="M126.586,63.51c-0.54-0.58-1.026-0.674-1.375-0.937
					c1.879-0.864,6.23-1.291,4.467,2.249C127.786,65.396,126.586,63.51,126.586,63.51z"/>
				<path fill-rule="evenodd" clip-rule="evenodd" d="M124.353,67.404l0.01,0.004c-1.154,0.29-2.078,0.786-3.405,0.92
					c0.219,1.955,3.745-0.204,4.287-0.47c1.636-0.803,2.993-1.078,2.993-1.078c0.708-0.131,0.686,0.222,0.686,0.222
					s1.435-0.628,2.029-1.247C130.129,64.914,129.104,66.14,124.353,67.404z"/>
				<path fill-rule="evenodd" clip-rule="evenodd" d="M132.084,63.968c1.389-0.995,4.869-3.651,7.041-2.379
					c0.104,3.599-0.691,8.007-0.271,12.882c-0.135,0.511-0.227,0.51-0.896,0.706c-2.308,0.251-2.452-1.735-3.237-3.059l-0.165-0.289
					l0.39,0.057c0.81,0.209,1.133,1.18,2.057,0.959c-0.015-2.411,0.38-7.135-0.104-10.055c-1.541-0.029-3.173,1.765-4.606,1.849
					l-1.021-0.182L132.084,63.968z"/>
				<path fill-rule="evenodd" clip-rule="evenodd" d="M136.097,66.398c-0.318-1.827-2.929-0.324-4.354-0.324
					C132.181,68.479,134.563,67.244,136.097,66.398z"/>
				<path fill-rule="evenodd" clip-rule="evenodd" d="M136.315,68.254c-1.58-1.189-3.749,0.397-5.4,0.638
					c0.031,1.188,0.262,2.193,0.968,2.76C134.687,71.703,136.122,70.532,136.315,68.254z M132.677,70.463
					c0.041-0.419-0.304-0.48-0.238-0.922c0.906-0.062,1.163-0.704,2.067-0.765C134.122,69.538,133.731,70.298,132.677,70.463z"/>
				<path fill-rule="evenodd" clip-rule="evenodd" d="M129.583,69.485c-0.04,1.253-1.817,1.095-2.651,1.64
					c-0.32-0.11-0.894-1.048-0.416-1.185C126.516,69.94,128.869,68.996,129.583,69.485z"/>
				<path fill-rule="evenodd" clip-rule="evenodd" d="M128.49,67.465c0,0,0.173-0.026,0.62,0.561
					c-0.228,0.655-2.086,0.786-2.522,0.682C126.587,68.707,126.012,67.646,128.49,67.465z"/>
				<path fill-rule="evenodd" clip-rule="evenodd" d="M125.674,72.839c0,0-0.105,0.044-0.054,0.328
					c0.054,0.285,1.151,1.431,1.732,1.281c0.199-0.052,1.127-0.036,1.239-0.112c0.605-0.398,1.567-1.914,1.566-2.854
					C128.164,70.712,125.674,72.839,125.674,72.839z M127.928,73.703c-1.115,0.147-1.115-0.322-1.177-0.691
					c-0.063-0.368,2.17-1.104,2.123-0.924C128.83,72.269,128.145,73.676,127.928,73.703z"/>
			</g>
			<g>
				<path fill-rule="evenodd" clip-rule="evenodd" d="M114.25,72.471c1.898,0.354,4.154,1.34,3.429,3.131
					C117.331,75.725,114.597,73.921,114.25,72.471z"/>
				<path fill-rule="evenodd" clip-rule="evenodd" d="M109.092,64.757c-0.235,0.352,0.349,0.639,0.6,0.626
					c0.108-0.005,0.069-0.626,0.236-0.744c0.442-0.31,2.862-1.703,3.956-2.142c0.949-0.38,1.782-0.847,2.337-1.197
					c1.453-0.918,0.147-2.193-1.053-2.37c-1.887-0.278-3.258,1.954-4.634,2.468c-0.475-0.411-0.74-1.016-1.475-1.185
					c-0.073,1.392,0.789,2.746,1.896,3.356C110.095,64.169,109.329,64.403,109.092,64.757z M111.798,62.978
					c-0.562-1.611,2.089-4.693,3.265-2.567C114.408,61.674,113.026,62.253,111.798,62.978z"/>
				<g>
					<path fill-rule="evenodd" clip-rule="evenodd" d="M106.557,61.84c0.322-1.317-0.637-2.264-1.963-2.602
						c-0.46,0.832,0.512,1.549,0.473,2.481C105.06,61.902,106.347,62.709,106.557,61.84z"/>
					<path fill-rule="evenodd" clip-rule="evenodd" d="M105.464,72.414c1.208-0.669,1.335-1.587,2.515-2.28
						c-1.587,1.546-1.078,3.697-2.665,4.98c-1.819-1.57-1.908-5.607-0.903-8.662c0.31-0.938,1.332-0.163,1.332-0.163
						C105.373,68.336,104.656,70.232,105.464,72.414z"/>
				</g>
				<g>
					<g>
						<path fill-rule="evenodd" clip-rule="evenodd" d="M117.021,64.529c-1.685-0.042-6.366,1.353-6.366,1.353
							c-0.604,0.26-0.991,1.44-1.146,2.136c-0.153,0.693,0.303,0.825,0.754,0.839c0.466,0.014,5.767-1.112,6.905-1.354
							c0.424-0.091,1.237-1.368,1.197-1.803S117.267,64.535,117.021,64.529z M115.608,66.487c-0.527,0.24-4.44,1.253-4.426,0.937
							c0.014-0.318,0.271-1.034,0.473-1.113c0,0,2.438-0.514,3.038-0.658C115.555,65.447,116.137,66.246,115.608,66.487z"/>
					</g>
				</g>
				<path fill-rule="evenodd" clip-rule="evenodd" d="M109.049,69.917c0,0,9.12-2.597,8.559,0.1c-0.02,0.096-0.79-0.209-1.516-0.224
					c-0.724-0.017-6.572,1.156-6.706,1.117C108.868,70.758,108.577,69.919,109.049,69.917z"/>
				<path fill-rule="evenodd" clip-rule="evenodd" d="M108.645,71.947c0,0,9.38-2.555,9.236-0.185
					c-0.027,0.43-1.375-0.398-2.549-0.196c-1.172,0.202-4.619,1.392-5.395,1.37C109.161,72.912,108.267,72.398,108.645,71.947z"/>
				<path fill-rule="evenodd" clip-rule="evenodd" d="M112.729,64.142c0,0,0.306,3.709-0.028,5.512
					c-0.44,2.379-3.452,5.505-4.108,5.779c-0.655,0.275,1.402,0.007,2.743-0.871c2.953-1.933,3.12-7.703,3.022-10.824
					C114.342,63.235,112.572,64.061,112.729,64.142z"/>
				<path fill-rule="evenodd" clip-rule="evenodd" d="M109.873,64.821c0,0,2.399-1.037,3.039-1.227
					c0.575-0.169,3.216-1.149,4.304-0.862c0.646,0.17,1.521,0.871,1.428,1.116c-0.094,0.242-0.407,0.023-1.328,0.01
					c-2.776-0.039-7.505,1.795-7.713,1.49C109.062,64.56,109.427,65.134,109.873,64.821z"/>
			</g>
			<g>
				<path fill-rule="evenodd" clip-rule="evenodd" d="M149.063,65.56c-0.248,0.74-1.489,0.488-2.225,0.741
					c-0.057-0.438,0.249-1.238-0.495-0.988C146.976,64.694,148.619,65.168,149.063,65.56z"/>
				<path fill-rule="evenodd" clip-rule="evenodd" d="M147.59,71.094l0.124-0.37c0,0,0.788-2.709,0.788-2.742
					c0.001-0.32-0.416-0.348-0.813-0.265c-0.379,0.078-0.961-0.076-0.826,0.05c0.141,1.787-0.611,3.077-0.921,4.411
					c0.154,0.342,0.813,0.688,0.992,0.494c1.102-0.298,1.507-1.294,1.978-2.226L147.59,71.094z"/>
				<path fill-rule="evenodd" clip-rule="evenodd" d="M153.636,72.581c1.572,0.006,3.336,0.068,3.43-0.689
					c0.313-0.619-2.658-0.287-2.969-0.493c-0.262-1.212,0.156-0.969,1.606-1.255c0.462-0.09,0.388-0.433,0.25-0.569
					c-0.167-0.167-0.31-0.439-0.69-0.31c-0.015,0.006-0.705,0.234-1.069,0.119c-0.133-0.042-0.069-0.36-0.097-0.461
					c-0.153-0.561,1.729-0.35,1.761-0.479c0.036-0.143,0.023-0.771-0.486-0.855c-0.014-0.002-0.032-0.001-0.045-0.002
					c-1.584,0.239-1.339,0.192-1.477-0.644c0.616-0.62,2.168-0.306,2.227-1.484c-0.004-0.509-2.056,0.104-2.767,0.473
					c-0.096,0.041-0.188,0.095-0.28,0.16c-0.228,0.134-0.446,0.278-0.659,0.427c-0.38,0.194-0.756,0.307-0.985,0.367
					c0.171-2.367,3.537-2.587,3.207-4.643c-1.26-0.422-2.286,0.667-2.722,0.247c0.097-0.353,0.298-0.417,0-0.74
					c1.006-0.48,2.97,0,2.97-1.486c-2.087-1.902-5.058,0.357-7.388,0.705c-0.047-0.002-0.802-0.016-1.241-0.055
					c-0.453-0.041-0.385,0.535-0.152,0.686c0.234,0.15,0.508,0.192,1.537,0.303c0.253,0.026,0.458,0.018,0.623-0.01
					c0.788,0.052,1.627,0.052,2.168,0.351c-0.867,1.052-1.453,3.462,0.247,3.216c-0.391,1.156-0.646,2.445-1.144,3.493
					c-0.221,0.416-0.547,0.975-0.751,1.085c-0.333,0.179,0.392,0.244,1.153-0.124c0.175,1.515-0.244,2.434-0.246,3.77
					c-1.829,0.19-3.484,0.379-3.64,0.383c-0.347,0.013-0.535-0.748-0.535-0.748l-0.005-0.009c0.474-2.71,0.274-6.095,0.467-9.085
					c-0.393-0.285-1.324-1.294-1.98-0.496c1.37,2.833-0.78,7.175-0.247,11.134c0.073,0.183,0.173,0.289,0.309,0.343l-0.005,0.002
					c0.03,0.011,0.067,0.015,0.1,0.023c0.011,0.002,0.02,0.006,0.029,0.007c3.079,0.804,9.138-0.704,12.927-0.622
					c0.142-2.236-2.988-1.417-4.726-1.195c-0.161,0.013-0.324,0.028-0.489,0.043c-0.389,0.017-0.64-0.039-0.64-0.251
					c-0.026-0.075-0.05-0.42-0.068-0.528C151.473,72.709,152.489,72.576,153.636,72.581z M151.311,67.736
					c0.023-0.015,0.034-0.044,0.064-0.051l-0.007-0.023l0.354-0.096l0.89-0.322c0.108,0.044,0.097,0.536,0.072,0.82
					c-0.06,0.123-1.471,0.316-1.509,0.309C151.177,67.895,151.241,67.887,151.311,67.736z M151.128,69.995
					c0.011-0.248,0.021-0.476,0.027-0.683c0.461,0.015,1.551-0.108,1.707-0.127c0.031,0.105,0.041,0.188,0.048,0.271
					c0.001,0.039,0.013,0.208,0.012,0.248c-0.038,0.474-1.562,0.635-1.794,0.616V69.995z M151.089,72.108
					c-0.007-0.191,0.063-0.871,0.052-1.073c0.354-0.042,0.818-0.079,1.287-0.091c0.342,0.225,0.506,0.717,0.277,1.069
					C152.197,72.091,151.524,72.107,151.089,72.108z"/>
			</g>
		</g>
	</g>
	<g>
		<g>
			<path fill="#595757" d="M161.143,83.293c0,1.351-1.099,2.449-2.448,2.449c-1.351,0-2.449-1.099-2.449-2.449
				c0-1.35,1.099-2.448,2.449-2.448C160.044,80.845,161.143,81.943,161.143,83.293z M158.695,80.429
				c-1.58,0-2.866,1.285-2.866,2.864c0,1.58,1.286,2.865,2.866,2.865c1.579,0,2.865-1.285,2.865-2.865
				C161.56,81.714,160.274,80.429,158.695,80.429z"/>
		</g>
		<g>
			<path fill="#595757" d="M157.417,84.968v-3.35h1.487c0.3,0,0.526,0.031,0.682,0.091c0.155,0.061,0.279,0.167,0.373,0.319
				c0.093,0.153,0.139,0.321,0.139,0.506c0,0.237-0.077,0.438-0.231,0.602c-0.153,0.163-0.391,0.267-0.712,0.311
				c0.116,0.057,0.205,0.112,0.268,0.167c0.129,0.118,0.251,0.267,0.366,0.444l0.58,0.91h-0.555l-0.442-0.695
				c-0.13-0.201-0.236-0.354-0.319-0.461c-0.085-0.106-0.159-0.182-0.227-0.224c-0.065-0.043-0.133-0.072-0.202-0.089
				c-0.05-0.011-0.132-0.017-0.247-0.017h-0.514v1.485H157.417z M157.862,83.1h0.953c0.202,0,0.361-0.021,0.477-0.063
				c0.115-0.043,0.202-0.11,0.262-0.202c0.061-0.093,0.09-0.193,0.09-0.303c0-0.158-0.058-0.289-0.173-0.393
				c-0.116-0.103-0.299-0.153-0.548-0.153h-1.061V83.1z"/>
		</g>
	</g>
</g>
</svg>
