<?xml version="1.0" encoding="utf-8"?>
<!-- Generator: Adobe Illustrator 16.0.0, SVG Export Plug-In . SVG Version: 6.00 Build 0)  -->
<!DOCTYPE svg PUBLIC "-//W3C//DTD SVG 1.1//EN" "http://www.w3.org/Graphics/SVG/1.1/DTD/svg11.dtd">
<svg version="1.1" id="圖層_1" xmlns="http://www.w3.org/2000/svg" xmlns:xlink="http://www.w3.org/1999/xlink" x="0px" y="0px"
	 width="203.91px" height="86.156px" viewBox="0 0 203.91 86.156" enable-background="new 0 0 203.91 86.156" xml:space="preserve">
<g>
	<g>
		<polygon fill="#FFFFFF" points="0.164,17.767 6.402,16.591 37.461,4.806 44.406,5.073 44.579,8.919 51.375,10.155 51.511,13.229 
			58.416,15.291 6.397,26.188 		"/>
		<g>
			<path fill="#509D53" d="M58.416,80.216c0,3.28-2.638,5.94-5.891,5.94H5.89c-3.253,0-5.89-2.66-5.89-5.94V25.927
				c0-3.281,2.637-0.99,5.89-0.99h46.634c3.253,0,5.891-2.291,5.891,0.99V80.216z"/>
			<g>
				<path fill="#FFFFFF" d="M10.787,81.704l0.549-0.047c0.026,0.222,0.086,0.403,0.181,0.546c0.096,0.142,0.243,0.256,0.443,0.344
					s0.424,0.131,0.675,0.131c0.222,0,0.417-0.033,0.588-0.1c0.169-0.066,0.296-0.156,0.379-0.273
					c0.083-0.115,0.125-0.241,0.125-0.378c0-0.138-0.041-0.258-0.122-0.361s-0.213-0.191-0.397-0.26
					c-0.118-0.047-0.379-0.118-0.783-0.215c-0.403-0.099-0.686-0.19-0.849-0.278c-0.21-0.109-0.368-0.248-0.471-0.412
					c-0.104-0.165-0.155-0.35-0.155-0.553c0-0.225,0.063-0.433,0.189-0.628c0.125-0.193,0.311-0.343,0.553-0.443
					c0.243-0.101,0.513-0.151,0.81-0.151c0.327,0,0.616,0.054,0.865,0.159s0.442,0.261,0.576,0.466
					c0.134,0.206,0.206,0.438,0.217,0.697l-0.565,0.04c-0.03-0.276-0.131-0.484-0.304-0.625c-0.173-0.141-0.429-0.212-0.766-0.212
					c-0.352,0-0.608,0.065-0.77,0.195c-0.16,0.129-0.241,0.286-0.241,0.469c0,0.158,0.057,0.288,0.17,0.392
					c0.112,0.103,0.404,0.207,0.877,0.314c0.472,0.106,0.797,0.201,0.974,0.282c0.258,0.118,0.448,0.268,0.57,0.449
					c0.123,0.183,0.185,0.392,0.185,0.63c0,0.234-0.068,0.456-0.201,0.663c-0.134,0.209-0.327,0.371-0.578,0.486
					s-0.534,0.173-0.848,0.173c-0.398,0-0.733-0.059-1.002-0.176c-0.27-0.116-0.48-0.292-0.633-0.526
					C10.875,82.267,10.794,82.001,10.787,81.704z"/>
				<path fill="#FFFFFF" d="M15.034,83.127v-3.21h0.487v0.454c0.101-0.158,0.234-0.284,0.4-0.38s0.357-0.144,0.569-0.144
					c0.237,0,0.431,0.049,0.582,0.147c0.152,0.1,0.259,0.237,0.321,0.414c0.254-0.374,0.585-0.562,0.993-0.562
					c0.319,0,0.564,0.088,0.736,0.265c0.171,0.175,0.257,0.447,0.257,0.813v2.201H18.84v-2.02c0-0.218-0.018-0.374-0.053-0.47
					c-0.035-0.096-0.1-0.173-0.192-0.231c-0.093-0.058-0.202-0.087-0.327-0.087c-0.227,0-0.415,0.075-0.564,0.224
					c-0.149,0.151-0.224,0.391-0.224,0.722v1.862h-0.542v-2.083c0-0.241-0.044-0.422-0.132-0.543
					c-0.089-0.121-0.234-0.182-0.435-0.182c-0.153,0-0.294,0.04-0.424,0.12c-0.13,0.081-0.224,0.198-0.282,0.354
					s-0.087,0.378-0.087,0.671v1.663H15.034z"/>
				<path fill="#FFFFFF" d="M22.281,82.725c-0.196,0.173-0.387,0.295-0.575,0.366c-0.188,0.07-0.389,0.106-0.604,0.106
					c-0.355,0-0.628-0.086-0.818-0.258c-0.19-0.173-0.286-0.392-0.286-0.659c0-0.157,0.036-0.301,0.108-0.43
					c0.072-0.13,0.166-0.233,0.283-0.312c0.117-0.078,0.248-0.138,0.394-0.178c0.108-0.028,0.27-0.056,0.487-0.082
					c0.442-0.052,0.768-0.114,0.977-0.187c0.002-0.074,0.003-0.122,0.003-0.142c0-0.224-0.052-0.38-0.155-0.47
					c-0.141-0.124-0.348-0.185-0.625-0.185c-0.258,0-0.449,0.045-0.571,0.134c-0.123,0.09-0.214,0.248-0.273,0.477l-0.534-0.069
					c0.049-0.229,0.128-0.413,0.239-0.554c0.111-0.139,0.271-0.248,0.48-0.323c0.209-0.076,0.453-0.113,0.729-0.113
					c0.275,0,0.498,0.032,0.669,0.097c0.172,0.064,0.297,0.146,0.378,0.243c0.081,0.099,0.137,0.222,0.17,0.37
					c0.018,0.094,0.027,0.261,0.027,0.501v0.724c0,0.504,0.011,0.824,0.033,0.958c0.021,0.135,0.064,0.263,0.129,0.387h-0.557
					C22.333,83.013,22.297,82.879,22.281,82.725z M22.234,81.518c-0.198,0.081-0.494,0.149-0.889,0.206
					c-0.225,0.032-0.383,0.067-0.476,0.107s-0.164,0.1-0.214,0.177s-0.076,0.163-0.076,0.258c0,0.145,0.055,0.266,0.167,0.36
					c0.11,0.098,0.272,0.146,0.486,0.146c0.211,0,0.399-0.046,0.563-0.137c0.165-0.092,0.286-0.217,0.363-0.376
					c0.059-0.122,0.088-0.303,0.088-0.542L22.234,81.518z"/>
				<path fill="#FFFFFF" d="M23.616,83.127v-3.21h0.487v0.492c0.125-0.229,0.24-0.38,0.346-0.452
					c0.105-0.073,0.222-0.109,0.349-0.109c0.183,0,0.369,0.058,0.559,0.173l-0.194,0.502c-0.132-0.073-0.264-0.11-0.396-0.11
					c-0.118,0-0.224,0.036-0.318,0.107c-0.094,0.07-0.161,0.17-0.201,0.296c-0.061,0.194-0.091,0.405-0.091,0.635v1.677H23.616z"/>
				<path fill="#FFFFFF" d="M26.874,82.636l0.07,0.479c-0.154,0.031-0.291,0.049-0.412,0.049c-0.197,0-0.351-0.032-0.459-0.095
					c-0.109-0.061-0.186-0.143-0.23-0.245c-0.044-0.101-0.067-0.314-0.067-0.642v-1.842h-0.402v-0.426h0.402v-0.793l0.542-0.327
					v1.12h0.557v0.426h-0.557v1.87c0,0.154,0.009,0.254,0.029,0.297c0.02,0.046,0.051,0.08,0.096,0.106
					c0.043,0.025,0.107,0.039,0.189,0.039C26.692,82.653,26.773,82.647,26.874,82.636z"/>
				<path fill="#FFFFFF" d="M29.195,83.127v-4.425h1.962c0.394,0,0.693,0.04,0.898,0.119c0.205,0.08,0.369,0.221,0.491,0.421
					c0.123,0.202,0.184,0.425,0.184,0.668c0,0.314-0.102,0.58-0.304,0.795c-0.203,0.216-0.517,0.353-0.94,0.41
					c0.155,0.075,0.272,0.147,0.353,0.221c0.171,0.156,0.333,0.352,0.484,0.588l0.765,1.203h-0.731l-0.585-0.919
					c-0.17-0.266-0.312-0.469-0.421-0.609c-0.111-0.141-0.21-0.24-0.297-0.297c-0.087-0.056-0.176-0.096-0.267-0.118
					c-0.066-0.014-0.175-0.021-0.325-0.021h-0.678v1.965H29.195z M29.783,80.652h1.257c0.267,0,0.476-0.028,0.627-0.084
					c0.15-0.054,0.265-0.144,0.343-0.266c0.079-0.12,0.117-0.253,0.117-0.396c0-0.208-0.076-0.381-0.227-0.515
					c-0.152-0.136-0.391-0.203-0.719-0.203h-1.398V80.652z"/>
				<path fill="#FFFFFF" d="M35.774,82.09l0.561,0.07c-0.089,0.328-0.253,0.583-0.492,0.765c-0.24,0.181-0.545,0.272-0.918,0.272
					c-0.469,0-0.841-0.145-1.115-0.435c-0.275-0.288-0.413-0.692-0.413-1.213c0-0.539,0.14-0.957,0.417-1.256
					c0.277-0.298,0.638-0.446,1.081-0.446c0.429,0,0.779,0.145,1.051,0.437c0.271,0.291,0.407,0.701,0.407,1.229
					c0,0.033-0.001,0.081-0.003,0.145h-2.395c0.021,0.354,0.121,0.623,0.3,0.81c0.18,0.188,0.404,0.281,0.672,0.281
					c0.2,0,0.371-0.053,0.512-0.156C35.579,82.487,35.691,82.319,35.774,82.09z M33.985,81.209h1.794
					c-0.024-0.268-0.093-0.468-0.206-0.602c-0.173-0.207-0.399-0.311-0.675-0.311c-0.25,0-0.461,0.082-0.631,0.248
					C34.098,80.709,34.003,80.931,33.985,81.209z"/>
				<path fill="#FFFFFF" d="M39.119,82.725c-0.196,0.173-0.387,0.295-0.575,0.366c-0.188,0.07-0.389,0.106-0.604,0.106
					c-0.355,0-0.627-0.086-0.818-0.258c-0.19-0.173-0.286-0.392-0.286-0.659c0-0.157,0.036-0.301,0.108-0.43
					c0.072-0.13,0.167-0.233,0.283-0.312c0.117-0.078,0.248-0.138,0.394-0.178c0.107-0.028,0.27-0.056,0.487-0.082
					c0.442-0.052,0.768-0.114,0.977-0.187c0.001-0.074,0.002-0.122,0.002-0.142c0-0.224-0.052-0.38-0.156-0.47
					c-0.14-0.124-0.348-0.185-0.625-0.185c-0.258,0-0.448,0.045-0.571,0.134c-0.123,0.09-0.214,0.248-0.273,0.477l-0.533-0.069
					c0.048-0.229,0.127-0.413,0.238-0.554c0.111-0.139,0.271-0.248,0.48-0.323c0.21-0.076,0.453-0.113,0.729-0.113
					c0.274,0,0.497,0.032,0.668,0.097s0.297,0.146,0.378,0.243c0.081,0.099,0.137,0.222,0.169,0.37
					c0.018,0.094,0.027,0.261,0.027,0.501v0.724c0,0.504,0.01,0.824,0.033,0.958c0.021,0.135,0.064,0.263,0.129,0.387h-0.557
					C39.171,83.013,39.134,82.879,39.119,82.725z M39.072,81.518c-0.198,0.081-0.495,0.149-0.89,0.206
					c-0.224,0.032-0.382,0.067-0.476,0.107c-0.093,0.04-0.164,0.1-0.214,0.177s-0.076,0.163-0.076,0.258
					c0,0.145,0.055,0.266,0.167,0.36c0.11,0.098,0.273,0.146,0.486,0.146c0.211,0,0.399-0.046,0.563-0.137
					c0.165-0.092,0.286-0.217,0.363-0.376c0.059-0.122,0.089-0.303,0.089-0.542L39.072,81.518z"/>
				<path fill="#FFFFFF" d="M42.533,83.127v-0.409c-0.203,0.318-0.501,0.479-0.895,0.479c-0.255,0-0.49-0.071-0.705-0.213
					c-0.214-0.139-0.38-0.337-0.498-0.589s-0.177-0.543-0.177-0.871c0-0.318,0.053-0.609,0.16-0.869
					c0.106-0.261,0.266-0.461,0.479-0.599c0.213-0.14,0.451-0.209,0.713-0.209c0.194,0,0.365,0.04,0.516,0.121
					c0.151,0.082,0.273,0.188,0.367,0.318v-1.585h0.542v4.425H42.533z M40.816,81.523c0,0.41,0.087,0.717,0.261,0.92
					c0.173,0.203,0.378,0.305,0.615,0.305c0.238,0,0.44-0.097,0.607-0.292c0.167-0.193,0.25-0.489,0.25-0.888
					c0-0.438-0.084-0.76-0.254-0.965c-0.17-0.205-0.379-0.307-0.627-0.307c-0.243,0-0.445,0.098-0.607,0.296
					C40.897,80.789,40.816,81.1,40.816,81.523z"/>
				<path fill="#FFFFFF" d="M43.9,79.32v-0.618h0.541v0.618H43.9z M43.9,83.127v-3.21h0.541v3.21H43.9z"/>
				<path fill="#FFFFFF" d="M45.273,83.127v-3.21h0.488v0.455c0.235-0.349,0.574-0.524,1.018-0.524c0.193,0,0.37,0.034,0.531,0.104
					c0.162,0.069,0.284,0.161,0.364,0.273c0.081,0.113,0.137,0.247,0.168,0.402c0.021,0.1,0.03,0.276,0.03,0.528v1.972h-0.542v-1.95
					c0-0.222-0.021-0.387-0.063-0.496c-0.043-0.11-0.117-0.198-0.225-0.264c-0.108-0.064-0.234-0.098-0.378-0.098
					c-0.231,0-0.431,0.073-0.598,0.22c-0.168,0.147-0.252,0.427-0.252,0.837v1.751H45.273z"/>
				<path fill="#FFFFFF" d="M48.611,83.39l0.526,0.07c0.022,0.166,0.084,0.288,0.186,0.364c0.135,0.104,0.321,0.153,0.556,0.153
					c0.253,0,0.449-0.05,0.587-0.149c0.137-0.102,0.231-0.242,0.279-0.423c0.028-0.109,0.042-0.342,0.04-0.695
					c-0.239,0.277-0.536,0.417-0.891,0.417c-0.442,0-0.785-0.159-1.027-0.477c-0.243-0.318-0.364-0.7-0.364-1.145
					c0-0.307,0.056-0.59,0.167-0.849c0.111-0.257,0.272-0.458,0.484-0.599c0.211-0.141,0.459-0.211,0.744-0.211
					c0.381,0,0.694,0.154,0.941,0.464v-0.395h0.487v2.773c0,0.499-0.051,0.852-0.152,1.062c-0.102,0.207-0.262,0.372-0.483,0.494
					c-0.22,0.121-0.491,0.181-0.813,0.181c-0.382,0-0.69-0.087-0.926-0.258C48.717,83.996,48.603,83.736,48.611,83.39z
					 M49.06,81.466c0,0.421,0.084,0.729,0.252,0.923c0.167,0.192,0.378,0.289,0.631,0.289c0.251,0,0.462-0.095,0.632-0.288
					c0.17-0.192,0.255-0.495,0.255-0.905c0-0.393-0.088-0.69-0.263-0.89c-0.175-0.198-0.386-0.298-0.633-0.298
					c-0.243,0-0.45,0.098-0.62,0.294C49.145,80.788,49.06,81.08,49.06,81.466z"/>
			</g>
			<path fill="#509D53" d="M0.164,17.767l4.621,4.95c0,0,25.577-6.765,53.63-7.426l0,0v14.521H0L0.164,17.767z"/>
			<path fill="#008360" d="M6.402,16.591L37.461,4.806l-0.213-4.805C37.248,0.001,18.104,11.255,6.402,16.591z"/>
			<path fill="#509D53" d="M10.105,17.582c0,0,31.791-8.352,34.474-8.663l-0.172-3.846C44.406,5.073,15.603,15.604,10.105,17.582z"
				/>
			<path fill="#B2CF58" d="M12.682,19.2c0,0,33.422-6.306,38.83-5.971l-0.137-3.074C51.375,10.155,16.272,17.692,12.682,19.2z"/>
			<g>
				<path fill="#DFC44A" d="M6.365,36.026c-0.227-1.037,0.654-1.955,0.681-2.214c0.092-0.899,0.75-1.655,1.485-2.225
					c1.317-1.021,2.605-2.09,3.879-3.149c0.866-0.725,1.675-1.796,2.753-1.945c0.241-0.033,0.593-0.016,0.818-0.104
					c0.439-0.177,0.785-0.746,1.166-1.028c0.5-0.374,0.841-0.412,1.424-0.523c0.979-0.188,2.063-0.467,3.008-0.801
					c1.029-0.365,2.031-0.658,3.115-0.917c1.156-0.275,2.32-0.194,3.481-0.216c1.55-0.027,3.069-0.224,4.615-0.201
					c0.74,0.011,1.465,0.033,2.193,0.174c1.248,0.241,2.33,1.06,3.624,1.306c0.724,0.138,1.463,0.247,2.192,0.4
					c0.429,0.087,0.896,0.103,1.274,0.352c0.462,0.306,0.888,0.661,1.362,0.982c1.159,0.792,1.996,1.974,3.092,2.882
					c0.705,0.584,1.689,0.959,2.355,1.502c0.447,0.362,0.814,0.75,1.358,1.033c0.554,0.285,1.302,0.396,1.766,0.861
					c0.449,0.449,0.78,1.184,1.129,1.714c0.251,0.38,0.511,0.69,0.717,1.075c0.205,0.381,0.31,0.771,0.488,1.16
					c0.313,0.686,0.582,0.961,0.203,1.487c-0.332,0.462-0.143,0.497,0.255,1.143c0.282,0.456,0.25,0.831,0.417,1.33
					c0.25,0.747,0.775,1.446,1.003,2.173c0.228,0.729,0.26,1.589,0.387,2.336c0.202,1.182,0.64,2.428,0.688,3.592
					c0.011,0.258,0.076,0.68-0.007,0.9c-0.123,0.33-0.511,0.521-0.669,0.856c-0.31,0.661-0.624,1.679-1.213,2.136
					c-0.328,0.257-0.44,0.037-0.944,0.033c-0.427-0.005-0.671,0.146-0.77,0.582c-0.163,0.717,0.053,1.611-0.008,2.364
					c-0.075,0.993-0.679,1.969-1.427,2.514c-0.393,0.287-0.907,0.295-1.261,0.615c-0.423,0.382-0.702,0.91-1.203,1.219
					c-0.603,0.367-1.314,0.653-2.008,0.936c-0.464,0.188-0.929,0.479-1.468,0.516c-0.407,0.023-0.84-0.1-1.255-0.089
					c-1.237,0.033-2.151,0.566-3.486,0.256c-0.404-0.095-0.885-0.324-1.208-0.586c-0.704-0.574-0.506-1.101-0.672-1.83
					c-0.22-0.967-0.819-2.116-1.379-2.896c-0.943-1.31,0.222-2.408,0.312-3.685c0.107-1.497-1.272-2.308-2.021-3.464
					c-0.271-0.42-0.629-1.157-0.635-1.657c-0.003-0.425,0.434-0.577,0.402-0.999c-0.069-0.924-1.385-0.601-1.923-0.854
					c-0.306-0.146-0.513-0.645-0.741-0.912c-0.327-0.379-0.718-0.746-1.117-1.049c-0.471-0.355-0.999-0.511-1.53-0.764
					c-0.333-0.158-0.677-0.301-1.069-0.21c-0.538,0.125-1.176,0.82-1.642,1.146c-0.612,0.427-1.2,0.896-1.784,1.366
					c-0.385,0.31-0.757,0.716-1.001,1.143c-0.211,0.366-0.269,0.89-0.619,1.165c-1.137,0.895-0.678-0.874-0.85-1.34
					c-0.14-0.371-0.501-0.175-0.838-0.473c-0.333-0.293-0.373-0.926-0.689-1.203c-0.038-0.064-0.078-0.127-0.119-0.191
					c-0.461,0.094-0.815,0.996-1.066,1.375c-0.244,0.368-0.562,0.811-0.933,1.082c-0.346,0.252-0.739,0.342-1.116,0.564
					c-0.436,0.259-0.511,0.514-0.789,0.96c-0.457,0.735-0.989,0.273-1.634,0.682c-0.314,0.199-0.354,0.483-0.729,0.618
					c-0.428,0.152-0.866-0.09-1.25-0.188c-0.804-0.205-1.603-0.098-2.477,0.075c-1.163,0.231-1.883,0.249-2.974-0.042
					c-0.801-0.21-1.588-0.174-2.451-0.227c-1.304-0.08-1.749-1.453-1.746-2.658c0.002-0.723,0.003-1.435-0.056-2.141
					c-0.048-0.59-0.25-1.15-0.258-1.74c0.001,0.003-0.404-0.97,0.944-2.162c1.351-1.184,0.363-0.168-0.089-0.867
					C5.582,38.695,6.622,37.188,6.365,36.026z"/>
				<path fill="#129B3B" d="M30.166,22.434l-1.997,0.101l-0.775,0.003c-0.908-0.001-1.846-0.003-2.786,0.221
					c-1.113,0.265-2.115,0.561-3.153,0.929c-0.877,0.311-1.927,0.589-2.954,0.786l-0.141,0.026c-0.508,0.095-0.909,0.17-1.436,0.563
					l-0.494,0.475c-0.196,0.212-0.399,0.433-0.587,0.508c0.003-0.001-0.432,0.056-0.432,0.056l-0.297,0.025
					c-0.923,0.127-1.626,0.797-2.305,1.445l-0.637,0.582l-3.869,3.142c-0.99,0.767-1.537,1.602-1.627,2.479
					c0.007-0.035-0.13,0.208-0.13,0.208c-0.23,0.385-0.591,0.985-0.591,1.69c0,0.141,0.014,0.285,0.047,0.433v0.001
					c0.022,0.102,0.033,0.209,0.033,0.32c0,0.492-0.198,1.053-0.363,1.52c-0.138,0.391-0.25,0.709-0.25,0.973
					c0,0.136,0.029,0.257,0.1,0.365c0.078,0.119,0.18,0.199,0.288,0.27c-0.057,0.049-0.132,0.114-0.132,0.114
					c-0.924,0.817-1.125,1.562-1.125,2.053c0,0.19,0.029,0.338,0.059,0.44c0.012,0.082,0.135,0.988,0.135,0.988l0.119,0.73
					c0,0.002,0.055,2.119,0.055,2.124c0,1.755,0.821,2.937,2.095,3.016l0.676,0.03c0.593,0.021,1.152,0.042,1.703,0.186
					c1.093,0.291,1.856,0.303,3.141,0.046c0.913-0.179,1.619-0.255,2.313-0.079l0.261,0.082c0.339,0.112,0.76,0.254,1.206,0.096
					c0.309-0.111,0.463-0.297,0.587-0.445l0.214-0.209c0.19-0.121,0.372-0.135,0.581-0.15c0.34-0.025,0.805-0.06,1.17-0.648
					l0.153-0.258c0.163-0.281,0.245-0.422,0.51-0.58l0.45-0.215l0.695-0.368c0.42-0.307,0.768-0.79,1.024-1.178l0.224-0.388
					c0.092-0.17,0.272-0.496,0.432-0.684c0.078,0.088,0.146,0.246,0.21,0.408c0.102,0.258,0.218,0.55,0.453,0.758
					c0.223,0.195,0.456,0.248,0.611,0.281l0.128,0.034c0.017,0.059,0.02,0.212,0.02,0.354c0,0.049-0.002,0.238-0.002,0.288
					c0,0.466,0.033,0.95,0.411,1.136c0.361,0.178,0.741-0.068,0.996-0.27c0.308-0.242,0.437-0.59,0.551-0.896l0.16-0.375
					c0.208-0.361,0.54-0.739,0.912-1.037c0.001,0,1.764-1.352,1.764-1.352l0.51-0.41c0.322-0.273,0.722-0.613,1.003-0.678
					c0.272-0.063,0.526,0.039,0.827,0.184l0.488,0.215c0.351,0.147,0.683,0.287,0.977,0.51c0.378,0.287,0.754,0.64,1.059,0.994
					l0.198,0.288c0.172,0.271,0.367,0.576,0.666,0.717c0.233,0.11,0.519,0.134,0.82,0.161c0.697,0.06,0.872,0.135,0.891,0.385
					c0,0.006,0,0.01,0,0.015c0,0.066-0.036,0.122-0.127,0.247c-0.117,0.16-0.276,0.379-0.276,0.706c0,0.002,0,0.004,0,0.007
					c0.007,0.627,0.44,1.461,0.694,1.855c0,0,0.849,1.051,0.849,1.051c0.598,0.666,1.119,1.246,1.119,2.051
					c0,0.045-0.001,0.09-0.005,0.135c-0.027,0.384-0.17,0.762-0.32,1.162c-0.174,0.458-0.359,0.951-0.359,1.478
					c0,0.41,0.114,0.84,0.437,1.289c0.466,0.648,1.091,1.763,1.318,2.76l0.074,0.521c0.048,0.493,0.097,1.003,0.726,1.517
					c0.361,0.292,0.894,0.552,1.358,0.659c0.909,0.212,1.636,0.066,2.339-0.074c0.414-0.083,0.806-0.161,1.241-0.173l0.545,0.044
					l0.722,0.045c0.467-0.032,0.873-0.219,1.23-0.384l0.354-0.156c0.001-0.002,0.083-0.035,0.083-0.035
					c0.676-0.275,1.375-0.56,1.98-0.929c0.355-0.22,0.6-0.514,0.837-0.798l0.421-0.464c0.133-0.119,0.319-0.185,0.534-0.26
					l0.696-0.329c0.879-0.641,1.499-1.734,1.579-2.787c0,0-0.021-1.058-0.021-1.058c-0.031-0.458-0.061-0.891,0.021-1.252
					c0.053-0.229,0.112-0.296,0.404-0.293c0,0,0.347,0.047,0.347,0.047c0.215,0.051,0.482,0.112,0.83-0.159
					c0.535-0.414,0.844-1.151,1.116-1.8l0.205-0.471l0.256-0.307c0.156-0.154,0.333-0.328,0.425-0.578
					c0.05-0.131,0.065-0.285,0.065-0.444c0-0.136-0.011-0.274-0.021-0.405l-0.014-0.195c-0.032-0.765-0.222-1.555-0.406-2.32
					l-0.288-1.318c0-0.001-0.105-0.77-0.105-0.77c-0.065-0.541-0.132-1.1-0.293-1.614c-0.126-0.404-0.333-0.79-0.531-1.163
					l-0.475-1.018l-0.117-0.467c-0.061-0.293-0.124-0.597-0.336-0.94l-0.223-0.34c0,0-0.146-0.235-0.147-0.239
					c0.011,0,0.101-0.15,0.101-0.15c0.186-0.26,0.255-0.488,0.255-0.703c0-0.299-0.134-0.569-0.273-0.85l-0.148-0.307l-0.187-0.462
					l-0.312-0.72l-0.473-0.729l-0.261-0.374l-0.329-0.547c-0.251-0.438-0.511-0.889-0.848-1.225
					c-0.361-0.361-0.845-0.537-1.272-0.691l-0.586-0.238c-0.357-0.186-0.638-0.43-0.936-0.688l-0.359-0.304
					c-0.348-0.284-0.772-0.522-1.182-0.752c-0.41-0.23-0.834-0.469-1.17-0.747c-0.454-0.376-0.875-0.814-1.282-1.238
					c-0.563-0.584-1.144-1.189-1.837-1.665c-0.001,0-0.641-0.464-0.641-0.464l-0.726-0.521c-0.354-0.233-0.753-0.297-1.104-0.353
					l-0.3-0.054l-1.311-0.242l-0.886-0.158c-0.611-0.117-1.172-0.369-1.766-0.638c-0.589-0.266-1.198-0.54-1.858-0.668
					c-0.768-0.147-1.536-0.171-2.258-0.181C31.91,22.318,31.023,22.377,30.166,22.434z M28.183,23.276l2.032-0.102
					c0.843-0.056,1.714-0.113,2.571-0.102c0.688,0.01,1.42,0.031,2.128,0.168c0.574,0.111,1.117,0.355,1.692,0.615
					c0.607,0.274,1.235,0.557,1.932,0.689l0.898,0.161l1.286,0.239c0.002,0,0.334,0.059,0.334,0.059
					c0.305,0.049,0.592,0.094,0.813,0.24l0.69,0.495l0.668,0.483c0.629,0.431,1.159,0.981,1.72,1.566
					c0.422,0.438,0.857,0.892,1.344,1.295c0.387,0.32,0.841,0.576,1.28,0.822c0.4,0.225,0.778,0.437,1.077,0.681
					c0.001,0.001,0.34,0.288,0.34,0.288c0.317,0.275,0.645,0.561,1.082,0.787c0,0,0.674,0.276,0.674,0.276
					c0.389,0.141,0.756,0.273,1,0.518c0.268,0.268,0.502,0.676,0.729,1.069l0.353,0.586l0.276,0.396l0.423,0.65l0.271,0.631
					l0.206,0.509l0.159,0.329c0.234,0.471,0.258,0.541,0.081,0.786c-0.396,0.552-0.244,0.831,0.037,1.243l0.204,0.312
					c0.144,0.231,0.187,0.438,0.24,0.699l0.14,0.554c0,0,0.523,1.13,0.523,1.13c0.191,0.358,0.373,0.698,0.479,1.036
					c0.141,0.449,0.204,0.975,0.265,1.481l0.11,0.806l0.297,1.367c0.176,0.73,0.357,1.484,0.386,2.178l0.015,0.224
					c0.013,0.153,0.036,0.44,0.002,0.53c-0.036,0.097-0.141,0.2-0.251,0.311l-0.406,0.519l-0.217,0.499
					c-0.237,0.564-0.506,1.205-0.888,1.502c-0.001,0-0.074,0.047-0.074,0.047l-0.132-0.024l-0.506-0.067
					c-0.621-0.007-1.003,0.285-1.136,0.87c-0.106,0.468-0.071,0.977-0.037,1.469l0.021,0.947c-0.063,0.834-0.576,1.735-1.275,2.245
					l-0.504,0.229c-0.254,0.089-0.543,0.189-0.787,0.41l-0.495,0.539c-0.208,0.25-0.404,0.486-0.654,0.64
					c-0.552,0.338-1.223,0.611-1.872,0.875l-0.082,0.033c0.001,0-0.387,0.171-0.387,0.171c-0.328,0.151-0.638,0.295-0.965,0.316
					l-0.583-0.04l-0.658-0.049c-0.5,0.013-0.94,0.103-1.367,0.188c-0.654,0.13-1.272,0.253-2.025,0.078
					c-0.358-0.083-0.783-0.288-1.058-0.512c-0.388-0.316-0.413-0.578-0.455-1.013l-0.089-0.613
					c-0.251-1.105-0.932-2.323-1.439-3.029c-0.503-0.698-0.275-1.304,0.015-2.071c0.163-0.431,0.332-0.879,0.366-1.37
					c0.084-1.191-0.621-1.977-1.303-2.734l-0.777-0.958c-0.275-0.427-0.571-1.083-0.576-1.459c0-0.076,0.039-0.138,0.134-0.269
					c0.124-0.17,0.293-0.403,0.267-0.755c-0.071-0.94-1.008-1.021-1.567-1.069c-0.224-0.02-0.455-0.039-0.568-0.092
					c-0.104-0.05-0.25-0.278-0.356-0.443l-0.261-0.373c-0.343-0.399-0.749-0.781-1.175-1.104c-0.368-0.278-0.759-0.443-1.137-0.603
					l-0.458-0.202c-0.389-0.183-0.81-0.352-1.313-0.236c-0.457,0.107-0.913,0.494-1.316,0.837l-0.455,0.366l-1.804,1.383
					c-0.447,0.357-0.835,0.8-1.09,1.245l-0.212,0.487c-0.088,0.234-0.17,0.458-0.314,0.57c-0.082,0.065-0.132,0.095-0.176,0.119
					c-0.02-0.113-0.029-0.271-0.029-0.418c0-0.047,0.001-0.228,0.001-0.277c0-0.234-0.009-0.438-0.069-0.6
					c-0.149-0.396-0.47-0.466-0.662-0.508c-0.127-0.028-0.204-0.048-0.278-0.113c-0.102-0.09-0.18-0.286-0.254-0.475
					c-0.099-0.25-0.211-0.533-0.435-0.729c0.028,0.024,0.057,0.062,0.076,0.093l-0.111-0.181c-0.082-0.132-0.25-0.22-0.402-0.188
					c-0.516,0.104-0.847,0.712-1.112,1.2l-0.19,0.332c-0.222,0.336-0.518,0.751-0.842,0.987l-0.551,0.285l-0.535,0.26
					c-0.432,0.258-0.59,0.529-0.773,0.846l-0.142,0.238c-0.167,0.269-0.292,0.278-0.595,0.301c-0.256,0.02-0.575,0.043-0.922,0.264
					c0,0-0.388,0.361-0.388,0.361c-0.104,0.123-0.154,0.18-0.268,0.221c-0.203,0.072-0.453-0.012-0.718-0.102l-0.314-0.097
					c-0.92-0.233-1.809-0.093-2.641,0.071c-1.171,0.233-1.826,0.226-2.806-0.035c-0.631-0.166-1.231-0.188-1.867-0.211l-0.657-0.029
					c-1.336-0.082-1.399-1.918-1.398-2.285l-0.058-2.174l-0.13-0.816l-0.126-0.897c-0.004-0.026-0.017-0.106-0.026-0.13
					c-0.011-0.031-0.262-0.771,0.845-1.75l0.421-0.363c0.309-0.266,0.479-0.41,0.355-0.682c-0.055-0.121-0.182-0.254-0.473-0.211
					c-0.191,0.029-0.262,0.01-0.326-0.09c0.006-0.059,0.134-0.422,0.228-0.687c0.233-0.661,0.523-1.484,0.354-2.247l0,0
					c-0.132-0.602,0.222-1.191,0.456-1.582l0.232-0.514c0.085-0.834,0.777-1.53,1.343-1.969l3.889-3.158
					c0-0.001,0.673-0.615,0.673-0.615c0.594-0.566,1.208-1.152,1.894-1.247c0,0,0.239-0.019,0.239-0.019l0.665-0.108
					c0.345-0.139,0.617-0.433,0.857-0.693l0.393-0.382c0.39-0.293,0.652-0.341,1.128-0.43l0.145-0.027
					c1.063-0.204,2.15-0.494,3.063-0.816c1.013-0.359,1.991-0.646,3.077-0.906c0.854-0.203,1.709-0.201,2.613-0.199L28.183,23.276z"
					/>
				<path opacity="0.25" fill="#DFC44A" d="M6.365,36.026c-0.227-1.037,0.654-1.955,0.681-2.214c0.092-0.899,0.75-1.655,1.485-2.225
					c1.317-1.021,2.605-2.09,3.879-3.149c0.866-0.725,1.675-1.796,2.753-1.945c0.241-0.033,0.593-0.016,0.818-0.104
					c0.439-0.177,0.785-0.746,1.166-1.028c0.5-0.374,0.841-0.412,1.424-0.523c0.979-0.188,2.063-0.467,3.008-0.801
					c1.029-0.365,2.031-0.658,3.115-0.917c1.156-0.275,2.32-0.194,3.481-0.216c1.55-0.027,3.069-0.224,4.615-0.201
					c0.74,0.011,1.465,0.033,2.193,0.174c1.248,0.241,2.33,1.06,3.624,1.306c0.724,0.138,1.463,0.247,2.192,0.4
					c0.429,0.087,0.896,0.103,1.274,0.352c0.462,0.306,0.888,0.661,1.362,0.982c1.159,0.792,1.996,1.974,3.092,2.882
					c0.705,0.584,1.689,0.959,2.355,1.502c0.447,0.362,0.814,0.75,1.358,1.033c0.554,0.285,1.302,0.396,1.766,0.861
					c0.449,0.449,0.78,1.184,1.129,1.714c0.251,0.38,0.511,0.69,0.717,1.075c0.205,0.381,0.31,0.771,0.488,1.16
					c0.313,0.686,0.582,0.961,0.203,1.487c-0.332,0.462-0.143,0.497,0.255,1.143c0.282,0.456,0.25,0.831,0.417,1.33
					c0.25,0.747,0.775,1.446,1.003,2.173c0.228,0.729,0.26,1.589,0.387,2.336c0.202,1.182,0.64,2.428,0.688,3.592
					c0.011,0.258,0.076,0.68-0.007,0.9c-0.123,0.33-0.511,0.521-0.669,0.856c-0.31,0.661-0.624,1.679-1.213,2.136
					c-0.328,0.257-0.44,0.037-0.944,0.033c-0.427-0.005-0.671,0.146-0.77,0.582c-0.163,0.717,0.053,1.611-0.008,2.364
					c-0.075,0.993-0.679,1.969-1.427,2.514c-0.393,0.287-0.907,0.295-1.261,0.615c-0.423,0.382-0.702,0.91-1.203,1.219
					c-0.603,0.367-1.314,0.653-2.008,0.936c-0.464,0.188-0.929,0.479-1.468,0.516c-0.407,0.023-0.84-0.1-1.255-0.089
					c-1.237,0.033-2.151,0.566-3.486,0.256c-0.404-0.095-0.885-0.324-1.208-0.586c-0.704-0.574-0.506-1.101-0.672-1.83
					c-0.22-0.967-0.819-2.116-1.379-2.896c-0.943-1.31,0.222-2.408,0.312-3.685c0.107-1.497-1.272-2.308-2.021-3.464
					c-0.271-0.42-0.629-1.157-0.635-1.657c-0.003-0.425,0.434-0.577,0.402-0.999c-0.069-0.924-1.385-0.601-1.923-0.854
					c-0.306-0.146-0.513-0.645-0.741-0.912c-0.327-0.379-0.718-0.746-1.117-1.049c-0.471-0.355-0.999-0.511-1.53-0.764
					c-0.333-0.158-0.677-0.301-1.069-0.21c-0.538,0.125-1.176,0.82-1.642,1.146c-0.612,0.427-1.2,0.896-1.784,1.366
					c-0.385,0.31-0.757,0.716-1.001,1.143c-0.211,0.366-0.269,0.89-0.619,1.165c-1.137,0.895-0.678-0.874-0.85-1.34
					c-0.14-0.371-0.501-0.175-0.838-0.473c-0.333-0.293-0.373-0.926-0.689-1.203c-0.038-0.064-0.078-0.127-0.119-0.191
					c-0.461,0.094-0.815,0.996-1.066,1.375c-0.244,0.368-0.562,0.811-0.933,1.082c-0.346,0.252-0.739,0.342-1.116,0.564
					c-0.436,0.259-0.511,0.514-0.789,0.96c-0.457,0.735-0.989,0.273-1.634,0.682c-0.314,0.199-0.354,0.483-0.729,0.618
					c-0.428,0.152-0.866-0.09-1.25-0.188c-0.804-0.205-1.603-0.098-2.477,0.075c-1.163,0.231-1.883,0.249-2.974-0.042
					c-0.801-0.21-1.588-0.174-2.451-0.227c-1.304-0.08-1.749-1.453-1.746-2.658c0.002-0.723,0.003-1.435-0.056-2.141
					c-0.048-0.59-0.25-1.15-0.258-1.74c0.001,0.003-0.404-0.97,0.944-2.162c1.351-1.184,0.363-0.168-0.089-0.867
					C5.582,38.695,6.622,37.188,6.365,36.026z"/>
				<path fill="#129B3B" d="M30.166,22.434l-1.997,0.101l-0.775,0.003c-0.908-0.001-1.846-0.003-2.786,0.221
					c-1.113,0.265-2.115,0.561-3.153,0.929c-0.877,0.311-1.927,0.589-2.954,0.786l-0.141,0.026c-0.508,0.095-0.909,0.17-1.436,0.563
					l-0.494,0.475c-0.196,0.212-0.399,0.433-0.587,0.508c0.003-0.001-0.432,0.056-0.432,0.056l-0.297,0.025
					c-0.923,0.127-1.626,0.797-2.305,1.445l-0.637,0.582l-3.869,3.142c-0.99,0.767-1.537,1.602-1.627,2.479
					c0.007-0.035-0.13,0.208-0.13,0.208c-0.23,0.385-0.591,0.985-0.591,1.69c0,0.141,0.014,0.285,0.047,0.433v0.001
					c0.022,0.102,0.033,0.209,0.033,0.32c0,0.492-0.198,1.053-0.363,1.52c-0.138,0.391-0.25,0.709-0.25,0.973
					c0,0.136,0.029,0.257,0.1,0.365c0.078,0.119,0.18,0.199,0.288,0.27c-0.057,0.049-0.132,0.114-0.132,0.114
					c-0.924,0.817-1.125,1.562-1.125,2.053c0,0.19,0.029,0.338,0.059,0.44c0.012,0.082,0.135,0.988,0.135,0.988l0.119,0.73
					c0,0.002,0.055,2.119,0.055,2.124c0,1.755,0.821,2.937,2.095,3.016l0.676,0.03c0.593,0.021,1.152,0.042,1.703,0.186
					c1.093,0.291,1.856,0.303,3.141,0.046c0.913-0.179,1.619-0.255,2.313-0.079l0.261,0.082c0.339,0.112,0.76,0.254,1.206,0.096
					c0.309-0.111,0.463-0.297,0.587-0.445l0.214-0.209c0.19-0.121,0.372-0.135,0.581-0.15c0.34-0.025,0.805-0.06,1.17-0.648
					l0.153-0.258c0.163-0.281,0.245-0.422,0.51-0.58l0.45-0.215l0.695-0.368c0.42-0.307,0.768-0.79,1.024-1.178l0.224-0.388
					c0.092-0.17,0.272-0.496,0.432-0.684c0.078,0.088,0.146,0.246,0.21,0.408c0.102,0.258,0.218,0.55,0.453,0.758
					c0.223,0.195,0.456,0.248,0.611,0.281l0.128,0.034c0.017,0.059,0.02,0.212,0.02,0.354c0,0.049-0.002,0.238-0.002,0.288
					c0,0.466,0.033,0.95,0.411,1.136c0.361,0.178,0.741-0.068,0.996-0.27c0.308-0.242,0.437-0.59,0.551-0.896l0.16-0.375
					c0.208-0.361,0.54-0.739,0.912-1.037c0.001,0,1.764-1.352,1.764-1.352l0.51-0.41c0.322-0.273,0.722-0.613,1.003-0.678
					c0.272-0.063,0.526,0.039,0.827,0.184l0.488,0.215c0.351,0.147,0.683,0.287,0.977,0.51c0.378,0.287,0.754,0.64,1.059,0.994
					l0.198,0.288c0.172,0.271,0.367,0.576,0.666,0.717c0.233,0.11,0.519,0.134,0.82,0.161c0.697,0.06,0.872,0.135,0.891,0.385
					c0,0.006,0,0.01,0,0.015c0,0.066-0.036,0.122-0.127,0.247c-0.117,0.16-0.276,0.379-0.276,0.706c0,0.002,0,0.004,0,0.007
					c0.007,0.627,0.44,1.461,0.694,1.855c0,0,0.849,1.051,0.849,1.051c0.598,0.666,1.119,1.246,1.119,2.051
					c0,0.045-0.001,0.09-0.005,0.135c-0.027,0.384-0.17,0.762-0.32,1.162c-0.174,0.458-0.359,0.951-0.359,1.478
					c0,0.41,0.114,0.84,0.437,1.289c0.466,0.648,1.091,1.763,1.318,2.76l0.074,0.521c0.048,0.493,0.097,1.003,0.726,1.517
					c0.361,0.292,0.894,0.552,1.358,0.659c0.909,0.212,1.636,0.066,2.339-0.074c0.414-0.083,0.806-0.161,1.241-0.173l0.545,0.044
					l0.722,0.045c0.467-0.032,0.873-0.219,1.23-0.384l0.354-0.156c0.001-0.002,0.083-0.035,0.083-0.035
					c0.676-0.275,1.375-0.56,1.98-0.929c0.355-0.22,0.6-0.514,0.837-0.798l0.421-0.464c0.133-0.119,0.319-0.185,0.534-0.26
					l0.696-0.329c0.879-0.641,1.499-1.734,1.579-2.787c0,0-0.021-1.058-0.021-1.058c-0.031-0.458-0.061-0.891,0.021-1.252
					c0.053-0.229,0.112-0.296,0.404-0.293c0,0,0.347,0.047,0.347,0.047c0.215,0.051,0.482,0.112,0.83-0.159
					c0.535-0.414,0.844-1.151,1.116-1.8l0.205-0.471l0.256-0.307c0.156-0.154,0.333-0.328,0.425-0.578
					c0.05-0.131,0.065-0.285,0.065-0.444c0-0.136-0.011-0.274-0.021-0.405l-0.014-0.195c-0.032-0.765-0.222-1.555-0.406-2.32
					l-0.288-1.318c0-0.001-0.105-0.77-0.105-0.77c-0.065-0.541-0.132-1.1-0.293-1.614c-0.126-0.404-0.333-0.79-0.531-1.163
					l-0.475-1.018l-0.117-0.467c-0.061-0.293-0.124-0.597-0.336-0.94l-0.223-0.34c0,0-0.146-0.235-0.147-0.239
					c0.011,0,0.101-0.15,0.101-0.15c0.186-0.26,0.255-0.488,0.255-0.703c0-0.299-0.134-0.569-0.273-0.85l-0.148-0.307l-0.187-0.462
					l-0.312-0.72l-0.473-0.729l-0.261-0.374l-0.329-0.547c-0.251-0.438-0.511-0.889-0.848-1.225
					c-0.361-0.361-0.845-0.537-1.272-0.691l-0.586-0.238c-0.357-0.186-0.638-0.43-0.936-0.688l-0.359-0.304
					c-0.348-0.284-0.772-0.522-1.182-0.752c-0.41-0.23-0.834-0.469-1.17-0.747c-0.454-0.376-0.875-0.814-1.282-1.238
					c-0.563-0.584-1.144-1.189-1.837-1.665c-0.001,0-0.641-0.464-0.641-0.464l-0.726-0.521c-0.354-0.233-0.753-0.297-1.104-0.353
					l-0.3-0.054l-1.311-0.242l-0.886-0.158c-0.611-0.117-1.172-0.369-1.766-0.638c-0.589-0.266-1.198-0.54-1.858-0.668
					c-0.768-0.147-1.536-0.171-2.258-0.181C31.91,22.318,31.023,22.377,30.166,22.434z M28.183,23.276l2.032-0.102
					c0.843-0.056,1.714-0.113,2.571-0.102c0.688,0.01,1.42,0.031,2.128,0.168c0.574,0.111,1.117,0.355,1.692,0.615
					c0.607,0.274,1.235,0.557,1.932,0.689l0.898,0.161l1.286,0.239c0.002,0,0.334,0.059,0.334,0.059
					c0.305,0.049,0.592,0.094,0.813,0.24l0.69,0.495l0.668,0.483c0.629,0.431,1.159,0.981,1.72,1.566
					c0.422,0.438,0.857,0.892,1.344,1.295c0.387,0.32,0.841,0.576,1.28,0.822c0.4,0.225,0.778,0.437,1.077,0.681
					c0.001,0.001,0.34,0.288,0.34,0.288c0.317,0.275,0.645,0.561,1.082,0.787c0,0,0.674,0.276,0.674,0.276
					c0.389,0.141,0.756,0.273,1,0.518c0.268,0.268,0.502,0.676,0.729,1.069l0.353,0.586l0.276,0.396l0.423,0.65l0.271,0.631
					l0.206,0.509l0.159,0.329c0.234,0.471,0.258,0.541,0.081,0.786c-0.396,0.552-0.244,0.831,0.037,1.243l0.204,0.312
					c0.144,0.231,0.187,0.438,0.24,0.699l0.14,0.554c0,0,0.523,1.13,0.523,1.13c0.191,0.358,0.373,0.698,0.479,1.036
					c0.141,0.449,0.204,0.975,0.265,1.481l0.11,0.806l0.297,1.367c0.176,0.73,0.357,1.484,0.386,2.178l0.015,0.224
					c0.013,0.153,0.036,0.44,0.002,0.53c-0.036,0.097-0.141,0.2-0.251,0.311l-0.406,0.519l-0.217,0.499
					c-0.237,0.564-0.506,1.205-0.888,1.502c-0.001,0-0.074,0.047-0.074,0.047l-0.132-0.024l-0.506-0.067
					c-0.621-0.007-1.003,0.285-1.136,0.87c-0.106,0.468-0.071,0.977-0.037,1.469l0.021,0.947c-0.063,0.834-0.576,1.735-1.275,2.245
					l-0.504,0.229c-0.254,0.089-0.543,0.189-0.787,0.41l-0.495,0.539c-0.208,0.25-0.404,0.486-0.654,0.64
					c-0.552,0.338-1.223,0.611-1.872,0.875l-0.082,0.033c0.001,0-0.387,0.171-0.387,0.171c-0.328,0.151-0.638,0.295-0.965,0.316
					l-0.583-0.04l-0.658-0.049c-0.5,0.013-0.94,0.103-1.367,0.188c-0.654,0.13-1.272,0.253-2.025,0.078
					c-0.358-0.083-0.783-0.288-1.058-0.512c-0.388-0.316-0.413-0.578-0.455-1.013l-0.089-0.613
					c-0.251-1.105-0.932-2.323-1.439-3.029c-0.503-0.698-0.275-1.304,0.015-2.071c0.163-0.431,0.332-0.879,0.366-1.37
					c0.084-1.191-0.621-1.977-1.303-2.734l-0.777-0.958c-0.275-0.427-0.571-1.083-0.576-1.459c0-0.076,0.039-0.138,0.134-0.269
					c0.124-0.17,0.293-0.403,0.267-0.755c-0.071-0.94-1.008-1.021-1.567-1.069c-0.224-0.02-0.455-0.039-0.568-0.092
					c-0.104-0.05-0.25-0.278-0.356-0.443l-0.261-0.373c-0.343-0.399-0.749-0.781-1.175-1.104c-0.368-0.278-0.759-0.443-1.137-0.603
					l-0.458-0.202c-0.389-0.183-0.81-0.352-1.313-0.236c-0.457,0.107-0.913,0.494-1.316,0.837l-0.455,0.366l-1.804,1.383
					c-0.447,0.357-0.835,0.8-1.09,1.245l-0.212,0.487c-0.088,0.234-0.17,0.458-0.314,0.57c-0.082,0.065-0.132,0.095-0.176,0.119
					c-0.02-0.113-0.029-0.271-0.029-0.418c0-0.047,0.001-0.228,0.001-0.277c0-0.234-0.009-0.438-0.069-0.6
					c-0.149-0.396-0.47-0.466-0.662-0.508c-0.127-0.028-0.204-0.048-0.278-0.113c-0.102-0.09-0.18-0.286-0.254-0.475
					c-0.099-0.25-0.211-0.533-0.435-0.729c0.028,0.024,0.057,0.062,0.076,0.093l-0.111-0.181c-0.082-0.132-0.25-0.22-0.402-0.188
					c-0.516,0.104-0.847,0.712-1.112,1.2l-0.19,0.332c-0.222,0.336-0.518,0.751-0.842,0.987l-0.551,0.285l-0.535,0.26
					c-0.432,0.258-0.59,0.529-0.773,0.846l-0.142,0.238c-0.167,0.269-0.292,0.278-0.595,0.301c-0.256,0.02-0.575,0.043-0.922,0.264
					c0,0-0.388,0.361-0.388,0.361c-0.104,0.123-0.154,0.18-0.268,0.221c-0.203,0.072-0.453-0.012-0.718-0.102l-0.314-0.097
					c-0.92-0.233-1.809-0.093-2.641,0.071c-1.171,0.233-1.826,0.226-2.806-0.035c-0.631-0.166-1.231-0.188-1.867-0.211l-0.657-0.029
					c-1.336-0.082-1.399-1.918-1.398-2.285l-0.058-2.174l-0.13-0.816l-0.126-0.897c-0.004-0.026-0.017-0.106-0.026-0.13
					c-0.011-0.031-0.262-0.771,0.845-1.75l0.421-0.363c0.309-0.266,0.479-0.41,0.355-0.682c-0.055-0.121-0.182-0.254-0.473-0.211
					c-0.191,0.029-0.262,0.01-0.326-0.09c0.006-0.059,0.134-0.422,0.228-0.687c0.233-0.661,0.523-1.484,0.354-2.247l0,0
					c-0.132-0.602,0.222-1.191,0.456-1.582l0.232-0.514c0.085-0.834,0.777-1.53,1.343-1.969l3.889-3.158
					c0-0.001,0.673-0.615,0.673-0.615c0.594-0.566,1.208-1.152,1.894-1.247c0,0,0.239-0.019,0.239-0.019l0.665-0.108
					c0.345-0.139,0.617-0.433,0.857-0.693l0.393-0.382c0.39-0.293,0.652-0.341,1.128-0.43l0.145-0.027
					c1.063-0.204,2.15-0.494,3.063-0.816c1.013-0.359,1.991-0.646,3.077-0.906c0.854-0.203,1.709-0.201,2.613-0.199L28.183,23.276z"
					/>
				<path fill="#129B3B" d="M17.36,32.089c-3.287,0.604-5.922,3.92-5.525,6.957c0.105,0.813,0.322,1.586,0.531,2.334
					c0.333,1.189,0.647,2.313,0.563,3.604c-0.108,1.675-1.051,2.347-2.357,3.278l-0.815,0.594l0.3,0.395l0.803-0.586
					c1.311-0.934,2.441-1.74,2.564-3.648c0.089-1.377-0.251-2.594-0.581-3.771c-0.205-0.731-0.416-1.486-0.517-2.265
					c-0.365-2.793,2.08-5.847,5.129-6.406c1.182-0.24,3.181-0.35,3.863,0.332c0.216,0.215,0.284,0.501,0.208,0.875l0.485,0.098
					c0.109-0.541-0.006-0.986-0.344-1.323C20.562,31.453,17.491,32.063,17.36,32.089z"/>
				<path fill="#129B3B" d="M19.171,30.032c-0.396,0.688-0.501,1.426-0.297,2.08l0.473-0.148c-0.208-0.666,0.024-1.283,0.254-1.684
					c0.45-0.782,1.287-1.413,2.131-1.605l-0.11-0.483C20.649,28.414,19.688,29.137,19.171,30.032z"/>
				<path fill="#129B3B" d="M17.139,43.225l0.128,0.227c0.636,1.123,1.818,3.212,3.155,3.06l-0.057-0.492
					c-1.011,0.116-2.171-1.936-2.667-2.811l-0.131-0.23c-1.11-1.922-1.32-3.611-1.318-6.055h-0.495
					C15.752,39.452,15.973,41.206,17.139,43.225z"/>
				<path fill="#129B3B" d="M24.852,30.28c0.673,0.424,1.061,1.161,1.09,2.077c0.039,1.202-0.564,2.464-1.499,3.14
					c-1.319,0.951-3.417,0.404-4.94-0.426l-0.236,0.435c1.655,0.901,3.96,1.479,5.466,0.392c1.08-0.779,1.749-2.175,1.704-3.555
					c-0.035-1.086-0.504-1.967-1.322-2.48L24.852,30.28z"/>
				<path fill="#129B3B" d="M24.598,36.185c0.117,0.008,0.194,0.057,0.252,0.162c0.148,0.267,0.096,0.771-0.05,1.043
					c-0.273,0.512-0.8,0.705-1.359,0.911l-0.85,0.372c-1.201,0.702-2.135,2.018-2.378,3.351c-0.214,1.163-0.074,2.057,0.417,2.653
					c0.197,0.238,0.372,0.324,0.542,0.407l0.438,0.276l0.318-0.379l-0.539-0.342c-0.15-0.074-0.249-0.122-0.377-0.277
					c-0.393-0.479-0.498-1.236-0.312-2.25c0.214-1.18,1.075-2.39,2.142-3.012c0.001-0.002,0.77-0.335,0.77-0.335
					c0.592-0.218,1.263-0.465,1.625-1.142c0.21-0.393,0.288-1.084,0.046-1.52c-0.139-0.248-0.371-0.395-0.653-0.414L24.598,36.185z"
					/>
				<path fill="#129B3B" d="M8.06,31.765c0.212,0.396,0.376,0.949,0.551,1.533c0.372,1.244,0.794,2.656,1.867,3.229
					c0.581,0.311,1.299,0.336,2.134,0.078l-0.146-0.474c-0.714,0.222-1.288,0.207-1.755-0.042c-0.89-0.475-1.281-1.781-1.625-2.934
					c-0.182-0.609-0.354-1.184-0.588-1.623L8.06,31.765z"/>
				<path fill="#129B3B" d="M10.203,42.497c0.021,0.539-0.236,1.007-0.763,1.391c-1.185,0.857-3.384,1.02-4.233,0.703l-0.172,0.465
					c0.958,0.355,3.319,0.23,4.695-0.769c0.66-0.478,0.995-1.104,0.967-1.81L10.203,42.497z"/>
				<path fill="#129B3B" d="M8.312,44.604l0.474-0.146c-0.593-1.936-0.256-5.557,1.638-7.061l-0.308-0.388
					C7.976,38.707,7.691,42.577,8.312,44.604z"/>
				<path fill="#129B3B" d="M27.217,26.927c0.06,1.263,0.936,2.221,1.783,3.146c0.462,0.504,0.94,1.026,1.257,1.578
					c0,0,0.038,0.063,0.038,0.063c0.572,0.99,1.164,2.014,1.466,3.097c0.274,0.977,0.26,1.949,0.245,2.979L32,38.638
					c0.007,1.174-0.265,3.18-1.333,3.252l0.034,0.494c1.729-0.117,1.798-3.145,1.794-3.75l0.006-0.836
					c0.015-1.02,0.031-2.074-0.263-3.119c-0.319-1.144-0.927-2.195-1.515-3.211l-0.037-0.064c-0.344-0.598-0.84-1.141-1.321-1.665
					c-0.824-0.9-1.603-1.751-1.654-2.836c-0.059-1.179,0.718-3.257,1.484-3.97l-0.337-0.361
					C27.903,23.46,27.157,25.709,27.217,26.927z"/>
				<path fill="#129B3B" d="M27.279,26.967l0.371,0.327c0.927-1.048,3.168-2.363,4.573-2.037c0.588,0.136,0.966,0.537,1.156,1.225
					c0,0.002,0.118,0.746,0.118,0.746c0.067,0.664,0.144,1.416,1.027,1.889c0.587,0.316,1.531,0.195,2.22,0.04
					c1.597-0.364,1.851-1.36,2.171-2.62l-0.48-0.123c-0.322,1.266-0.5,1.964-1.801,2.26c-0.857,0.195-1.523,0.197-1.876,0.009
					c-0.651-0.349-0.703-0.858-0.769-1.505l-0.134-0.827c-0.235-0.854-0.761-1.399-1.521-1.575
					C30.668,24.388,28.287,25.825,27.279,26.967z"/>
				<path fill="#129B3B" d="M34.479,36.835c-0.558,0.232-1.089,0.216-1.705,0.197l-0.429-0.01l-0.005,0.494l0.419,0.01
					c0.645,0.021,1.255,0.037,1.911-0.235c1.271-0.532,2.692-2.14,2.701-3.593l-0.495-0.002
					C36.868,34.919,35.604,36.362,34.479,36.835z"/>
				<path fill="#129B3B" d="M37.275,33.952c1.658,0.227,2.94-0.293,3.815-1.541l-0.406-0.283c-0.759,1.084-1.883,1.533-3.341,1.334
					c-1.004-0.143-2.44-1.181-2.364-2.327l-0.494-0.033C34.388,32.565,36.1,33.787,37.275,33.952z"/>
				<path fill="#129B3B" d="M26.151,41.024c0.226,1.205,0.875,2.518,1.764,2.555l0.021-0.494c-0.505-0.021-1.075-0.967-1.298-2.152
					c-0.182-0.967-0.108-2.056,0.466-2.307l-0.199-0.454C26.026,38.558,25.939,39.897,26.151,41.024z"/>
				<path fill="#129B3B" d="M42.748,25.742l-0.093,3.483c0.063,1.601,0.695,2.402,1.652,3.616l0.147,0.188
					c0.987,1.259,1.801,3.593,1.456,5.321c-0.162,0.807-0.557,1.393-1.173,1.737c-0.595,0.335-1.451,0.206-2.278,0.079l-0.92-0.115
					c-1.587-0.115-2.623,0.248-3.575,1.252c-0.359,0.38-0.749,0.694-1.125,0.998c-1.051,0.848-2.044,1.648-1.321,3.304l0.454-0.198
					c-0.571-1.309,0.125-1.87,1.178-2.72c0.372-0.3,0.793-0.64,1.174-1.042c0.848-0.896,1.74-1.205,3.18-1.1
					c0.001,0,0.881,0.111,0.881,0.111c0.869,0.131,1.853,0.281,2.596-0.139c0.738-0.412,1.227-1.129,1.416-2.07
					c0.388-1.939-0.51-4.396-1.551-5.725l-0.148-0.188c-0.929-1.179-1.489-1.89-1.545-3.329l0.092-3.482L42.748,25.742z"/>
				<path fill="#129B3B" d="M46.345,38.338c3.804,0.503,6.408,3.313,6.332,6.835l0.495,0.011c0.081-3.782-2.699-6.8-6.762-7.337
					L46.345,38.338z"/>
				<path fill="#129B3B" d="M51.356,46.231c-0.215,0.441-0.438,0.899-0.862,1.275l0.328,0.37c0.499-0.44,0.754-0.966,0.979-1.43
					c0.397-0.816,0.66-1.355,1.969-1.206c0.955,0.115,1.182,0.275,1.619,1.139l0.219,0.52c0.278,0.717,0.659,1.699,1.658,1.658
					l-0.021-0.494c-0.598,0.024-0.865-0.541-1.176-1.343l-0.239-0.563c-0.511-1.01-0.885-1.272-2.003-1.408
					C52.17,44.562,51.756,45.409,51.356,46.231z"/>
				<path fill="#129B3B" d="M40.671,40.738c0.795,0.108,1.438,0.58,2.118,1.079l0.197,0.144c1.845,1.343,2.065,2.646,1.826,4.581
					c-0.139,1.119-0.415,2.398-1.404,3.398l-0.618,0.555c-0.475,0.396-0.923,0.771-1.218,1.57c-0.361,0.979-1.64,6.502-0.333,8.441
					c0.295,0.437,0.699,0.666,1.199,0.683l0.016-0.495c-0.337-0.011-0.6-0.162-0.804-0.465c-1.123-1.665-0.017-6.896,0.387-7.993
					c0.249-0.675,0.611-0.979,1.071-1.363l0.651-0.585c1.094-1.105,1.395-2.483,1.544-3.686c0.25-2.021-0.002-3.568-2.026-5.042
					c0,0-0.196-0.143-0.196-0.143c-0.7-0.514-1.424-1.045-2.344-1.171L40.671,40.738z"/>
				<path fill="#129B3B" d="M49.186,50.02c0.156,0.212,0.211,0.392,0.167,0.547c-0.119,0.418-0.929,0.743-1.58,1.003
					c-0.495,0.198-0.923,0.369-1.143,0.596c-0.786,0.795-0.594,2.658-0.491,3.659c0.089,0.871,0.541,3.57,1.429,4.512l0.36-0.339
					c-0.728-0.772-1.195-3.224-1.296-4.223c-0.088-0.855-0.271-2.633,0.353-3.264c0.147-0.151,0.567-0.319,0.973-0.481
					c0.79-0.315,1.686-0.675,1.872-1.327c0.088-0.31,0.005-0.637-0.244-0.977L49.186,50.02z"/>
				<path fill="#129B3B" d="M47.233,46.542l0.152,0.725c0.202,1.051,0.377,1.959,1.689,2.691c1.645,0.923,3.367,1.052,4.607,0.343
					l-0.246-0.431c-1.087,0.621-2.627,0.493-4.12-0.344c-1.111-0.621-1.251-1.348-1.445-2.354l-0.158-0.748L47.233,46.542z"/>
				<path fill="#129B3B" d="M43.468,50.124l0.154-0.47c-1.869-0.614-2.699-3.178-2.579-4.793l-0.494-0.036
					C40.422,46.534,41.263,49.401,43.468,50.124z"/>
				<path fill="#129B3B" d="M47.41,32.093c0.073,0.74-0.153,1.742-0.728,2.229c-0.317,0.269-0.704,0.344-1.152,0.224l-0.128,0.479
					c0.605,0.162,1.16,0.051,1.601-0.324c0.737-0.625,0.983-1.814,0.9-2.656L47.41,32.093z"/>
				<path fill="#129B3B" d="M41.642,36.492c-0.017,0.714-0.032,1.386,0.543,2.085c0.627,0.76,1.962,1.957,2.991,1.627l-0.151-0.472
					c-0.717,0.23-1.888-0.78-2.458-1.471c-0.458-0.556-0.445-1.087-0.43-1.759l0.006-0.333l-0.495-0.002L41.642,36.492z"/>
				<path fill="#129B3B" d="M42.241,54.878c1.291,1.905,2.549,2.204,4.468,2.47l0.068-0.49c-1.993-0.276-2.986-0.573-4.127-2.257
					L42.241,54.878z"/>
			</g>
			<g>
				<path fill="#FFFFFF" d="M19.696,58.003c0,1.732-0.341,3.121-1.024,4.167c-0.683,1.044-1.687,1.566-3.013,1.566v-1.871
					c1.326,0,1.989-1.288,1.989-3.862H15.66v-4.037h4.037V58.003z"/>
				<path fill="#FFFFFF" d="M34.7,58.003c0,1.732-0.342,3.121-1.024,4.167c-0.684,1.044-1.688,1.566-3.014,1.566v-1.871
					c1.326,0,1.989-1.288,1.989-3.862h-1.989v-4.037H34.7V58.003z"/>
				<path fill="#FFFFFF" d="M25.323,73.801c-0.692-0.402-5.543-3.232-5.543-3.232l-0.749,1.282l5.941,3.465
					c0.243,0.143,0.546,0.134,0.781-0.02l7.92-5.199l-0.814-1.241C32.859,68.855,26.019,73.344,25.323,73.801z"/>
			</g>
		</g>
	</g>
	<g>
		<g>
			<g>
				<g>
					<path fill="#509D53" d="M63.72,36.685l2.909-0.15c0.041,0.924,0.2,1.547,0.479,1.871c0.448,0.525,1.277,0.789,2.486,0.789
						c1.005,0,1.732-0.179,2.18-0.537c0.448-0.357,0.672-0.791,0.672-1.297c0-0.439-0.184-0.811-0.55-1.115
						c-0.259-0.223-0.967-0.584-2.125-1.084s-2.005-0.916-2.538-1.251c-0.534-0.335-0.954-0.769-1.259-1.303
						c-0.306-0.533-0.458-1.158-0.458-1.875c0-1.249,0.453-2.286,1.359-3.11c0.906-0.824,2.218-1.237,3.935-1.237
						c1.745,0,3.095,0.409,4.051,1.224c0.957,0.816,1.482,1.9,1.577,3.256l-2.909,0.131c-0.075-0.709-0.333-1.252-0.776-1.629
						c-0.442-0.379-1.096-0.568-1.96-0.568c-0.851,0-1.458,0.15-1.823,0.446c-0.364,0.298-0.546,0.672-0.546,1.124
						c0,0.426,0.166,0.777,0.498,1.053c0.332,0.285,1.067,0.673,2.206,1.166c1.714,0.736,2.805,1.333,3.272,1.793
						c0.698,0.674,1.047,1.542,1.047,2.602c0,1.311-0.519,2.43-1.556,3.357c-1.037,0.93-2.481,1.393-4.333,1.393
						c-1.277,0-2.384-0.213-3.32-0.641c-0.936-0.427-1.597-1.021-1.981-1.781C63.872,38.55,63.693,37.675,63.72,36.685z"/>
					<path fill="#DFC44A" d="M79.221,30.717h2.717l-0.252,1.3c1.066-1.031,2.187-1.547,3.36-1.547c0.809,0,1.433,0.168,1.873,0.506
						c0.438,0.336,0.718,0.802,0.84,1.394c0.371-0.538,0.904-0.99,1.599-1.354c0.695-0.363,1.417-0.545,2.167-0.545
						c0.856,0,1.524,0.23,2.003,0.693c0.479,0.461,0.719,1.074,0.719,1.835c-0.012,0.367-0.119,1.005-0.322,1.909l-1.384,6.547
						h-2.875l1.369-6.546c0.171-0.819,0.27-1.285,0.292-1.395c0-0.3-0.091-0.536-0.271-0.71c-0.181-0.174-0.453-0.262-0.815-0.262
						c-0.731,0-1.384,0.381-1.958,1.143c-0.417,0.547-0.772,1.516-1.066,2.904l-1.018,4.865h-2.875l1.355-6.486
						c0.155-0.748,0.232-1.232,0.232-1.455c0-0.283-0.097-0.516-0.289-0.697c-0.193-0.182-0.459-0.273-0.798-0.273
						c-0.319,0-0.648,0.096-0.987,0.284s-0.636,0.447-0.891,0.778c-0.255,0.33-0.474,0.754-0.656,1.272
						c-0.085,0.243-0.223,0.792-0.414,1.647l-1.02,4.93h-2.875L79.221,30.717z"/>
					<path fill="#DFC44A" d="M99.576,33.749l-2.815-0.239c0.321-0.953,0.881-1.698,1.68-2.235c0.801-0.537,1.857-0.805,3.176-0.805
						c1.371,0,2.385,0.277,3.041,0.834c0.656,0.556,0.984,1.234,0.984,2.035c0,0.324-0.029,0.668-0.088,1.031
						c-0.057,0.363-0.258,1.32-0.602,2.869c-0.285,1.281-0.426,2.177-0.426,2.688c0,0.459,0.082,0.969,0.244,1.527h-2.781
						c-0.133-0.391-0.217-0.795-0.248-1.212c-0.424,0.471-0.91,0.837-1.461,1.099c-0.551,0.26-1.105,0.391-1.662,0.391
						c-0.887,0-1.621-0.291-2.198-0.875c-0.578-0.584-0.867-1.334-0.867-2.253c0-1.025,0.318-1.845,0.953-2.46
						c0.635-0.613,1.77-0.984,3.403-1.113c1.379-0.114,2.299-0.253,2.764-0.414c0.121-0.406,0.184-0.732,0.184-0.977
						c0-0.311-0.125-0.572-0.369-0.781c-0.246-0.211-0.611-0.316-1.098-0.316c-0.512,0-0.916,0.105-1.211,0.314
						C99.882,33.066,99.683,33.364,99.576,33.749z M102.289,36.44c-0.174,0.049-0.406,0.093-0.695,0.134
						c-1.451,0.179-2.398,0.438-2.842,0.778c-0.316,0.246-0.475,0.577-0.475,0.994c0,0.342,0.121,0.631,0.363,0.866
						c0.24,0.235,0.561,0.353,0.957,0.353c0.438,0,0.848-0.107,1.234-0.322s0.676-0.491,0.867-0.83
						c0.191-0.338,0.361-0.865,0.51-1.583L102.289,36.44z"/>
					<path fill="#DFC44A" d="M109.05,30.717h2.717l-0.432,2.065c1.004-1.541,2.092-2.313,3.264-2.313
						c0.416,0,0.861,0.104,1.338,0.313l-1.115,2.366c-0.264-0.095-0.545-0.142-0.844-0.142c-0.502,0-1.012,0.188-1.529,0.566
						c-0.52,0.378-0.924,0.882-1.217,1.512c-0.291,0.632-0.578,1.633-0.863,3.001l-0.684,3.368h-2.877L109.05,30.717z"/>
					<path fill="#DFC44A" d="M115.724,32.884l0.432-2.167h1.443l0.355-1.702l3.322-2.011l-0.764,3.713h1.707l-0.432,2.167h-1.721
						l-0.961,4.525c-0.17,0.814-0.254,1.279-0.254,1.394c0,0.223,0.068,0.397,0.205,0.521c0.137,0.126,0.385,0.188,0.746,0.188
						c0.123,0,0.436-0.023,0.932-0.07l-0.465,2.139c-0.492,0.1-1,0.15-1.52,0.15c-1.016,0-1.754-0.199-2.215-0.596
						c-0.459-0.399-0.689-0.953-0.689-1.66c0-0.33,0.131-1.09,0.393-2.279l0.928-4.313H115.724z"/>
					<path fill="#509D53" d="M124.996,41.454h-3.066l3.098-14.791h6.574c1.131,0,2.012,0.117,2.641,0.348
						c0.629,0.232,1.137,0.658,1.525,1.277c0.387,0.619,0.582,1.369,0.582,2.249c0,1.259-0.377,2.296-1.129,3.113
						c-0.752,0.816-1.893,1.323-3.418,1.518c0.391,0.351,0.756,0.812,1.1,1.382c0.678,1.158,1.438,2.792,2.27,4.904h-3.277
						c-0.264-0.836-0.775-2.137-1.541-3.906c-0.416-0.955-0.859-1.599-1.328-1.929c-0.289-0.194-0.791-0.292-1.51-0.292h-1.238
						L124.996,41.454z M126.744,33.1h1.613c1.633,0,2.717-0.097,3.25-0.292c0.535-0.193,0.953-0.498,1.256-0.915
						c0.303-0.415,0.453-0.851,0.453-1.306c0-0.536-0.219-0.938-0.656-1.207c-0.268-0.16-0.85-0.241-1.742-0.241h-3.346
						L126.744,33.1z"/>
					<path fill="#DFC44A" d="M147.246,36.998h-7.256c-0.006,0.114-0.01,0.203-0.01,0.263c0,0.719,0.203,1.299,0.609,1.738
						s0.902,0.66,1.486,0.66c0.959,0,1.709-0.496,2.246-1.486l2.6,0.434c-0.504,1.042-1.178,1.824-2.021,2.344
						c-0.842,0.521-1.787,0.781-2.836,0.781c-1.438,0-2.607-0.457-3.508-1.371c-0.9-0.915-1.35-2.126-1.35-3.631
						c0-1.473,0.406-2.783,1.219-3.932c1.107-1.552,2.688-2.328,4.742-2.328c1.309,0,2.35,0.406,3.121,1.219
						c0.771,0.813,1.158,1.953,1.158,3.417C147.447,35.808,147.38,36.438,147.246,36.998z M144.816,35.234
						c0.008-0.129,0.012-0.228,0.012-0.295c0-0.8-0.18-1.397-0.537-1.798c-0.355-0.399-0.834-0.6-1.434-0.6
						c-0.598,0-1.135,0.228-1.609,0.682c-0.477,0.453-0.797,1.123-0.965,2.011H144.816z"/>
					<path fill="#DFC44A" d="M152.451,33.749l-2.814-0.239c0.32-0.953,0.881-1.698,1.68-2.235s1.859-0.805,3.176-0.805
						c1.371,0,2.387,0.277,3.041,0.834c0.654,0.556,0.982,1.234,0.982,2.035c0,0.324-0.029,0.668-0.084,1.031
						c-0.059,0.363-0.26,1.32-0.604,2.869c-0.283,1.281-0.426,2.177-0.426,2.688c0,0.459,0.082,0.969,0.246,1.527h-2.783
						c-0.133-0.391-0.217-0.795-0.246-1.212c-0.424,0.471-0.912,0.837-1.463,1.099c-0.551,0.26-1.105,0.391-1.662,0.391
						c-0.887,0-1.621-0.291-2.197-0.875c-0.578-0.584-0.867-1.334-0.867-2.253c0-1.025,0.318-1.845,0.953-2.46
						c0.637-0.613,1.77-0.984,3.404-1.113c1.377-0.114,2.299-0.253,2.762-0.414c0.123-0.406,0.184-0.732,0.184-0.977
						c0-0.311-0.123-0.572-0.369-0.781c-0.246-0.211-0.611-0.316-1.096-0.316c-0.514,0-0.916,0.105-1.213,0.314
						C152.757,33.066,152.558,33.364,152.451,33.749z M155.166,36.44c-0.176,0.049-0.408,0.093-0.695,0.134
						c-1.453,0.179-2.4,0.438-2.844,0.778c-0.316,0.246-0.475,0.577-0.475,0.994c0,0.342,0.121,0.631,0.363,0.866
						s0.561,0.353,0.957,0.353c0.438,0,0.85-0.107,1.234-0.322c0.387-0.215,0.676-0.491,0.867-0.83
						c0.191-0.338,0.361-0.865,0.51-1.583L155.166,36.44z"/>
					<path fill="#DFC44A" d="M169.736,41.454h-2.75l0.238-1.137c-0.527,0.506-1.043,0.867-1.551,1.086
						c-0.51,0.219-1.084,0.328-1.725,0.328c-1.111,0-2.012-0.379-2.703-1.139s-1.035-1.883-1.035-3.369
						c0-1.721,0.492-3.277,1.477-4.668s2.287-2.086,3.908-2.086c1.465,0,2.561,0.58,3.293,1.742l1.193-5.549h2.875L169.736,41.454z
						 M163.025,37.117c0,0.77,0.197,1.37,0.588,1.801c0.395,0.433,0.877,0.647,1.451,0.647c0.529,0,1.027-0.18,1.488-0.541
						c0.459-0.359,0.828-0.912,1.104-1.654c0.277-0.742,0.416-1.453,0.416-2.135c0-0.775-0.213-1.402-0.635-1.882
						c-0.424-0.479-0.912-0.719-1.465-0.719c-0.859,0-1.564,0.473-2.119,1.417C163.302,34.997,163.025,36.018,163.025,37.117z"/>
					<path fill="#DFC44A" d="M174.718,30.717h2.875l-2.246,10.737h-2.875L174.718,30.717z M175.566,26.663h2.877l-0.543,2.6h-2.877
						L175.566,26.663z"/>
					<path fill="#DFC44A" d="M180.492,30.717h2.748l-0.279,1.412c0.695-0.597,1.348-1.022,1.951-1.278
						c0.602-0.254,1.238-0.381,1.908-0.381c0.893,0,1.598,0.256,2.113,0.767c0.514,0.511,0.771,1.188,0.771,2.033
						c-0.014,0.374-0.139,1.085-0.373,2.13l-1.307,6.055h-2.877l1.303-6.072c0.189-0.908,0.293-1.451,0.311-1.629
						c0-0.376-0.111-0.672-0.336-0.887c-0.225-0.217-0.535-0.324-0.936-0.324c-0.436,0-0.918,0.18-1.447,0.535
						c-0.531,0.357-0.949,0.828-1.252,1.414c-0.229,0.417-0.482,1.269-0.766,2.554l-0.9,4.409h-2.875L180.492,30.717z"/>
					<path fill="#DFC44A" d="M190.728,42.041l3.066,0.44c0,0.307,0.049,0.539,0.146,0.696c0.098,0.156,0.258,0.289,0.477,0.401
						c0.219,0.108,0.518,0.164,0.898,0.164c0.65,0,1.172-0.123,1.563-0.371c0.293-0.19,0.533-0.499,0.719-0.924
						c0.113-0.268,0.26-0.85,0.439-1.747l0.105-0.501c-1.053,0.836-2.139,1.254-3.26,1.254c-1.041,0-1.895-0.369-2.563-1.107
						s-1-1.818-1-3.242c0-1.256,0.227-2.406,0.682-3.453c0.455-1.048,1.092-1.84,1.914-2.377s1.66-0.805,2.516-0.805
						c0.703,0,1.348,0.188,1.934,0.561c0.584,0.375,1.039,0.898,1.365,1.572l0.395-1.886h2.717l-1.705,8.915
						c-0.309,1.444-0.57,2.475-0.781,3.092c-0.215,0.617-0.457,1.108-0.73,1.475c-0.275,0.367-0.621,0.674-1.039,0.922
						c-0.418,0.246-0.912,0.424-1.48,0.533c-0.568,0.107-1.186,0.162-1.852,0.162c-1.5,0-2.637-0.258-3.404-0.773
						c-0.77-0.519-1.152-1.377-1.152-2.578C190.697,42.337,190.707,42.196,190.728,42.041z M194.134,36.802
						c0,0.809,0.182,1.425,0.547,1.85c0.363,0.425,0.818,0.636,1.365,0.636c0.512,0,1.01-0.19,1.49-0.571
						c0.482-0.381,0.854-0.921,1.109-1.623c0.256-0.701,0.383-1.38,0.383-2.035c0-0.754-0.211-1.361-0.631-1.823
						c-0.422-0.462-0.91-0.692-1.463-0.692c-0.514,0-0.986,0.205-1.416,0.611c-0.43,0.408-0.783,1.036-1.064,1.885
						C194.242,35.692,194.134,36.28,194.134,36.802z"/>
				</g>
			</g>
		</g>
	</g>
	<g>
		<path fill="#509D53" d="M64.749,55.716h2.506c0.146,0,0.218,0.055,0.218,0.163v3.609c0.009,0.319,0.063,0.563,0.163,0.735
			c0.073,0.164,0.182,0.287,0.327,0.368c0.208,0.128,0.454,0.219,0.735,0.272c0.363,0.054,0.777,0.082,1.24,0.082h2.956
			c1.152,0,2.51-0.127,4.073-0.381c0.072-0.037,0.14-0.055,0.204-0.055c0.072,0,0.108,0.018,0.108,0.055
			c-0.108,0.371-0.195,0.749-0.259,1.13c-0.009,0.153-0.086,0.23-0.231,0.23h-6.851c-0.336,0-0.663-0.021-0.981-0.067
			c-0.309-0.045-0.613-0.117-0.913-0.218c-0.254-0.1-0.5-0.231-0.735-0.395c-0.146-0.146-0.313-0.392-0.504-0.735l-0.04-0.056
			c-0.064,0-0.101,0.011-0.11,0.028c-0.925,0.681-1.43,1.139-1.512,1.375c-0.027,0.047-0.068,0.067-0.123,0.067
			c-0.064,0-0.241-0.23-0.532-0.694c-0.045-0.081-0.067-0.177-0.067-0.285c0.535-0.218,1.203-0.618,2.002-1.199
			c0.045-0.035,0.068-0.122,0.068-0.259v-2.887h-1.744c-0.109,0-0.163-0.077-0.163-0.232v-0.436
			C64.585,55.789,64.64,55.716,64.749,55.716z M65.403,52.339c0.49,0.279,0.89,0.544,1.198,0.79
			c0.363,0.281,0.671,0.544,0.926,0.788c0,0.019-0.022,0.06-0.068,0.123c-0.264,0.391-0.404,0.586-0.422,0.586
			c-0.39-0.383-0.817-0.727-1.28-1.035c-0.364-0.254-0.663-0.431-0.899-0.531c0-0.063,0.145-0.272,0.436-0.627
			C65.339,52.37,65.375,52.339,65.403,52.339z M65.675,49.573c0.472,0.236,0.858,0.458,1.158,0.666
			c0.354,0.246,0.658,0.473,0.912,0.683c0,0.018-0.023,0.059-0.068,0.122c-0.263,0.391-0.404,0.586-0.422,0.586
			c-0.391-0.328-0.804-0.621-1.239-0.886c-0.354-0.228-0.649-0.381-0.885-0.464c0-0.054,0.145-0.257,0.436-0.613
			C65.602,49.604,65.639,49.573,65.675,49.573z M72.376,49.178c0.7,0,1.049,0.054,1.049,0.163c0,0.127-0.05,0.197-0.15,0.205
			c-0.09,0.018-0.136,0.113-0.136,0.285v0.654h3.705c0.072,0,0.108,0.055,0.108,0.163v0.437c0,0.109-0.036,0.164-0.108,0.164h-2.356
			l0.477,0.204c0.137,0.054,0.205,0.112,0.205,0.177c0,0.055-0.041,0.096-0.122,0.122c-0.083,0-0.132,0.041-0.15,0.122
			c-0.146,0.4-0.291,0.736-0.436,1.009h1.73c0.182,0,0.272,0.059,0.272,0.177v6.442c0,0.255-0.136,0.463-0.408,0.627
			c-0.264,0.109-0.599,0.182-1.007,0.219c-0.101,0-0.16-0.051-0.178-0.15c-0.009-0.2-0.113-0.495-0.313-0.885
			c0-0.028,0.027-0.042,0.082-0.042c0.409,0,0.645-0.031,0.708-0.095c0.091-0.055,0.136-0.146,0.136-0.272v-5.244h-2.506v1.021
			h1.961c0.073,0,0.11,0.06,0.11,0.176v0.423c0,0.118-0.037,0.178-0.11,0.178h-1.961v1.022h1.253c0.145,0,0.218,0.058,0.218,0.176
			v2.385c0,0.108-0.074,0.163-0.218,0.163h-2.724v0.381c0,0.109-0.073,0.163-0.218,0.163h-0.544c-0.109,0-0.164-0.054-0.164-0.163
			v-2.929c0-0.118,0.055-0.176,0.164-0.176h1.253v-1.022h-1.689c-0.073,0-0.109-0.06-0.109-0.178v-0.423
			c0-0.116,0.036-0.176,0.109-0.176h1.689v-1.021h-2.289v6.306c0,0.118-0.072,0.179-0.217,0.179h-0.545
			c-0.145,0-0.218-0.061-0.218-0.179V53.06c0-0.118,0.073-0.177,0.218-0.177h1.989c-0.027-0.063-0.054-0.127-0.082-0.191
			c-0.145-0.336-0.344-0.671-0.599-1.007c0-0.055,0.236-0.201,0.708-0.436c0.254,0.361,0.454,0.699,0.599,1.007
			c0.109,0.209,0.204,0.419,0.286,0.627h1.526c0.182-0.255,0.317-0.481,0.409-0.683c0.172-0.308,0.294-0.615,0.368-0.925
			c0-0.009,0-0.018,0-0.026h-5.639c-0.074,0-0.11-0.055-0.11-0.164v-0.437c0-0.108,0.036-0.163,0.11-0.163h3.65v-1.145
			C72.159,49.231,72.231,49.178,72.376,49.178z M71.505,58.439h2.016v-1.185h-2.016V58.439z"/>
		<path fill="#509D53" d="M80.124,51.793c0.69,0.146,1.035,0.254,1.035,0.326c0,0.102-0.055,0.173-0.164,0.22
			c-0.108,0.09-0.168,0.194-0.177,0.312c-0.091,0.972-0.205,1.78-0.34,2.426c-0.082,0.345-0.187,0.698-0.314,1.062
			c-0.036,0.083-0.068,0.122-0.095,0.122c-0.308-0.09-0.576-0.153-0.803-0.189c-0.082-0.019-0.123-0.063-0.123-0.137
			c0.191-0.464,0.354-0.976,0.491-1.539c0.146-0.554,0.258-1.357,0.34-2.411C79.974,51.856,80.024,51.793,80.124,51.793z
			 M81.541,49.124c0.69,0,1.035,0.054,1.035,0.162c0,0.128-0.045,0.195-0.136,0.205c-0.091,0.01-0.137,0.104-0.137,0.287v11.999
			c0,0.1-0.072,0.148-0.217,0.148h-0.545c-0.145,0-0.218-0.049-0.218-0.148V49.286C81.323,49.178,81.396,49.124,81.541,49.124z
			 M83.338,51.685c0.082,0,0.137,0.018,0.164,0.054c0.264,0.636,0.5,1.313,0.708,2.03c0,0.126-0.032,0.195-0.095,0.204
			c-0.327,0.228-0.586,0.341-0.777,0.341c-0.208-0.881-0.408-1.612-0.599-2.194C82.739,52.029,82.939,51.884,83.338,51.685z
			 M85.409,50.227l0.94,0.34c0.1,0.074,0.15,0.142,0.15,0.204c0,0.074-0.036,0.123-0.109,0.151c-0.072,0-0.118,0.059-0.136,0.175
			c-0.082,0.438-0.164,0.814-0.245,1.133h1.798v-2.889c0-0.109,0.072-0.163,0.217-0.163c0.69,0,1.036,0.054,1.036,0.163
			c0,0.127-0.045,0.197-0.137,0.205c-0.09,0.018-0.136,0.113-0.136,0.285v2.398h3.052c0.108,0,0.163,0.072,0.163,0.217v0.437
			c0,0.154-0.055,0.231-0.163,0.231h-3.052v3.201h2.724c0.109,0,0.164,0.077,0.164,0.231v0.422c0,0.154-0.055,0.231-0.164,0.231
			h-2.724v3.365h3.433c0.109,0,0.164,0.073,0.164,0.216v0.45c0,0.137-0.054,0.205-0.164,0.205H84.21
			c-0.109,0-0.164-0.068-0.164-0.205v-0.45c0-0.143,0.055-0.216,0.164-0.216h3.596V57.2h-2.67c-0.109,0-0.164-0.077-0.164-0.231
			v-0.422c0-0.154,0.055-0.231,0.164-0.231h2.67v-3.201h-2.016c-0.128,0.427-0.268,0.836-0.423,1.227
			c-0.154,0.371-0.322,0.703-0.503,0.994c-0.118,0-0.218-0.015-0.3-0.041c-0.182-0.073-0.359-0.141-0.531-0.205
			c-0.063-0.027-0.096-0.054-0.096-0.081c0-0.045,0.014-0.082,0.042-0.109c0.272-0.445,0.513-0.993,0.722-1.647
			c0.126-0.372,0.24-0.771,0.34-1.199c0.109-0.445,0.208-1.018,0.3-1.717C85.359,50.264,85.382,50.227,85.409,50.227z"/>
		<path fill="#509D53" d="M95.228,49.396h4.577c0.145,0,0.217,0.06,0.217,0.178v3.908c0,0.118-0.072,0.178-0.217,0.178h-3.815v8.051
			c0,0.116-0.072,0.176-0.217,0.176h-0.545c-0.146,0-0.219-0.06-0.219-0.176V49.573C95.009,49.455,95.081,49.396,95.228,49.396z
			 M95.989,51.139h3.161v-0.967h-3.161V51.139z M95.989,52.883h3.161v-0.968h-3.161V52.883z M98.55,54.463l0.832,0.354
			c0.135,0.054,0.203,0.118,0.203,0.19c0,0.046-0.063,0.077-0.189,0.095c-0.172,0-0.277,0.033-0.314,0.096
			c-0.262,0.264-0.518,0.491-0.762,0.681h4.834c-0.09-0.063-0.166-0.127-0.23-0.189c-0.227-0.2-0.395-0.432-0.504-0.696
			c-0.02-0.026-0.031-0.054-0.041-0.08h-1.975c-0.109,0-0.164-0.079-0.164-0.232v-0.423c0-0.118,0.055-0.178,0.164-0.178h2.506
			c0.145,0,0.219,0.06,0.219,0.178c0,0.22,0.053,0.409,0.162,0.572c0.1,0.163,0.236,0.306,0.408,0.423
			c0.164,0.118,0.393,0.223,0.682,0.313c0.209,0.064,0.436,0.118,0.682,0.164c0.063,0.009,0.096,0.022,0.096,0.041
			c0,0.026-0.041,0.06-0.123,0.096c-0.154,0.153-0.305,0.313-0.449,0.477c-0.063,0.054-0.15,0.081-0.26,0.081
			c-0.182-0.036-0.395-0.113-0.639-0.231c-0.082-0.036-0.16-0.073-0.232-0.108v2.52c0,0.108-0.072,0.164-0.217,0.164h-1.201v1.089
			c0,0.363,0.219,0.546,0.654,0.546h0.547c0.07,0,0.131-0.041,0.176-0.124c0.035-0.073,0.059-0.29,0.068-0.653
			c0.008-0.054,0.018-0.082,0.027-0.082c0.236,0.136,0.49,0.21,0.762,0.218c0.109,0.01,0.164,0.06,0.164,0.151
			c-0.072,0.554-0.172,0.92-0.299,1.104c-0.074,0.144-0.209,0.216-0.41,0.216h-1.471c-0.727,0-1.09-0.275-1.09-0.829v-1.635h-0.98
			c-0.008,0.254-0.021,0.48-0.041,0.68c-0.045,0.255-0.127,0.495-0.244,0.723c-0.102,0.208-0.26,0.408-0.479,0.6
			c-0.227,0.181-0.502,0.34-0.83,0.477c-0.262,0.091-0.566,0.173-0.912,0.244c-0.082,0-0.131-0.045-0.15-0.135
			c-0.127-0.163-0.244-0.34-0.354-0.532c-0.027-0.046-0.041-0.091-0.041-0.136c0.453-0.073,0.818-0.15,1.09-0.232
			c0.219-0.071,0.391-0.167,0.518-0.285c0.137-0.091,0.24-0.205,0.313-0.34c0.092-0.146,0.16-0.319,0.205-0.518
			c0.027-0.128,0.041-0.31,0.041-0.545h-1.021c-0.146,0-0.219-0.056-0.219-0.164V56.07c-0.117,0.081-0.23,0.154-0.34,0.218
			c-0.119,0.055-0.205,0.081-0.26,0.081c-0.063,0-0.141-0.026-0.23-0.081c-0.191-0.082-0.369-0.159-0.532-0.232
			c-0.072-0.026-0.109-0.045-0.109-0.055c0-0.017,0.027-0.045,0.082-0.081c0.436-0.236,0.768-0.45,0.995-0.641
			c0.318-0.226,0.559-0.462,0.723-0.708C98.433,54.498,98.488,54.463,98.55,54.463z M102.474,57.95v-1.255h-3.434v1.255H102.474z
			 M101.71,49.396h4.631c0.184,0,0.273,0.06,0.273,0.178v10.951c0,0.462-0.168,0.821-0.504,1.075
			c-0.318,0.191-0.73,0.318-1.24,0.382c-0.1,0-0.154-0.05-0.162-0.149c-0.02-0.201-0.129-0.495-0.328-0.886
			c0-0.055,0.031-0.082,0.096-0.082c0.555,0,0.881-0.054,0.98-0.163c0.119-0.118,0.176-0.299,0.176-0.545v-6.497h-3.922
			c-0.145,0-0.217-0.06-0.217-0.178v-3.908C101.494,49.455,101.566,49.396,101.71,49.396z M102.474,51.139h3.158v-0.967h-3.158
			V51.139z M102.474,52.883h3.158v-0.968h-3.158V52.883z"/>
		<path fill="#509D53" d="M109.623,51.466h4.195c0.109,0,0.162,0.074,0.162,0.219v0.435c0,0.146-0.053,0.22-0.162,0.22h-4.195
			c-0.109,0-0.164-0.073-0.164-0.22v-0.435C109.458,51.54,109.513,51.466,109.623,51.466z M110.003,57.514h3.432
			c0.146,0,0.219,0.054,0.219,0.163v3.76c0,0.109-0.072,0.163-0.219,0.163h-0.545c-0.107,0-0.162-0.054-0.162-0.163v-0.436h-1.961
			v0.653c0,0.118-0.074,0.178-0.219,0.178h-0.545c-0.109,0-0.164-0.06-0.164-0.178v-3.978
			C109.839,57.567,109.894,57.514,110.003,57.514z M110.275,49.45h3.053c0.107,0,0.164,0.078,0.164,0.232v0.422
			c0,0.145-0.057,0.217-0.164,0.217h-3.053c-0.107,0-0.162-0.072-0.162-0.217v-0.422C110.113,49.528,110.167,49.45,110.275,49.45z
			 M110.275,53.427h3.053c0.107,0,0.164,0.077,0.164,0.232v0.421c0,0.155-0.057,0.233-0.164,0.233h-3.053
			c-0.107,0-0.162-0.078-0.162-0.233v-0.421C110.113,53.504,110.167,53.427,110.275,53.427z M110.275,55.402h3.053
			c0.107,0,0.164,0.067,0.164,0.205v0.448c0,0.137-0.057,0.204-0.164,0.204h-3.053c-0.107,0-0.162-0.067-0.162-0.204v-0.448
			C110.113,55.47,110.167,55.402,110.275,55.402z M110.767,60.144h1.961v-1.799h-1.961V60.144z M115.179,56.097h6.047
			c0.146,0,0.219,0.055,0.219,0.163v4.088c0,0.107-0.072,0.163-0.219,0.163h-1.279c0.264,0.163,0.508,0.3,0.736,0.407
			c0.281,0.128,0.699,0.269,1.252,0.424c0.074,0.045,0.109,0.077,0.109,0.095c0,0.072-0.182,0.29-0.545,0.652
			c-0.027,0-0.072-0.004-0.137-0.012c-1.053-0.408-1.834-0.795-2.342-1.159c-0.055-0.035-0.082-0.063-0.082-0.08
			c0-0.046,0.096-0.156,0.285-0.327h-2.043c0.336,0.281,0.504,0.445,0.504,0.49c0,0.063-0.049,0.096-0.148,0.096
			c-0.174,0-0.27,0.022-0.287,0.067c-0.727,0.428-1.49,0.771-2.287,1.035c-0.102,0-0.174-0.037-0.219-0.11
			c-0.055-0.107-0.15-0.222-0.287-0.34c-0.063-0.054-0.096-0.104-0.096-0.149c0-0.036,0.037-0.063,0.111-0.081
			c0.426-0.128,0.797-0.272,1.117-0.436c0.326-0.146,0.643-0.337,0.953-0.572h-1.363c-0.145,0-0.217-0.056-0.217-0.163V56.26
			C114.962,56.151,115.035,56.097,115.179,56.097z M114.58,50.05h3.16v-0.709c0-0.072,0.055-0.109,0.164-0.109
			c0.654,0,0.98,0.055,0.98,0.164c0,0.118-0.037,0.182-0.109,0.191c-0.072,0.009-0.109,0.09-0.109,0.244v0.219h3.16
			c0.074,0,0.109,0.059,0.109,0.177v0.313c0,0.154-0.035,0.23-0.109,0.23h-3.16v0.6h2.561c0.074,0,0.111,0.051,0.111,0.15v0.326
			c0,0.146-0.037,0.219-0.111,0.219h-6.102c-0.072,0-0.107-0.072-0.107-0.219v-0.326c0-0.1,0.035-0.15,0.107-0.15h2.615v-0.6h-3.16
			c-0.072,0-0.107-0.076-0.107-0.23v-0.313C114.472,50.108,114.507,50.05,114.58,50.05z M114.689,52.665h7.029
			c0.145,0,0.217,0.055,0.217,0.163v2.574c0,0.101-0.072,0.148-0.217,0.148h-7.029c-0.145,0-0.217-0.048-0.217-0.148v-2.574
			C114.472,52.72,114.544,52.665,114.689,52.665z M116.542,54.952v-1.688h-1.199v1.688H116.542z M115.886,57.404h4.633v-0.653
			h-4.633V57.404z M115.886,58.657h4.633v-0.652h-4.633V58.657z M120.519,59.856v-0.599h-4.633v0.599H120.519z M118.775,54.952
			v-1.688h-1.307v1.688H118.775z M121.064,54.952v-1.688h-1.363v1.688H121.064z"/>
	</g>
	<g>
		<g>
			<path fill="#595757" d="M203.394,52.229c0,1.673-1.359,3.033-3.033,3.033c-1.672,0-3.033-1.36-3.033-3.033
				c0-1.672,1.361-3.033,3.033-3.033C202.035,49.196,203.394,50.558,203.394,52.229z M200.361,48.681
				c-1.957,0-3.549,1.592-3.549,3.549s1.592,3.549,3.549,3.549s3.549-1.592,3.549-3.549S202.318,48.681,200.361,48.681z"/>
		</g>
		<g>
			<path fill="#595757" d="M198.779,54.305v-4.149h1.842c0.371,0,0.652,0.038,0.846,0.112c0.191,0.074,0.344,0.206,0.461,0.394
				c0.115,0.19,0.172,0.398,0.172,0.627c0,0.295-0.094,0.543-0.285,0.746c-0.189,0.202-0.486,0.331-0.885,0.386
				c0.146,0.07,0.256,0.138,0.332,0.205c0.16,0.147,0.313,0.331,0.453,0.551l0.721,1.129h-0.688l-0.549-0.863
				c-0.16-0.248-0.293-0.438-0.396-0.57c-0.104-0.132-0.197-0.224-0.279-0.276s-0.164-0.09-0.25-0.111
				c-0.063-0.014-0.164-0.021-0.307-0.021h-0.637v1.842H198.779z M199.33,51.989h1.182c0.25,0,0.447-0.026,0.59-0.078
				s0.25-0.135,0.324-0.25s0.111-0.24,0.111-0.374c0-0.196-0.07-0.358-0.215-0.485c-0.143-0.128-0.369-0.191-0.678-0.191h-1.314
				V51.989z"/>
		</g>
	</g>
</g>
</svg>
