<?xml version="1.0" encoding="utf-8"?>
<!-- Generator: Adobe Illustrator 16.0.0, SVG Export Plug-In . SVG Version: 6.00 Build 0)  -->
<!DOCTYPE svg PUBLIC "-//W3C//DTD SVG 1.1//EN" "http://www.w3.org/Graphics/SVG/1.1/DTD/svg11.dtd">
<svg version="1.1" id="圖層_1" xmlns="http://www.w3.org/2000/svg" xmlns:xlink="http://www.w3.org/1999/xlink" x="0px" y="0px"
	 width="300px" height="300px" viewBox="0 0 300 300" enable-background="new 0 0 300 300" xml:space="preserve">
<g id="圖層_1_1_">
	<g>
		<g>
			<polygon fill="#D94E4D" points="149.342,95.184 109.047,129.685 109.047,129.526 80.209,129.526 80.209,142.238 80.209,157.758 
				80.209,170.471 109.047,170.471 109.047,170.314 149.342,204.816 159.847,204.816 159.847,157.758 159.847,142.238 
				159.847,95.184 			"/>
			<path fill="#D94E4D" d="M159.847,210.027h-10.504c-1.244,0-2.441-0.445-3.386-1.254l-38.65-33.094H80.209
				c-2.876,0-5.209-2.33-5.209-5.209v-40.94c0-2.879,2.332-5.211,5.209-5.211h27.096l38.65-33.093
				c0.944-0.809,2.143-1.254,3.386-1.254h10.502c2.879,0,5.21,2.332,5.21,5.21v109.634
				C165.057,207.695,162.725,210.027,159.847,210.027z M151.271,199.607h3.365v-99.214h-3.365l-38.833,33.249
				c-1.297,1.11-3.043,1.5-4.651,1.095H85.418v30.523h22.676c1.522-0.299,3.125,0.057,4.343,1.1L151.271,199.607z"/>
		</g>
		<path fill="#D94E4D" d="M181.123,178.152c-1.288,0-2.583-0.477-3.592-1.436c-2.084-1.98-2.164-5.273-0.18-7.359
			c18.299-19.225,0.771-37.898,0.019-38.685c-1.995-2.07-1.93-5.374,0.146-7.366c2.071-1.99,5.368-1.93,7.361,0.146
			c8.79,9.137,20.101,31.996,0.02,53.09C183.873,177.609,182.501,178.152,181.123,178.152z"/>
		<path fill="#D94E4D" d="M201.503,198.326c-1.293,0-2.584-0.48-3.594-1.436c-2.082-1.984-2.166-5.281-0.183-7.365
			c37.246-39.123,1.551-77.428,0.012-79.04c-1.981-2.079-1.911-5.376,0.162-7.362c2.072-1.988,5.36-1.924,7.354,0.147
			c0.445,0.464,44.192,47.034,0.016,93.438C204.251,197.783,202.878,198.326,201.503,198.326z"/>
	</g>
</g>
</svg>
