<?xml version="1.0" encoding="utf-8"?>
<!-- Generator: Adobe Illustrator 16.0.0, SVG Export Plug-In . SVG Version: 6.00 Build 0)  -->
<!DOCTYPE svg PUBLIC "-//W3C//DTD SVG 1.1//EN" "http://www.w3.org/Graphics/SVG/1.1/DTD/svg11.dtd">
<svg version="1.1" id="圖層_1" xmlns="http://www.w3.org/2000/svg" xmlns:xlink="http://www.w3.org/1999/xlink" x="0px" y="0px"
	 width="8.211px" height="4.964px" viewBox="0 1.875 8.211 4.964" enable-background="new 0 1.875 8.211 4.964"
	 xml:space="preserve">
<g>
	<g>
		<path fill="#5B3716" d="M4.105,6.84c-0.137,0-0.271-0.055-0.37-0.164L0.129,2.711c-0.185-0.205-0.17-0.521,0.034-0.707
			c0.205-0.184,0.52-0.17,0.707,0.034l3.606,3.965c0.186,0.204,0.17,0.521-0.034,0.706C4.347,6.797,4.227,6.84,4.105,6.84z"/>
	</g>
	<g>
		<path fill="#5B3716" d="M4.105,6.84c-0.12,0-0.241-0.043-0.336-0.13c-0.205-0.186-0.22-0.502-0.034-0.706L7.34,2.039
			C7.527,1.834,7.844,1.82,8.047,2.004C8.252,2.19,8.267,2.506,8.08,2.711L4.476,6.676C4.377,6.785,4.242,6.84,4.105,6.84z"/>
	</g>
</g>
</svg>
