<?xml version="1.0" encoding="utf-8"?>
<!-- Generator: Adobe Illustrator 16.0.0, SVG Export Plug-In . SVG Version: 6.00 Build 0)  -->
<!DOCTYPE svg PUBLIC "-//W3C//DTD SVG 1.1//EN" "http://www.w3.org/Graphics/SVG/1.1/DTD/svg11.dtd">
<svg version="1.1" id="圖層_1" xmlns="http://www.w3.org/2000/svg" xmlns:xlink="http://www.w3.org/1999/xlink" x="0px" y="0px"
	 width="300px" height="300px" viewBox="0 0 300 300" enable-background="new 0 0 300 300" xml:space="preserve">
<g>
	<g>
		<g>
			<polygon fill="#DF8179" stroke="#DF8179" stroke-linecap="round" stroke-linejoin="round" stroke-miterlimit="10" points="
				112.139,226.502 114.83,218.574 109.826,211.867 118.192,211.975 123.025,205.141 125.509,213.135 133.501,215.615 
				126.668,220.449 126.775,228.818 120.067,223.814 			"/>
			<polygon fill="#DF8179" stroke="#DF8179" stroke-linecap="round" stroke-linejoin="round" stroke-miterlimit="10" points="
				150.417,241.174 146.713,233.67 138.431,232.463 144.422,226.623 143.009,218.375 150.417,222.27 157.824,218.373 
				156.412,226.623 162.402,232.463 154.121,233.67 			"/>
			<polygon fill="#DF8179" stroke="#DF8179" stroke-linecap="round" stroke-linejoin="round" stroke-miterlimit="10" points="
				187.861,224.486 179.932,221.795 173.225,226.801 173.332,218.434 166.498,213.602 174.49,211.117 176.971,203.123 
				181.807,209.955 190.174,209.85 185.17,216.561 			"/>
		</g>
		<g>
			<polygon fill="#DF8179" stroke="#DF8179" stroke-linecap="round" stroke-linejoin="round" stroke-miterlimit="10" points="
				112.139,73.5 114.83,81.427 109.826,88.135 118.192,88.027 123.025,94.86 125.509,86.868 133.501,84.387 126.668,79.553 
				126.775,71.184 120.067,76.189 			"/>
			<polygon fill="#DF8179" stroke="#DF8179" stroke-linecap="round" stroke-linejoin="round" stroke-miterlimit="10" points="
				150.417,58.827 146.713,66.333 138.431,67.539 144.422,73.378 143.009,81.627 150.417,77.733 157.824,81.63 156.412,73.381 
				162.402,67.539 154.121,66.333 			"/>
			<polygon fill="#DF8179" stroke="#DF8179" stroke-linecap="round" stroke-linejoin="round" stroke-miterlimit="10" points="
				187.861,75.518 179.932,78.207 173.225,73.203 173.332,81.568 166.498,86.402 174.49,88.886 176.971,96.879 181.807,90.047 
				190.174,90.151 185.17,83.443 			"/>
		</g>
	</g>
	<circle fill="none" cx="150" cy="150" r="116.969"/>
	<g>
		<path fill="#DF8179" d="M134.537,174.904c2.26,0,2.698-1.24,3.063-8.605c1.823,1.387,5.542,2.844,7.949,3.355
			c-0.949,10.354-3.282,13.125-10.137,13.125h-9.333c-8.241,0-10.72-2.404-10.72-10.428v-14.805h-7.511
			c-1.751,12.543-5.979,21.514-24.138,26.691c-0.875-2.262-3.063-5.762-4.959-7.512c15.679-3.721,18.669-10.209,19.908-19.18H86.118
			v-27.565h10.791c-1.313-3.353-3.791-7.656-5.979-10.938l7.657-3.28c2.845,3.864,6.053,9.042,7.293,12.614l-3.646,1.604h14.365
			c2.917-4.083,5.979-9.771,7.729-14.074l9.262,2.772c-2.334,3.866-4.959,7.876-7.365,11.302h11.083v27.565h-12.906v14.586
			c0,2.404,0.437,2.771,3.063,2.771H134.537z M95.086,149.891h32.668v-12.252H95.086V149.891z"/>
		<path fill="#DF8179" d="M201.924,163.162c4.084,6.201,11.01,11.232,19.322,13.637c-1.748,1.678-4.154,4.74-5.32,6.781
			c-8.17-3.061-14.805-8.604-19.398-15.824c-3.719,5.762-9.918,11.521-20.271,16.336c-1.238-1.752-3.938-4.594-5.906-5.98
			c10.865-4.447,16.553-9.77,19.543-14.949h-15.533v-7.363h4.447v-16.189c-1.166-1.605-2.916-3.72-4.373-4.96v3.063h-5.98v10.72
			l5.98-1.604l1.164,7.805c-2.404,0.727-4.736,1.457-7.145,2.186v17.064c0,4.156-0.729,6.416-2.99,7.803
			c-2.188,1.459-5.396,1.822-9.916,1.752c-0.291-2.336-1.313-5.98-2.408-8.389c2.48,0.074,4.887,0.074,5.762,0
			c0.875,0,1.166-0.291,1.166-1.166v-14.658l-6.563,1.824l-1.895-8.24c2.406-0.512,5.25-1.238,8.457-2.114v-12.982h-7.436v-8.021
			h7.436v-13.71h8.387v13.71h5.98v4.157c6.563-5.251,11.082-12.032,13.563-17.793l8.604,1.604c-0.729,1.458-1.457,2.916-2.26,4.447
			h13.053l1.385-0.364l5.688,3.866c-1.602,2.696-3.791,5.905-6.197,8.895h7.293v21.296h4.229v7.363H201.924z M189.818,129.326
			c-1.311,1.824-2.697,3.501-4.229,5.177h12.979c1.314-1.676,2.625-3.427,3.793-5.177H189.818z M192.59,155.799
			c0.438-2.406,0.512-4.594,0.512-6.638v-8.167h-5.98v14.805H192.59z M202.578,140.994l-0.07,0.073l-0.072-0.073h-0.877v8.239
			c0,2.044-0.145,4.229-0.512,6.565h5.836v-14.805H202.578z"/>
	</g>
	<circle fill="none" stroke="#DF8179" stroke-width="2" stroke-miterlimit="10" cx="150.001" cy="150.002" r="104.152"/>
</g>
<g>
	<g>
		<polygon fill="#D83A35" stroke="#D83A35" stroke-linecap="round" stroke-linejoin="round" stroke-miterlimit="10" points="
			372.005,187.974 373.333,184.061 370.862,180.75 374.992,180.803 377.378,177.43 378.604,181.375 382.55,182.6 379.177,184.986 
			379.229,189.117 375.918,186.646 		"/>
		<polygon fill="#D83A35" stroke="#D83A35" stroke-linecap="round" stroke-linejoin="round" stroke-miterlimit="10" points="
			390.899,195.217 389.071,191.512 384.983,190.916 387.94,188.033 387.243,183.962 390.899,185.885 394.556,183.961 
			393.858,188.033 396.815,190.916 392.728,191.512 		"/>
		<polygon fill="#D83A35" stroke="#D83A35" stroke-linecap="round" stroke-linejoin="round" stroke-miterlimit="10" points="
			409.382,186.979 405.469,185.65 402.157,188.121 402.21,183.991 398.837,181.605 402.782,180.379 404.007,176.434 
			406.394,179.806 410.524,179.754 408.054,183.066 		"/>
	</g>
	<g>
		<polygon fill="#D83A35" stroke="#D83A35" stroke-linecap="round" stroke-linejoin="round" stroke-miterlimit="10" points="
			372.005,112.449 373.333,116.361 370.862,119.673 374.992,119.62 377.378,122.993 378.604,119.047 382.55,117.823 
			379.177,115.437 379.229,111.306 375.918,113.776 		"/>
		<polygon fill="#D83A35" stroke="#D83A35" stroke-linecap="round" stroke-linejoin="round" stroke-miterlimit="10" points="
			390.899,105.206 389.071,108.911 384.983,109.506 387.94,112.389 387.243,116.46 390.899,114.538 394.556,116.462 393.858,112.39 
			396.815,109.506 392.728,108.911 		"/>
		<polygon fill="#D83A35" stroke="#D83A35" stroke-linecap="round" stroke-linejoin="round" stroke-miterlimit="10" points="
			409.382,113.444 405.469,114.772 402.157,112.302 402.21,116.431 398.837,118.817 402.782,120.043 404.007,123.989 
			406.394,120.617 410.524,120.668 408.054,117.356 		"/>
	</g>
</g>
<g>
	<path fill="#D83A35" d="M330.618,168.66c0.084,0.276,0.119,0.479,0.128,0.654c0.225,0.154,0.431,0.188,0.617,0.132
		c0.383-0.116,0.474-0.606,0.273-1.265c-0.208-0.684-0.652-1.063-1.01-0.955c-0.325,0.1-0.325,0.393-0.177,0.881L330.618,168.66z"/>
	<path fill="#D83A35" d="M359.729,94.302c0.29-0.161,0.469-0.416,0.541-0.863l-1.014-1.828c-0.38-0.09-0.692-0.024-0.953,0.121
		c-0.468,0.259-0.614,0.923-0.153,1.756C358.628,94.349,359.179,94.607,359.729,94.302z"/>
	<path fill="#D83A35" d="M328.981,149.675c0.012-0.714-0.295-1.212-0.669-1.218c-0.34-0.006-0.429,0.273-0.438,0.783l-0.009,0.578
		c-0.005,0.289-0.034,0.493-0.079,0.662c0.167,0.215,0.352,0.312,0.548,0.315C328.734,150.802,328.971,150.364,328.981,149.675z"/>
	<path fill="#D83A35" d="M354.196,97.156c0.209,0.311,0.518,0.298,0.821,0.095c0.297-0.198,0.421-0.486,0.51-0.904l-0.534-0.798
		C354.105,96.316,353.96,96.802,354.196,97.156z"/>
	<path fill="#D83A35" d="M345.571,100.169c-0.464-0.497-0.95-0.357-1.54,0.193l-0.596,0.557l1.311,1.404l0.596-0.557
		C345.932,101.215,346.029,100.659,345.571,100.169z"/>
	<path fill="#D83A35" d="M350.752,97.839c-0.395-0.5-0.874-0.641-1.354-0.262c-0.394,0.311-0.52,0.865-0.166,1.462L350.752,97.839z"
		/>
	<path fill="#D83A35" d="M324.556,148.966c-0.553-0.009-0.872,0.309-0.879,0.734s0.302,0.753,0.854,0.762
		c0.569,0.009,0.89-0.317,0.896-0.733S325.125,148.976,324.556,148.966z"/>
	<path fill="#D83A35" d="M328.27,169.32c-0.121-0.398-0.519-0.624-1.063-0.459c-0.529,0.162-0.735,0.563-0.612,0.969
		c0.124,0.406,0.519,0.624,1.047,0.463C328.186,170.128,328.391,169.719,328.27,169.32z"/>
	<path fill="#D83A35" d="M338.293,191.799c0.313,0.391,0.866,0.514,1.462,0.158l-1.207-1.514
		C338.05,190.84,337.912,191.32,338.293,191.799z"/>
	<path fill="#D83A35" d="M354.414,202.758c-0.293-0.205-0.606-0.216-1.027-0.146l-0.55,0.787c1.038,0.549,1.543,0.508,1.787,0.158
		C354.838,203.25,354.714,202.967,354.414,202.758z"/>
	<path fill="#D83A35" d="M340.897,195.617c-0.494,0.468-0.352,0.953,0.204,1.541l0.561,0.593l1.396-1.321l-0.561-0.593
		C341.942,195.25,341.386,195.156,340.897,195.617z"/>
	<path fill="#D83A35" d="M334.958,181.489c-0.162-0.289-0.419-0.468-0.867-0.537l-1.824,1.024c-0.089,0.382-0.021,0.694,0.126,0.954
		c0.262,0.468,0.928,0.61,1.759,0.144C335.011,182.592,335.267,182.038,334.958,181.489z"/>
	<path fill="#D83A35" d="M337.848,187.004c0.309-0.209,0.295-0.518,0.091-0.82c-0.2-0.295-0.488-0.418-0.906-0.504l-0.795,0.537
		C337.009,187.1,337.495,187.242,337.848,187.004z"/>
	<path fill="#D83A35" d="M453.017,149.01c-0.399,0.007-0.622,0.452-0.611,1.141c0.012,0.714,0.334,1.203,0.708,1.196
		c0.34-0.005,0.421-0.287,0.412-0.797l-0.009-0.578c-0.005-0.289,0.018-0.494,0.058-0.664
		C453.4,149.098,453.212,149.007,453.017,149.01z"/>
	<path fill="#D83A35" d="M452.908,130.429c0.125,0.397,0.525,0.618,1.068,0.446c0.526-0.167,0.729-0.569,0.601-0.974
		c-0.128-0.405-0.525-0.618-1.052-0.452C452.982,129.621,452.782,130.032,452.908,130.429z"/>
	<path fill="#D83A35" d="M450.567,131.116c-0.088-0.275-0.125-0.478-0.136-0.652c-0.226-0.151-0.433-0.184-0.618-0.125
		c-0.381,0.121-0.467,0.611-0.259,1.267c0.215,0.681,0.663,1.056,1.021,0.943c0.323-0.103,0.32-0.396,0.166-0.882L450.567,131.116z"
		/>
	<path fill="#D83A35" d="M443.135,112.845c-0.308,0.213-0.291,0.521-0.083,0.822c0.203,0.293,0.493,0.414,0.912,0.496l0.79-0.547
		C443.972,112.741,443.483,112.604,443.135,112.845z"/>
	<path fill="#D83A35" d="M446.092,118.346c0.166,0.288,0.424,0.463,0.873,0.528l1.813-1.043c0.084-0.382,0.013-0.694-0.136-0.952
		c-0.268-0.464-0.935-0.601-1.76-0.125C446.027,117.245,445.778,117.8,446.092,118.346z"/>
	<path fill="#D83A35" d="M456.828,149.221c-0.569,0.009-0.878,0.346-0.871,0.762c0.006,0.417,0.326,0.743,0.896,0.734
		c0.553-0.009,0.861-0.337,0.854-0.762C457.7,149.53,457.381,149.212,456.828,149.221z"/>
	<path fill="#D83A35" d="M390.542,215.479c-0.417-0.006-0.753,0.303-0.763,0.872c-0.009,0.553,0.31,0.872,0.734,0.879
		s0.753-0.302,0.762-0.854C391.285,215.806,390.958,215.485,390.542,215.479z"/>
	<path fill="#D83A35" d="M439.989,104.27c0.489-0.472,0.342-0.956-0.22-1.537l-0.566-0.587l-1.383,1.334l0.566,0.587
		C438.948,104.648,439.506,104.737,439.989,104.27z"/>
	<path fill="#D83A35" d="M391.53,84.949c0.417,0.007,0.753-0.302,0.763-0.872c0.009-0.553-0.31-0.872-0.734-0.879
		s-0.753,0.302-0.762,0.854C390.787,84.623,391.114,84.942,391.53,84.949z"/>
	<path fill="#D83A35" d="M391.583,88.504c0.714,0.011,1.212-0.295,1.219-0.669c0.005-0.34-0.274-0.43-0.784-0.438l-0.578-0.009
		c-0.288-0.004-0.492-0.033-0.661-0.079c-0.216,0.167-0.312,0.352-0.315,0.547C390.457,88.256,390.895,88.493,391.583,88.504z"/>
	<path fill="#D83A35" d="M373.063,91.052c0.685-0.204,1.067-0.646,0.961-1.004c-0.098-0.326-0.391-0.327-0.88-0.182l-0.554,0.165
		c-0.277,0.083-0.479,0.116-0.655,0.124c-0.154,0.224-0.191,0.43-0.135,0.617C371.914,91.155,372.403,91.249,373.063,91.052z"/>
	<path fill="#D83A35" d="M371.943,87.678c0.399-0.119,0.627-0.515,0.465-1.061c-0.157-0.53-0.557-0.739-0.965-0.618
		c-0.407,0.121-0.627,0.515-0.469,1.044C371.137,87.589,371.544,87.796,371.943,87.678z"/>
	<path fill="#D83A35" d="M426.394,97.273c0.295,0.202,0.608,0.209,1.028,0.136l0.542-0.793c-1.043-0.537-1.548-0.491-1.788-0.14
		C425.966,96.785,426.092,97.067,426.394,97.273z"/>
	<path fill="#D83A35" d="M442.658,108.076c-0.317-0.389-0.873-0.506-1.467-0.144l1.225,1.503
		C442.91,109.032,443.045,108.551,442.658,108.076z"/>
	<path fill="#D83A35" d="M338.337,113.659c0.206-0.292,0.219-0.605,0.152-1.026l-0.785-0.553c-0.553,1.034-0.514,1.54-0.167,1.785
		C337.843,114.079,338.126,113.957,338.337,113.659z"/>
	<path fill="#D83A35" d="M408.98,209.171c-0.682,0.212-1.06,0.657-0.948,1.015c0.101,0.325,0.394,0.323,0.881,0.172l0.552-0.171
		c0.275-0.086,0.479-0.122,0.653-0.132c0.152-0.225,0.187-0.432,0.128-0.618C410.128,209.055,409.638,208.967,408.98,209.171z"/>
	<path fill="#D83A35" d="M436.375,199.748c0.47,0.492,0.954,0.347,1.538-0.211l0.591-0.564l-1.328-1.39l-0.59,0.563
		C436.002,198.705,435.91,199.263,436.375,199.748z"/>
	<path fill="#D83A35" d="M390.489,211.924c-0.714-0.011-1.212,0.295-1.219,0.67c-0.005,0.34,0.274,0.43,0.784,0.438l0.578,0.01
		c0.288,0.004,0.492,0.033,0.661,0.078c0.216-0.166,0.312-0.352,0.315-0.547C391.615,212.172,391.178,211.936,390.489,211.924z"/>
	<path fill="#D83A35" d="M410.139,212.531c-0.397,0.123-0.621,0.521-0.453,1.066c0.164,0.527,0.565,0.732,0.972,0.605
		c0.406-0.125,0.621-0.521,0.458-1.049C410.946,212.609,410.536,212.408,410.139,212.531z"/>
	<path fill="#D83A35" d="M443.445,186.192c-0.202,0.294-0.212,0.608-0.141,1.028l0.792,0.545c0.541-1.041,0.497-1.547,0.146-1.787
		C443.936,185.766,443.652,185.892,443.445,186.192z"/>
	<path fill="#D83A35" d="M431.196,202.151c0.4,0.497,0.883,0.633,1.359,0.249c0.391-0.316,0.511-0.871,0.15-1.467L431.196,202.151z"
		/>
	<path fill="#D83A35" d="M427.784,202.85c-0.211-0.309-0.52-0.293-0.82-0.086c-0.295,0.201-0.416,0.49-0.499,0.908l0.543,0.792
		C427.886,203.687,428.024,203.199,427.784,202.85z"/>
	<path fill="#D83A35" d="M390.692,77.396c-40.893,0-74.043,33.15-74.043,74.043c0,40.893,33.15,74.043,74.043,74.043
		c40.894,0,74.044-33.15,74.044-74.043C464.736,110.546,431.586,77.396,390.692,77.396z M459.318,140.365l-1.038,0.18l-0.444-2.563
		l-1.432,0.248l0.377,2.178l-1.039,0.18l-0.377-2.178l-1.659,0.287l0.46,2.656l-1.039,0.18l-0.674-3.896l6.207-1.074
		L459.318,140.365z M458.478,152.373l-0.918,0.016l-0.013-0.808c-0.16,0.122-0.422,0.22-0.719,0.224
		c-1.071,0.018-1.629-0.789-1.645-1.809c-0.004-0.187,0.035-0.409,0.101-0.614c-0.113-0.125-0.216-0.201-0.412-0.197
		c-0.255,0.004-0.388,0.193-0.379,0.754l0.014,0.807c0.019,1.147-0.328,1.782-1.161,1.795c-0.961,0.016-1.708-0.975-1.733-2.564
		c-0.019-1.122,0.351-1.995,1.191-2.008c0.399-0.006,0.744,0.234,0.997,0.664l0.043-0.001c0.157-0.249,0.4-0.44,0.792-0.446
		c0.356-0.006,0.692,0.235,0.9,0.521l0.034,0c0.232-0.335,0.678-0.648,1.239-0.658c1.113-0.018,1.731,0.882,1.748,1.893
		c0.004,0.264-0.043,0.52-0.107,0.716L458.478,152.373z M456.391,160.401c-0.344-0.056-0.539,0.361-0.804,0.827
		c-0.334,0.583-0.755,1.222-1.627,1.082c-0.823-0.132-1.383-0.884-1.187-2.109c0.101-0.629,0.488-1.273,0.949-1.682l0.682,0.686
		c-0.395,0.367-0.644,0.741-0.713,1.178c-0.075,0.47,0.093,0.712,0.387,0.759c0.352,0.057,0.59-0.405,0.861-0.869
		c0.322-0.56,0.789-1.165,1.578-1.038c0.839,0.134,1.326,0.908,1.154,1.982c-0.108,0.681-0.479,1.164-0.834,1.502l-0.658-0.673
		c0.297-0.297,0.509-0.599,0.563-0.942C456.812,160.676,456.659,160.444,456.391,160.401z M453.272,157.426l0.13-1.243l4.734,0.495
		l-0.13,1.243L453.272,157.426z M457.487,143.531c0.441,0.381,0.821,0.835,0.876,1.479c0.087,1.024-0.588,1.525-1.781,1.626
		l-2.956,0.25l-0.105-1.245l2.804-0.237c0.736-0.063,0.974-0.288,0.934-0.753c-0.033-0.39-0.24-0.62-0.616-0.938l-3.261,0.276
		l-0.105-1.245l4.742-0.401l0.086,1.016l-0.618,0.146L457.487,143.531z M453.558,133.679l0.867-0.211l0.55,2.253l-0.867,0.212
		L453.558,133.679z M455.388,129.645c0.079,0.251,0.107,0.509,0.102,0.716l0.518,1.637l-0.875,0.277l-0.243-0.77
		c-0.118,0.162-0.342,0.331-0.625,0.42c-1.021,0.323-1.785-0.291-2.093-1.263c-0.057-0.178-0.083-0.402-0.079-0.617
		c-0.145-0.088-0.265-0.13-0.451-0.071c-0.243,0.077-0.316,0.296-0.146,0.831l0.243,0.77c0.346,1.094,0.195,1.801-0.599,2.052
		c-0.915,0.29-1.915-0.446-2.395-1.961c-0.338-1.07-0.235-2.012,0.567-2.265c0.381-0.121,0.779,0.012,1.145,0.351l0.041-0.013
		c0.079-0.284,0.258-0.536,0.631-0.654c0.34-0.107,0.73,0.027,1.012,0.241l0.033-0.01c0.126-0.388,0.464-0.815,0.998-0.984
		C454.232,127.995,455.082,128.68,455.388,129.645z M452.495,127.04l-2.743,1.129l-0.475-1.155l2.601-1.07
		c0.684-0.282,0.842-0.567,0.664-1c-0.149-0.361-0.416-0.518-0.87-0.708l-3.025,1.245l-0.476-1.155l4.4-1.812l0.388,0.943
		l-0.546,0.326l0.01,0.023c0.536,0.23,1.035,0.548,1.28,1.146C454.095,125.904,453.603,126.584,452.495,127.04z M333.291,151.439
		c0-31.703,25.7-57.403,57.402-57.403s57.402,25.7,57.402,57.403c0,31.702-25.7,57.402-57.402,57.402
		S333.291,183.142,333.291,151.439z M334.09,177.885l-4.299,2.051l-0.538-1.128l4.298-2.051L334.09,177.885z M447.54,123.038
		l-0.552-1.122l4.272-2.102l0.552,1.122L447.54,123.038z M452.52,119.081c0.366-0.18,0.742-0.033,0.934,0.356
		c0.188,0.381,0.075,0.769-0.291,0.949c-0.374,0.184-0.75,0.037-0.938-0.344C452.033,119.652,452.146,119.265,452.52,119.081z
		 M449.398,116.129c0.268,0.464,0.256,0.854,0.152,1.305l0.628-0.41l1.451-0.835l0.62,1.076l-5.882,3.385l-0.505-0.877l0.381-0.327
		l-0.017-0.029c-0.469-0.133-0.942-0.41-1.188-0.837c-0.59-1.025-0.16-2.155,1.195-2.935
		C447.576,114.872,448.885,115.237,449.398,116.129z M444.902,110.381c0.605,0.263,1.224,0.663,1.648,1.277
		c0.688,0.993,0.446,1.914-0.686,2.697l-2.285,1.582l-0.581-0.838l0.371-0.36l-0.02-0.028c-0.53-0.139-1.024-0.376-1.334-0.823
		c-0.484-0.699-0.307-1.503,0.356-1.963c0.839-0.581,1.748-0.207,3.01,1.256c0.369-0.287,0.547-0.658,0.213-1.14
		c-0.251-0.364-0.654-0.602-1.115-0.82L444.902,110.381z M443.398,107.45c0.827,1.016,0.512,2.149-0.503,2.977
		c-0.185,0.15-0.379,0.276-0.486,0.319l-1.853-2.274c-0.542,0.573-0.536,1.227-0.091,1.774c0.247,0.303,0.555,0.492,0.935,0.621
		l-0.325,0.813c-0.546-0.158-1.085-0.498-1.456-0.952c-0.844-1.035-0.78-2.425,0.439-3.418
		C441.252,106.337,442.684,106.574,443.398,107.45z M440.574,102.122c0.915,0.948,1.306,2.026,0.265,3.03
		c-0.679,0.655-1.432,0.72-2.136,0.395l-0.832,2.848l-0.975-1.01l0.815-2.583l-0.607-0.63l-1.714,1.653l-0.874-0.906l4.534-4.375
		L440.574,102.122z M435.066,99.012l0.96-0.863l0.774,0.689l-0.853,0.958l0.876,0.779l-0.655,0.736l-0.876-0.779l-1.399,1.574
		c-0.361,0.406-0.366,0.744-0.049,1.026c0.114,0.102,0.288,0.188,0.417,0.234l-0.452,0.814c-0.246-0.106-0.556-0.256-0.867-0.533
		c-0.844-0.751-0.688-1.579,0.018-2.372l1.4-1.574l-0.502-0.446l0.616-0.692L435.066,99.012z M432.514,96.91l-0.448,0.718
		l0.02,0.016c0.658-0.271,1.269-0.222,1.655,0.083c0.207,0.163,0.301,0.291,0.377,0.427l-0.835,0.715
		c-0.102-0.145-0.192-0.25-0.346-0.371c-0.294-0.231-0.8-0.317-1.433,0.06l-1.759,2.228l-0.98-0.774l2.948-3.734L432.514,96.91z
		 M428.395,95.984c0.243-0.4,0.275-0.81-0.209-1.141c-0.364-0.249-0.826-0.327-1.335-0.366l0.093-0.935
		c0.66,0.028,1.38,0.18,1.997,0.602c0.997,0.68,1.103,1.626,0.326,2.764l-1.567,2.295l-0.842-0.575l0.217-0.469l-0.027-0.019
		c-0.545,0.06-1.092,0.017-1.541-0.29c-0.702-0.479-0.825-1.294-0.37-1.961C425.711,95.047,426.693,95.07,428.395,95.984z
		 M420.573,89.343l-0.219,0.606l0.022,0.012c0.549-0.179,1.099-0.27,1.646,0.023c0.6,0.321,0.808,0.779,0.761,1.352
		c0.599-0.2,1.18-0.313,1.728-0.02c0.891,0.478,0.966,1.327,0.4,2.384l-1.4,2.615l-1.102-0.59l1.328-2.48
		c0.35-0.652,0.282-0.977-0.115-1.189c-0.239-0.128-0.594-0.116-1.062,0.039l-1.545,2.884l-1.094-0.586l1.328-2.48
		c0.35-0.652,0.274-0.981-0.122-1.193c-0.24-0.128-0.594-0.116-1.055,0.042l-1.545,2.884l-1.102-0.59l2.247-4.195L420.573,89.343z
		 M413.49,89.672c0.261,0.555,0.707,1.038,1.219,1.245c0.606,0.246,1.034,0.117,1.2-0.293c0.176-0.433-0.125-0.71-0.555-1.141
		l-0.646-0.646c-0.492-0.483-0.892-1.195-0.547-2.045c0.386-0.953,1.517-1.347,2.698-0.868c0.677,0.274,1.246,0.816,1.523,1.488
		l-0.887,0.493c-0.246-0.457-0.562-0.786-1.042-0.981c-0.512-0.207-0.927-0.109-1.083,0.276c-0.169,0.417,0.18,0.732,0.596,1.13
		l0.633,0.632c0.591,0.578,0.874,1.215,0.532,2.058c-0.386,0.953-1.51,1.441-2.855,0.896c-0.779-0.315-1.435-0.938-1.781-1.711
		L413.49,89.672z M406.274,82.159l1.209,0.314l-0.43,1.653l-0.281,0.849c0.46-0.25,0.997-0.461,1.622-0.298
		c0.995,0.258,1.244,1.061,0.942,2.22l-0.745,2.87l-1.209-0.314l0.707-2.722c0.186-0.716,0.052-1.014-0.4-1.131
		c-0.378-0.098-0.663,0.021-1.088,0.271l-0.823,3.167l-1.209-0.314L406.274,82.159z M400.708,86.651
		c0.36,0.4,0.729,0.655,1.164,0.732c0.469,0.083,0.713-0.081,0.765-0.374c0.063-0.352-0.395-0.596-0.854-0.875
		c-0.554-0.331-1.151-0.808-1.012-1.594c0.147-0.836,0.931-1.31,2.001-1.12c0.677,0.12,1.153,0.497,1.486,0.858l-0.684,0.646
		c-0.292-0.302-0.59-0.518-0.933-0.579c-0.427-0.075-0.659,0.073-0.707,0.341c-0.061,0.343,0.352,0.545,0.813,0.816
		c0.578,0.344,1.209,0.774,1.055,1.644c-0.146,0.819-0.906,1.366-2.127,1.15c-0.627-0.111-1.264-0.508-1.664-0.976L400.708,86.651z
		 M399.157,80.838c0.422,0.051,0.685,0.357,0.636,0.762c-0.051,0.414-0.378,0.647-0.801,0.597c-0.43-0.052-0.692-0.358-0.643-0.771
		C398.398,81.02,398.727,80.786,399.157,80.838z M398.276,82.88l1.24,0.15l-0.572,4.725l-1.24-0.15L398.276,82.88z M395.447,80.601
		l1.245,0.096l-0.425,5.479c-0.022,0.288,0.098,0.391,0.217,0.4c0.051,0.004,0.084,0.007,0.17-0.004l0.081,0.935
		c-0.148,0.048-0.355,0.083-0.652,0.06c-0.863-0.067-1.124-0.658-1.056-1.539L395.447,80.601z M389.69,86.212
		c0.006-0.357,0.258-0.685,0.55-0.884l0.001-0.034c-0.328-0.243-0.626-0.699-0.617-1.26c0.018-1.113,0.937-1.702,1.948-1.686
		c0.264,0.004,0.518,0.06,0.712,0.13l1.717,0.028l-0.015,0.918l-0.808-0.013c0.116,0.164,0.206,0.429,0.201,0.726
		c-0.018,1.071-0.842,1.602-1.862,1.585c-0.187-0.003-0.407-0.049-0.61-0.12c-0.129,0.108-0.207,0.209-0.21,0.404
		c-0.004,0.255,0.181,0.394,0.741,0.403l0.808,0.013c1.147,0.019,1.771,0.385,1.757,1.218c-0.016,0.96-1.03,1.675-2.619,1.649
		c-1.122-0.018-1.982-0.415-1.969-1.256c0.006-0.399,0.258-0.735,0.695-0.975l0.001-0.042
		C389.867,86.853,389.685,86.603,389.69,86.212z M384.942,82.695l0.137,0.621l0.025-0.001c0.388-0.436,0.849-0.808,1.493-0.852
		c1.026-0.07,1.517,0.612,1.598,1.809l0.203,2.96l-1.248,0.085l-0.191-2.808c-0.051-0.738-0.271-0.979-0.738-0.947
		c-0.391,0.027-0.623,0.23-0.947,0.602l0.223,3.267l-1.247,0.085l-0.324-4.751L384.942,82.695z M381.983,81.446l0.161,1.041
		l-2.568,0.396l0.223,1.436l2.182-0.337l0.161,1.041l-2.183,0.337l0.257,1.662l2.66-0.411l0.161,1.041l-3.902,0.603l-0.961-6.219
		L381.983,81.446z M377.252,85.704l0.197,0.87l-2.262,0.512l-0.197-0.87L377.252,85.704z M371.201,85.184
		c0.253-0.075,0.512-0.099,0.719-0.089l1.646-0.49l0.262,0.88l-0.773,0.23c0.16,0.121,0.325,0.347,0.409,0.632
		c0.306,1.027-0.321,1.781-1.299,2.072c-0.179,0.054-0.403,0.076-0.618,0.069c-0.091,0.142-0.135,0.262-0.079,0.449
		c0.073,0.245,0.291,0.322,0.829,0.162l0.773-0.23c1.101-0.328,1.806-0.165,2.043,0.633c0.274,0.921-0.479,1.908-2.002,2.362
		c-1.076,0.32-2.017,0.201-2.257-0.606c-0.113-0.383,0.025-0.779,0.371-1.139l-0.013-0.041c-0.282-0.084-0.532-0.268-0.644-0.643
		c-0.102-0.342,0.04-0.73,0.259-1.008l-0.01-0.032c-0.386-0.134-0.808-0.479-0.968-1.016
		C369.532,86.311,370.231,85.473,371.201,85.184z M364.958,87.516l0.317,0.551l0.023-0.009c0.237-0.532,0.563-1.025,1.164-1.262
		c0.957-0.376,1.629,0.125,2.068,1.24l1.086,2.758l-1.162,0.458l-1.03-2.616c-0.271-0.688-0.554-0.85-0.988-0.679
		c-0.363,0.143-0.524,0.407-0.721,0.859l1.198,3.043l-1.162,0.458l-1.743-4.426L364.958,87.516z M364.471,92.92l-1.131,0.532
		l-2.025-4.307l1.131-0.532L364.471,92.92z M360.977,86.948c0.384-0.181,0.77-0.062,0.942,0.308c0.178,0.377,0.024,0.75-0.36,0.93
		c-0.393,0.185-0.777,0.065-0.954-0.312C360.431,87.505,360.584,87.132,360.977,86.948z M357.566,90.964
		c0.469-0.26,0.857-0.242,1.307-0.132l-0.399-0.633l-0.812-1.464l1.085-0.602l3.287,5.93l-0.884,0.49l-0.321-0.386l-0.029,0.017
		c-0.14,0.466-0.424,0.935-0.855,1.173c-1.032,0.573-2.154,0.126-2.913-1.241C356.282,92.764,356.668,91.462,357.566,90.964z
		 M353.063,93.72c1.003-0.671,1.921-0.417,2.688,0.728l1.547,2.31l-0.848,0.568l-0.354-0.376l-0.028,0.019
		c-0.147,0.529-0.392,1.02-0.844,1.322c-0.707,0.473-1.509,0.284-1.958-0.387c-0.568-0.848-0.181-1.752,1.303-2.99
		c-0.281-0.375-0.649-0.558-1.138-0.231c-0.367,0.246-0.611,0.645-0.837,1.103l-0.833-0.435
		C352.032,94.748,352.441,94.136,353.063,93.72z M348.784,96.827c1.027-0.811,2.155-0.479,2.966,0.548
		c0.147,0.187,0.27,0.383,0.312,0.491l-2.3,1.816c0.563,0.55,1.217,0.555,1.771,0.118c0.307-0.242,0.499-0.546,0.635-0.923
		l0.807,0.337c-0.166,0.543-0.514,1.077-0.974,1.44c-1.047,0.826-2.435,0.742-3.408-0.492
		C347.639,98.955,347.897,97.527,348.784,96.827z M343.435,99.548c0.962-0.899,2.045-1.271,3.031-0.214
		c0.644,0.689,0.695,1.442,0.359,2.14l2.831,0.878l-1.024,0.957l-2.568-0.857l-0.64,0.597l1.624,1.739l-0.919,0.858l-4.297-4.602
		L343.435,99.548z M340.086,103.258l0.944,0.869l0.794-0.863l0.727,0.667l-0.794,0.863l1.551,1.427
		c0.4,0.368,0.738,0.378,1.025,0.065c0.104-0.113,0.192-0.285,0.241-0.413l0.808,0.465c-0.109,0.245-0.266,0.552-0.547,0.859
		c-0.766,0.832-1.591,0.662-2.373-0.057l-1.551-1.427l-0.455,0.494l-0.682-0.627l0.457-0.584l-0.848-0.975L340.086,103.258z
		 M338.091,107.52l0.71,0.459l0.017-0.02c-0.26-0.662-0.201-1.271,0.11-1.652c0.167-0.204,0.297-0.295,0.434-0.37l0.701,0.846
		c-0.146,0.1-0.253,0.188-0.376,0.34c-0.236,0.29-0.33,0.794,0.036,1.433l2.196,1.794l-0.79,0.967l-3.683-3.008L338.091,107.52z
		 M335.249,111.064c0.695-0.986,1.644-1.076,2.768-0.283l2.271,1.602l-0.588,0.833l-0.465-0.224l-0.021,0.028
		c0.052,0.546,0,1.091-0.313,1.536c-0.49,0.694-1.306,0.805-1.966,0.339c-0.833-0.588-0.795-1.57,0.146-3.256
		c-0.396-0.249-0.806-0.288-1.145,0.191c-0.254,0.361-0.34,0.821-0.386,1.329l-0.934-0.107
		C334.655,112.392,334.818,111.675,335.249,111.064z M330.325,119.348l0.602,0.229l0.013-0.022
		c-0.169-0.551-0.251-1.103,0.051-1.644c0.331-0.593,0.793-0.793,1.364-0.737c-0.189-0.602-0.293-1.184,0.009-1.726
		c0.492-0.882,1.343-0.943,2.389-0.36l2.588,1.443l-0.608,1.09l-2.454-1.369c-0.646-0.359-0.971-0.298-1.19,0.095
		c-0.132,0.237-0.125,0.591,0.021,1.062l2.855,1.592l-0.604,1.083l-2.455-1.369c-0.646-0.36-0.976-0.291-1.194,0.102
		c-0.132,0.237-0.125,0.591,0.024,1.054l2.855,1.592l-0.607,1.09l-4.153-2.315L330.325,119.348z M326.825,123.02
		c0.284-0.673,0.835-1.234,1.512-1.501l0.479,0.895c-0.461,0.239-0.795,0.549-0.997,1.027c-0.216,0.509-0.124,0.926,0.26,1.088
		c0.414,0.176,0.735-0.168,1.14-0.579l0.643-0.624c0.587-0.582,1.229-0.855,2.066-0.5c0.947,0.4,1.419,1.532,0.853,2.871
		c-0.328,0.775-0.961,1.421-1.739,1.756l-0.517-1.003c0.559-0.252,1.049-0.691,1.264-1.2c0.255-0.603,0.133-1.033-0.274-1.205
		c-0.431-0.182-0.713,0.114-1.15,0.538l-0.656,0.636c-0.491,0.484-1.209,0.873-2.055,0.515
		C326.705,125.331,326.328,124.193,326.825,123.02z M322.861,133.788l1.656,0.42l0.851,0.277c-0.253-0.458-0.467-0.996-0.309-1.622
		c0.253-0.997,1.054-1.25,2.216-0.955l2.876,0.729l-0.308,1.211l-2.728-0.692c-0.717-0.182-1.014-0.047-1.129,0.406
		c-0.096,0.379,0.024,0.664,0.276,1.087l3.173,0.805l-0.308,1.211l-6.575-1.668L322.861,133.788z M323.826,156.172
		c-0.438-0.387-0.813-0.845-0.86-1.49c-0.075-1.025,0.604-1.52,1.801-1.607l2.961-0.219l0.092,1.247l-2.808,0.207
		c-0.738,0.055-0.978,0.276-0.943,0.743c0.028,0.391,0.233,0.623,0.607,0.945l3.266-0.241l0.092,1.247l-4.751,0.351l-0.074-1.019
		l0.62-0.139L323.826,156.172z M327.538,151.148l-0.042-0.001c-0.166,0.244-0.415,0.427-0.807,0.421
		c-0.356-0.006-0.684-0.258-0.884-0.551h-0.033c-0.244,0.328-0.699,0.627-1.26,0.617c-1.113-0.018-1.702-0.937-1.687-1.948
		c0.005-0.264,0.06-0.518,0.131-0.712l0.028-1.717l0.917,0.015l-0.013,0.808c0.163-0.117,0.429-0.206,0.726-0.201
		c1.071,0.018,1.602,0.842,1.586,1.862c-0.003,0.187-0.05,0.408-0.121,0.61c0.108,0.129,0.21,0.208,0.405,0.21
		c0.255,0.004,0.394-0.181,0.402-0.742l0.014-0.807c0.019-1.147,0.386-1.771,1.219-1.757c0.96,0.016,1.675,1.03,1.649,2.62
		c-0.019,1.122-0.415,1.982-1.256,1.969C328.113,151.838,327.777,151.586,327.538,151.148z M325.104,139.326
		c0.344,0.059,0.544-0.355,0.813-0.818c0.34-0.58,0.768-1.214,1.639-1.064c0.821,0.141,1.373,0.899,1.163,2.122
		c-0.107,0.628-0.502,1.268-0.967,1.671l-0.675-0.693c0.398-0.363,0.651-0.733,0.726-1.169c0.081-0.469-0.085-0.713-0.378-0.763
		c-0.352-0.06-0.594,0.398-0.871,0.86c-0.328,0.556-0.802,1.156-1.589,1.021c-0.838-0.143-1.316-0.924-1.133-1.996
		c0.116-0.678,0.491-1.157,0.851-1.493l0.65,0.681c-0.3,0.293-0.515,0.593-0.574,0.937
		C324.687,139.047,324.837,139.28,325.104,139.326z M328.194,142.305l-0.144,1.241l-4.726-0.547l0.144-1.241L328.194,142.305z
		 M322.038,141.49c0.413,0.048,0.649,0.375,0.601,0.796c-0.05,0.43-0.354,0.694-0.768,0.646c-0.405-0.047-0.642-0.374-0.592-0.804
		C321.328,141.708,321.633,141.443,322.038,141.49z M321.139,144.596l5.488,0.395c0.289,0.021,0.392-0.1,0.4-0.218
		c0.003-0.051,0.006-0.085-0.005-0.171l0.936-0.086c0.049,0.148,0.085,0.356,0.063,0.653c-0.063,0.865-0.652,1.13-1.535,1.066
		l-5.438-0.391L321.139,144.596z M321.972,159.293l1.04-0.166l0.411,2.568l1.436-0.23l-0.35-2.182l1.041-0.166l0.349,2.182
		l1.662-0.266l-0.426-2.66l1.041-0.167l0.624,3.902l-6.219,0.995L321.972,159.293z M327.649,166.061l-0.87,0.201L326.255,164
		l0.87-0.202L327.649,166.061z M325.78,170.077c-0.076-0.252-0.102-0.511-0.094-0.718l-0.499-1.643l0.878-0.268l0.235,0.773
		c0.12-0.161,0.345-0.328,0.629-0.414c1.025-0.312,1.783,0.311,2.08,1.287c0.054,0.179,0.077,0.402,0.072,0.617
		c0.143,0.09,0.262,0.134,0.449,0.077c0.244-0.074,0.319-0.292,0.156-0.829l-0.234-0.773c-0.334-1.098-0.175-1.803,0.622-2.045
		c0.919-0.279,1.91,0.467,2.372,1.988c0.326,1.073,0.213,2.014-0.593,2.259c-0.382,0.116-0.779-0.021-1.141-0.364l-0.041,0.013
		c-0.083,0.283-0.265,0.534-0.639,0.647c-0.342,0.104-0.73-0.035-1.01-0.253l-0.032,0.01c-0.131,0.386-0.474,0.81-1.01,0.974
		C326.917,171.74,326.074,171.045,325.78,170.077z M328.644,172.727l2.753-1.103l0.464,1.159l-2.611,1.046
		c-0.686,0.274-0.847,0.56-0.673,0.993c0.146,0.363,0.41,0.521,0.863,0.716l3.037-1.216l0.464,1.16l-4.417,1.768l-0.379-0.946
		l0.549-0.32l-0.01-0.023c-0.533-0.235-1.029-0.559-1.269-1.158C327.032,173.848,327.531,173.172,328.644,172.727z M328.523,180.654
		c-0.369,0.176-0.742,0.023-0.93-0.367c-0.183-0.384-0.065-0.77,0.303-0.945c0.376-0.18,0.75-0.028,0.934,0.355
		C329.017,180.089,328.899,180.475,328.523,180.654z M331.628,183.672c-0.262-0.467-0.247-0.856-0.139-1.307l-0.632,0.403
		l-1.461,0.82l-0.608-1.083l5.918-3.324l0.496,0.883l-0.385,0.323l0.017,0.03c0.468,0.137,0.938,0.419,1.18,0.85
		c0.579,1.03,0.139,2.156-1.227,2.922C333.438,184.948,332.132,184.569,331.628,183.672z M336.055,189.448
		c-0.603-0.269-1.215-0.675-1.634-1.294c-0.677-0.998-0.426-1.917,0.714-2.688l2.3-1.557l0.571,0.844l-0.374,0.355l0.019,0.028
		c0.528,0.146,1.021,0.386,1.325,0.837c0.476,0.703,0.291,1.506-0.378,1.957c-0.844,0.572-1.749,0.189-2.993-1.286
		c-0.373,0.283-0.554,0.651-0.226,1.138c0.248,0.365,0.647,0.607,1.106,0.83L336.055,189.448z M337.547,192.415
		c-0.815-1.022-0.489-2.151,0.533-2.967c0.186-0.148,0.381-0.271,0.488-0.313l1.827,2.29c0.547-0.567,0.548-1.22,0.108-1.771
		c-0.244-0.305-0.549-0.496-0.926-0.629l0.332-0.809c0.544,0.164,1.079,0.508,1.444,0.965c0.831,1.043,0.754,2.43-0.475,3.409
		C339.679,193.549,338.251,193.298,337.547,192.415z M340.29,197.761c-0.905-0.958-1.284-2.04-0.234-3.033
		c0.687-0.648,1.44-0.706,2.141-0.373l0.861-2.84l0.965,1.02l-0.843,2.575l0.603,0.637l1.73-1.637l0.864,0.915l-4.579,4.331
		L340.29,197.761z M345.742,200.908l-0.971,0.853l-0.767-0.698l0.864-0.949l-0.868-0.789l0.664-0.729l0.867,0.79l1.419-1.56
		c0.367-0.402,0.375-0.739,0.061-1.026c-0.113-0.103-0.286-0.19-0.414-0.238l0.461-0.811c0.246,0.109,0.554,0.263,0.862,0.543
		c0.836,0.762,0.67,1.588-0.045,2.373l-1.419,1.56l0.496,0.452l-0.623,0.686L345.742,200.908z M348.274,203.037l0.456-0.713
		l-0.02-0.017c-0.661,0.264-1.271,0.208-1.654-0.103c-0.205-0.166-0.297-0.295-0.372-0.432l0.844-0.705
		c0.1,0.146,0.189,0.251,0.342,0.374c0.291,0.235,0.796,0.327,1.433-0.043l1.784-2.207l0.972,0.785l-2.991,3.7L348.274,203.037z
		 M352.398,204.026c-0.247,0.397-0.284,0.808,0.197,1.144c0.362,0.253,0.823,0.336,1.332,0.38l-0.103,0.935
		c-0.66-0.035-1.379-0.195-1.992-0.623c-0.99-0.691-1.085-1.639-0.297-2.77l1.592-2.279l0.837,0.584l-0.223,0.467l0.028,0.02
		c0.546-0.055,1.092-0.005,1.538,0.307c0.697,0.486,0.813,1.303,0.35,1.965C355.074,204.992,354.091,204.959,352.398,204.026z
		 M360.144,210.744l0.226-0.604l-0.022-0.012c-0.551,0.172-1.103,0.256-1.646-0.043c-0.596-0.328-0.798-0.79-0.745-1.362
		c-0.601,0.192-1.184,0.299-1.728-0.001c-0.886-0.488-0.95-1.34-0.372-2.39l1.433-2.599l1.095,0.604l-1.358,2.465
		c-0.357,0.647-0.294,0.974,0.101,1.191c0.238,0.131,0.593,0.123,1.063-0.025l1.58-2.867l1.087,0.6l-1.358,2.464
		c-0.356,0.647-0.286,0.978,0.108,1.196c0.238,0.131,0.593,0.122,1.056-0.031l1.58-2.866l1.095,0.604l-2.299,4.17L360.144,210.744z
		 M367.248,210.504c-0.255-0.559-0.696-1.047-1.206-1.26c-0.604-0.254-1.033-0.129-1.204,0.279
		c-0.181,0.432,0.116,0.712,0.542,1.148l0.639,0.654c0.487,0.488,0.878,1.205,0.524,2.053c-0.397,0.949-1.534,1.33-2.71,0.838
		c-0.675-0.281-1.237-0.83-1.508-1.506l0.893-0.483c0.241,0.46,0.553,0.794,1.031,0.993c0.51,0.213,0.927,0.121,1.088-0.264
		c0.174-0.416-0.172-0.735-0.584-1.139l-0.626-0.639c-0.585-0.586-0.86-1.227-0.51-2.066c0.397-0.948,1.527-1.425,2.868-0.863
		c0.776,0.324,1.425,0.955,1.764,1.732L367.248,210.504z M375.85,218.434l-1.213-0.301l0.411-1.659l0.272-0.853
		c-0.458,0.254-0.993,0.473-1.621,0.316c-0.999-0.247-1.256-1.047-0.968-2.211l0.714-2.881l1.213,0.301l-0.677,2.732
		c-0.178,0.719-0.041,1.016,0.413,1.127c0.38,0.095,0.664-0.027,1.086-0.282l0.788-3.179l1.213,0.301L375.85,218.434z
		 M381.35,213.873c-0.364-0.396-0.736-0.646-1.172-0.719c-0.469-0.078-0.712,0.088-0.761,0.382
		c-0.058,0.352,0.401,0.591,0.864,0.866c0.557,0.324,1.159,0.795,1.028,1.582c-0.139,0.838-0.916,1.32-1.988,1.143
		c-0.679-0.113-1.159-0.485-1.496-0.842l0.677-0.654c0.295,0.299,0.595,0.512,0.938,0.568c0.428,0.071,0.659-0.08,0.703-0.348
		c0.058-0.344-0.357-0.541-0.821-0.808c-0.581-0.337-1.217-0.761-1.072-1.632c0.136-0.822,0.891-1.377,2.114-1.174
		c0.628,0.104,1.27,0.494,1.675,0.957L381.35,213.873z M382.993,219.676c-0.423-0.047-0.689-0.35-0.645-0.755
		c0.046-0.415,0.371-0.652,0.794-0.606c0.432,0.049,0.697,0.352,0.651,0.766C383.75,219.486,383.424,219.724,382.993,219.676z
		 M383.852,217.623l-1.242-0.137l0.521-4.734l1.242,0.137L383.852,217.623z M386.711,219.875l-1.247-0.082l0.365-5.49
		c0.02-0.287-0.102-0.39-0.221-0.397c-0.051-0.003-0.084-0.006-0.171,0.006l-0.091-0.935c0.148-0.051,0.355-0.088,0.652-0.068
		c0.865,0.059,1.133,0.646,1.074,1.529L386.711,219.875z M392.382,214.217c-0.006,0.356-0.258,0.684-0.55,0.883l-0.001,0.035
		c0.328,0.242,0.626,0.698,0.617,1.26c-0.018,1.113-0.937,1.701-1.948,1.686c-0.264-0.005-0.518-0.061-0.712-0.131l-1.717-0.027
		l0.015-0.918l0.808,0.013c-0.116-0.163-0.206-0.429-0.201-0.726c0.018-1.071,0.842-1.602,1.862-1.586
		c0.187,0.004,0.407,0.049,0.61,0.121c0.129-0.109,0.207-0.209,0.21-0.404c0.004-0.256-0.181-0.395-0.741-0.404l-0.808-0.013
		c-1.147-0.019-1.771-0.386-1.757-1.218c0.016-0.961,1.03-1.676,2.619-1.65c1.122,0.019,1.982,0.415,1.969,1.256
		c-0.006,0.4-0.258,0.736-0.695,0.976l-0.001,0.042C392.205,213.576,392.388,213.825,392.382,214.217z M397.17,217.658l-0.143-0.619
		l-0.025,0.002c-0.383,0.439-0.839,0.816-1.482,0.867c-1.024,0.082-1.521-0.596-1.616-1.789l-0.234-2.955l1.245-0.1l0.223,2.804
		c0.059,0.737,0.281,0.975,0.747,0.938c0.39-0.03,0.62-0.236,0.94-0.611l-0.259-3.261l1.245-0.098l0.376,4.742L397.17,217.658z
		 M400.156,218.877l-0.173-1.039l2.563-0.425l-0.237-1.433l-2.178,0.361l-0.173-1.039l2.179-0.361l-0.275-1.658l-2.655,0.44
		l-0.172-1.039l3.895-0.646l1.029,6.207L400.156,218.877z M404.833,214.572l-0.206-0.869l2.258-0.537l0.206,0.868L404.833,214.572z
		 M410.909,215.016c-0.252,0.078-0.511,0.104-0.718,0.098l-1.64,0.508l-0.271-0.876l0.771-0.239
		c-0.162-0.119-0.329-0.343-0.417-0.627c-0.317-1.023,0.301-1.784,1.274-2.086c0.179-0.056,0.402-0.08,0.617-0.076
		c0.089-0.143,0.132-0.264,0.074-0.45c-0.075-0.243-0.294-0.317-0.83-0.151l-0.771,0.238c-1.096,0.34-1.802,0.186-2.049-0.609
		c-0.284-0.918,0.457-1.913,1.975-2.384c1.072-0.332,2.013-0.224,2.263,0.58c0.118,0.382-0.017,0.779-0.357,1.144l0.013,0.04
		c0.283,0.081,0.534,0.261,0.65,0.635c0.105,0.341-0.031,0.73-0.247,1.011l0.01,0.033c0.388,0.129,0.813,0.468,0.979,1.004
		C412.564,213.87,411.875,214.716,410.909,215.016z M417.12,212.621l-0.323-0.547l-0.024,0.01c-0.231,0.534-0.552,1.031-1.15,1.275
		c-0.953,0.388-1.632-0.107-2.083-1.217l-1.119-2.748l1.158-0.471l1.061,2.605c0.278,0.686,0.563,0.844,0.997,0.668
		c0.362-0.147,0.52-0.414,0.711-0.867l-1.233-3.031l1.157-0.472l1.795,4.409L417.12,212.621z M417.543,207.211l1.124-0.545
		l2.076,4.281l-1.124,0.545L417.543,207.211z M421.108,213.141c-0.383,0.186-0.769,0.07-0.947-0.297
		c-0.182-0.374-0.032-0.748,0.35-0.934c0.39-0.189,0.776-0.074,0.958,0.3C421.646,212.577,421.498,212.951,421.108,213.141z
		 M424.463,209.09c-0.466,0.266-0.854,0.252-1.305,0.146l0.406,0.629l0.826,1.455l-1.078,0.611l-3.349-5.893l0.879-0.5l0.325,0.383
		l0.029-0.018c0.135-0.467,0.414-0.938,0.843-1.182c1.026-0.583,2.152-0.148,2.925,1.211
		C425.729,207.277,425.356,208.582,424.463,209.09z M428.957,206.269c-0.995,0.683-1.915,0.438-2.693-0.696l-1.571-2.291l0.84-0.576
		l0.358,0.372l0.028-0.02c0.142-0.529,0.38-1.022,0.828-1.331c0.7-0.48,1.504-0.3,1.96,0.365c0.577,0.841,0.2,1.748-1.267,3.002
		c0.285,0.371,0.655,0.551,1.139,0.219c0.364-0.25,0.604-0.652,0.823-1.111l0.838,0.424
		C429.975,205.23,429.573,205.846,428.957,206.269z M433.178,203.145c-1.021,0.822-2.153,0.501-2.976-0.52
		c-0.149-0.186-0.274-0.38-0.317-0.487l2.285-1.843c-0.571-0.545-1.225-0.542-1.774-0.1c-0.305,0.246-0.494,0.553-0.626,0.932
		l-0.812-0.328c0.161-0.546,0.503-1.084,0.96-1.453c1.04-0.838,2.43-0.768,3.418,0.457
		C434.303,201.002,434.059,202.434,433.178,203.145z M438.521,200.345c-0.953,0.911-2.032,1.295-3.031,0.249
		c-0.652-0.682-0.713-1.436-0.385-2.138l-2.844-0.847l1.015-0.97l2.58,0.829l0.633-0.605l-1.645-1.722l0.91-0.869l4.354,4.557
		L438.521,200.345z M441.803,196.615l-0.954-0.859l-0.785,0.871l-0.733-0.66l0.786-0.871l-1.567-1.412
		c-0.404-0.363-0.741-0.37-1.026-0.055c-0.103,0.114-0.189,0.287-0.237,0.416l-0.813-0.457c0.108-0.246,0.261-0.556,0.539-0.865
		c0.757-0.84,1.584-0.679,2.374,0.033l1.566,1.411l0.45-0.499l0.688,0.621l-0.451,0.589l0.857,0.967L441.803,196.615z
		 M443.756,192.335l-0.716-0.452l-0.016,0.02c0.267,0.66,0.214,1.271-0.094,1.655c-0.165,0.206-0.294,0.299-0.431,0.374l-0.71-0.84
		c0.146-0.102,0.251-0.191,0.373-0.344c0.233-0.292,0.322-0.798-0.051-1.434l-2.217-1.773l0.78-0.977l3.718,2.975L443.756,192.335z
		 M446.565,188.754c-0.685,0.994-1.632,1.096-2.767,0.314l-2.291-1.576l0.579-0.841l0.469,0.22l0.019-0.029
		c-0.058-0.545-0.012-1.092,0.297-1.54c0.482-0.7,1.298-0.82,1.963-0.362c0.841,0.579,0.814,1.563-0.107,3.261
		c0.399,0.244,0.81,0.278,1.143-0.204c0.25-0.365,0.33-0.826,0.371-1.335l0.935,0.097
		C447.145,187.418,446.989,188.137,446.565,188.754z M451.385,180.436l-0.604-0.222l-0.013,0.022c0.175,0.549,0.263,1.1-0.033,1.645
		c-0.325,0.597-0.784,0.801-1.356,0.751c0.195,0.601,0.305,1.182,0.009,1.726c-0.483,0.889-1.333,0.958-2.386,0.386l-2.604-1.417
		l0.597-1.097l2.47,1.344c0.649,0.353,0.975,0.288,1.189-0.107c0.13-0.239,0.119-0.593-0.032-1.062l-2.872-1.563l0.593-1.09
		l2.47,1.344c0.648,0.354,0.979,0.281,1.193-0.114c0.13-0.239,0.119-0.593-0.036-1.054l-2.872-1.563l0.597-1.098l4.178,2.273
		L451.385,180.436z M454.841,176.725c-0.278,0.676-0.824,1.242-1.497,1.516l-0.488-0.89c0.458-0.243,0.79-0.558,0.987-1.036
		c0.21-0.511,0.114-0.927-0.271-1.086c-0.416-0.171-0.734,0.176-1.134,0.59l-0.637,0.631c-0.582,0.587-1.221,0.866-2.062,0.52
		c-0.95-0.391-1.434-1.518-0.88-2.861c0.32-0.778,0.947-1.43,1.722-1.772l0.527,0.997c-0.557,0.259-1.043,0.702-1.253,1.213
		c-0.249,0.605-0.122,1.033,0.286,1.202c0.433,0.178,0.711-0.12,1.145-0.549l0.65-0.642c0.486-0.49,1.2-0.885,2.049-0.535
		C454.938,174.412,455.325,175.547,454.841,176.725z M458.691,165.895l-1.659-0.401l-0.853-0.268
		c0.257,0.455,0.477,0.989,0.325,1.616c-0.242,0.999-1.04,1.261-2.203,0.979l-2.882-0.697l0.294-1.213l2.732,0.661
		c0.719,0.174,1.014,0.036,1.124-0.419c0.092-0.379-0.031-0.662-0.288-1.083l-3.179-0.77l0.294-1.214l6.588,1.596L458.691,165.895z
		 M459.441,158.174c-0.414-0.044-0.653-0.367-0.609-0.791c0.045-0.431,0.347-0.698,0.761-0.654c0.405,0.042,0.646,0.366,0.601,0.797
		C460.148,157.948,459.848,158.216,459.441,158.174z M454.81,154.74c-0.289-0.018-0.39,0.104-0.397,0.223
		c-0.003,0.051-0.005,0.084,0.007,0.17l-0.934,0.097c-0.051-0.147-0.089-0.354-0.071-0.651c0.053-0.865,0.64-1.137,1.522-1.082
		l5.438,0.332l-0.076,1.248L454.81,154.74z"/>
	<path fill="#D83A35" d="M422.267,205.775c-0.288,0.164-0.465,0.421-0.532,0.869l1.032,1.816c0.382,0.087,0.693,0.018,0.952-0.13
		c0.465-0.265,0.604-0.93,0.135-1.757C423.367,205.717,422.813,205.465,422.267,205.775z"/>
</g>
<circle fill="none" cx="390.693" cy="150.211" r="57.738"/>
<text transform="matrix(1 0 0 1 353.9375 165.0039)" fill="#D83A35" font-family="'NotoSansSC-Bold-90ms-RKSJ-H'" font-size="36">兑换</text>
<circle fill="none" stroke="#D83A35" stroke-width="2" stroke-miterlimit="10" cx="390.693" cy="151.439" r="51.411"/>
<path fill="#D83A35" d="M559.358,77.396c-40.893,0-74.043,33.15-74.043,74.043c0,40.893,33.15,74.043,74.043,74.043
	c40.894,0,74.044-33.15,74.044-74.043C633.402,110.546,600.252,77.396,559.358,77.396z M559.359,208.842
	c-31.702,0-57.402-25.7-57.402-57.402c0-31.703,25.7-57.403,57.402-57.403s57.402,25.7,57.402,57.403
	C616.762,183.142,591.062,208.842,559.359,208.842z"/>
<g>
	<g>
		<polygon fill="#D83A35" stroke="#D83A35" stroke-linecap="round" stroke-linejoin="round" stroke-miterlimit="10" points="
			540.671,187.974 541.999,184.061 539.528,180.75 543.658,180.803 546.044,177.43 547.271,181.375 551.216,182.6 547.843,184.986 
			547.896,189.117 544.584,186.646 		"/>
		<polygon fill="#D83A35" stroke="#D83A35" stroke-linecap="round" stroke-linejoin="round" stroke-miterlimit="10" points="
			559.565,195.217 557.737,191.512 553.649,190.916 556.606,188.033 555.909,183.962 559.565,185.885 563.222,183.961 
			562.524,188.033 565.481,190.916 561.394,191.512 		"/>
		<polygon fill="#D83A35" stroke="#D83A35" stroke-linecap="round" stroke-linejoin="round" stroke-miterlimit="10" points="
			578.048,186.979 574.135,185.65 570.823,188.121 570.876,183.991 567.503,181.605 571.448,180.379 572.673,176.434 
			575.06,179.806 579.19,179.754 576.72,183.066 		"/>
	</g>
	<g>
		<polygon fill="#D83A35" stroke="#D83A35" stroke-linecap="round" stroke-linejoin="round" stroke-miterlimit="10" points="
			540.671,112.449 541.999,116.361 539.528,119.673 543.658,119.62 546.044,122.993 547.271,119.047 551.216,117.823 
			547.843,115.437 547.896,111.306 544.584,113.776 		"/>
		<polygon fill="#D83A35" stroke="#D83A35" stroke-linecap="round" stroke-linejoin="round" stroke-miterlimit="10" points="
			559.565,105.206 557.737,108.911 553.649,109.506 556.606,112.389 555.909,116.46 559.565,114.538 563.222,116.462 
			562.524,112.39 565.481,109.506 561.394,108.911 		"/>
		<polygon fill="#D83A35" stroke="#D83A35" stroke-linecap="round" stroke-linejoin="round" stroke-miterlimit="10" points="
			578.048,113.444 574.135,114.772 570.823,112.302 570.876,116.431 567.503,118.817 571.448,120.043 572.673,123.989 
			575.06,120.617 579.19,120.668 576.72,117.356 		"/>
	</g>
</g>
<circle fill="none" cx="559.359" cy="150.211" r="62.988"/>
<text transform="matrix(0.9294 0.369 -0.369 0.9294 580.124 90.666)"><tspan x="0" y="0" fill="#FFFFFF" font-family="'NotoSansSC-Bold-90ms-RKSJ-H'" font-size="8.5">S</tspan><tspan x="5.335" y="-0.076" fill="#FFFFFF" font-family="'NotoSansSC-Bold-90ms-RKSJ-H'" font-size="8.5" rotate="6.187">m</tspan><tspan x="13.492" y="0.894" fill="#FFFFFF" font-family="'NotoSansSC-Bold-90ms-RKSJ-H'" font-size="8.5" rotate="12.217">a</tspan><tspan x="18.48" y="2.001" fill="#FFFFFF" font-family="'NotoSansSC-Bold-90ms-RKSJ-H'" font-size="8.5" rotate="16.254">r</tspan><tspan x="22.13" y="3.069" fill="#FFFFFF" font-family="'NotoSansSC-Bold-90ms-RKSJ-H'" font-size="8.5" rotate="19.632">t</tspan><tspan x="25.59" y="4.264" fill="#FFFFFF" font-family="'NotoSansSC-Bold-90ms-RKSJ-H'" font-size="8.5" rotate="23.945">R</tspan><tspan x="30.941" y="6.663" fill="#FFFFFF" font-family="'NotoSansSC-Bold-90ms-RKSJ-H'" font-size="8.5" rotate="28.858">e</tspan><tspan x="35.319" y="9.077" fill="#FFFFFF" font-family="'NotoSansSC-Bold-90ms-RKSJ-H'" font-size="8.5" rotate="33.424">a</tspan><tspan x="39.572" y="11.875" fill="#FFFFFF" font-family="'NotoSansSC-Bold-90ms-RKSJ-H'" font-size="8.5" rotate="38.253">d</tspan><tspan x="43.911" y="15.361" fill="#FFFFFF" font-family="'NotoSansSC-Bold-90ms-RKSJ-H'" font-size="8.5" rotate="42.011">i</tspan><tspan x="45.918" y="17.108" fill="#FFFFFF" font-family="'NotoSansSC-Bold-90ms-RKSJ-H'" font-size="8.5" rotate="45.75">n</tspan><tspan x="49.756" y="21.063" fill="#FFFFFF" font-family="'NotoSansSC-Bold-90ms-RKSJ-H'" font-size="8.5" rotate="50.628">g</tspan><tspan x="53.005" y="25.079" fill="#FFFFFF" font-family="'NotoSansSC-Bold-90ms-RKSJ-H'" font-size="8.5" rotate="54.477">-</tspan><tspan x="54.905" y="27.685" fill="#FFFFFF" font-family="'NotoSansSC-Bold-90ms-RKSJ-H'" font-size="8.5" rotate="58.378">E</tspan><tspan x="57.675" y="32.177" fill="#FFFFFF" font-family="'NotoSansSC-Bold-90ms-RKSJ-H'" font-size="8.5" rotate="63.273">n</tspan><tspan x="60.127" y="37.137" fill="#FFFFFF" font-family="'NotoSansSC-Bold-90ms-RKSJ-H'" font-size="8.5" rotate="67.419">g</tspan><tspan x="62.04" y="41.918" fill="#FFFFFF" font-family="'NotoSansSC-Bold-90ms-RKSJ-H'" font-size="8.5" rotate="71.612">l</tspan><tspan x="62.921" y="44.58" fill="#FFFFFF" font-family="'NotoSansSC-Bold-90ms-RKSJ-H'" font-size="8.5" rotate="74.102">i</tspan><tspan x="63.676" y="47.161" fill="#FFFFFF" font-family="'NotoSansSC-Bold-90ms-RKSJ-H'" font-size="8.5" rotate="77.281">s</tspan><tspan x="64.638" y="51.324" fill="#FFFFFF" font-family="'NotoSansSC-Bold-90ms-RKSJ-H'" font-size="8.5" rotate="81.75">h</tspan><tspan x="65.378" y="56.822" fill="#FFFFFF" font-family="'NotoSansSC-Bold-90ms-RKSJ-H'" font-size="8.5" rotate="85.226"> </tspan><tspan x="65.547" y="58.871" fill="#FFFFFF" font-family="'NotoSansSC-Bold-90ms-RKSJ-H'" font-size="8.5" rotate="87.109"> </tspan><tspan x="65.696" y="60.886" fill="#FFFFFF" font-family="'NotoSansSC-Bold-90ms-RKSJ-H'" font-size="8.5" rotate="90.506">S</tspan><tspan x="65.726" y="66.216" fill="#FFFFFF" font-family="'NotoSansSC-Bold-90ms-RKSJ-H'" font-size="8.5" rotate="96.686">m</tspan><tspan x="64.682" y="74.387" fill="#FFFFFF" font-family="'NotoSansSC-Bold-90ms-RKSJ-H'" font-size="8.5" rotate="102.734">a</tspan><tspan x="63.529" y="79.362" fill="#FFFFFF" font-family="'NotoSansSC-Bold-90ms-RKSJ-H'" font-size="8.5" rotate="106.767">r</tspan><tspan x="62.429" y="83.002" fill="#FFFFFF" font-family="'NotoSansSC-Bold-90ms-RKSJ-H'" font-size="8.5" rotate="110.145">t</tspan><tspan x="61.204" y="86.453" fill="#FFFFFF" font-family="'NotoSansSC-Bold-90ms-RKSJ-H'" font-size="8.5" rotate="114.458">R</tspan><tspan x="58.767" y="91.762" fill="#FFFFFF" font-family="'NotoSansSC-Bold-90ms-RKSJ-H'" font-size="8.5" rotate="119.35">e</tspan><tspan x="56.315" y="96.119" fill="#FFFFFF" font-family="'NotoSansSC-Bold-90ms-RKSJ-H'" font-size="8.5" rotate="123.918">a</tspan><tspan x="53.479" y="100.35" fill="#FFFFFF" font-family="'NotoSansSC-Bold-90ms-RKSJ-H'" font-size="8.5" rotate="128.751">d</tspan><tspan x="49.954" y="104.66" fill="#FFFFFF" font-family="'NotoSansSC-Bold-90ms-RKSJ-H'" font-size="8.5" rotate="132.512">i</tspan><tspan x="48.187" y="106.654" fill="#FFFFFF" font-family="'NotoSansSC-Bold-90ms-RKSJ-H'" font-size="8.5" rotate="136.255">n</tspan><tspan x="44.195" y="110.46" fill="#FFFFFF" font-family="'NotoSansSC-Bold-90ms-RKSJ-H'" font-size="8.5" rotate="141.137">g</tspan><tspan x="40.148" y="113.676" fill="#FFFFFF" font-family="'NotoSansSC-Bold-90ms-RKSJ-H'" font-size="8.5" rotate="144.991">-</tspan><tspan x="37.519" y="115.556" fill="#FFFFFF" font-family="'NotoSansSC-Bold-90ms-RKSJ-H'" font-size="8.5" rotate="148.894">E</tspan><tspan x="32.995" y="118.288" fill="#FFFFFF" font-family="'NotoSansSC-Bold-90ms-RKSJ-H'" font-size="8.5" rotate="153.793">n</tspan><tspan x="28.072" y="120.735" fill="#FFFFFF" font-family="'NotoSansSC-Bold-90ms-RKSJ-H'" font-size="8.5" rotate="159.277">g</tspan><tspan x="23.235" y="122.559" fill="#FFFFFF" font-family="'NotoSansSC-Bold-90ms-RKSJ-H'" font-size="8.5" rotate="162.111">l</tspan><tspan x="20.572" y="123.415" fill="#FFFFFF" font-family="'NotoSansSC-Bold-90ms-RKSJ-H'" font-size="8.5" rotate="164.599">i</tspan><tspan x="17.966" y="124.153" fill="#FFFFFF" font-family="'NotoSansSC-Bold-90ms-RKSJ-H'" font-size="8.5" rotate="167.801">s</tspan><tspan x="13.799" y="125.076" fill="#FFFFFF" font-family="'NotoSansSC-Bold-90ms-RKSJ-H'" font-size="8.5" rotate="172.262">h</tspan><tspan x="8.299" y="125.766" fill="#FFFFFF" font-family="'NotoSansSC-Bold-90ms-RKSJ-H'" font-size="8.5" rotate="175.736"> </tspan><tspan x="6.251" y="125.916" fill="#FFFFFF" font-family="'NotoSansSC-Bold-90ms-RKSJ-H'" font-size="8.5" rotate="177.619"> </tspan><tspan x="4.236" y="126.048" fill="#FFFFFF" font-family="'NotoSansSC-Bold-90ms-RKSJ-H'" font-size="8.5" rotate="-178.989">S</tspan><tspan x="-1.111" y="126.028" fill="#FFFFFF" font-family="'NotoSansSC-Bold-90ms-RKSJ-H'" font-size="8.5" rotate="-172.792">m</tspan><tspan x="-9.269" y="124.912" fill="#FFFFFF" font-family="'NotoSansSC-Bold-90ms-RKSJ-H'" font-size="8.5" rotate="-166.75">a</tspan><tspan x="-14.234" y="123.715" fill="#FFFFFF" font-family="'NotoSansSC-Bold-90ms-RKSJ-H'" font-size="8.5" rotate="-162.72">r</tspan><tspan x="-17.863" y="122.58" fill="#FFFFFF" font-family="'NotoSansSC-Bold-90ms-RKSJ-H'" font-size="8.5" rotate="-159.342">t</tspan><tspan x="-21.281" y="121.335" fill="#FFFFFF" font-family="'NotoSansSC-Bold-90ms-RKSJ-H'" font-size="8.5" rotate="-155.052">R</tspan><tspan x="-26.59" y="118.841" fill="#FFFFFF" font-family="'NotoSansSC-Bold-90ms-RKSJ-H'" font-size="8.5" rotate="-150.137">e</tspan><tspan x="-30.927" y="116.35" fill="#FFFFFF" font-family="'NotoSansSC-Bold-90ms-RKSJ-H'" font-size="8.5" rotate="-145.567">a</tspan><tspan x="-35.133" y="113.474" fill="#FFFFFF" font-family="'NotoSansSC-Bold-90ms-RKSJ-H'" font-size="8.5" rotate="-140.728">d</tspan><tspan x="-39.396" y="109.925" fill="#FFFFFF" font-family="'NotoSansSC-Bold-90ms-RKSJ-H'" font-size="8.5" rotate="-136.988">i</tspan><tspan x="-41.392" y="108.121" fill="#FFFFFF" font-family="'NotoSansSC-Bold-90ms-RKSJ-H'" font-size="8.5" rotate="-133.216">n</tspan><tspan x="-45.148" y="104.108" fill="#FFFFFF" font-family="'NotoSansSC-Bold-90ms-RKSJ-H'" font-size="8.5" rotate="-128.352">g</tspan><tspan x="-48.317" y="100.048" fill="#FFFFFF" font-family="'NotoSansSC-Bold-90ms-RKSJ-H'" font-size="8.5" rotate="-124.517">-</tspan><tspan x="-50.178" y="97.4" fill="#FFFFFF" font-family="'NotoSansSC-Bold-90ms-RKSJ-H'" font-size="8.5" rotate="-120.61">E</tspan><tspan x="-52.876" y="92.844" fill="#FFFFFF" font-family="'NotoSansSC-Bold-90ms-RKSJ-H'" font-size="8.5" rotate="-115.71">n</tspan><tspan x="-55.262" y="87.885" fill="#FFFFFF" font-family="'NotoSansSC-Bold-90ms-RKSJ-H'" font-size="8.5" rotate="-110.724">g</tspan><tspan x="-57.069" y="83.024" fill="#FFFFFF" font-family="'NotoSansSC-Bold-90ms-RKSJ-H'" font-size="8.5" rotate="-107.369">l</tspan><tspan x="-57.9" y="80.357" fill="#FFFFFF" font-family="'NotoSansSC-Bold-90ms-RKSJ-H'" font-size="8.5" rotate="-104.882">i</tspan><tspan x="-58.608" y="77.774" fill="#FFFFFF" font-family="'NotoSansSC-Bold-90ms-RKSJ-H'" font-size="8.5" rotate="-101.704">s</tspan><tspan x="-59.496" y="73.583" fill="#FFFFFF" font-family="'NotoSansSC-Bold-90ms-RKSJ-H'" font-size="8.5" rotate="-97.224">h</tspan><tspan x="-60.136" y="68.079" fill="#FFFFFF" font-family="'NotoSansSC-Bold-90ms-RKSJ-H'" font-size="8.5" rotate="-93.754"> </tspan><tspan x="-60.269" y="66.032" fill="#FFFFFF" font-family="'NotoSansSC-Bold-90ms-RKSJ-H'" font-size="8.5" rotate="-91.874"> </tspan><tspan x="-60.383" y="63.996" fill="#FFFFFF" font-family="'NotoSansSC-Bold-90ms-RKSJ-H'" font-size="8.5" rotate="-88.461">S</tspan><tspan x="-60.316" y="58.652" fill="#FFFFFF" font-family="'NotoSansSC-Bold-90ms-RKSJ-H'" font-size="8.5" rotate="-82.273">m</tspan><tspan x="-59.124" y="50.508" fill="#FFFFFF" font-family="'NotoSansSC-Bold-90ms-RKSJ-H'" font-size="8.5" rotate="-76.234">a</tspan><tspan x="-57.889" y="45.577" fill="#FFFFFF" font-family="'NotoSansSC-Bold-90ms-RKSJ-H'" font-size="8.5" rotate="-72.228">r</tspan><tspan x="-56.717" y="41.936" fill="#FFFFFF" font-family="'NotoSansSC-Bold-90ms-RKSJ-H'" font-size="8.5" rotate="-68.83">t</tspan><tspan x="-55.44" y="38.531" fill="#FFFFFF" font-family="'NotoSansSC-Bold-90ms-RKSJ-H'" font-size="8.5" rotate="-64.538">R</tspan><tspan x="-52.911" y="33.264" fill="#FFFFFF" font-family="'NotoSansSC-Bold-90ms-RKSJ-H'" font-size="8.5" rotate="-59.644">e</tspan><tspan x="-50.369" y="28.928" fill="#FFFFFF" font-family="'NotoSansSC-Bold-90ms-RKSJ-H'" font-size="8.5" rotate="-55.049">a</tspan><tspan x="-47.468" y="24.764" fill="#FFFFFF" font-family="'NotoSansSC-Bold-90ms-RKSJ-H'" font-size="8.5" rotate="-50.229">d</tspan><tspan x="-43.865" y="20.514" fill="#FFFFFF" font-family="'NotoSansSC-Bold-90ms-RKSJ-H'" font-size="8.5" rotate="-46.462">i</tspan><tspan x="-42.057" y="18.548" fill="#FFFFFF" font-family="'NotoSansSC-Bold-90ms-RKSJ-H'" font-size="8.5" rotate="-42.711">n</tspan><tspan x="-38.008" y="14.824" fill="#FFFFFF" font-family="'NotoSansSC-Bold-90ms-RKSJ-H'" font-size="8.5" rotate="-37.841">g</tspan><tspan x="-33.915" y="11.689" fill="#FFFFFF" font-family="'NotoSansSC-Bold-90ms-RKSJ-H'" font-size="8.5" rotate="-34.002">-</tspan><tspan x="-31.245" y="9.849" fill="#FFFFFF" font-family="'NotoSansSC-Bold-90ms-RKSJ-H'" font-size="8.5" rotate="-30.092">E</tspan><tspan x="-26.658" y="7.19" fill="#FFFFFF" font-family="'NotoSansSC-Bold-90ms-RKSJ-H'" font-size="8.5" rotate="-25.189">n</tspan><tspan x="-21.668" y="4.855" fill="#FFFFFF" font-family="'NotoSansSC-Bold-90ms-RKSJ-H'" font-size="8.5" rotate="-20.428">g</tspan><tspan x="-16.826" y="3.092" fill="#FFFFFF" font-family="'NotoSansSC-Bold-90ms-RKSJ-H'" font-size="8.5" rotate="-16.871">l</tspan><tspan x="-14.155" y="2.287" fill="#FFFFFF" font-family="'NotoSansSC-Bold-90ms-RKSJ-H'" font-size="8.5" rotate="-14.386">i</tspan><tspan x="-11.547" y="1.598" fill="#FFFFFF" font-family="'NotoSansSC-Bold-90ms-RKSJ-H'" font-size="8.5" rotate="-11.187">s</tspan><tspan x="-7.354" y="0.747" fill="#FFFFFF" font-family="'NotoSansSC-Bold-90ms-RKSJ-H'" font-size="8.5" rotate="-6.711">h</tspan><tspan x="-1.85" y="0.155" fill="#FFFFFF" font-family="'NotoSansSC-Bold-90ms-RKSJ-H'" font-size="8.5" rotate="-3.244"> </tspan><tspan x="0.197" y="0.041" fill="#FFFFFF" font-family="'NotoSansSC-Bold-90ms-RKSJ-H'" font-size="8.5" rotate="-1.366"> </tspan></text>
<circle fill="none" cx="559.359" cy="150.211" r="57.738"/>
<text transform="matrix(1 0 0 1 522.6035 165.0039)" fill="#D83A35" font-family="'NotoSansSC-Bold-90ms-RKSJ-H'" font-size="36">兑换</text>
<circle fill="none" stroke="#D83A35" stroke-width="2" stroke-miterlimit="10" cx="559.359" cy="151.439" r="51.411"/>
<g>
	<path fill="#DF8179" d="M28.298,184.887c0.17,0.561,0.241,0.97,0.259,1.326c0.455,0.313,0.873,0.381,1.25,0.267
		c0.775-0.235,0.959-1.229,0.554-2.562c-0.421-1.385-1.321-2.154-2.045-1.936c-0.659,0.202-0.659,0.795-0.358,1.785L28.298,184.887z
		"/>
	<path fill="#DF8179" d="M87.271,34.25c0.587-0.326,0.949-0.842,1.096-1.749l-2.054-3.704c-0.77-0.183-1.402-0.048-1.931,0.245
		c-0.947,0.525-1.244,1.87-0.311,3.557C85.042,34.345,86.157,34.868,87.271,34.25z"/>
	<path fill="#DF8179" d="M24.983,146.427c0.023-1.446-0.598-2.456-1.355-2.467c-0.688-0.012-0.869,0.554-0.886,1.587l-0.018,1.171
		c-0.01,0.586-0.069,0.998-0.161,1.34c0.338,0.437,0.712,0.632,1.11,0.638C24.482,148.709,24.961,147.821,24.983,146.427z"/>
	<path fill="#DF8179" d="M76.063,40.031c0.424,0.629,1.049,0.604,1.664,0.192c0.602-0.402,0.853-0.985,1.033-1.831l-1.083-1.618
		C75.88,38.33,75.585,39.314,76.063,40.031z"/>
	<path fill="#DF8179" d="M58.591,46.135c-0.939-1.007-1.925-0.724-3.12,0.392l-1.207,1.128l2.655,2.844l1.207-1.127
		C59.321,48.253,59.519,47.128,58.591,46.135z"/>
	<path fill="#DF8179" d="M69.086,41.415c-0.799-1.013-1.771-1.299-2.742-0.531c-0.797,0.629-1.053,1.752-0.336,2.962L69.086,41.415z
		"/>
	<path fill="#DF8179" d="M16.017,144.99c-1.12-0.018-1.767,0.626-1.78,1.487s0.611,1.525,1.731,1.543
		c1.153,0.019,1.802-0.642,1.816-1.486C17.797,145.69,17.17,145.009,16.017,144.99z"/>
	<path fill="#DF8179" d="M23.541,186.225c-0.246-0.808-1.051-1.265-2.154-0.93c-1.072,0.328-1.49,1.139-1.241,1.962
		c0.251,0.823,1.051,1.265,2.121,0.938C23.37,187.86,23.786,187.031,23.541,186.225z"/>
	<path fill="#DF8179" d="M43.846,231.762c0.633,0.791,1.755,1.041,2.962,0.32l-2.445-3.066
		C43.354,229.818,43.075,230.793,43.846,231.762z"/>
	<path fill="#DF8179" d="M76.505,253.963c-0.594-0.416-1.229-0.438-2.081-0.297l-1.114,1.596c2.104,1.111,3.126,1.027,3.621,0.32
		C77.363,254.961,77.112,254.387,76.505,253.963z"/>
	<path fill="#DF8179" d="M49.123,239.498c-1.001,0.947-0.712,1.93,0.414,3.121l1.136,1.201l2.829-2.678l-1.135-1.199
		C51.239,238.754,50.112,238.564,49.123,239.498z"/>
	<path fill="#DF8179" d="M37.09,210.877c-0.329-0.586-0.849-0.948-1.757-1.088l-3.696,2.074c-0.18,0.773-0.042,1.407,0.255,1.934
		c0.53,0.947,1.879,1.236,3.563,0.291C37.197,213.109,37.715,211.988,37.09,210.877z"/>
	<path fill="#DF8179" d="M42.944,222.049c0.625-0.424,0.597-1.049,0.184-1.662c-0.406-0.598-0.989-0.848-1.836-1.021l-1.611,1.088
		C41.245,222.242,42.23,222.531,42.944,222.049z"/>
	<path fill="#DF8179" d="M276.258,145.079c-0.81,0.014-1.261,0.916-1.238,2.311c0.023,1.446,0.677,2.436,1.434,2.422
		c0.689-0.01,0.854-0.582,0.835-1.615l-0.018-1.17c-0.01-0.585,0.036-1,0.117-1.345
		C277.035,145.256,276.653,145.073,276.258,145.079z"/>
	<path fill="#DF8179" d="M276.038,107.436c0.253,0.804,1.064,1.252,2.164,0.904c1.066-0.337,1.477-1.153,1.217-1.974
		c-0.259-0.821-1.064-1.252-2.131-0.915C276.188,105.8,275.783,106.632,276.038,107.436z"/>
	<path fill="#DF8179" d="M271.296,108.828c-0.178-0.558-0.253-0.968-0.274-1.322c-0.457-0.307-0.877-0.373-1.253-0.253
		c-0.771,0.245-0.945,1.238-0.524,2.567c0.436,1.379,1.344,2.139,2.067,1.911c0.655-0.208,0.649-0.802,0.337-1.786L271.296,108.828z
		"/>
	<path fill="#DF8179" d="M256.238,71.815c-0.623,0.431-0.589,1.056-0.168,1.665c0.412,0.595,0.999,0.838,1.848,1.005l1.601-1.108
		C257.935,71.604,256.945,71.325,256.238,71.815z"/>
	<path fill="#DF8179" d="M262.229,82.958c0.336,0.583,0.858,0.938,1.769,1.069l3.674-2.114c0.17-0.775,0.025-1.407-0.275-1.929
		c-0.542-0.94-1.893-1.217-3.564-0.254C262.099,80.728,261.594,81.853,262.229,82.958z"/>
	<path fill="#DF8179" d="M283.979,145.506c-1.153,0.019-1.778,0.7-1.765,1.544c0.012,0.844,0.66,1.505,1.813,1.487
		c1.12-0.018,1.745-0.683,1.731-1.544C285.746,146.132,285.099,145.488,283.979,145.506z"/>
	<path fill="#DF8179" d="M149.694,279.732c-0.845-0.012-1.525,0.613-1.545,1.768c-0.018,1.119,0.627,1.766,1.487,1.781
		c0.861,0.014,1.525-0.611,1.543-1.732C151.2,280.396,150.537,279.748,149.694,279.732z"/>
	<path fill="#DF8179" d="M249.866,54.443c0.991-0.957,0.692-1.937-0.445-3.114l-1.147-1.19l-2.801,2.703l1.147,1.19
		C247.758,55.209,248.887,55.389,249.866,54.443z"/>
	<path fill="#DF8179" d="M151.696,15.302c0.845,0.014,1.525-0.612,1.545-1.766c0.019-1.12-0.627-1.767-1.487-1.781
		s-1.525,0.612-1.543,1.731C150.191,14.641,150.854,15.288,151.696,15.302z"/>
	<path fill="#DF8179" d="M151.804,22.503c1.445,0.022,2.455-0.598,2.469-1.355c0.01-0.688-0.556-0.87-1.589-0.887l-1.171-0.019
		c-0.584-0.009-0.997-0.067-1.34-0.159c-0.437,0.337-0.631,0.713-0.639,1.109C149.522,22.001,150.408,22.48,151.804,22.503z"/>
	<path fill="#DF8179" d="M114.286,27.665c1.387-0.413,2.162-1.309,1.946-2.035c-0.198-0.66-0.791-0.663-1.782-0.368l-1.122,0.334
		c-0.562,0.167-0.972,0.235-1.327,0.251c-0.313,0.453-0.388,0.871-0.273,1.25C111.957,27.874,112.948,28.063,114.286,27.665z"/>
	<path fill="#DF8179" d="M112.017,20.83c0.81-0.241,1.271-1.043,0.941-2.149c-0.318-1.073-1.127-1.497-1.954-1.251
		c-0.825,0.246-1.271,1.043-0.95,2.116C110.383,20.65,111.207,21.07,112.017,20.83z"/>
	<path fill="#DF8179" d="M222.324,40.268c0.597,0.408,1.232,0.424,2.083,0.276l1.098-1.606c-2.112-1.088-3.136-0.994-3.622-0.283
		C221.457,39.28,221.713,39.852,222.324,40.268z"/>
	<path fill="#DF8179" d="M255.273,62.153c-0.643-0.788-1.769-1.025-2.972-0.291l2.48,3.044
		C255.784,64.09,256.057,63.115,255.273,62.153z"/>
	<path fill="#DF8179" d="M43.936,73.463c0.417-0.591,0.443-1.226,0.309-2.08l-1.591-1.121c-1.12,2.095-1.041,3.12-0.338,3.616
		C42.934,74.314,43.508,74.067,43.936,73.463z"/>
	<path fill="#DF8179" d="M187.048,266.955c-1.381,0.43-2.146,1.332-1.921,2.055c0.203,0.66,0.797,0.656,1.784,0.35l1.118-0.348
		c0.558-0.174,0.969-0.246,1.323-0.266c0.309-0.455,0.378-0.875,0.259-1.254C189.372,266.719,188.379,266.541,187.048,266.955z"/>
	<path fill="#DF8179" d="M242.545,247.865c0.951,0.998,1.933,0.703,3.115-0.426l1.197-1.145l-2.69-2.814l-1.195,1.141
		C241.789,245.754,241.603,246.883,242.545,247.865z"/>
	<path fill="#DF8179" d="M149.588,272.531c-1.446-0.021-2.455,0.598-2.47,1.357c-0.01,0.689,0.557,0.871,1.589,0.887l1.171,0.02
		c0.584,0.008,0.997,0.068,1.34,0.158c0.438-0.336,0.631-0.711,0.639-1.107C151.868,273.035,150.982,272.557,149.588,272.531z"/>
	<path fill="#DF8179" d="M189.395,273.762c-0.806,0.25-1.259,1.057-0.918,2.162c0.332,1.068,1.145,1.482,1.968,1.227
		c0.823-0.254,1.259-1.057,0.928-2.125C191.03,273.92,190.199,273.514,189.395,273.762z"/>
	<path fill="#DF8179" d="M256.868,220.404c-0.41,0.596-0.43,1.232-0.285,2.083l1.604,1.104c1.096-2.109,1.007-3.135,0.297-3.621
		C257.861,219.539,257.287,219.795,256.868,220.404z"/>
	<path fill="#DF8179" d="M232.054,252.734c0.811,1.008,1.788,1.281,2.754,0.504c0.791-0.641,1.034-1.764,0.305-2.971
		L232.054,252.734z"/>
	<path fill="#DF8179" d="M225.141,254.148c-0.427-0.625-1.052-0.594-1.661-0.174c-0.598,0.408-0.843,0.994-1.012,1.84l1.101,1.605
		C225.347,255.844,225.628,254.857,225.141,254.148z"/>
	<path fill="#DF8179" d="M149.999,0C67.157,0,0,67.157,0,150c0,82.841,67.157,150,149.999,150C232.843,300,300,232.842,300,150
		C300,67.157,232.843,0,149.999,0z M289.024,127.565l-2.104,0.364l-0.9-5.192l-2.899,0.501l0.764,4.413l-2.105,0.364l-0.764-4.413
		l-3.361,0.582l0.932,5.38l-2.104,0.364l-1.365-7.892l12.574-2.176L289.024,127.565z M287.32,151.892l-1.859,0.032l-0.025-1.636
		c-0.324,0.247-0.854,0.445-1.456,0.453c-2.171,0.036-3.3-1.598-3.332-3.665c-0.008-0.379,0.071-0.828,0.204-1.244
		c-0.229-0.254-0.438-0.407-0.835-0.399c-0.517,0.008-0.785,0.392-0.768,1.528l0.027,1.635c0.038,2.325-0.664,3.611-2.352,3.637
		c-1.947,0.031-3.461-1.975-3.512-5.195c-0.038-2.272,0.71-4.041,2.413-4.069c0.81-0.013,1.508,0.475,2.021,1.345l0.087-0.002
		c0.318-0.504,0.811-0.891,1.604-0.904c0.722-0.012,1.402,0.477,1.824,1.055l0.069-0.001c0.471-0.679,1.372-1.313,2.51-1.333
		c2.256-0.035,3.508,1.787,3.542,3.835c0.008,0.534-0.088,1.052-0.218,1.45L287.32,151.892z M283.093,168.156
		c-0.696-0.113-1.092,0.731-1.628,1.676c-0.677,1.181-1.529,2.475-3.296,2.191c-1.668-0.268-2.802-1.791-2.403-4.273
		c0.203-1.273,0.988-2.58,1.923-3.406l1.381,1.389c-0.8,0.744-1.304,1.502-1.444,2.386c-0.152,0.952,0.188,1.442,0.783,1.537
		c0.712,0.114,1.195-0.821,1.745-1.761c0.652-1.133,1.599-2.359,3.197-2.104c1.699,0.271,2.687,1.84,2.338,4.017
		c-0.22,1.379-0.97,2.358-1.689,3.043l-1.333-1.363c0.601-0.601,1.03-1.212,1.142-1.909
		C283.945,168.712,283.637,168.242,283.093,168.156z M276.776,162.128l0.263-2.519l9.591,1.003l-0.263,2.519L276.776,162.128z
		 M285.314,133.98c0.895,0.771,1.664,1.691,1.774,2.995c0.177,2.075-1.19,3.09-3.608,3.295l-5.988,0.506l-0.214-2.521l5.68-0.48
		c1.492-0.127,1.973-0.583,1.892-1.525c-0.067-0.79-0.486-1.255-1.248-1.899l-6.605,0.56l-0.214-2.522l9.606-0.813l0.175,2.058
		l-1.253,0.296L285.314,133.98z M277.354,114.02l1.757-0.428l1.114,4.565l-1.757,0.429L277.354,114.02z M281.062,105.848
		c0.16,0.508,0.218,1.032,0.205,1.451l1.049,3.315l-1.772,0.561l-0.493-1.559c-0.239,0.329-0.692,0.67-1.266,0.852
		c-2.067,0.654-3.616-0.589-4.239-2.559c-0.115-0.361-0.169-0.814-0.161-1.25c-0.292-0.179-0.536-0.264-0.913-0.145
		c-0.493,0.155-0.642,0.6-0.297,1.683l0.492,1.56c0.7,2.216,0.396,3.648-1.213,4.157c-1.854,0.587-3.879-0.903-4.851-3.972
		c-0.685-2.167-0.477-4.076,1.149-4.589c0.771-0.245,1.579,0.023,2.318,0.71l0.083-0.025c0.16-0.575,0.522-1.086,1.278-1.326
		c0.688-0.218,1.479,0.055,2.05,0.489l0.067-0.021c0.255-0.785,0.939-1.651,2.021-1.994
		C278.721,102.506,280.442,103.894,281.062,105.848z M275.201,100.571l-5.557,2.287l-0.962-2.34l5.269-2.168
		c1.385-0.571,1.705-1.149,1.345-2.025c-0.303-0.732-0.843-1.049-1.763-1.433l-6.129,2.522l-0.963-2.34l8.914-3.67l0.785,1.911
		l-1.105,0.66l0.02,0.047c1.086,0.466,2.098,1.111,2.594,2.32C278.441,98.27,277.444,99.647,275.201,100.571z M33.713,150
		c0-64.226,52.064-116.289,116.288-116.289S266.289,85.775,266.289,150c0,64.224-52.064,116.289-116.288,116.289
		S33.713,214.225,33.713,150z M35.332,203.574l-8.709,4.154l-1.09-2.285l8.707-4.154L35.332,203.574z M265.163,92.464l-1.118-2.272
		l8.656-4.258l1.117,2.272L265.163,92.464z M275.251,84.448c0.741-0.365,1.503-0.067,1.892,0.721
		c0.379,0.772,0.151,1.557-0.59,1.922c-0.758,0.373-1.52,0.075-1.899-0.697C274.266,85.605,274.495,84.82,275.251,84.448z
		 M268.928,78.467c0.542,0.94,0.519,1.729,0.309,2.644l1.272-0.831l2.939-1.692l1.257,2.179l-11.916,6.858l-1.022-1.777l0.771-0.663
		l-0.034-0.06c-0.949-0.269-1.909-0.83-2.407-1.695c-1.195-2.076-0.324-4.365,2.421-5.946
		C265.236,75.921,267.888,76.66,268.928,78.467z M259.819,66.823c1.227,0.533,2.479,1.342,3.34,2.588
		c1.393,2.011,0.904,3.876-1.389,5.464l-4.63,3.204l-1.177-1.698l0.752-0.729l-0.04-0.058c-1.074-0.282-2.075-0.761-2.702-1.667
		c-0.981-1.416-0.621-3.046,0.722-3.977c1.7-1.176,3.542-0.419,6.098,2.545c0.748-0.582,1.107-1.333,0.432-2.31
		c-0.509-0.737-1.326-1.219-2.26-1.661L259.819,66.823z M256.772,60.885c1.676,2.058,1.037,4.354-1.019,6.03
		c-0.374,0.305-0.768,0.559-0.985,0.647l-3.753-4.608c-1.098,1.162-1.086,2.485-0.184,3.594c0.5,0.614,1.124,0.996,1.894,1.258
		l-0.659,1.647c-1.105-0.32-2.198-1.008-2.95-1.929c-1.709-2.097-1.58-4.913,0.891-6.925
		C252.425,58.63,255.325,59.11,256.772,60.885z M251.052,50.09c1.854,1.921,2.645,4.104,0.536,6.138
		c-1.375,1.327-2.9,1.459-4.327,0.8l-1.686,5.769l-1.975-2.045l1.652-5.234l-1.23-1.276l-3.472,3.349l-1.771-1.835l9.186-8.864
		L251.052,50.09z M239.894,43.791l1.944-1.748l1.569,1.396l-1.728,1.941l1.775,1.579l-1.328,1.492l-1.774-1.579l-2.835,3.189
		c-0.732,0.823-0.742,1.506-0.099,2.078c0.231,0.206,0.583,0.38,0.845,0.475l-0.916,1.65c-0.499-0.214-1.126-0.519-1.757-1.079
		c-1.71-1.521-1.395-3.198,0.035-4.805l2.837-3.189l-1.017-0.903l1.248-1.402L239.894,43.791z M234.723,39.533l-0.908,1.455
		l0.039,0.031c1.334-0.549,2.57-0.449,3.354,0.169c0.419,0.33,0.609,0.589,0.764,0.865l-1.691,1.449
		c-0.206-0.293-0.39-0.505-0.7-0.75c-0.596-0.469-1.62-0.643-2.902,0.121l-3.563,4.513l-1.986-1.568l5.973-7.565L234.723,39.533z
		 M226.377,37.658c0.493-0.812,0.559-1.641-0.423-2.311c-0.738-0.504-1.674-0.663-2.704-0.741l0.188-1.895
		c1.338,0.058,2.796,0.365,4.046,1.22c2.02,1.378,2.233,3.295,0.661,5.599l-3.176,4.65l-1.705-1.165l0.439-0.951l-0.056-0.039
		c-1.104,0.122-2.212,0.034-3.122-0.588c-1.422-0.971-1.672-2.621-0.75-3.972C220.941,35.759,222.932,35.806,226.377,37.658z
		 M210.533,24.203l-0.443,1.228l0.045,0.025c1.112-0.362,2.226-0.546,3.334,0.047c1.215,0.65,1.636,1.579,1.541,2.739
		c1.213-0.405,2.39-0.633,3.5-0.04c1.804,0.967,1.956,2.688,0.811,4.829l-2.837,5.297l-2.231-1.195l2.69-5.024
		c0.709-1.321,0.572-1.979-0.233-2.41c-0.484-0.26-1.202-0.234-2.15,0.078l-3.13,5.843l-2.216-1.187l2.69-5.024
		c0.709-1.32,0.557-1.987-0.247-2.417c-0.486-0.26-1.202-0.234-2.137,0.086l-3.13,5.843l-2.231-1.195l4.553-8.499L210.533,24.203z
		 M196.184,24.87c0.528,1.124,1.433,2.103,2.469,2.522c1.229,0.498,2.096,0.237,2.432-0.593c0.356-0.877-0.253-1.439-1.123-2.312
		l-1.309-1.31c-0.997-0.979-1.806-2.42-1.107-4.144c0.781-1.93,3.072-2.728,5.466-1.759c1.371,0.555,2.524,1.653,3.087,3.014
		l-1.797,0.998c-0.498-0.925-1.138-1.593-2.11-1.987c-1.037-0.419-1.878-0.222-2.194,0.56c-0.342,0.845,0.364,1.483,1.207,2.29
		l1.281,1.281c1.197,1.171,1.771,2.462,1.079,4.168c-0.782,1.93-3.059,2.92-5.785,1.815c-1.579-0.639-2.906-1.901-3.608-3.466
		L196.184,24.87z M181.565,9.649l2.449,0.636l-0.87,3.349l-0.57,1.719c0.933-0.505,2.021-0.934,3.286-0.604
		c2.017,0.523,2.521,2.148,1.909,4.498l-1.509,5.814l-2.449-0.636l1.432-5.515c0.376-1.45,0.105-2.054-0.811-2.292
		c-0.766-0.199-1.344,0.042-2.204,0.548l-1.668,6.415l-2.449-0.636L181.565,9.649z M170.289,18.75
		c0.73,0.811,1.478,1.327,2.358,1.483c0.949,0.167,1.444-0.164,1.549-0.756c0.127-0.712-0.799-1.208-1.729-1.774
		c-1.121-0.67-2.332-1.636-2.049-3.229c0.299-1.693,1.885-2.653,4.054-2.269c1.37,0.242,2.336,1.007,3.011,1.738l-1.385,1.31
		c-0.592-0.611-1.195-1.049-1.89-1.173c-0.864-0.152-1.335,0.148-1.433,0.69c-0.122,0.694,0.713,1.104,1.646,1.654
		c1.171,0.696,2.449,1.569,2.137,3.331c-0.295,1.66-1.836,2.768-4.309,2.33c-1.271-0.225-2.561-1.03-3.371-1.977L170.289,18.75z
		 M167.147,6.973c0.854,0.104,1.387,0.723,1.288,1.544c-0.104,0.838-0.766,1.312-1.622,1.209C165.942,9.62,165.41,9,165.512,8.163
		C165.61,7.342,166.275,6.867,167.147,6.973z M165.363,11.111l2.512,0.305l-1.159,9.572l-2.513-0.305L165.363,11.111z
		 M159.632,6.494l2.522,0.195l-0.861,11.101c-0.045,0.583,0.198,0.791,0.439,0.81c0.104,0.008,0.17,0.014,0.345-0.008l0.164,1.894
		c-0.301,0.098-0.721,0.168-1.321,0.122c-1.749-0.135-2.277-1.333-2.139-3.117L159.632,6.494z M147.969,17.86
		c0.013-0.723,0.522-1.387,1.114-1.79L149.085,16c-0.665-0.493-1.269-1.416-1.25-2.552c0.035-2.255,1.897-3.448,3.946-3.415
		c0.534,0.009,1.049,0.121,1.442,0.264l3.479,0.056l-0.03,1.86l-1.636-0.027c0.235,0.332,0.417,0.869,0.407,1.471
		c-0.035,2.169-1.705,3.244-3.772,3.211c-0.378-0.006-0.825-0.099-1.236-0.244c-0.262,0.22-0.42,0.423-0.426,0.819
		c-0.008,0.517,0.366,0.798,1.502,0.817l1.636,0.027c2.324,0.038,3.587,0.78,3.56,2.468c-0.032,1.946-2.088,3.394-5.307,3.341
		c-2.272-0.037-4.016-0.84-3.988-2.544c0.012-0.809,0.522-1.49,1.409-1.976l0.002-0.086
		C148.327,19.158,147.957,18.652,147.969,17.86z M138.351,10.735l0.276,1.258l0.052-0.003c0.785-0.882,1.72-1.637,3.025-1.726
		c2.079-0.143,3.072,1.24,3.236,3.664l0.411,5.997l-2.528,0.173l-0.388-5.689c-0.103-1.496-0.55-1.982-1.495-1.918
		c-0.792,0.055-1.263,0.466-1.919,1.219l0.451,6.618l-2.526,0.172l-0.657-9.625L138.351,10.735z M132.356,8.206l0.326,2.109
		l-5.203,0.803l0.451,2.908l4.419-0.684l0.327,2.108l-4.422,0.683l0.521,3.366l5.389-0.833l0.326,2.108l-7.905,1.222l-1.946-12.599
		L132.356,8.206z M122.771,16.832l0.4,1.763l-4.582,1.038l-0.399-1.763L122.771,16.832z M110.513,15.778
		c0.513-0.152,1.037-0.201,1.456-0.181l3.334-0.993l0.53,1.783l-1.567,0.467c0.325,0.246,0.659,0.702,0.829,1.28
		c0.619,2.08-0.65,3.608-2.631,4.198c-0.362,0.109-0.817,0.153-1.253,0.14c-0.184,0.288-0.272,0.53-0.16,0.91
		c0.148,0.496,0.59,0.652,1.68,0.327l1.567-0.467c2.229-0.664,3.657-0.334,4.139,1.283c0.556,1.865-0.97,3.866-4.056,4.785
		c-2.181,0.648-4.086,0.406-4.572-1.228c-0.229-0.775,0.052-1.579,0.752-2.308l-0.025-0.082c-0.572-0.171-1.078-0.542-1.304-1.302
		c-0.206-0.692,0.081-1.479,0.523-2.042l-0.02-0.065c-0.781-0.271-1.636-0.969-1.96-2.059
		C107.132,18.061,108.549,16.363,110.513,15.778z M97.865,20.501l0.644,1.116l0.047-0.019c0.48-1.077,1.142-2.077,2.358-2.557
		c1.938-0.763,3.3,0.254,4.19,2.513l2.199,5.588l-2.354,0.927l-2.088-5.3c-0.548-1.393-1.121-1.722-2.002-1.375
		c-0.735,0.29-1.063,0.825-1.46,1.74l2.428,6.165l-2.354,0.927l-3.531-8.967L97.865,20.501z M96.878,31.45l-2.291,1.078
		l-4.103-8.725l2.291-1.077L96.878,31.45z M89.8,19.351c0.777-0.367,1.559-0.125,1.909,0.624c0.359,0.764,0.049,1.518-0.73,1.884
		c-0.795,0.374-1.574,0.131-1.933-0.631C88.693,20.479,89.004,19.724,89.8,19.351z M82.892,27.487
		c0.949-0.526,1.736-0.49,2.646-0.267l-0.809-1.283l-1.645-2.965l2.198-1.219l6.659,12.014l-1.791,0.993l-0.65-0.782l-0.06,0.034
		c-0.283,0.944-0.858,1.894-1.733,2.377c-2.091,1.161-4.364,0.255-5.901-2.514C80.29,31.134,81.071,28.497,82.892,27.487z
		 M73.767,33.07c2.032-1.36,3.892-0.844,5.445,1.475l3.133,4.68l-1.717,1.151l-0.718-0.763l-0.058,0.038
		c-0.299,1.071-0.793,2.065-1.709,2.679c-1.433,0.958-3.057,0.575-3.967-0.785c-1.151-1.718-0.366-3.549,2.639-6.058
		c-0.569-0.759-1.315-1.13-2.305-0.469c-0.744,0.499-1.238,1.307-1.695,2.234l-1.688-0.88C71.68,35.152,72.509,33.914,73.767,33.07z
		 M65.1,39.365c2.082-1.642,4.366-0.969,6.008,1.111c0.299,0.379,0.546,0.775,0.631,0.994l-4.659,3.679
		c1.142,1.115,2.465,1.124,3.587,0.238c0.621-0.49,1.011-1.106,1.286-1.87l1.634,0.682c-0.336,1.1-1.041,2.181-1.972,2.917
		c-2.121,1.673-4.932,1.502-6.905-0.996C62.779,43.675,63.304,40.783,65.1,39.365z M54.262,44.877
		c1.949-1.821,4.143-2.574,6.141-0.434c1.304,1.396,1.409,2.922,0.728,4.335l5.735,1.78l-2.076,1.938l-5.203-1.737l-1.295,1.209
		l3.29,3.522l-1.862,1.738l-8.705-9.322L54.262,44.877z M47.479,52.393l1.913,1.76L51,52.404l1.472,1.351l-1.608,1.749l3.142,2.89
		c0.811,0.746,1.496,0.766,2.077,0.133c0.209-0.229,0.39-0.577,0.489-0.837l1.636,0.942c-0.221,0.497-0.538,1.119-1.108,1.74
		c-1.551,1.686-3.223,1.341-4.807-0.115l-3.142-2.891l-0.922,1.001l-1.381-1.271l0.926-1.184l-1.717-1.975L47.479,52.393z
		 M43.437,61.026l1.438,0.931l0.034-0.041c-0.526-1.34-0.408-2.575,0.224-3.347c0.338-0.414,0.602-0.599,0.878-0.749l1.42,1.714
		c-0.297,0.202-0.512,0.382-0.762,0.688c-0.479,0.586-0.668,1.608,0.073,2.902l4.449,3.634l-1.601,1.958l-7.46-6.093L43.437,61.026z
		 M37.68,68.207c1.409-1.998,3.33-2.18,5.607-0.573l4.6,3.244l-1.191,1.688l-0.942-0.454l-0.042,0.056
		c0.105,1.106,0,2.211-0.635,3.111c-0.993,1.407-2.645,1.63-3.982,0.688c-1.688-1.191-1.61-3.18,0.295-6.597
		c-0.803-0.503-1.632-0.583-2.318,0.388c-0.515,0.731-0.688,1.663-0.782,2.691l-1.891-0.216
		C36.477,70.897,36.807,69.445,37.68,68.207z M27.705,84.988l1.219,0.463l0.025-0.044c-0.342-1.117-0.508-2.234,0.103-3.33
		c0.67-1.202,1.606-1.606,2.764-1.493c-0.384-1.219-0.593-2.399,0.018-3.496c0.997-1.788,2.72-1.91,4.839-0.729l5.243,2.924
		l-1.232,2.209l-4.972-2.774c-1.308-0.728-1.967-0.604-2.412,0.192c-0.267,0.481-0.253,1.198,0.042,2.15l5.785,3.225l-1.223,2.194
		l-4.974-2.773c-1.308-0.729-1.977-0.589-2.419,0.207c-0.267,0.48-0.253,1.197,0.049,2.135l5.785,3.226l-1.23,2.208l-8.414-4.69
		L27.705,84.988z M20.614,92.426c0.576-1.364,1.692-2.5,3.063-3.042l0.972,1.813c-0.934,0.484-1.61,1.113-2.02,2.08
		c-0.437,1.031-0.251,1.875,0.526,2.204c0.839,0.356,1.49-0.341,2.309-1.173l1.302-1.263c1.189-1.179,2.489-1.732,4.186-1.014
		c1.919,0.811,2.875,3.104,1.728,5.815c-0.665,1.57-1.947,2.878-3.523,3.557l-1.047-2.032c1.132-0.512,2.125-1.401,2.56-2.432
		c0.517-1.221,0.269-2.092-0.556-2.441c-0.873-0.369-1.444,0.23-2.331,1.089l-1.33,1.289c-0.995,0.981-2.449,1.768-4.163,1.044
		C20.371,97.109,19.607,94.804,20.614,92.426z M12.584,114.242l3.355,0.851l1.723,0.562c-0.512-0.929-0.945-2.017-0.625-3.285
		c0.512-2.02,2.135-2.532,4.489-1.935l5.826,1.478l-0.623,2.454l-5.525-1.401c-1.452-0.369-2.054-0.095-2.287,0.823
		c-0.194,0.768,0.049,1.345,0.56,2.203l6.428,1.63l-0.624,2.454l-13.32-3.38L12.584,114.242z M14.539,159.588
		c-0.886-0.783-1.646-1.711-1.743-3.02c-0.152-2.077,1.225-3.078,3.648-3.256l5.998-0.443l0.186,2.526l-5.688,0.419
		c-1.496,0.111-1.98,0.561-1.911,1.506c0.057,0.791,0.473,1.262,1.23,1.915l6.616-0.489l0.186,2.527l-9.625,0.71l-0.15-2.063
		l1.256-0.281L14.539,159.588z M22.059,149.411l-0.085-0.002c-0.336,0.494-0.841,0.864-1.634,0.853
		c-0.722-0.012-1.385-0.522-1.791-1.116h-0.067c-0.495,0.665-1.417,1.27-2.552,1.25c-2.255-0.036-3.448-1.898-3.417-3.947
		c0.01-0.534,0.121-1.048,0.265-1.442l0.057-3.478l1.858,0.03l-0.026,1.636c0.331-0.236,0.869-0.417,1.47-0.407
		c2.17,0.035,3.244,1.706,3.212,3.771c-0.006,0.379-0.101,0.826-0.245,1.236c0.22,0.262,0.425,0.42,0.821,0.427
		c0.517,0.009,0.797-0.366,0.815-1.503l0.027-1.635c0.038-2.325,0.782-3.587,2.469-3.56c1.945,0.031,3.393,2.087,3.341,5.307
		c-0.038,2.273-0.841,4.016-2.544,3.988C23.224,150.808,22.543,150.297,22.059,149.411z M17.128,125.46
		c0.697,0.12,1.102-0.719,1.648-1.657c0.688-1.174,1.555-2.459,3.32-2.157c1.664,0.285,2.782,1.821,2.356,4.299
		c-0.218,1.272-1.017,2.568-1.958,3.385l-1.367-1.405c0.807-0.735,1.319-1.485,1.47-2.368c0.165-0.951-0.172-1.444-0.766-1.546
		c-0.712-0.122-1.203,0.807-1.765,1.742c-0.665,1.125-1.624,2.341-3.219,2.068c-1.697-0.29-2.667-1.872-2.295-4.044
		c0.235-1.374,0.995-2.344,1.723-3.024l1.318,1.379c-0.607,0.595-1.043,1.201-1.164,1.897
		C16.282,124.896,16.586,125.367,17.128,125.46z M23.388,131.496l-0.291,2.513l-9.573-1.108l0.291-2.513L23.388,131.496z
		 M10.917,129.845c0.837,0.097,1.316,0.758,1.217,1.613c-0.101,0.871-0.718,1.406-1.555,1.31c-0.821-0.095-1.3-0.757-1.199-1.628
		C9.479,130.285,10.096,129.75,10.917,129.845z M9.095,136.136l11.118,0.799c0.585,0.042,0.793-0.202,0.811-0.442
		c0.006-0.103,0.012-0.172-0.01-0.346l1.895-0.175c0.099,0.3,0.172,0.721,0.129,1.322c-0.127,1.753-1.322,2.289-3.11,2.161
		l-11.016-0.792L9.095,136.136z M10.782,165.91l2.107-0.336l0.833,5.203l2.908-0.467l-0.708-4.42l2.109-0.336l0.706,4.42
		l3.367-0.539l-0.862-5.389l2.109-0.338l1.264,7.905l-12.598,2.016L10.782,165.91z M22.284,179.621l-1.763,0.406l-1.063-4.581
		l1.763-0.409L22.284,179.621z M18.498,187.758c-0.154-0.511-0.206-1.035-0.19-1.455l-1.011-3.327l1.778-0.542L19.552,184
		c0.243-0.326,0.698-0.664,1.274-0.838c2.077-0.631,3.612,0.629,4.214,2.607c0.109,0.361,0.156,0.814,0.146,1.25
		c0.289,0.182,0.53,0.271,0.91,0.156c0.495-0.15,0.647-0.592,0.316-1.68l-0.475-1.566c-0.677-2.225-0.354-3.652,1.26-4.143
		c1.862-0.566,3.87,0.945,4.806,4.027c0.661,2.174,0.431,4.08-1.201,4.576c-0.774,0.235-1.579-0.041-2.311-0.738l-0.083,0.025
		c-0.168,0.574-0.536,1.082-1.294,1.313c-0.692,0.209-1.479-0.071-2.045-0.513l-0.065,0.021c-0.265,0.781-0.959,1.639-2.045,1.972
		C20.8,191.127,19.093,189.718,18.498,187.758z M24.298,193.125l5.577-2.234l0.94,2.349l-5.29,2.119
		c-1.389,0.556-1.715,1.134-1.363,2.012c0.295,0.735,0.831,1.057,1.749,1.45l6.153-2.463l0.939,2.35l-8.948,3.582l-0.768-1.918
		l1.112-0.648l-0.02-0.047c-1.08-0.478-2.085-1.133-2.57-2.348C21.034,195.396,22.045,194.027,24.298,193.125z M24.055,209.186
		c-0.748,0.355-1.503,0.047-1.883-0.744c-0.37-0.777-0.132-1.559,0.613-1.916c0.762-0.363,1.52-0.057,1.892,0.721
		C25.054,208.039,24.816,208.82,24.055,209.186z M30.344,215.299c-0.53-0.946-0.5-1.736-0.281-2.648l-1.28,0.818l-2.959,1.661
		l-1.233-2.194l11.989-6.734l1.005,1.789l-0.78,0.654l0.034,0.062c0.948,0.277,1.901,0.849,2.39,1.722
		c1.173,2.087,0.281,4.367-2.485,5.919C34.01,217.884,31.365,217.116,30.344,215.299z M39.312,227
		c-1.221-0.543-2.461-1.367-3.31-2.621c-1.371-2.021-0.862-3.884,1.446-5.444l4.659-3.153l1.157,1.709l-0.758,0.721l0.038,0.057
		c1.07,0.295,2.067,0.781,2.685,1.695c0.964,1.425,0.59,3.051-0.766,3.965c-1.709,1.159-3.543,0.384-6.063-2.605
		c-0.756,0.574-1.122,1.319-0.457,2.305c0.502,0.74,1.312,1.23,2.242,1.682L39.312,227z M42.335,233.01
		c-1.652-2.07-0.991-4.357,1.08-6.01c0.376-0.301,0.771-0.551,0.989-0.635l3.702,4.639c1.107-1.148,1.11-2.471,0.219-3.586
		c-0.495-0.617-1.112-1.006-1.875-1.275l0.673-1.637c1.102,0.332,2.186,1.027,2.926,1.955c1.684,2.111,1.527,4.922-0.961,6.906
		C46.654,235.307,43.761,234.799,42.335,233.01z M47.892,243.84c-1.834-1.941-2.602-4.133-0.475-6.145
		c1.391-1.314,2.918-1.43,4.336-0.756l1.745-5.754l1.955,2.066l-1.707,5.217l1.221,1.289l3.505-3.314l1.751,1.854l-9.276,8.773
		L47.892,243.84z M58.937,250.217l-1.966,1.727l-1.553-1.414l1.75-1.924l-1.759-1.598l1.345-1.479l1.757,1.602l2.875-3.16
		c0.744-0.814,0.76-1.498,0.123-2.08c-0.229-0.207-0.58-0.385-0.839-0.482l0.934-1.643c0.499,0.223,1.122,0.533,1.747,1.102
		c1.693,1.543,1.357,3.217-0.091,4.807l-2.875,3.16l1.005,0.916l-1.262,1.389L58.937,250.217z M64.067,254.529l0.924-1.445
		l-0.04-0.033c-1.339,0.535-2.574,0.422-3.352-0.207c-0.416-0.336-0.602-0.598-0.754-0.875l1.709-1.428
		c0.202,0.297,0.384,0.508,0.692,0.758c0.589,0.477,1.612,0.662,2.902-0.088l3.614-4.471l1.969,1.59l-6.06,7.496L64.067,254.529z
		 M72.422,256.533c-0.5,0.805-0.576,1.637,0.399,2.316c0.734,0.512,1.668,0.68,2.698,0.77l-0.207,1.893
		c-1.338-0.07-2.794-0.395-4.036-1.262c-2.006-1.4-2.198-3.318-0.602-5.609l3.225-4.619l1.695,1.184l-0.451,0.945l0.058,0.041
		c1.106-0.111,2.212-0.012,3.116,0.621c1.412,0.984,1.646,2.639,0.708,3.98C77.843,258.49,75.851,258.422,72.422,256.533z
		 M88.112,270.143l0.457-1.223l-0.046-0.023c-1.115,0.348-2.233,0.518-3.333-0.088c-1.207-0.664-1.617-1.6-1.51-2.76
		c-1.217,0.391-2.397,0.605-3.5-0.002c-1.794-0.988-1.925-2.715-0.754-4.842l2.902-5.264l2.218,1.223l-2.752,4.994
		c-0.724,1.311-0.596,1.973,0.204,2.412c0.482,0.266,1.201,0.25,2.152-0.051l3.201-5.809l2.202,1.215l-2.752,4.992
		c-0.723,1.311-0.58,1.98,0.22,2.422c0.482,0.266,1.2,0.248,2.138-0.063l3.201-5.807l2.218,1.223l-4.657,8.447L88.112,270.143z
		 M102.505,269.656c-0.517-1.133-1.411-2.121-2.443-2.553c-1.223-0.514-2.094-0.262-2.439,0.566
		c-0.366,0.873,0.235,1.441,1.098,2.326l1.294,1.324c0.987,0.99,1.778,2.441,1.063,4.16c-0.805,1.922-3.108,2.693-5.49,1.697
		c-1.366-0.57-2.506-1.682-3.055-3.051l1.809-0.98c0.488,0.932,1.12,1.609,2.089,2.014c1.033,0.43,1.878,0.244,2.204-0.535
		c0.353-0.842-0.348-1.49-1.183-2.307l-1.269-1.293c-1.185-1.188-1.743-2.486-1.032-4.188c0.805-1.92,3.094-2.887,5.811-1.748
		c1.572,0.656,2.886,1.934,3.572,3.51L102.505,269.656z M119.93,285.721l-2.457-0.609l0.833-3.361l0.552-1.729
		c-0.928,0.516-2.012,0.959-3.284,0.641c-2.023-0.5-2.544-2.119-1.96-4.479l1.446-5.836l2.457,0.609l-1.371,5.535
		c-0.36,1.457-0.083,2.059,0.837,2.283c0.77,0.191,1.345-0.055,2.2-0.572l1.596-6.439l2.457,0.609L119.93,285.721z M131.072,276.48
		c-0.738-0.801-1.492-1.309-2.374-1.455c-0.95-0.158-1.442,0.178-1.541,0.773c-0.117,0.711,0.813,1.197,1.751,1.754
		c1.127,0.656,2.348,1.611,2.083,3.205c-0.281,1.697-1.855,2.676-4.028,2.314c-1.375-0.229-2.349-0.982-3.03-1.705l1.37-1.326
		c0.598,0.605,1.205,1.037,1.901,1.152c0.867,0.145,1.336-0.162,1.425-0.705c0.116-0.695-0.725-1.096-1.664-1.635
		c-1.177-0.684-2.465-1.541-2.172-3.307c0.274-1.666,1.804-2.789,4.283-2.377c1.271,0.209,2.571,1,3.393,1.938L131.072,276.48z
		 M134.401,288.236c-0.856-0.096-1.396-0.709-1.306-1.529c0.093-0.842,0.752-1.322,1.608-1.229c0.875,0.1,1.413,0.713,1.319,1.551
		C135.935,287.852,135.274,288.334,134.401,288.236z M136.141,284.078l-2.517-0.277l1.057-9.592l2.517,0.277L136.141,284.078z
		 M141.934,288.641l-2.526-0.168l0.739-11.121c0.04-0.582-0.205-0.789-0.447-0.805c-0.103-0.006-0.17-0.012-0.346,0.012
		l-0.184-1.895c0.301-0.102,0.72-0.178,1.321-0.139c1.753,0.119,2.295,1.311,2.176,3.1L141.934,288.641z M153.422,277.178
		c-0.012,0.721-0.522,1.385-1.114,1.787l-0.002,0.072c0.665,0.49,1.269,1.414,1.25,2.553c-0.035,2.254-1.896,3.445-3.946,3.414
		c-0.534-0.01-1.049-0.123-1.442-0.266l-3.478-0.055l0.029-1.859l1.636,0.025c-0.235-0.33-0.417-0.869-0.407-1.471
		c0.036-2.17,1.705-3.244,3.772-3.213c0.378,0.008,0.825,0.1,1.237,0.246c0.261-0.223,0.419-0.424,0.425-0.82
		c0.008-0.518-0.366-0.799-1.502-0.818l-1.636-0.025c-2.324-0.037-3.587-0.781-3.559-2.467c0.031-1.947,2.087-3.395,5.306-3.344
		c2.273,0.037,4.016,0.84,3.988,2.545c-0.012,0.811-0.522,1.49-1.408,1.975l-0.002,0.086
		C153.063,275.879,153.434,276.385,153.422,277.178z M163.121,284.148l-0.288-1.254l-0.052,0.004
		c-0.775,0.891-1.699,1.654-3.003,1.758c-2.075,0.166-3.083-1.207-3.274-3.625l-0.475-5.986l2.522-0.203l0.451,5.682
		c0.118,1.492,0.569,1.973,1.513,1.898c0.79-0.061,1.257-0.479,1.905-1.238l-0.524-6.605l2.522-0.199l0.762,9.607L163.121,284.148z
		 M169.171,286.617l-0.35-2.104l5.193-0.861l-0.481-2.902l-4.411,0.732l-0.351-2.105l4.414-0.732l-0.558-3.359l-5.38,0.893
		l-0.348-2.105l7.89-1.307l2.085,12.574L169.171,286.617z M178.646,277.896l-0.417-1.76l4.573-1.088l0.418,1.758L178.646,277.896z
		 M190.955,278.795c-0.511,0.158-1.035,0.213-1.454,0.199l-3.321,1.027l-0.551-1.773l1.563-0.484
		c-0.329-0.242-0.667-0.695-0.845-1.271c-0.644-2.072,0.609-3.613,2.581-4.225c0.362-0.113,0.815-0.162,1.251-0.154
		c0.18-0.289,0.267-0.535,0.15-0.912c-0.152-0.494-0.596-0.645-1.682-0.307l-1.563,0.482c-2.22,0.688-3.649,0.375-4.15-1.234
		c-0.575-1.859,0.926-3.877,4-4.83c2.173-0.672,4.078-0.453,4.584,1.176c0.239,0.773-0.033,1.578-0.724,2.316l0.025,0.082
		c0.574,0.164,1.082,0.527,1.317,1.285c0.214,0.689-0.063,1.48-0.5,2.047l0.02,0.068c0.785,0.26,1.646,0.947,1.984,2.033
		C194.309,276.475,192.911,278.188,190.955,278.795z M203.537,273.945l-0.654-1.109l-0.05,0.021
		c-0.469,1.082-1.118,2.088-2.33,2.582c-1.932,0.787-3.307-0.217-4.221-2.465l-2.267-5.566l2.346-0.953l2.149,5.277
		c0.563,1.389,1.141,1.709,2.02,1.354c0.734-0.299,1.053-0.838,1.44-1.756l-2.499-6.143l2.345-0.955l3.636,8.934L203.537,273.945z
		 M204.394,262.984l2.277-1.104l4.206,8.672l-2.277,1.105L204.394,262.984z M211.617,274.996c-0.775,0.377-1.558,0.143-1.919-0.6
		c-0.368-0.758-0.065-1.516,0.708-1.893c0.789-0.383,1.572-0.15,1.94,0.607C212.707,273.855,212.406,274.613,211.617,274.996z
		 M218.412,266.791c-0.943,0.537-1.73,0.51-2.643,0.297l0.823,1.273l1.674,2.947l-2.185,1.238l-6.784-11.936l1.781-1.014
		l0.658,0.775l0.06-0.035c0.273-0.945,0.839-1.9,1.707-2.395c2.08-1.182,4.36-0.301,5.926,2.453
		C220.977,263.119,220.223,265.762,218.412,266.791z M227.517,261.076c-2.016,1.383-3.879,0.887-5.456-1.412l-3.183-4.641
		l1.701-1.168l0.726,0.754l0.058-0.039c0.287-1.072,0.77-2.07,1.678-2.697c1.418-0.973,3.047-0.605,3.971,0.74
		c1.169,1.703,0.405,3.541-2.566,6.082c0.578,0.752,1.328,1.115,2.307,0.443c0.738-0.506,1.223-1.322,1.668-2.252l1.697,0.859
		C229.578,258.973,228.766,260.219,227.517,261.076z M236.067,254.746c-2.067,1.666-4.362,1.016-6.028-1.053
		c-0.303-0.375-0.556-0.77-0.643-0.986l4.629-3.732c-1.157-1.105-2.48-1.1-3.595-0.203c-0.617,0.498-1.001,1.121-1.268,1.889
		l-1.645-0.666c0.327-1.105,1.02-2.195,1.945-2.943c2.106-1.697,4.922-1.555,6.924,0.926
		C238.347,250.406,237.852,253.307,236.067,254.746z M246.891,249.074c-1.931,1.846-4.116,2.623-6.141,0.506
		c-1.321-1.383-1.444-2.908-0.779-4.332l-5.761-1.715l2.056-1.965l5.227,1.68l1.282-1.227l-3.332-3.488l1.844-1.76l8.819,9.23
		L246.891,249.074z M253.54,241.52l-1.933-1.74l-1.591,1.764l-1.485-1.338l1.593-1.764l-3.176-2.861
		c-0.819-0.736-1.501-0.75-2.079-0.111c-0.208,0.232-0.384,0.582-0.48,0.844l-1.646-0.926c0.22-0.498,0.528-1.127,1.092-1.754
		c1.534-1.701,3.209-1.375,4.81,0.068l3.174,2.857l0.912-1.01l1.395,1.258L253.21,238l1.737,1.959L253.54,241.52z M257.497,232.848
		l-1.45-0.916l-0.031,0.041c0.54,1.336,0.433,2.572-0.19,3.352c-0.334,0.418-0.596,0.605-0.872,0.758l-1.438-1.701
		c0.295-0.205,0.509-0.387,0.756-0.695c0.473-0.592,0.652-1.617-0.104-2.904l-4.49-3.594l1.58-1.979l7.532,6.027L257.497,232.848z
		 M263.188,225.594c-1.387,2.014-3.306,2.219-5.604,0.637l-4.642-3.193l1.174-1.703l0.949,0.445l0.038-0.06
		c-0.117-1.104-0.024-2.212,0.602-3.12c0.977-1.418,2.629-1.662,3.976-0.733c1.704,1.173,1.65,3.165-0.217,6.605
		c0.809,0.495,1.64,0.563,2.314-0.413c0.506-0.74,0.669-1.674,0.752-2.705l1.893,0.196
		C264.362,222.887,264.047,224.344,263.188,225.594z M272.952,208.742l-1.225-0.449l-0.026,0.045
		c0.354,1.112,0.532,2.229-0.066,3.332c-0.659,1.209-1.589,1.622-2.748,1.521c0.396,1.217,0.617,2.394,0.018,3.496
		c-0.979,1.8-2.7,1.94-4.833,0.781l-5.274-2.871l1.209-2.222l5.003,2.722c1.315,0.715,1.975,0.584,2.409-0.217
		c0.264-0.484,0.242-1.201-0.064-2.15l-5.818-3.166l1.2-2.207l5.004,2.722c1.313,0.716,1.982,0.569,2.417-0.231
		c0.264-0.484,0.241-1.201-0.073-2.135l-5.818-3.165l1.209-2.224l8.464,4.605L272.952,208.742z M279.953,201.225
		c-0.563,1.369-1.67,2.516-3.032,3.07l-0.989-1.803c0.928-0.492,1.601-1.129,2-2.1c0.425-1.034,0.231-1.877-0.548-2.199
		c-0.843-0.346-1.488,0.355-2.297,1.195l-1.29,1.277c-1.18,1.189-2.473,1.755-4.177,1.053c-1.925-0.791-2.904-3.074-1.782-5.797
		c0.648-1.576,1.919-2.896,3.488-3.59l1.067,2.02c-1.127,0.523-2.112,1.422-2.538,2.457c-0.504,1.227-0.247,2.093,0.58,2.436
		c0.876,0.359,1.44-0.244,2.318-1.112l1.317-1.3c0.985-0.993,2.432-1.793,4.151-1.084
		C280.149,196.539,280.935,198.838,279.953,201.225z M287.754,179.284l-3.361-0.813l-1.727-0.541
		c0.52,0.922,0.965,2.004,0.658,3.273c-0.49,2.023-2.106,2.555-4.463,1.982l-5.838-1.412l0.595-2.457l5.536,1.339
		c1.456,0.353,2.054,0.073,2.277-0.849c0.186-0.768-0.063-1.342-0.584-2.194l-6.439-1.56l0.596-2.459l13.346,3.233L287.754,179.284z
		 M289.273,163.643c-0.839-0.088-1.323-0.743-1.234-1.602c0.091-0.873,0.702-1.414,1.541-1.326c0.821,0.086,1.308,0.742,1.217,1.615
		C290.706,163.186,290.097,163.729,289.273,163.643z M279.89,156.688c-0.585-0.035-0.789,0.209-0.805,0.451
		c-0.006,0.103-0.01,0.17,0.014,0.344l-1.892,0.196c-0.103-0.299-0.18-0.718-0.145-1.319c0.107-1.754,1.296-2.303,3.085-2.192
		l11.018,0.673l-0.154,2.527L279.89,156.688z"/>
	<path fill="#DF8179" d="M213.963,260.076c-0.583,0.332-0.941,0.854-1.078,1.762l2.092,3.68c0.773,0.176,1.404,0.035,1.929-0.264
		c0.941-0.537,1.225-1.883,0.272-3.559C216.193,259.957,215.071,259.447,213.963,260.076z"/>
</g>
</svg>
