<?xml version="1.0" encoding="utf-8"?>
<!-- Generator: Adobe Illustrator 16.0.0, SVG Export Plug-In . SVG Version: 6.00 Build 0)  -->
<!DOCTYPE svg PUBLIC "-//W3C//DTD SVG 1.1//EN" "http://www.w3.org/Graphics/SVG/1.1/DTD/svg11.dtd">
<svg version="1.1" xmlns="http://www.w3.org/2000/svg" xmlns:xlink="http://www.w3.org/1999/xlink" x="0px" y="0px" width="150px"
	 height="150px" viewBox="0 0 150 150" enable-background="new 0 0 150 150" xml:space="preserve">
<g id="圖層_2">
	
		<image overflow="visible" width="512" height="512" xlink:href="../../../../../Downloads/open-book.png"  transform="matrix(0.293 0 0 0.293 167.5254 9.765625e-004)">
	</image>
</g>
<g id="圖層_1">
	<path fill="none" stroke="#FFFFFF" stroke-width="4" stroke-linecap="round" stroke-linejoin="round" stroke-miterlimit="10" d="
		M182.234,50.145v56.438c0,0-0.177,4.938,2.822,4.232c0,0,36.684-8.112,55.731,9.524c0,0,1.571,2.005,3.904,0
		c0,0,27-18.672,54.333-8.672c0,0,4.166,0.833,4.333-3V87.334"/>
	<path fill="none" stroke="#FFFFFF" stroke-width="4" stroke-linecap="round" stroke-linejoin="round" stroke-miterlimit="10" d="
		M182.232,41.003V23.836c0,0-0.541-3.167,2.793-3.167c0,0,36.665-7.833,57.5,11.167c0,0,20.751-19.67,58.417-10.586
		c0,0,2,0.333,2,1.417v55.25"/>
	<path fill="none" stroke="#FFFFFF" stroke-width="4" stroke-linecap="round" stroke-linejoin="round" stroke-miterlimit="10" d="
		M302.942,26.333l9.416,1.833c0,0,3,0.5,3,4.333v86.833c0,0-0.499,5.168-3.666,4.334c0,0-39.667-9.668-60.167,7.166h-15.166
		c0,0-20.834-16.167-63-7.5c0,0-3.001-0.5-3.168-5v-86.5c0,0,0.85-6.167,12.009-5.5"/>
	
		<line fill="none" stroke="#FFFFFF" stroke-width="4" stroke-linecap="round" stroke-linejoin="round" stroke-miterlimit="10" x1="242.525" y1="31.836" x2="242.525" y2="121.222"/>
	<path fill="none" stroke="#FFFFFF" stroke-width="4" stroke-linecap="round" stroke-linejoin="round" stroke-miterlimit="10" d="
		M189.525,36.5c0,0,32.167-4.666,45.5,7.167"/>
	<path fill="none" stroke="#FFFFFF" stroke-width="4" stroke-linecap="round" stroke-linejoin="round" stroke-miterlimit="10" d="
		M189.525,54.895c0,0,32.167-4.666,45.5,7.167"/>
	<path fill="none" stroke="#FFFFFF" stroke-width="4" stroke-linecap="round" stroke-linejoin="round" stroke-miterlimit="10" d="
		M189.525,73.29c0,0,32.167-4.666,45.5,7.167"/>
	<path fill="none" stroke="#FFFFFF" stroke-width="4" stroke-linecap="round" stroke-linejoin="round" stroke-miterlimit="10" d="
		M189.525,91.686c0,0,32.167-4.666,45.5,7.166"/>
	<path fill="none" stroke="#FFFFFF" stroke-width="4" stroke-linecap="round" stroke-linejoin="round" stroke-miterlimit="10" d="
		M294.683,36.5c0,0-32.167-4.666-45.5,7.167"/>
	<path fill="none" stroke="#FFFFFF" stroke-width="4" stroke-linecap="round" stroke-linejoin="round" stroke-miterlimit="10" d="
		M294.683,54.895c0,0-32.167-4.666-45.5,7.167"/>
	<path fill="none" stroke="#FFFFFF" stroke-width="4" stroke-linecap="round" stroke-linejoin="round" stroke-miterlimit="10" d="
		M294.683,73.29c0,0-32.167-4.666-45.5,7.167"/>
	<path fill="none" stroke="#FFFFFF" stroke-width="4" stroke-linecap="round" stroke-linejoin="round" stroke-miterlimit="10" d="
		M294.683,91.686c0,0-32.167-4.666-45.5,7.166"/>
	<g>
		<path fill="#D94E4D" d="M74.862,123.399c-0.145,0-0.281-0.008-0.408-0.02c-1.53-0.15-2.511-1.066-2.881-1.479
			c-18.073-16.612-53.503-9.044-53.86-8.964c-1.229,0.29-2.427,0.035-3.346-0.72c-1.945-1.599-1.929-4.894-1.906-5.537
			l-0.001-56.366c0-1.104,0.896-2,2-2s2,0.896,2,2v56.438c-0.025,0.88,0.157,1.899,0.38,2.282
			c1.78-0.395,38.004-8.075,57.532,10.007c0.078,0.072,0.15,0.15,0.215,0.234c0.098,0.101,0.31,0.33,1.026-0.283
			c0.053-0.046,0.108-0.089,0.166-0.128c1.134-0.786,28.058-19.063,55.978-8.972c0.455,0.061,1.191,0.022,1.525-0.245
			c0.182-0.145,0.283-0.446,0.303-0.897l-0.002-21.246c0-1.104,0.895-2,2-2c1.104,0,2,0.896,2,2v21.333
			c-0.094,2.172-1.051,3.345-1.838,3.962c-1.953,1.531-4.594,1.06-4.889,0.999c-0.1-0.02-0.197-0.048-0.295-0.083
			c-25.389-9.285-50.895,7.357-52.436,8.391C76.885,123.138,75.722,123.399,74.862,123.399z"/>
		<path fill="#D94E4D" d="M135.168,80.087c-1.105,0-2-0.896-2-2V23.479c-0.115-0.037-0.238-0.07-0.342-0.089
			c-0.037-0.007-0.09-0.018-0.127-0.026c-36.07-8.7-56.375,9.907-56.576,10.096c-0.759,0.717-1.947,0.729-2.72,0.024
			C53.557,15.386,18.024,22.719,17.668,22.795c-0.138,0.029-0.277,0.044-0.418,0.044c-0.425,0-0.655,0.086-0.706,0.144
			c-0.099,0.113-0.142,0.486-0.11,0.718c0.012,0.088,0.023,0.216,0.023,0.305v17.167c0,1.104-0.896,2-2,2s-2-0.896-2-2V24.132
			c-0.067-0.62-0.128-2.355,1.028-3.726c0.58-0.688,1.661-1.503,3.542-1.563c3.193-0.652,36.827-6.992,57.739,10.522
			c5.335-4.271,25.599-17.891,58.806-9.904c1.678,0.301,3.596,1.356,3.596,3.376v55.25
			C137.168,79.191,136.271,80.087,135.168,80.087z"/>
		<path fill="#D94E4D" d="M83.75,133.003H68.584c-0.444,0-0.875-0.147-1.226-0.42c-0.199-0.153-20.741-15.472-61.371-7.121
			c-0.242,0.05-0.489,0.055-0.731,0.014c-0.188-0.031-4.613-0.838-4.838-6.898L0.417,32.003c0-0.091,0.006-0.183,0.019-0.273
			c0.045-0.326,1.252-7.995,14.109-7.224c1.103,0.066,1.943,1.013,1.877,2.116s-1.013,1.938-2.116,1.877
			c-8.287-0.491-9.696,3.037-9.89,3.718v86.285c0.075,1.99,0.87,2.694,1.303,2.932c38.911-7.841,59.792,4.979,63.514,7.568h13.813
			c21.16-16.65,59.699-7.511,61.344-7.109c0.16,0.042,0.213,0.033,0.213,0.033c0.318-0.129,0.84-1.364,0.98-2.534V32.67
			c0-1.856-0.965-2.276-1.381-2.37l-9.418-1.833c-1.084-0.211-1.791-1.261-1.58-2.346s1.262-1.79,2.344-1.581l9.416,1.833
			c1.563,0.26,4.619,1.924,4.619,6.297v86.833c0,0.064-0.004,0.128-0.01,0.192c-0.063,0.652-0.488,3.983-2.666,5.501
			c-1.018,0.711-2.227,0.912-3.5,0.574c-0.35-0.084-38.91-9.219-58.389,6.778C84.662,132.843,84.213,133.003,83.75,133.003z"/>
		<path fill="#D94E4D" d="M74.75,123.392c-1.104,0-2-0.896-2-2V32.006c0-1.104,0.896-2,2-2s2,0.896,2,2v89.385
			C76.75,122.496,75.855,123.392,74.75,123.392z"/>
		<path fill="#D94E4D" d="M67.25,45.837c-0.472,0-0.946-0.166-1.327-0.504c-12.479-11.076-43.572-6.729-43.886-6.684
			c-1.091,0.158-2.107-0.6-2.266-1.693c-0.158-1.093,0.599-2.107,1.692-2.266c1.35-0.196,33.246-4.658,47.115,7.651
			c0.826,0.733,0.901,1.997,0.168,2.823C68.351,45.61,67.802,45.837,67.25,45.837z"/>
		<path fill="#D94E4D" d="M67.25,64.232c-0.472,0-0.946-0.166-1.327-0.504c-12.479-11.076-43.572-6.729-43.886-6.684
			c-1.091,0.157-2.107-0.6-2.266-1.693c-0.158-1.093,0.599-2.107,1.692-2.266c1.35-0.195,33.246-4.658,47.115,7.651
			c0.826,0.733,0.901,1.997,0.168,2.823C68.351,64.005,67.802,64.232,67.25,64.232z"/>
		<path fill="#D94E4D" d="M67.25,82.627c-0.472,0-0.946-0.166-1.327-0.504c-12.479-11.075-43.572-6.729-43.886-6.684
			c-1.091,0.155-2.107-0.6-2.266-1.693c-0.158-1.093,0.599-2.107,1.692-2.266c1.35-0.196,33.246-4.658,47.115,7.65
			c0.826,0.733,0.901,1.997,0.168,2.823C68.351,82.399,67.802,82.627,67.25,82.627z"/>
		<path fill="#D94E4D" d="M67.25,101.021c-0.472,0-0.946-0.166-1.327-0.504c-12.479-11.076-43.573-6.729-43.886-6.683
			c-1.091,0.159-2.107-0.601-2.266-1.692c-0.158-1.094,0.599-2.107,1.692-2.267c1.351-0.196,33.245-4.656,47.115,7.649
			c0.826,0.733,0.901,1.997,0.168,2.823C68.351,100.794,67.802,101.021,67.25,101.021z"/>
		<path fill="#D94E4D" d="M81.408,45.837c-0.553,0-1.102-0.227-1.496-0.672c-0.734-0.826-0.658-2.09,0.168-2.823
			c13.869-12.309,45.766-7.846,47.115-7.651c1.092,0.159,1.85,1.173,1.691,2.266c-0.158,1.092-1.162,1.847-2.266,1.693
			c-0.313-0.045-31.404-4.393-43.887,6.684C82.354,45.671,81.881,45.837,81.408,45.837z"/>
		<path fill="#D94E4D" d="M81.408,64.232c-0.553,0-1.102-0.227-1.496-0.672c-0.734-0.826-0.658-2.09,0.168-2.823
			c13.869-12.309,45.766-7.845,47.115-7.651c1.092,0.159,1.85,1.173,1.691,2.266c-0.158,1.092-1.162,1.847-2.266,1.693
			c-0.313-0.045-31.404-4.393-43.887,6.684C82.354,64.066,81.881,64.232,81.408,64.232z"/>
		<path fill="#D94E4D" d="M81.408,82.627c-0.553,0-1.102-0.228-1.496-0.673c-0.734-0.826-0.658-2.09,0.168-2.823
			c13.869-12.308,45.766-7.845,47.115-7.65c1.092,0.159,1.85,1.173,1.691,2.266c-0.158,1.092-1.162,1.846-2.266,1.693
			c-0.313-0.045-31.404-4.394-43.887,6.684C82.354,82.461,81.881,82.627,81.408,82.627z"/>
		<path fill="#D94E4D" d="M81.408,101.021c-0.553,0-1.102-0.228-1.496-0.673c-0.734-0.826-0.658-2.09,0.168-2.823
			c13.869-12.308,45.766-7.846,47.115-7.649c1.092,0.159,1.85,1.173,1.691,2.267c-0.158,1.092-1.162,1.844-2.266,1.692
			c-0.313-0.046-31.406-4.394-43.887,6.683C82.354,100.855,81.881,101.021,81.408,101.021z"/>
	</g>
</g>
</svg>
