<?xml version="1.0" encoding="utf-8"?>
<!-- Generator: Adobe Illustrator 26.2.1, SVG Export Plug-In . SVG Version: 6.00 Build 0)  -->
<svg version="1.1" id="圖層_1" xmlns="http://www.w3.org/2000/svg" xmlns:xlink="http://www.w3.org/1999/xlink" x="0px" y="0px"
	 viewBox="0 0 90 90" style="enable-background:new 0 0 90 90;" xml:space="preserve">
<style type="text/css">
	.st0{fill:#FFFFFF;}
</style>
<circle cx="154" cy="48" r="45"/>
<g>
	<path class="st0" d="M13,35l3.6-16.8h3.5l-2.9,13.9H23L22.4,35H13z"/>
	<path class="st0" d="M31.9,35.2c-1.6,0-2.9-0.4-3.7-1.3c-0.9-0.9-1.3-2.1-1.3-3.7c0-1.6,0.3-3,0.9-4.3c0.6-1.3,1.5-2.3,2.6-3
		c1.1-0.7,2.3-1,3.7-1c1.4,0,2.4,0.3,3.2,0.9c0.8,0.6,1.1,1.5,1.1,2.6c0,1.4-0.6,2.5-1.9,3.3c-1.3,0.8-3.1,1.2-5.5,1.2h-0.6l0,0.2
		v0.2c0,0.7,0.2,1.2,0.6,1.6c0.4,0.4,1,0.6,1.7,0.6c0.7,0,1.3-0.1,1.8-0.2c0.5-0.1,1.2-0.4,2-0.8v2.6C35,34.9,33.5,35.2,31.9,35.2z
		 M33.8,24.4c-0.7,0-1.3,0.3-1.9,0.9c-0.6,0.6-1,1.4-1.2,2.2h0.5c1.2,0,2.1-0.2,2.8-0.6c0.7-0.4,1-0.9,1-1.5
		C35,24.8,34.6,24.4,33.8,24.4z"/>
	<path class="st0" d="M45.1,31.6c0.5-1.4,0.8-2.2,1-2.6l3.4-6.8h3.7L46.3,35h-3.7L41,22.2h3.4l0.5,6.7c0.1,1,0.1,1.9,0.1,2.7H45.1z"
		/>
	<path class="st0" d="M59.2,35.2c-1.6,0-2.9-0.4-3.7-1.3c-0.9-0.9-1.3-2.1-1.3-3.7c0-1.6,0.3-3,0.9-4.3c0.6-1.3,1.5-2.3,2.6-3
		c1.1-0.7,2.3-1,3.7-1c1.4,0,2.4,0.3,3.2,0.9c0.8,0.6,1.1,1.5,1.1,2.6c0,1.4-0.6,2.5-1.9,3.3c-1.3,0.8-3.1,1.2-5.5,1.2h-0.6l0,0.2
		v0.2c0,0.7,0.2,1.2,0.6,1.6c0.4,0.4,1,0.6,1.7,0.6c0.7,0,1.3-0.1,1.8-0.2c0.5-0.1,1.2-0.4,2-0.8v2.6C62.3,34.9,60.8,35.2,59.2,35.2
		z M61,24.4c-0.7,0-1.3,0.3-1.9,0.9c-0.6,0.6-1,1.4-1.2,2.2h0.5c1.2,0,2.1-0.2,2.8-0.6c0.7-0.4,1-0.9,1-1.5
		C62.2,24.8,61.8,24.4,61,24.4z"/>
	<path class="st0" d="M71.2,35h-3.5l3.8-17.9H75L71.2,35z"/>
</g>
<text transform="matrix(1 0 0 1 -221.7529 -33.4232)" class="st0" style="font-family:'NotoSans-BoldItalic'; font-size:69.0212px; letter-spacing:3;">Level</text>
<g>
	<path class="st0" d="M48.4,41.4c2.2,0,4,0.4,5.7,1.1c1.6,0.7,2.9,1.8,3.7,3.1c0.8,1.3,1.3,2.9,1.3,4.6c0,2.3-0.7,4.4-2.1,6.1
		c-1.4,1.7-3.4,3.1-6.1,4c3.8,2.5,5.7,5.7,5.7,9.6c0,2.1-0.6,4-1.7,5.7c-1.1,1.7-2.7,3-4.8,3.9c-2.1,0.9-4.5,1.4-7.2,1.4
		c-3.7,0-6.7-0.9-8.8-2.6c-2.1-1.8-3.2-4.1-3.2-7.1c0-5.2,3-8.9,9.1-11.2c-2.9-2.3-4.3-4.9-4.3-7.8c0-2.1,0.5-3.9,1.5-5.6
		c1-1.6,2.5-2.9,4.4-3.8C43.6,41.8,45.9,41.4,48.4,41.4z M44.8,63.5c-2,0.8-3.5,1.7-4.5,2.8c-1,1.1-1.5,2.4-1.5,4
		c0,1.4,0.4,2.5,1.3,3.4c0.9,0.8,2.1,1.2,3.5,1.2c1.6,0,2.9-0.5,3.9-1.4c1-0.9,1.4-2.1,1.4-3.6c0-1.3-0.3-2.4-1-3.5
		C47.3,65.4,46.2,64.4,44.8,63.5z M47.7,47.3c-1.3,0-2.4,0.4-3.2,1.2s-1.2,1.9-1.2,3.1c0,2.3,1.1,4.1,3.2,5.3
		c3.2-1.3,4.9-3.2,4.9-5.8c0-1.2-0.3-2.1-1-2.8C49.7,47.6,48.8,47.3,47.7,47.3z"/>
</g>
<g>
	<path class="st0" d="M-15.9,54.1c0,4.9-0.9,9.6-2.6,14c-1.7,4.4-4,7.7-6.9,9.7s-6.4,3.1-10.6,3.1c-2.2,0-4.3-0.3-6.3-0.8v-6.7
		c1.9,0.7,3.9,1.1,6,1.1c3,0,5.5-0.9,7.4-2.7s3.4-4.8,4.5-9h-0.2c-1.9,2.8-4.5,4.1-7.7,4.1c-2.9,0-5.1-0.9-6.6-2.7
		c-1.6-1.8-2.3-4.3-2.3-7.5c0-2.9,0.6-5.6,1.9-8c1.3-2.4,3-4.3,5.1-5.5c2.2-1.2,4.7-1.8,7.5-1.8c3.6,0,6.3,1.1,8.1,3.2
		C-16.9,46.7-15.9,49.9-15.9,54.1z M-27.7,47.9c-1.1,0-2.1,0.4-3,1.1c-0.9,0.7-1.6,1.7-2,3c-0.5,1.3-0.7,2.6-0.7,4
		c0,1.5,0.3,2.7,1,3.5c0.7,0.8,1.6,1.2,2.8,1.2c1.1,0,2-0.3,2.9-1c0.9-0.6,1.6-1.5,2.2-2.6c0.5-1.1,0.8-2.5,0.8-4.2
		c0-1.5-0.3-2.7-0.9-3.6S-26.4,47.9-27.7,47.9z"/>
</g>
<text transform="matrix(1 0 0 1 -300.6143 143.248)" style="fill:#E60012; font-family:'NotoSans-BoldItalic'; font-size:53.7669px;">1</text>
<text transform="matrix(1 0 0 1 -268.6143 143.248)" style="fill:#E60012; font-family:'NotoSans-BoldItalic'; font-size:53.7669px;">2</text>
<text transform="matrix(1 0 0 1 -236.6143 143.248)" style="fill:#E60012; font-family:'NotoSans-BoldItalic'; font-size:53.7669px;">3</text>
<text transform="matrix(1 0 0 1 -204.6143 143.248)" style="fill:#E60012; font-family:'NotoSans-BoldItalic'; font-size:53.7669px;">4</text>
<text transform="matrix(1 0 0 1 -172.6143 143.248)" style="fill:#E60012; font-family:'NotoSans-BoldItalic'; font-size:53.7669px;">5</text>
<text transform="matrix(1 0 0 1 -140.6143 143.248)" style="fill:#E60012; font-family:'NotoSans-BoldItalic'; font-size:53.7669px;">6</text>
<text transform="matrix(1 0 0 1 -108.6143 143.248)" style="fill:#E60012; font-family:'NotoSans-BoldItalic'; font-size:53.7669px;">7</text>
<text transform="matrix(1 0 0 1 -76.6143 143.248)" style="fill:#E60012; font-family:'NotoSans-BoldItalic'; font-size:53.7669px;">8</text>
<text transform="matrix(1 0 0 1 -44.6143 143.248)" style="fill:#E60012; font-family:'NotoSans-BoldItalic'; font-size:53.7669px;">9</text>
</svg>
