<?xml version="1.0" encoding="utf-8"?>
<!-- Generator: Adobe Illustrator 26.2.1, SVG Export Plug-In . SVG Version: 6.00 Build 0)  -->
<svg version="1.1" id="圖層_1" xmlns="http://www.w3.org/2000/svg" xmlns:xlink="http://www.w3.org/1999/xlink" x="0px" y="0px"
	 viewBox="0 0 150 150" style="enable-background:new 0 0 150 150;" xml:space="preserve">
<style type="text/css">
	.st0{opacity:0.3;fill:#68696C;}
	.st1{fill:#E5CF25;}
	.st2{opacity:0.4;fill:#ECF3E0;}
	.st3{opacity:0.9;fill:#ECF3E0;}
</style>
<g>
	<path class="st0" d="M25,79.1c0,25.4,22.4,45.9,50,45.9c27.6,0,50-20.5,50-45.9c0-25.3-22.4-45.9-50-45.9
		C47.4,33.2,25,53.8,25,79.1z"/>
	<g>
		<g>
			<g>
				<g>
					<path class="st1" d="M33.1,66.8c0,23.1,18.7,41.9,41.8,41.9c23.1,0,41.9-18.7,41.9-41.9C116.9,43.7,98.1,25,75,25
						C51.9,25,33.1,43.7,33.1,66.8z"/>
					<path class="st2" d="M45.4,61.2c0,16.3,13.2,29.5,29.5,29.5c16.3,0,29.5-13.2,29.5-29.5c0-16.3-13.2-29.6-29.5-29.6
						C58.7,31.6,45.4,44.8,45.4,61.2z"/>
					<path class="st3" d="M63.3,50.8c0,4.2,3.4,7.6,7.6,7.6c4.2,0,7.6-3.4,7.6-7.6c0-4.2-3.4-7.6-7.6-7.6
						C66.7,43.1,63.3,46.6,63.3,50.8z"/>
					<path class="st3" d="M67.4,66.8c0,2,1.6,3.6,3.5,3.6c2,0,3.6-1.6,3.6-3.6c0-1.9-1.6-3.6-3.6-3.6C69,63.3,67.4,64.9,67.4,66.8z"
						/>
				</g>
			</g>
		</g>
	</g>
</g>
</svg>
