<?xml version="1.0" encoding="utf-8"?>
<!-- Generator: Adobe Illustrator 26.2.1, SVG Export Plug-In . SVG Version: 6.00 Build 0)  -->
<svg version="1.1" id="圖層_1" xmlns="http://www.w3.org/2000/svg" xmlns:xlink="http://www.w3.org/1999/xlink" x="0px" y="0px"
	 viewBox="0 0 95 150" style="enable-background:new 0 0 95 150;" xml:space="preserve">
<style type="text/css">
	.st0{fill:#93B8C9;}
	.st1{fill:#FFFFFF;}
	.st2{fill:#DD943D;}
	.st3{fill:#C66632;}
	.st4{fill:#231F20;}
	.st5{fill:#EAA04E;}
	.st6{fill:#2D4959;}
	.st7{fill:#E94356;}
	.st8{fill:#F8D955;}
	.st9{fill:#688A9D;}
</style>
<g>
	<g>
		<g>
			<path class="st0" d="M17,76.2c-0.7-0.2-1.4-0.5-1.6-1.3c-0.3-1,0.2-2,0.7-2.7c0.5-0.7,1.2-1.3,1.9-1.7c1.2-0.7,2.4-0.5,3.8-0.3
				c0,0.1,0,0.2,0,0.3c0.1,0.2-0.1,0.4-0.2,0.5c-1.3-1.2-3.4-0.1-4.4,1c-0.9,1-1.1,2.6,0,3.4C17.1,75.6,17,75.9,17,76.2z"/>
			<path class="st0" d="M23.2,56.4c-1.9-1.6-1.3-3.6,0.8-4.8c0.4-0.2,0.9-0.4,1.4-0.6c0.3,0,0.7-0.1,1-0.2l0,0
				c0.9-0.2,1.7-0.3,2.6-0.2c-0.1,0.3-0.1,0.6-0.3,0.8c-0.2,0.3-0.4,0.4-0.6,0.5c-0.4-0.1-1-0.1-1.3-0.1c-1,0-1.8,0.2-2.7,0.5
				c-1.4,0.5-2.3,2.2-0.7,3C23.3,55.7,23.1,56.1,23.2,56.4z"/>
			<path class="st0" d="M28.7,40.5c-0.9-0.5-1.6-0.9-2-1.8c-0.3-0.7-0.4-1.3-0.3-1.9c0.2-1.3,1.4-1.9,2.4-2.3
				c0.9-0.3,1.7-0.5,2.5-0.4l1.4,0.3c0.8,0.2,1.5,0.6,2.2,1.1c0,0.1,0,0.1,0,0.2c-0.1,0.3-0.3,0.4-0.5,0.6l-0.1,0.1
				c-1.6-0.7-3.4-1.2-4.9-0.8c-1.7,0.5-2.2,3.6-0.6,4.2C28.7,39.9,28.5,40.2,28.7,40.5z"/>
			<path class="st0" d="M25.4,48.8c-1.1-0.6-2-1.4-1.9-2.8c0.1-1.1,1.2-1.6,2-2c1.6-0.7,4.2-0.8,5.8,0.1v0.1
				c-0.1,0.3-0.7,0.3-0.9,0.4c-0.1,0-0.1,0-0.1,0c-0.6-0.2-1.2-0.3-1.8-0.4l0,0c-0.5,0-1,0-1.5,0c0,0.1,0,0.1,0,0.1
				c-0.3,0.1-0.6,0.1-0.9,0.2c-0.7,0.2-1.3,0.7-1.5,1.4c-0.3,0.9,0.3,1.8,1.1,2C25.7,48.1,25.6,48.4,25.4,48.8z"/>
			<path class="st0" d="M19.8,67c-0.8-0.4-1.7-0.7-1.9-1.7c-0.2-1,0.7-2.1,1.4-2.8c0.8-0.9,1.7-1.6,2.7-2c1.2-0.6,2.2-0.6,3.4-0.6
				c0,0.2,0,0.3,0,0.4c-0.1,0.2-0.3,0.3-0.5,0.4c-0.1,0-0.1,0-0.1,0c-1.5-0.6-3.5,0.6-4.6,1.5c-1.4,1.2-1.5,2.8-0.1,3.8
				C20,66.2,19.9,66.6,19.8,67z"/>
			<path class="st1" d="M66.1,109.7c0.1,0.2,0.3,0.5,0.4,0.7c-2.7-0.7-5.3-1.4-8-2c-7.5-1.9-15-4-22.5-5.9
				c-6.2-1.6-12.5-3.7-18.8-5.1c-0.1-0.3-0.3-0.7-0.5-1c2.3,0.7,4.8,1.1,7.1,1.6c0.3,0,0.4-0.4,0.2-0.5c-2.3-1.2-5.1-1.6-7.7-1.9
				c-0.3-0.5-0.5-0.9-0.8-1.4c3.4,1.2,7,2,10.5,2.3c0.3,0.1,0.4-0.3,0.1-0.4c-3.5-1.1-7.3-2.1-11-2.6c-0.1-0.3-0.3-0.6-0.5-0.9
				c7.5,1.6,14.8,3.2,22.2,5.2c8.7,2.4,17.4,5.3,26.1,7.7l0.8,0.2c0.1,0.3,0.2,0.5,0.4,0.7c-1.7-0.6-3.6-0.9-5.2-1.4
				c-2.8-0.9-5.5-1.7-8.4-2.2c-0.2,0-0.3,0.3-0.1,0.4c2.4,0.9,4.9,1.6,7.5,2.3c2.2,0.7,4.7,1.7,7,1.8c0.2,0.2,0.3,0.5,0.5,0.7
				c0.2,0.2,0.3,0.4,0.4,0.6c-3.3-1.2-6.9-1.9-10.2-2.7c-0.3,0-0.4,0.4-0.1,0.5C58.9,107.4,62.6,109.1,66.1,109.7z"/>
			<path class="st1" d="M86.1,46.1c0.3,0.4,0.5,0.7,0.8,1.1c-1.9,6.2-3.6,12.5-5.3,18.7c-2.3,7.7-4.7,15.2-7.1,22.9
				c-2.2,7-4.5,13.9-6.5,20.9c-0.1-0.1-0.1-0.2-0.2-0.3c-0.1,0-0.1-0.1-0.1-0.1c-0.1-0.1-0.1-0.2-0.2-0.3c1.5-2.6,1.9-5.9,2.8-8.7
				c1.2-3.7,2.1-7.4,3-11.2c0-0.3-0.3-0.3-0.4-0.1c-1.8,6.3-4.6,12.5-6,19c-0.1-0.2-0.2-0.3-0.3-0.5c-0.3-0.4-0.5-0.8-0.8-1.2
				c1.8-3.9,2.7-8.2,3.7-12.4c0.1-0.4-0.5-0.5-0.6-0.1c-1.1,4-2.6,7.9-3.7,11.8c-0.3-0.3-0.6-0.7-1-1l0.1-0.3
				c1.7-4.7,3.3-9.4,4.7-14.3c1.6-6.3,3.4-12.6,5.2-18.8c2.9-9.5,5.9-19,9.4-28.3c0.2,0.2,0.3,0.4,0.5,0.6
				c-1.6,4.8-3.2,9.5-4.4,14.4c-0.1,0.2,0.3,0.3,0.4,0.1c0.9-2.3,1.6-4.7,2.4-7c0.8-2.2,1.6-4.6,1.9-6.9c0.4,0.5,0.7,1,1.1,1.5
				c-1,2.6-1.9,5.5-2.4,8.3c0,0.3,0.4,0.4,0.5,0.2C84.7,51.7,85.5,48.9,86.1,46.1z"/>
			<path class="st0" d="M66.1,109.7c0.1,0.2,0.3,0.5,0.4,0.7c-2.7-0.7-5.3-1.4-8-2c-7.5-1.9-15-4-22.5-5.9
				c-6.2-1.6-12.5-3.7-18.8-5.1c-0.1-0.3-0.3-0.7-0.5-1c2.3,0.7,4.8,1.1,7.1,1.6c0.3,0,0.4-0.4,0.2-0.5c-2.3-1.2-5.1-1.6-7.7-1.9
				c-0.3-0.5-0.5-0.9-0.8-1.4c3.4,1.2,7,2,10.5,2.3c0.3,0.1,0.4-0.3,0.1-0.4c-3.5-1.1-7.3-2.1-11-2.6c-0.1-0.3-0.3-0.6-0.5-0.9
				c7.5,1.6,14.8,3.2,22.2,5.2c8.7,2.4,17.4,5.3,26.1,7.7l0.8,0.2c0.1,0.3,0.2,0.5,0.4,0.7c-1.7-0.6-3.6-0.9-5.2-1.4
				c-2.8-0.9-5.5-1.7-8.4-2.2c-0.2,0-0.3,0.3-0.1,0.4c2.4,0.9,4.9,1.6,7.5,2.3c2.2,0.7,4.7,1.7,7,1.8c0.2,0.2,0.3,0.5,0.5,0.7
				c0.2,0.2,0.3,0.4,0.4,0.6c-3.3-1.2-6.9-1.9-10.2-2.7c-0.3,0-0.4,0.4-0.1,0.5C58.9,107.4,62.6,109.1,66.1,109.7z"/>
			<path class="st0" d="M76.8,80.9c-0.8,2.6-1.6,5.2-2.4,7.9c-2.2,7-4.5,13.9-6.5,20.9c-0.1-0.1-0.1-0.2-0.2-0.3
				c-0.1,0-0.1-0.1-0.1-0.1c-0.1-0.1-0.1-0.2-0.2-0.3c1.5-2.6,1.9-5.9,2.8-8.7c1.2-3.7,2.1-7.4,3-11.2c0-0.3-0.3-0.3-0.4-0.1
				c-1.8,6.3-4.6,12.5-6,19c-0.1-0.2-0.2-0.3-0.3-0.5c-0.3-0.4-0.5-0.8-0.8-1.2c1.8-3.9,2.7-8.2,3.7-12.4c0.1-0.4-0.5-0.5-0.6-0.1
				c-1.1,4-2.6,7.9-3.7,11.8c-0.3-0.3-0.6-0.7-1-1l0.1-0.3c1.7-4.7,3.3-9.4,4.7-14.3c0.6-1.8,1.1-3.7,1.6-5.5
				c-0.4,2.2-0.9,4.6-1.3,6.8c-0.1,0.5,0.5,0.8,0.8,0.4c2.3-3.1,3.7-6.7,5.1-10.3c0,0.2-0.1,0.3-0.1,0.5c-0.1,0.5,0.6,0.7,0.9,0.3
				C76.2,81.8,76.5,81.5,76.8,80.9z"/>
			<path class="st2" d="M53.5,101.3c3.3,1,6.7,1.7,10,2.8c0.8-2.2,1.6-4.4,2.3-6.7c0.9-3.1,1.7-6.2,2.6-9.3
				c1.7-6.2,3.4-12.5,5.3-18.7c1.9-6.1,4-12.2,5.9-18.3c0.9-2.7,1.7-5.4,2.8-8.1c-6.6-1.4-13.1-3.1-19.5-4.7
				c-9.3-2.3-19.2-4.9-28-9.1c-0.6,1.4-1.2,2.7-1.7,4.1c1.3,0.3,2.3,1,2.7,2.2c0,0.1,0,0.1,0,0.2c0,0.5-0.3,1-0.8,1.3
				C35,37,35,37.1,34.8,37.1c-1.1,0-2-0.4-3.1-0.6c-0.8,1.9-1.6,3.9-2.3,5.8c0.8,0.1,1.6,0.3,2.2,0.7h0.1c0.3,0.1,0.6,0.3,0.7,0.6
				c0.1,0.3,0.1,0.6,0,0.9c-0.3,0.6-1.1,1-1.6,0.9c-0.1,0-0.1,0-0.2-0.1c-0.7,0-1.5-0.1-2.1-0.1c-0.6,1.6-1.1,3.1-1.6,4.7
				c1-0.1,1.8,0,2.7,0.2c0.2,0.1,0.3,0.3,0.3,0.5c0.4,1.2-0.9,2.7-2,2.3c-0.7,0.1-1.5,0-2,0.1h-0.1c-0.7,2-1.3,4.1-1.9,6.1
				c0.8-0.1,1.6,0,2.2,0.5c0.1,0,0.1,0.1,0.1,0.2c0.1,0.2,0.2,0.5,0.2,0.8c-0.1,0.4-0.4,0.7-0.8,0.9c-0.1,0-0.1,0.1-0.2,0.1
				c-0.7,0.1-1.5-0.1-2.1,0.1c-0.1,0-0.2,0.1-0.3,0.1c-0.4,1.3-0.8,2.5-1.2,3.8c-0.4,1.2-0.7,2.3-1.1,3.5c0.5,0,1,0.2,1.4,0.5
				c0.1,0,0.2,0,0.2,0c0.8,0.5,0.8,1.7-0.1,2.2c-0.2,0.1-0.5,0.1-0.6-0.1c-0.6-0.1-1.1-0.4-1.6-0.3c-0.7,2.1-1.3,4.2-1.8,6.2
				c0.6,0,1.2,0.2,1.6,0.5c0.1,0.1,0.1,0.2,0.1,0.3c0,0.1,0.1,0.1,0.1,0.2c0,0.2,0,0.3,0,0.5c-0.1,0.4-0.3,0.7-0.7,0.8
				c-0.1,0-0.2,0-0.3,0c-0.5,0.1-1,0-1.6-0.1c-1.1,4-2.2,7.9-3.4,11.8l0,0c8.1,1.6,16.1,3.2,24.1,5.4
				C43.1,98.3,48.2,99.8,53.5,101.3z M38.4,45.9c1.6-0.2,3.3-0.5,4.5,0.7c1.6,1.6,4.2,1,6.3,1.6c0.2,0.1,0.3,0.3,0.2,0.5
				c0-0.1,12.6,2.9,14,3.2c0.3,0.1,0.2,0.5-0.1,0.5c-4.9-0.8-9.5-2.3-14.4-3.2c-0.1-0.1-0.2-0.2-0.2-0.3c0-0.3-4.8-0.4-5.5-0.8
				c-0.3-0.2-0.4-0.4-0.6-0.7c-0.9-1.5-2.6-1.1-4-1C38.1,46.5,38.1,45.9,38.4,45.9z M37.3,51.6c1.6-0.2,4.2-0.8,5.5,0.3
				c0.3,0.2,0.8,1.1,0.9,1.1c0.9-0.1,1.9-0.2,2.7,0.2c1.1,0.5,1.4,1,2.6,1.2c2,0.4,4,0.8,5.9,1.3c3.6,1,7.2,2,10.9,3
				c0.3,0.1,0.2,0.6-0.1,0.5c-4.3-0.8-8.3-2.2-12.6-3.2c-2-0.5-3.9-0.9-5.9-1.1c-0.6,0-0.6-0.8-1.6-0.9c-0.9-0.1-1.6-0.1-2.4,0
				c-0.3,0-0.5-0.2-0.5-0.5c0-1.8-4.5-1.2-5.4-1.1C36.8,52.4,36.7,51.8,37.3,51.6z M36,55.8c0.9-0.1,2.1-0.4,2.7,0.5
				c0.1,0.2,0.2,0.5,0.2,0.7c0,0.1,3,0.5,3.3,0.5c4.8,0.9,9.5,2.2,14.2,3.6c0.3,0.1,0.2,0.5-0.1,0.5c-6-0.6-11.7-3-17.8-3.7
				c-0.2,0-0.3-0.3-0.3-0.5c-0.6-0.9-1.3-1.2-2-0.9C35.7,56.6,35.6,55.9,36,55.8z M35.4,60.4c-0.3,0-0.3-0.5,0-0.5
				c3.5,0.1,6.8,1,10,2.2c3.8,1.5,7.6,2.2,11.4,3.2c0.3,0.1,0.3,0.5,0,0.5C49.4,65.5,42.9,61.2,35.4,60.4z"/>
			<path class="st3" d="M28.6,49.7c-0.7-0.1-1.4-0.1-2,0c0.6-1.6,1.1-3.1,1.6-4.7c0.6,0,1.3,0,1.8,0.1
				C29.6,46.7,29.1,48.3,28.6,49.7z"/>
			<path class="st3" d="M23.6,58.9c0.6-2,1.3-4.1,1.9-6.1h0.1c0.6-0.1,1.4,0,2-0.1l0,0c-0.7,2.2-1.4,4.5-1.9,6.7
				C25.1,58.9,24.4,58.8,23.6,58.9z"/>
			<path class="st3" d="M65.4,98c-0.7,2-1.5,4.1-2.1,6.1c-3.3-1.2-6.8-1.8-10-2.8c-5.1-1.6-10.3-3-15.4-4.5c-8-2.2-16-3.9-24.1-5.4
				l0,0c1.1-4,2.2-7.9,3.4-11.8c0.5,0.1,1.1,0.2,1.6,0.1c0.1,0,0.2,0,0.3,0c0.3-0.1,0.6-0.4,0.7-0.8c0.1-0.2,0-0.3,0-0.5
				c0-0.1-0.1-0.1-0.1-0.2c0.1-0.1,0-0.2-0.1-0.3c-0.5-0.3-1.1-0.4-1.6-0.5c0.6-2.1,1.3-4.2,1.8-6.2c0.6-0.1,1.1,0.2,1.6,0.3
				c0.1,0.2,0.4,0.2,0.6,0.1c0.9-0.5,0.9-1.6,0.1-2.2c-0.1,0-0.1,0-0.2,0c-0.4-0.3-0.9-0.5-1.4-0.5c0.4-1.2,0.7-2.3,1.1-3.5
				c0.4-1.3,0.8-2.5,1.2-3.8c0.1,0,0.2-0.1,0.3-0.1c0.7-0.2,1.5,0,2.1-0.1h0.1c0,0.2-0.1,0.3-0.1,0.5c-0.7,3.1-1.3,6.1-1.7,9.2
				c-0.4,2.7-1.2,5.5-1.2,8.2c0,0.9-0.5,2.6,0.4,3.4c0.7,0.7,3.1,0.2,3.9,0.4c0.6,0.1,2.2,2.2,3,2.8c2.1,1.6,5,2.4,7.5,3.5
				c5.6,2.3,11.5,4.3,17.5,5.9C58.1,96.4,61.8,97.3,65.4,98z"/>
			<path class="st3" d="M34.1,33.6c-0.3-0.2-0.7-0.3-1-0.4c0.6-1.4,1.2-2.7,1.7-4.1c0.2,0.1,0.5,0.2,0.7,0.3
				C35.1,30.8,34.5,32.2,34.1,33.6z"/>
			<path class="st3" d="M29.3,42.3c0.8-1.9,1.6-3.9,2.3-5.8c0.3,0.1,0.7,0.2,1,0.3c-0.7,1.9-1.2,4-1.7,6
				C30.4,42.6,29.8,42.5,29.3,42.3z"/>
			<path class="st0" d="M16.5,78.8c-0.8,0.1-1.5,0.4-1.9,1c-0.6,0.8-0.7,2.4,0.4,2.7c-0.1,0.4-0.2,0.8-0.3,1.2
				c-0.7-0.4-1.4-0.8-1.7-1.6c-0.4-0.8,0.1-1.5,0.6-2c1.5-1.6,3.7-1.7,5.6-1.6c0,0.2-0.2,0.4-0.4,0.5L18.6,79
				C18,78.8,17.2,78.8,16.5,78.8z"/>
		</g>
		<path class="st1" d="M74,53.2c-1,3.3-2,6.6-3,9.9c-1.8,6.5-2.8,13.7-6.2,19.6c-0.3,0.6-1.2,0.5-1.3-0.2
			c-0.9-6.7,2.1-13.2,4.4-19.4c1.2-3.3,2.3-6.5,3.5-9.8c1.1-3.1,2.8-6.1,3.6-9.3c0-0.4,0.6-0.4,0.6,0C75.6,47.1,74.8,50.3,74,53.2z"
			/>
		<path class="st1" d="M64.1,87.6L64.1,87.6c-0.2,0.6-1,1-1.6,0.8l0,0c-0.7-0.2-1.1-0.6-1.2-1.3c-0.1-0.2-0.2-0.5-0.3-0.7
			c-0.5-1.1,1.1-2.2,1.9-1.4c0.3,0.2,0.6,0.5,0.8,0.7C64.3,86.2,64.5,86.8,64.1,87.6z"/>
		<g>
			<path class="st4" d="M87.3,45.8c-0.7-0.9-1.3-1.7-1.9-2.5l-1.3-1.5l-1.1,0l-0.8-0.2c-0.4-0.1-0.9-0.2-1.3-0.3
				c-5.6-1.2-11.3-2.5-16.9-3.9c-5.6-1.4-11.3-2.9-16.8-4.7c-4-1.3-8-2.8-11.8-4.5L34.6,28l-0.6,1c-0.8,1.4-1.6,2.9-2.2,4.4
				c-1.7,0-3.6,0.4-4.7,1.1c-1.3,0.8-2,2.1-1.9,3.6c0,1.6,1.4,3.5,3,3.8c-0.1,0.3-0.2,0.6-0.3,0.9c-1.4,0.1-2.8,0.5-3.9,1.3
				c-2.2,1.6-1.4,6,1.4,6c-0.1,0.1-0.1,0.3-0.2,0.5c-1.2,0.3-2.2,0.9-3,1.6c-1.6,1.5-1.9,5.1,0.7,5.6c-0.2,0.7-0.4,1.3-0.6,1.9
				c-1.7,0.7-3.4,2.1-4.3,3.3c-1.5,1.9-1.1,4.9,1.6,5c-0.1,0.5-0.3,0.9-0.4,1.4c-0.6,0.1-1.1,0.3-1.5,0.5c-1.2,0.5-2.1,1.5-2.8,2.6
				c-1.3,2-0.5,4.5,1.7,4.9c-0.1,0.1-0.1,0.3-0.2,0.5c-1.6,0.3-3.1,1.2-4,2.2c-1.4,1.7-0.1,4.2,1.9,4.7c-0.6,1.8-1.2,3.8-1.6,5.6
				l-0.3,1.1l0.4,1l0.6,0.8c0.9,1.3,1.6,2.5,2.4,3.9l0.7,1.3c0,0.1,0.1,0.1,0.1,0.2l1.5,0.3c5.2,1.6,10.7,2.9,15.9,4.4
				c7.5,2,15,4.1,22.5,6c3.5,1,7,1.8,10.5,2.8l1.5,0.4L69,111c1.9-7,4.1-14,6.2-21c2.2-7.4,4.6-14.6,6.8-22c2-6.5,4.1-13,5.6-19.6
				l0.4-1.6L87.3,45.8z M26.6,38.8c-0.3-0.7-0.4-1.3-0.3-1.9c0.2-1.3,1.4-1.9,2.4-2.3c0.9-0.3,1.7-0.5,2.5-0.4l1.4,0.3
				c0.8,0.2,1.5,0.6,2.2,1.1c0,0.1,0,0.1,0,0.2c-0.1,0.3-0.3,0.4-0.5,0.6l-0.1,0.1c-1.6-0.7-3.4-1.2-4.9-0.8
				c-1.7,0.5-2.2,3.6-0.6,4.2c-0.1,0.2-0.2,0.5-0.3,0.8C27.7,40,27,39.7,26.6,38.8z M30.2,36.3c-0.3,0.8-0.7,1.6-1,2.3
				c-0.3-0.6-0.6-1.2-0.1-1.8C29.3,36.5,29.7,36.4,30.2,36.3z M23.5,45.9c0.1-1.1,1.2-1.6,2-2c1.6-0.7,4.2-0.8,5.8,0.1v0.1
				c-0.1,0.3-0.7,0.3-0.9,0.4c-0.1,0-0.1,0-0.1,0c-0.6-0.2-1.2-0.3-1.8-0.4l0,0c-0.5,0-1,0-1.5,0c0,0.1,0,0.1,0,0.1
				c-0.3,0.1-0.6,0.1-0.9,0.2c-0.7,0.2-1.3,0.7-1.5,1.4c-0.3,0.9,0.3,1.8,1.1,2c-0.1,0.3-0.2,0.7-0.3,1
				C24.5,48.1,23.5,47.3,23.5,45.9z M26.8,45.3c-0.3,0.6-0.5,1.3-0.7,1.8c-0.4-0.5-0.6-1.2-0.1-1.6C26.2,45.4,26.5,45.3,26.8,45.3z
				 M24,51.7c0.4-0.2,0.9-0.4,1.4-0.6c0.3,0,0.7-0.1,1-0.2l0,0c0.9-0.2,1.7-0.3,2.6-0.2c-0.1,0.3-0.1,0.6-0.3,0.8
				c-0.2,0.3-0.4,0.4-0.6,0.5c-0.4-0.1-1-0.1-1.3-0.1c-1,0-1.8,0.2-2.7,0.5c-1.4,0.5-2.3,2.2-0.7,3c-0.1,0.5-0.3,0.9-0.4,1.3
				C21.1,55,21.7,53,24,51.7z M24,53.3c-0.1,0.5-0.3,0.9-0.4,1.3C23.4,54.2,23.4,53.8,24,53.3C24,53.4,24,53.4,24,53.3z M17.9,65.3
				c-0.2-1,0.7-2.1,1.4-2.8c0.8-0.9,1.7-1.6,2.7-2c1.2-0.6,2.2-0.6,3.4-0.6c0,0.2,0,0.3,0,0.4c-0.1,0.2-0.3,0.3-0.5,0.4
				c-0.1,0-0.1,0-0.1,0c-1.5-0.6-3.5,0.6-4.6,1.5c-1.4,1.2-1.5,2.8-0.1,3.8c-0.2,0.4-0.3,0.8-0.4,1.2C18.9,66.7,18,66.4,17.9,65.3z
				 M21.2,62.3c-0.1,0.4-0.2,0.7-0.3,1.1c-0.2,0.6-0.4,1.2-0.6,1.7C19.5,64.2,20.1,63.2,21.2,62.3z M15.3,75c-0.3-1,0.2-2,0.7-2.7
				c0.5-0.7,1.2-1.3,1.9-1.7c1.2-0.7,2.4-0.5,3.8-0.3c0,0.1,0,0.2,0,0.3c0.1,0.2-0.1,0.4-0.2,0.5c-1.3-1.2-3.4-0.1-4.4,1
				c-0.9,1-1.1,2.6,0,3.4c-0.1,0.3-0.2,0.6-0.3,0.9C16.2,75.9,15.5,75.6,15.3,75z M18.2,72c-0.3,0.9-0.5,1.6-0.8,2.4
				c-0.1-0.1-0.2-0.3-0.2-0.6c-0.1-0.6,0.3-1.2,0.7-1.6C18,72.2,18.1,72.1,18.2,72z M15.1,81.8c-0.2-0.2-0.3-0.4-0.3-0.7
				c0-0.5,0.5-1.1,1-1.4c-0.1,0.1-0.1,0,0,0C15.6,80.5,15.4,81.2,15.1,81.8z M14.6,79.8c-0.6,0.8-0.7,2.4,0.4,2.7
				c-0.1,0.4-0.2,0.8-0.3,1.2c-0.7-0.4-1.4-0.8-1.7-1.6c-0.4-0.8,0.1-1.5,0.6-2c1.5-1.6,3.7-1.7,5.6-1.6c0,0.2-0.2,0.4-0.5,0.5
				L18.5,79c-0.6-0.2-1.4-0.2-2-0.2C15.7,78.9,15.1,79.2,14.6,79.8z M13.9,91.4c1.2-4,2.2-7.9,3.3-12c0.5,0.1,1.1,0.2,1.6,0.1
				c0.1,0,0.2,0,0.3,0c0.3-0.1,0.6-0.4,0.7-0.8c0.1-0.2,0-0.3,0-0.5c0-0.1-0.1-0.1-0.1-0.2c0.1-0.1,0-0.2-0.1-0.3
				c-0.5-0.3-1.1-0.4-1.6-0.5c0.6-2.1,1.3-4.2,1.8-6.2c0.6-0.1,1.1,0.2,1.6,0.3c0.1,0.2,0.4,0.2,0.6,0.1c0.9-0.5,0.9-1.6,0.1-2.2
				c-0.1,0-0.1,0-0.2,0c-0.4-0.3-0.9-0.5-1.4-0.5c0.4-1.2,0.7-2.3,1.1-3.5c0.4-1.3,0.8-2.5,1.2-3.8c0.1,0,0.2-0.1,0.3-0.1
				c0.7-0.2,1.5,0,2.1-0.1c0.1,0,0.2,0,0.2-0.1c0.4-0.2,0.7-0.5,0.8-0.9c0.1-0.3,0-0.6-0.2-0.8c0-0.1,0-0.1-0.1-0.2
				c-0.7-0.4-1.5-0.6-2.2-0.5c0.6-2,1.3-4.1,1.9-6.1h0.1c0.6-0.1,1.4,0,2-0.1c1.2,0.4,2.4-1.2,2-2.3c0-0.2-0.1-0.4-0.3-0.5
				c-0.8-0.3-1.7-0.3-2.7-0.2c0.6-1.6,1.1-3.1,1.6-4.7c0.7,0,1.5,0,2.1,0.1c0,0,0.1,0.1,0.2,0.1c0.7,0,1.4-0.3,1.6-0.9
				c0.1-0.3,0.1-0.6,0-0.9c-0.1-0.3-0.4-0.4-0.7-0.6h-0.1c-0.7-0.3-1.5-0.6-2.2-0.7c0.8-1.9,1.6-3.9,2.3-5.8c1.1,0.2,2,0.6,3.1,0.6
				c0.2,0,0.3-0.1,0.3-0.2c0.5-0.2,0.8-0.8,0.8-1.3c0-0.1,0-0.1,0-0.2c-0.5-1.3-1.5-1.9-2.7-2.2c0.6-1.4,1.2-2.7,1.7-4.1
				c8.8,4.4,18.7,6.8,28,9.1c6.4,1.6,12.9,3.3,19.5,4.7c-1.2,2.7-2,5.4-2.8,8.3c-1.9,6.1-4,12.2-5.9,18.3
				c-1.9,6.2-3.6,12.4-5.3,18.7c-0.9,3.1-1.7,6.2-2.6,9.3c-0.7,2.2-1.6,4.5-2.3,6.7c-3.3-1.2-6.8-1.8-10-2.8
				c-5.1-1.6-10.3-3-15.4-4.5C30,94.6,21.9,93,13.9,91.4L13.9,91.4z M58.4,108.3c-7.5-1.9-15-4-22.5-5.9c-6.2-1.6-12.5-3.7-18.8-5.1
				c-0.1-0.3-0.3-0.7-0.5-1c2.3,0.7,4.8,1.1,7.1,1.6c0.3,0,0.4-0.4,0.2-0.5c-2.3-1.2-5.1-1.6-7.7-1.9c-0.3-0.5-0.5-0.9-0.8-1.4
				c3.4,1.2,7,2,10.5,2.3c0.3,0.1,0.4-0.3,0.1-0.4c-3.5-1.1-7.3-2.1-11-2.6c-0.1-0.3-0.3-0.6-0.5-0.9c7.5,1.6,14.8,3.2,22.2,5.2
				c8.7,2.4,17.4,5.3,26.1,7.7l0.8,0.2c0.1,0.3,0.2,0.5,0.4,0.7c-1.7-0.6-3.6-0.9-5.2-1.4c-2.8-0.9-5.5-1.7-8.4-2.2
				c-0.2,0-0.3,0.3-0.1,0.4c2.4,0.9,4.9,1.6,7.5,2.3c2.2,0.7,4.7,1.7,7,1.8c0.2,0.2,0.3,0.5,0.5,0.7c0.2,0.2,0.3,0.4,0.4,0.6
				c-3.3-1.2-6.9-1.9-10.2-2.7c-0.3,0-0.4,0.4-0.1,0.5c3.6,1.1,7.3,2.8,11,3.4c0.1,0.2,0.3,0.5,0.4,0.7
				C64,109.7,61.3,109,58.4,108.3z M81.5,65.9c-2.3,7.7-4.7,15.2-7.1,22.9c-2.2,7-4.5,13.9-6.5,20.9c-0.1-0.1-0.1-0.2-0.2-0.3
				c-0.1,0-0.1-0.1-0.1-0.1c-0.1-0.1-0.1-0.2-0.2-0.3c1.5-2.6,1.9-5.9,2.8-8.7c1.2-3.7,2.1-7.4,3-11.2c0-0.3-0.3-0.3-0.4-0.1
				c-1.8,6.3-4.6,12.5-6,19c-0.1-0.2-0.2-0.3-0.3-0.5c-0.3-0.4-0.5-0.8-0.8-1.2c1.8-3.9,2.7-8.2,3.7-12.4c0.1-0.4-0.5-0.5-0.6-0.1
				c-1.1,4-2.6,7.9-3.7,11.8c-0.3-0.3-0.6-0.7-1-1l0.1-0.3c1.7-4.7,3.3-9.4,4.7-14.3c1.6-6.3,3.4-12.6,5.2-18.8
				c2.9-9.5,5.9-19,9.4-28.3c0.2,0.2,0.3,0.4,0.5,0.6c-1.6,4.8-3.2,9.5-4.4,14.4c-0.1,0.2,0.3,0.3,0.4,0.1c0.9-2.3,1.6-4.7,2.4-7
				c0.8-2.2,1.6-4.6,1.9-6.9c0.4,0.5,0.7,1,1.1,1.5c-1,2.6-1.9,5.5-2.4,8.3c0,0.3,0.4,0.4,0.5,0.1c1.1-2.5,1.8-5.2,2.4-8
				c0.3,0.4,0.5,0.7,0.8,1.1C84.9,53.4,83.2,59.7,81.5,65.9z"/>
			<path class="st4" d="M63.2,52.4c-4.9-0.8-9.5-2.3-14.4-3.2c-0.1-0.1-0.2-0.2-0.2-0.3c0-0.3-4.8-0.4-5.5-0.8
				c-0.3-0.2-0.4-0.4-0.6-0.7c-0.9-1.5-2.6-1.1-4-1c-0.5,0-0.5-0.7-0.1-0.7c1.6-0.2,3.3-0.5,4.5,0.7c1.6,1.6,4.2,1,6.3,1.6
				c0.2,0.1,0.3,0.3,0.2,0.5c0-0.1,12.6,2.9,14,3.2C63.7,52,63.6,52.4,63.2,52.4z"/>
			<path class="st4" d="M65.7,59c-4.3-0.8-8.3-2.2-12.6-3.2c-2-0.5-3.9-0.9-5.9-1.1c-0.6,0-0.6-0.8-1.6-0.9c-0.9-0.1-1.6-0.1-2.4,0
				c-0.3,0-0.5-0.2-0.5-0.5c0-1.8-4.5-1.2-5.4-1.1c-0.5,0-0.5-0.6-0.1-0.7c1.6-0.2,4.2-0.8,5.5,0.3c0.3,0.2,0.8,1.1,0.9,1.1
				c0.9-0.1,1.9-0.2,2.7,0.2c1.1,0.5,1.4,1,2.6,1.2c2,0.4,4,0.8,5.9,1.3c3.6,1,7.2,2,10.9,3C65.9,58.8,65.9,59.1,65.7,59z"/>
			<path class="st4" d="M56.3,61.6c-6-0.6-11.7-3-17.8-3.7c-0.2,0-0.3-0.3-0.3-0.5c-0.6-0.9-1.3-1.2-2-0.9c-0.5,0.1-0.5-0.6-0.1-0.7
				c0.9-0.1,2.1-0.4,2.7,0.5c0.1,0.2,0.2,0.5,0.2,0.7c0,0.1,3,0.5,3.3,0.5c4.8,0.9,9.5,2.2,14.2,3.6C56.7,61.2,56.6,61.6,56.3,61.6z
				"/>
			<path class="st4" d="M56.9,65.9c-7.5-0.3-14.1-4.7-21.4-5.4c-0.3,0-0.3-0.5,0-0.5c3.5,0.1,6.8,1,10,2.2c3.8,1.5,7.6,2.2,11.4,3.2
				C57.2,65.4,57.2,65.8,56.9,65.9z"/>
		</g>
	</g>
	<g>
		<g>
			<path class="st5" d="M-128.4,99.2c0.4,0.3,0.9,0.7,1,1.3c1.7-1,3.5-1.9,5.2-2.8c0.2-0.6,0.7-4.2-1.3-2.3c-0.5,0.4-1-0.1-0.6-0.6
				c0.1-0.1,2-3,0.1-2.2c-0.6,0.2-1,0.6-1.4,1c-0.2,0.2-0.5,0-0.3-0.2c0.6-0.9,1.4-3.4-0.6-3c-1,0.2-1.8,0.6-2.6,1.3
				c-0.3,1.8-0.7,3.8-1.1,5.6c-0.1,0.6-0.2,1-0.4,1.6C-129.6,98.6-128.9,98.7-128.4,99.2z"/>
			<path class="st6" d="M-128.9,99.8c-0.5-0.4-1-0.5-1.5-0.6c-0.3,1.2-0.6,2.4-0.8,3.7c1-0.6,2-1.3,3.1-1.9
				C-128.4,100.6-128.5,100.1-128.9,99.8z"/>
			<path class="st7" d="M-102.1,74.5c0.6-0.7,1.3-1.5,1.9-2.2c0.2-1.7-0.3-3.3-1.7-4.4c-1.3-0.9-2.8-1.3-4.2-1.3
				c-0.9,0.8-1.9,1.7-2.8,2.6C-106.4,68.7-102.6,71.7-102.1,74.5z M-100.9,70.8c0,0.2,0,0.4,0,0.6s-0.4,0.4-0.4,0.1
				c0-0.2,0-0.4-0.1-0.6C-101.4,70.6-100.9,70.5-100.9,70.8z M-101.8,70.4c0.1,0.3,0.1,0.5,0.1,0.7c0,0.2-0.3,0.2-0.4,0
				c-0.1-0.2-0.1-0.5-0.1-0.6C-102.2,70.3-101.9,70.1-101.8,70.4z"/>
			<path class="st8" d="M-125.1,89.6c1.1,0.6,0.8,1.8,0.4,2.9c0.7-0.6,1.8-1.2,2.4-0.6c0.5,0.5,0.3,1.3-0.1,2.1
				c1.1-0.1,1.6,1.2,1.5,2.7c1.2-1.7,2.6-3.1,3.9-4.6c2.8-3.1,5.5-6.4,8.3-9.6c0.9-1.1,1.9-2.2,2.8-3.3c-1-2.8-3.3-6.6-6.8-6.3
				c-1.7,1.7-3.3,3.3-4.9,5c-3.3,3.9-6.3,8-9.5,11.8C-126.6,89.3-125.8,89.1-125.1,89.6z"/>
			<path class="st2" d="M-111.4,72.9c1,0.6,1.9,1.3,2.3,2.5c0.5,1.6,0.7,3.3-0.3,4.7c-1.6,2.2-3.6,4-5.4,6.1c-2,2.2-3.9,4.5-5.8,6.8
				c-0.2,0.3-0.6,0.2-0.7-0.1c-0.6-1.8-2.2-1.2-3.3-0.6c0,0.1-0.1,0.2-0.1,0.3c0.7-0.6,1.8-1.2,2.4-0.6c0.5,0.5,0.3,1.3-0.1,2.1
				c1.1-0.1,1.6,1.2,1.5,2.7c1.2-1.7,2.6-3.1,3.9-4.6c2.8-3.1,5.5-6.4,8.3-9.6c0.9-1.1,1.9-2.2,2.8-3.3
				C-107,76.6-108.7,73.5-111.4,72.9z"/>
			<path class="st0" d="M-105.9,76.6c0.3-0.4,0.7-0.7,1-1.1c0.4-0.6,0.8-0.9,1.3-1.5c-0.5-1-1-1.8-2-2.7c-1.4-1-2.7-1.3-4.3-1.5
				c-0.8,0.7-1.7,1.5-2.4,2.2C-109.8,72.1-107.1,74.2-105.9,76.6z M-105.9,73.8c0.2-0.3,0.5-0.6,0.7-0.7c0.3-0.2,0.5,0.2,0.4,0.4
				c-0.2,0.3-0.4,0.6-0.6,0.8s-0.3,0.6-0.6,0.6c-0.2,0.1-0.3-0.1-0.3-0.2C-106.3,74.4-106.1,74.1-105.9,73.8z M-106.7,72.6
				c0.2-0.3,0.6,0.1,0.4,0.3c-0.2,0.3-0.3,0.6-0.5,0.8c-0.1,0.2-0.4,0.2-0.4-0.1C-107.3,73.3-106.9,72.9-106.7,72.6z"/>
			<path class="st1" d="M-103.7,74.2c0.1-0.1,0.1-0.1,0.2-0.2c-0.5-1-1-1.8-2-2.7c-1.4-1-2.7-1.3-4.3-1.5c-0.8,0.7-1.7,1.5-2.4,2.2
				c0.1,0,0.2,0,0.2,0C-109.5,70-105.9,71.7-103.7,74.2z"/>
			<path class="st0" d="M-104.4,76.2c-0.4,0.5-0.6,0.9-1.1,1.3c0.1,0.3,0.2,0.5,0.2,0.7c0.8-0.9,1.6-1.8,2.4-2.8
				c-0.1-0.3-0.2-0.6-0.3-0.8C-103.7,75.2-104.1,75.7-104.4,76.2z"/>
		</g>
		<g>
			<g>
				<path class="st4" d="M-99.3,71.3c-0.1-1.6-0.7-3-2.1-4.1c-1.1-0.9-2.5-1.4-3.9-1.5l-1.7,0.1l-1.2,1c-3.5,3.1-6.8,6.5-9.8,9.9
					c-3.9,4.2-7.1,8.9-10.7,13.3l-1.1,1.3l-0.3,1.3c-0.3,1.5-0.6,2.9-0.9,4.4c-0.6,2.2-1.1,4.5-1.6,6.8l-0.2,0.9l1.2-0.6
					c2.9-1.7,5.8-3.4,8.7-5c0.1-0.1,0.2-0.1,0.3-0.2l1.4-0.7l1.2-1.6c1.2-1.6,2.6-3,3.9-4.5c2.8-3.1,5.5-6.4,8.3-9.6
					c2.3-2.8,4.8-5.4,7.2-8.1l1.3-1.4L-99.3,71.3z M-109.9,69.9c1.7,0.3,2.9,0.5,4.3,1.5c1,0.7,1.6,1.7,2,2.7
					c-0.5,0.5-0.9,0.9-1.3,1.5c-0.3,0.4-0.6,0.7-1,1.1c-1.2-2.4-3.9-4.4-6.4-4.4C-111.5,71.3-110.7,70.6-109.9,69.9z M-131.2,102.8
					c0.3-1.2,0.6-2.4,0.8-3.7c0.6,0.2,1,0.4,1.5,0.6c0.4,0.3,0.6,0.7,0.8,1.1C-129.1,101.5-130.2,102.1-131.2,102.8z M-122,97.6
					c-1.7,0.9-3.5,1.8-5.2,2.8c-0.2-0.6-0.6-1-1-1.3c-0.6-0.4-1.3-0.6-1.9-0.6c0.1-0.6,0.2-1,0.4-1.6c0.4-1.8,0.8-3.7,1.1-5.6
					c0.7-0.6,1.6-1.1,2.6-1.3c2-0.3,1.2,2.1,0.6,3c-0.1,0.2,0.2,0.4,0.3,0.2c0.4-0.5,0.8-0.8,1.4-1c1.8-0.8,0,2-0.1,2.2
					c-0.4,0.5,0.3,1,0.6,0.6C-121.4,93.3-121.9,97-122,97.6z M-109,82.3c-2.8,3.2-5.4,6.5-8.3,9.6c-1.4,1.5-2.7,2.9-3.9,4.6
					c0.1-1.4-0.4-2.7-1.5-2.7c0.4-0.7,0.6-1.7,0.1-2.1c-0.6-0.6-1.6,0-2.4,0.6c0.5-1,0.7-2.2-0.4-2.9c-0.7-0.5-1.6-0.3-2.3,0.1
					c3.3-3.9,6.2-8,9.5-11.8c1.6-1.7,3.2-3.5,4.9-5c3.6-0.4,5.8,3.5,6.8,6.3C-107.1,80.1-108,81.2-109,82.3z M-105.3,78.2
					c0-0.3-0.1-0.5-0.2-0.7c0.5-0.4,0.7-0.8,1.1-1.3c0.4-0.5,0.7-1,1.1-1.6c0.1,0.3,0.2,0.6,0.3,0.8
					C-103.8,76.4-104.6,77.3-105.3,78.2z M-102.1,74.5c-0.5-2.8-4.2-5.9-7-5.3c0.9-0.9,1.9-1.7,2.8-2.6c1.6,0,3,0.4,4.2,1.3
					c1.6,1.2,1.9,2.8,1.7,4.4C-100.9,73.1-101.5,73.8-102.1,74.5z"/>
				<path class="st4" d="M-106,74.9c0.3-0.1,0.5-0.4,0.6-0.6c0.2-0.3,0.4-0.6,0.6-0.8c0.2-0.2-0.1-0.6-0.4-0.4s-0.6,0.5-0.7,0.7
					c-0.2,0.3-0.5,0.6-0.4,0.9C-106.3,74.9-106.1,75-106,74.9z"/>
				<path class="st4" d="M-106.8,73.7c0.2-0.3,0.3-0.6,0.5-0.8c0.2-0.3-0.2-0.6-0.4-0.3c-0.2,0.3-0.6,0.6-0.5,1
					C-107.2,73.8-106.9,73.9-106.8,73.7z"/>
				<path class="st4" d="M-101.3,71.4c0.1,0.3,0.4,0.1,0.4-0.1s0-0.4,0-0.6c-0.1-0.4-0.6-0.2-0.5,0.1
					C-101.3,71.1-101.3,71.2-101.3,71.4z"/>
				<path class="st4" d="M-102.1,70.6c0.1,0.2,0.1,0.5,0.1,0.6c0.1,0.2,0.4,0.2,0.4,0c0-0.3,0-0.6-0.1-0.7
					C-101.9,70.1-102.2,70.3-102.1,70.6z"/>
			</g>
		</g>
	</g>
</g>
<g>
	<g>
		<g>
			<path class="st0" d="M61.4,101c-5.4-2.2-10.6-4.5-16.3-6.1c-3.8-1.1-7.5-2.5-11.4-2.4c-0.7,0.1-1.3,0.1-2,0.4
				c-0.4,0.2-0.9,0.3-1.3,0.6c-0.2,0.2-0.4,0.3-0.7,0.5c-2.2,3.8-3.9,8.2-5.3,12.2c-1.6,4.5-2.9,9.2-3.9,13.9c-1,5-1.7,10-2.3,15
				c3.1,2.4,6.3,4.7,9.8,6.5c3.4,1.7,6.8,3,10.3,4.5c0.2,0.1,0.1,0.4-0.1,0.3c-7.3-2.4-14.2-5.4-20.1-10.5c-0.1,0.4-0.1,0.9-0.2,1.3
				c1.2,1.3,2.5,2.5,4,3.6c4,2.7,8.6,5,13.2,6.5c4.7,1.6,9.3,2.5,14.1,0.7c0.1-0.2,0.2-0.5,0.3-0.7c-2.3,0.6-4.8,0.6-7-0.1
				c-0.2-0.1-0.1-0.4,0.1-0.4c2.5,0.2,4.8,0,7.2-0.2c2.1-4.7,4.3-9.4,6.4-14c3.5-7.9,7.3-15.6,10.5-23.7
				C67.4,105.5,64.3,102.7,61.4,101z M34.2,136c-6.5-2.8-9.5-10.4-6.7-16.9c2.8-6.5,10.4-9.5,16.9-6.7c6.5,2.8,9.5,10.4,6.7,16.9
				C48.3,135.8,40.7,138.8,34.2,136z M49.6,144.9c-1.3,0.4-2.6,0.4-3.9,0.3c-0.4,0-0.3-0.6,0.1-0.5c1.3,0.1,2.5,0,3.7-0.1
				C49.8,144.5,49.9,144.8,49.6,144.9z M48.7,142.6c0.4-0.1,0.7-0.1,1.1-0.1c0.2,0,0.2,0.3,0,0.4c-0.4,0.1-0.8,0.2-1.2,0.2
				c-0.3,0-0.7,0.1-1.1,0.1c-0.2,0-0.2-0.3,0-0.4C47.9,142.7,48.3,142.6,48.7,142.6z M49.6,140.2c0.3,0,0.5-0.1,0.8,0
				c0.2,0,0.2,0.3,0,0.4c-0.3,0.1-0.6,0.1-0.9,0.1C49.2,140.7,49.3,140.2,49.6,140.2z M58.8,109.4c-5.2-0.5-10.3-2.2-15-4.4
				c-3.8-1.7-8.2-3.5-11.4-6.2c-2.1-1.8-3.7-5.8,0.5-5.7c0.2,0,0.3,0.3,0,0.4c-4.4,0.6-0.3,4.4,1,5.2c1.3,0.8,2.6,1.6,4,2.3
				c2.5,1.2,4.9,2.5,7.5,3.6c3.3,1.4,6.7,2.6,10.3,3.3c1.7,0.3,3.4,0.5,5.2,0.6c1.5,0,5.6,0.3,4.7-2.3c-0.1-0.3,0.4-0.5,0.5-0.2
				C67.6,110.1,61.4,109.7,58.8,109.4z"/>
			<path class="st9" d="M32.7,93.6c-4,0.7-0.1,4.4,1.2,5.2c1.3,0.8,2.6,1.6,4,2.3c2.5,1.2,4.9,2.5,7.5,3.6c3.3,1.4,6.7,2.6,10.3,3.3
				c1.7,0.3,3.4,0.5,5.2,0.6c1.4,0,5.1,0.3,4.8-1.8c0,0-0.1,0-0.1,0c-0.1-0.1-0.2-0.1-0.3-0.2c-0.1,0-0.1,0-0.2,0
				c-5.5-1.5-11-3.1-16.4-5.2C43.1,99.1,38.4,95.2,32.7,93.6z"/>
			<path class="st9" d="M42.8,146.5c2.5,0.2,4.8,0,7.2-0.2c0.6-1.4,1.2-2.8,1.9-4.2c-0.7,0.3-1.4,0.6-2.1,0.8c0,0,0,0,0,0
				c0,0,0,0,0,0c-8.2,2.4-17.7-1.4-22.6-8.7c-3.7-5.5-4.2-12.4-3.6-18.9c0.4-4.8,1.4-9.6,2.8-14.2c-0.7,1.7-1.3,3.3-1.8,4.9
				c-1.6,4.5-2.9,9.2-3.9,13.9c-1,5-1.7,10-2.3,15c3.1,2.4,6.3,4.7,9.8,6.5c3.4,1.7,6.8,3,10.3,4.5c0.2,0.1,0.1,0.4-0.1,0.3
				c-7.3-2.4-14.2-5.4-20.1-10.5c-0.1,0.4-0.1,0.9-0.2,1.3c1.2,1.3,2.5,2.5,4,3.6c4,2.7,8.6,5,13.2,6.5c4.7,1.6,9.3,2.5,14.1,0.7
				c0.1-0.2,0.2-0.5,0.3-0.7c-2.3,0.6-4.8,0.6-7-0.1C42.5,146.8,42.6,146.5,42.8,146.5z M45.8,144.6c1.3,0.1,2.5,0,3.7-0.1
				c0.2,0,0.3,0.3,0.1,0.4c-1.3,0.4-2.6,0.4-3.9,0.3C45.4,145.2,45.5,144.6,45.8,144.6z"/>
			<path class="st8" d="M44.2,112.8c-6-2.6-13.2,0.6-15.8,6.6c-2.6,6,0.2,13.1,6.2,15.7c6,2.6,13.3,0.4,15.9-5.7
				C53.1,123.4,50.2,115.4,44.2,112.8z M44.9,119.6c0.1,0,0.2,0,0.2,0c0.3,0,0.4,0.2,0.6,0.4c0.2,0.3-0.3,1-0.5,1.2
				c-0.3,0.4-0.6,0.6-0.9,0.9c-0.2,0.2-0.5,0-0.5-0.2C43.6,121,44.1,120.1,44.9,119.6z M37.7,117.1c0,0,0.1,0,0.1,0
				c0,0,0.1-0.1,0.1-0.1c0.2-0.1,0.4,0.1,0.5,0.3c0.1,0.5,0.1,1.2-0.2,1.7c-0.3,0.4-0.8,0.6-1.3,0.7c-0.2,0-0.4-0.2-0.4-0.4
				C36.6,118.4,37,117.7,37.7,117.1z M46.4,129.2c-0.6,0.1-1.1-0.5-1.4-1.1c-2.4,2.5-5.5,4-9,2.7c-3.1-1.1-5.3-3.9-4.7-7.2
				c-0.5,0-1.1-0.1-1.4-0.5c-0.1-0.1,0-0.4,0.2-0.4c0.5,0,1,0.3,1.6,0.3c0.6,0,1.1-0.2,1.6-0.5c0.2-0.1,0.4,0.1,0.2,0.3
				c-0.5,0.4-1,0.7-1.6,0.8c0,3.2,1.9,5.9,5.2,6.5c3.3,0.6,5.2-0.7,7.5-2.8c-0.2-0.6-0.1-1.2,0.1-1.7c0.1-0.2,0.4-0.1,0.3,0.1
				c0,0.5,0,1,0.2,1.5c0.1,0.1,0.2,0.2,0.2,0.3c0,0,0,0.1,0.1,0.1c0.2,0.2,0.4,0.5,0.7,0.7c0.2,0.2,0.4,0.3,0.5,0.5
				C46.7,129,46.6,129.2,46.4,129.2z"/>
		</g>
		<g>
			<path class="st4" d="M63.5,119.4c1.5-3.3,3.4-6.7,4.1-10.2c1.9-3.8-3.2-7.4-6.7-9.1c-2.1-1.4-4.6-2.4-7-3.3
				c-3.1-1.2-6.2-2.2-9.4-3.1c-3.9-1.1-8.9-3.4-13-1.8c0,0-0.1,0-0.1,0c-0.4,0.1-0.8,0.3-1.2,0.5c-0.1,0-0.1,0-0.2,0.1c0,0,0,0,0,0
				c-0.4,0.2-0.7,0.5-0.8,0.9c-2.4,3-3.8,7.1-5.2,10.6c-1.7,4.3-2.9,8.8-4,13.2c-1.4,6-2.5,12.2-3.2,18.4l-0.1,1.4l1.2,1.4
				c0.9,1,1.8,1.9,2.9,2.7c4.1,3.1,9.1,5.3,14,7c4.3,1.5,8.7,2.4,13.2,1.2c0.3-0.1,0.6-0.2,0.8-0.2l1.9-0.7l0.7-1.6
				c2.1-4.7,4-9.5,6.1-14.2C59.5,128.3,61.5,123.8,63.5,119.4z M49.4,147.8c-4.8,1.8-9.4,0.9-14.1-0.7c-4.6-1.5-9.2-3.7-13.2-6.5
				c-1.5-1-2.8-2.2-4-3.6c0.1-0.4,0.1-0.9,0.2-1.3c5.8,5.1,12.7,8.1,20.1,10.5c0.2,0.1,0.4-0.2,0.1-0.3c-3.5-1.5-6.9-2.8-10.3-4.5
				c-3.5-1.8-6.7-4.1-9.8-6.5c0.6-5,1.3-10,2.3-15c1-4.7,2.3-9.3,3.9-13.9c1.4-4.1,3.1-8.5,5.3-12.2c0.2-0.1,0.4-0.3,0.7-0.5
				c0.4-0.3,0.8-0.5,1.3-0.6c0.6-0.2,1.3-0.3,2-0.4c3.9,0,7.6,1.4,11.4,2.4c5.6,1.6,10.9,3.9,16.3,6.1c2.8,1.7,5.9,4.5,5.5,7.6
				c-3.1,8-6.9,15.8-10.5,23.7c-2.1,4.6-4.3,9.3-6.4,14c-2.4,0.2-4.8,0.4-7.2,0.2c-0.2,0-0.4,0.3-0.1,0.4c2.2,0.8,4.7,0.7,7,0.1
				C49.6,147.3,49.5,147.5,49.4,147.8z"/>
			<path class="st4" d="M66,105.9c-0.1-0.3-0.6-0.1-0.5,0.2c0.9,2.6-3.2,2.3-4.7,2.3c-1.7,0-3.4-0.2-5.2-0.6
				c-3.5-0.7-7-1.9-10.3-3.3c-2.5-1.1-5-2.4-7.5-3.6c-1.4-0.7-2.7-1.4-4-2.3c-1.3-0.9-5.4-4.6-1-5.2c0.2,0,0.2-0.4,0-0.4
				c-4.2,0-2.6,4-0.5,5.7c3.2,2.7,7.6,4.4,11.4,6.2c4.7,2.2,9.8,3.8,15,4.4C61.4,109.7,67.6,110.1,66,105.9z"/>
			<path class="st4" d="M49.5,144.5c-1.2,0.2-2.5,0.2-3.7,0.1c-0.4,0-0.4,0.5-0.1,0.5c1.3,0.1,2.6,0.2,3.9-0.3
				C49.9,144.8,49.8,144.5,49.5,144.5z"/>
			<path class="st4" d="M49.8,142.5c-0.4,0-0.7,0-1.1,0.1c-0.4,0.1-0.8,0.1-1.2,0.3c-0.2,0.1-0.1,0.3,0,0.4c0.4,0,0.7,0,1.1-0.1
				c0.4-0.1,0.8-0.1,1.2-0.2C50,142.8,50,142.5,49.8,142.5z"/>
			<path class="st4" d="M50.4,140.2c-0.3,0-0.5,0.1-0.8,0c-0.3,0-0.4,0.5-0.1,0.5c0.3,0,0.6,0,0.9-0.1
				C50.6,140.5,50.6,140.2,50.4,140.2z"/>
			<path class="st4" d="M34.2,136c-6.5-2.8-9.5-10.4-6.7-16.9c2.8-6.5,10.4-9.5,16.9-6.7c6.5,2.8,9.5,10.4,6.7,16.9
				C48.3,135.8,40.7,138.8,34.2,136z M44.2,112.8c-6-2.6-13.2,0.6-15.8,6.6c-2.6,6,0.2,13.1,6.2,15.7c6,2.6,13.3,0.4,15.9-5.7
				C53.1,123.4,50.2,115.4,44.2,112.8z"/>
			<path class="st4" d="M38.4,117.3c0-0.2-0.2-0.4-0.5-0.3c-0.1,0-0.1,0.1-0.1,0.1c0,0-0.1,0-0.1,0c-0.7,0.6-1.1,1.2-1.2,2.1
				c0,0.2,0.1,0.4,0.4,0.4c0.5-0.1,1-0.3,1.3-0.7C38.5,118.5,38.5,117.8,38.4,117.3z"/>
			<path class="st4" d="M45.7,120c-0.1-0.2-0.3-0.4-0.6-0.4c-0.1,0-0.1,0-0.2,0c-0.8,0.5-1.3,1.4-1.1,2.3c0,0.2,0.3,0.4,0.5,0.2
				c0.3-0.3,0.7-0.6,0.9-0.9C45.4,121,45.9,120.3,45.7,120z"/>
			<path class="st4" d="M46.6,128.8c-0.1-0.3-0.3-0.4-0.5-0.5c-0.3-0.2-0.5-0.4-0.7-0.7c0,0-0.1-0.1-0.1-0.1c0-0.1-0.1-0.2-0.2-0.3
				c-0.2-0.5-0.2-1-0.2-1.5c0-0.2-0.3-0.3-0.3-0.1c-0.2,0.6-0.2,1.2-0.1,1.7c-2.3,2-4.3,3.4-7.5,2.8c-3.3-0.6-5.2-3.3-5.2-6.5
				c0.6-0.1,1.1-0.4,1.6-0.8c0.2-0.1,0-0.4-0.2-0.3c-0.5,0.3-1,0.4-1.6,0.5c-0.6,0-1.1-0.3-1.6-0.3c-0.2,0-0.3,0.2-0.2,0.4
				c0.3,0.4,0.9,0.5,1.4,0.5c-0.6,3.3,1.6,6.1,4.7,7.2c3.5,1.3,6.6-0.1,9-2.7c0.3,0.5,0.9,1.2,1.4,1.1
				C46.6,129.2,46.7,129,46.6,128.8z"/>
		</g>
		<path class="st1" d="M56.7,127.1c1.8-4.1,2.9-8.3,3.9-12.6c0.1-0.5-0.7-0.7-0.9-0.3c-1.7,3.7-3.6,7.2-5.4,10.9
			c-1.7,3.5-4.6,7.4-4.9,11.4c0,0.7,0.7,1.2,1.3,0.8C53.8,134.9,55.2,130.5,56.7,127.1z"/>
	</g>
	<g>
		<g>
			<path class="st0" d="M47.7,137.5c0.2-0.7,0.5-1.4,0.7-2.1c-2.1-0.1-4.7-1.2-6-2.9c-0.3,0.8-0.7,1.7-1,2.5c1,0.5,2,1.2,3.1,1.6
				C45.5,137.1,46.6,137.2,47.7,137.5z"/>
			<path class="st7" d="M44,145.8c0.3,0.1,0.7,0.2,1,0.2c0.7-2.5,1.5-5,2.3-7.5c-1.1,0-2.4-0.5-3.3-0.9c-1-0.5-2.1-1-3-1.8
				c-0.7,1.8-1.4,3.7-2.1,5.5C40.2,143.2,41.6,145.1,44,145.8z"/>
			<path class="st0" d="M33.7,129.4c-0.5,1.5-1,2.9-1.5,4.4c1.9,1.3,4.2,2.4,6.6,2.3c0.4-1.4,0.8-2.8,1.2-4.3
				C37.9,132,35.1,131,33.7,129.4z"/>
			<path class="st8" d="M42.7,131.6c1.3,1.8,3.8,2.5,6,2.9c1.8-5,3.7-9.9,5.8-14.7c3.4-8,7.7-15.6,11.4-23.5c-0.4,0.4-0.8,0.7-1.3,1
				c-0.2,0.1-0.4,0-0.5-0.2C64,96.6,64,96.1,64,95.7c-0.7,1.2-1.6,2.5-2.8,1.6c-1-0.8-1.1-2.2-1.1-3.5c-2.9,7.2-6.4,14.1-9.8,21.1
				C47.6,120.4,45.1,126,42.7,131.6z"/>
			<path class="st8" d="M56.9,87.1c-0.3,0.2-0.6,0.3-1,0.2c-0.4-0.1-0.7-0.4-0.7-0.8c-0.4,0.7-0.8,1.3-1.3,2
				c-0.1,0.1-0.4,0.2-0.5,0.1c-0.6-0.6-0.7-1.3-0.7-2C52.4,87,52,87.5,51.5,88c-0.2,0.3-0.6,0.1-0.7-0.2c-0.1-0.5-0.2-1.1-0.2-1.7
				c-2.6,7.5-5.8,14.9-8.9,22.2c-2.8,6.7-5.4,13.4-7.8,20.2c1.9,1.4,3.9,2.4,6.3,2.2c1.8-6,3.7-11.9,5.8-17.7
				C49.3,104.3,53.4,95.8,56.9,87.1z"/>
			<path class="st6" d="M65.9,89.5c0.3,0,0.5,0,0.7-0.2c0.1-0.1,0.1-0.1,0.2-0.2c0-0.8,0.1-1.6,0.1-2.4c-0.6,0.6-1.2,1.1-1.8,1.7
				C65.2,88.8,65.4,89.4,65.9,89.5z"/>
			<path class="st5" d="M39.7,79.6c-0.4,0.4-0.7,0.9-1.1,1.3c-0.2,1.1-0.3,2.8,0.4,3.7c0.9-0.8,1.6-1.9,2.2-2.9
				c0.2-0.2,0.6,0,0.5,0.2c-0.1,0.6-0.3,1.2-0.3,1.8c-0.1,1.1,0.5,1.7,1.4,0.8c0.7-0.7,1.2-1.5,1.8-2.3c0-0.4,0-0.8-0.1-1.3
				c-0.1-0.8-0.1-1.6-0.2-2.4c-0.5,0.3-1.2,0.3-1.6,0.2c-0.6-0.2-1.1-0.6-1.3-1.1C40.8,78.3,40.2,79,39.7,79.6z"/>
			<path class="st5" d="M64.6,88.9c-0.8,0.8-1.7,1.5-2.5,2.3c-0.4,0.4-0.8,0.7-1.2,1.1c0.1,1.3-0.1,2.7,0.5,3.9
				c0.8,1.6,2.6-1.4,3-2.1c0.2-0.2,0.6-0.1,0.5,0.2c-0.2,0.8-0.3,1.5-0.2,2.3c0.7-0.5,1.3-1.2,1.8-1.9c0-0.4,0.1-0.9,0.1-1.3
				c0.1-1,0.1-2.1,0.2-3.1c-0.4,0.2-0.8,0.2-1.2,0.1C65,90,64.7,89.5,64.6,88.9z"/>
			<path class="st7" d="M31,137.8c1.3,2,2.8,3.9,5.2,4.3c0.4,0.1,0.7,0.1,1,0.1c0.4-1.7,0.8-3.4,1.3-5.1c-2.4,0.1-4.7-1-6.5-2.5
				C31.6,135.6,31.3,136.7,31,137.8z"/>
			<path class="st5" d="M57.7,80.3c-0.4,0.2-0.9,0.2-1.3,0c-0.5-0.2-0.9-0.6-1.1-1.2c-0.8,0.9-1.6,1.7-2.4,2.6
				c-0.5,0.5-0.9,1-1.4,1.5c0,0.1,0,0.1-0.1,0.2c-0.1,1.1-0.2,2.3-0.1,3.4c0.7-1,1.4-2.1,2-3.1c0.2-0.4,0.8-0.1,0.6,0.3
				c-0.4,1-1.1,2.6-0.5,3.6c0.7-1,1.3-2.1,1.8-3.3c0.2-0.4,0.9-0.2,0.8,0.2c0,0.2-0.5,2.3,0.2,1.9c0.6-0.3,1-0.9,1.3-1.4
				c0-0.5,0-1,0.1-1.5C57.7,82.5,57.7,81.4,57.7,80.3z"/>
			<path class="st6" d="M44.2,77.7c-0.1-1.1-0.2-2.3-0.2-3.4c-0.7,0.9-1.5,1.9-2.2,2.8C42,77.6,42.5,78,43,78
				C43.5,78,43.8,77.8,44.2,77.7z"/>
			<path class="st6" d="M55.9,78.7C55.9,78.7,55.9,78.7,55.9,78.7c0.2,0.5,0.5,0.9,0.9,1c0.3,0.1,0.6,0,1-0.1c0-1,0-2,0.1-3.1
				C57.2,77.2,56.5,77.9,55.9,78.7z"/>
			<path class="st8" d="M24.9,126.3c1,0.3,2,0.7,3,0.9c1.2,0.2,2.5-0.1,3.6,0c1.2-5.9,2.6-11.7,4.2-17.4c2.3-8.6,5.7-16.9,8.3-25.4
				c-0.6,0.9-1.4,1.6-2.3,1.6c-1.1,0-1.2-1.1-1.1-2.1c-0.4,0.7-0.9,1.4-1.5,2c-0.2,0.1-0.4,0.1-0.6,0c-0.5-0.4-0.8-1-0.9-1.6
				c-1.9,7.2-4.3,14.2-6.6,21.3C28.8,112.4,26.7,119.3,24.9,126.3z"/>
			<path class="st0" d="M27.1,130.7c0.8,0.3,1.7,0.6,2.6,0.5c0.4,0,0.7-0.1,1.1-0.1c0.2-1,0.4-1.9,0.6-2.9c-1.9,0.6-4.9,0-6.7-1
				c-0.2,0.6-0.3,1.3-0.5,1.9C25.2,129.8,26.1,130.3,27.1,130.7z"/>
			<path class="st7" d="M28.7,137.8c0.4,0,0.7,0,1,0c0.3-1.9,0.6-3.9,1-5.8c-1,0.5-2.6,0.1-3.5-0.3c-1.1-0.4-2.2-1-3.1-1.8
				c-0.3,1.3-0.6,2.7-0.9,4C24.6,135.8,26.3,137.5,28.7,137.8z"/>
		</g>
		<g>
			<path class="st4" d="M38.4,142c2.7-9.6,5.4-19.2,8.7-28.7c2.2-6.2,4.7-12.2,7.3-18.2c1-2.4,2.1-4.7,3-7.1l1.5-3.8l0-2.4
				c0-2.2-0.1-4.3-0.1-6.5l0-1.2l-0.9,1c-1.8,2-3.7,4-5.5,6c0,0-0.1,0.1-0.1,0.1L51,82.6l-0.8,2.2c-3,8.1-6.3,16-9.7,23.9
				c-2.8,6.6-5.6,13.3-7.9,20.1c1.3-6.4,2.6-12.7,4.3-19c1.6-6,3.5-11.8,5.5-17.7c0.8-2.3,1.6-4.6,2.3-6.9l1.1-3.7l-0.2-2.3
				c-0.2-2.1-0.5-4.1-0.7-6.1l-0.1-1.1l-0.8,1c-1.6,2-3.2,4-4.9,6c0,0-0.1,0.1-0.1,0.1l-1.1,1.3l-0.6,2.1
				c-2.2,7.8-4.8,15.5-7.3,23.2c-2.2,6.7-4.5,13.4-6.1,20.3c-0.1,0.1-0.1,0.2-0.1,0.3c-0.2,0.8-0.4,1.6-0.5,2.4c0,0.1,0,0.1,0,0.2
				c-0.3,1.3-0.5,2.7-0.7,4l-0.2,1.4l0.6,0.8c1.6,1.9,3.7,3.3,6.1,3.6c0.2,0,0.4,0,0.6,0l0.8-0.1l0.2,0.3c1.4,2.1,3.4,3.7,5.8,4.1
				c0.2,0,0.4,0.1,0.6,0.1l1.1,0L38.4,142z M57.8,76.5c0,1-0.1,2-0.1,3.1c-0.3,0.1-0.6,0.2-1,0.1c-0.5-0.1-0.7-0.5-0.9-0.9
				c0,0,0,0,0-0.1C56.5,77.9,57.2,77.2,57.8,76.5z M51.6,83.3c0.5-0.5,0.9-1,1.4-1.5c0.8-0.9,1.6-1.7,2.4-2.6
				c0.2,0.5,0.6,0.9,1.1,1.2c0.4,0.2,0.9,0.1,1.3,0c0,1.1-0.1,2.1-0.1,3.2c0,0.5,0,1-0.1,1.5c-0.3,0.5-0.7,1.1-1.3,1.4
				c-0.6,0.3-0.2-1.8-0.2-1.9c0.1-0.5-0.6-0.6-0.8-0.2c-0.5,1.2-1.1,2.3-1.8,3.3C53,86.6,53.7,85,54,84c0.2-0.4-0.4-0.6-0.6-0.3
				c-0.6,1.1-1.2,2.2-2,3.1c-0.1-1.1,0-2.3,0.1-3.4C51.6,83.4,51.6,83.3,51.6,83.3z M50.6,86.1c0,0.6,0.1,1.1,0.2,1.7
				c0.1,0.3,0.5,0.5,0.7,0.2c0.5-0.5,0.8-1,1.2-1.6c0,0.7,0.1,1.5,0.7,2c0.1,0.1,0.4,0.1,0.5-0.1c0.5-0.6,0.9-1.3,1.3-2
				c0.1,0.4,0.3,0.7,0.7,0.8c0.4,0.1,0.7,0,1-0.2c-3.5,8.7-7.6,17.2-10.8,26c-2.1,5.8-4.1,11.7-5.8,17.7c-2.4,0.2-4.4-0.9-6.3-2.2
				c2.4-6.8,5-13.5,7.8-20.2C44.8,101,48,93.7,50.6,86.1z M44,74.3c0.1,1.1,0.2,2.3,0.2,3.4C43.8,77.8,43.5,78,43,78
				c-0.6,0-1-0.4-1.3-0.9C42.5,76.2,43.3,75.3,44,74.3z M39.7,79.6c0.5-0.7,1.1-1.3,1.6-2c0.3,0.5,0.7,1,1.3,1.1
				c0.5,0.1,1.2,0.1,1.6-0.2c0.1,0.8,0.1,1.6,0.2,2.4c0,0.4,0.1,0.8,0.1,1.3c-0.5,0.8-1.1,1.6-1.8,2.3c-0.9,1-1.5,0.4-1.4-0.8
				c0-0.6,0.2-1.2,0.3-1.8c0-0.3-0.4-0.5-0.5-0.2c-0.6,1-1.3,2.1-2.2,2.9c-0.7-1-0.5-2.6-0.4-3.7C38.9,80.5,39.3,80.1,39.7,79.6z
				 M31.1,105.5c2.3-7.1,4.7-14.1,6.6-21.3c0.1,0.6,0.4,1.1,0.9,1.6c0.1,0.1,0.4,0.2,0.6,0c0.7-0.6,1.1-1.3,1.5-2
				c-0.1,1,0,2,1.1,2.1c0.8,0,1.6-0.7,2.3-1.6c-2.6,8.5-6,16.8-8.3,25.4c-1.6,5.7-3,11.5-4.2,17.4c-1.2-0.1-2.4,0.2-3.6,0
				c-1.1-0.1-2-0.5-3-0.9C26.7,119.3,28.8,112.4,31.1,105.5z M24.7,127.2c1.8,1,4.8,1.7,6.7,1c-0.2,1-0.4,1.9-0.6,2.9
				c-0.4,0-0.7,0-1.1,0.1c-0.9,0.1-1.8-0.2-2.6-0.5c-1-0.4-2-1-2.9-1.6C24.4,128.5,24.6,127.9,24.7,127.2z M28.7,137.8
				c-2.4-0.3-4.1-2-5.5-3.8c0.3-1.3,0.6-2.7,0.9-4c0.9,0.8,2,1.4,3.1,1.8c0.9,0.4,2.5,0.7,3.5,0.3c-0.4,1.9-0.7,3.9-1,5.8
				C29.4,137.8,29,137.8,28.7,137.8z M33.7,129.4c1.4,1.6,4.2,2.6,6.3,2.4c-0.4,1.4-0.8,2.8-1.2,4.3c-2.4,0.1-4.6-0.9-6.6-2.3
				C32.7,132.3,33.2,130.9,33.7,129.4z M36.2,142.1c-2.4-0.4-3.9-2.3-5.2-4.3c0.3-1.1,0.7-2.1,1-3.2c1.9,1.5,4.1,2.6,6.5,2.5
				c-0.4,1.7-0.9,3.4-1.3,5.1C36.9,142.2,36.5,142.1,36.2,142.1z"/>
			<path class="st4" d="M46.2,146c2.9-8.7,5.8-17.4,9.3-25.9c2.3-5.5,4.9-10.9,7.6-16.3c1.1-2.1,2.1-4.2,3.1-6.3l1.5-3.4l0.1-2.2
				c0-2,0.1-4,0.1-6.1l0-1.1L67,85.5c-1.8,1.7-3.7,3.4-5.6,5.1c0,0-0.1,0.1-0.1,0.1l-1.3,1.1l-0.8,2c-3.1,7.2-6.6,14.3-10.1,21.4
				c-4,8.1-8.1,16.4-10.7,25.1l-0.4,1.4l0.5,0.9c1.3,2.1,3.3,3.8,5.5,4.4c0.2,0.1,0.4,0.1,0.6,0.1l1.1,0.1L46.2,146z M42.4,132.5
				c1.3,1.7,3.8,2.8,6,2.9c-0.2,0.7-0.5,1.4-0.7,2.1c-1.1-0.3-2.2-0.4-3.2-0.9c-1.1-0.5-2-1.1-3.1-1.6
				C41.7,134.2,42,133.3,42.4,132.5z M66.9,86.7c0,0.8-0.1,1.6-0.1,2.4c-0.1,0.1-0.1,0.1-0.2,0.2c-0.2,0.2-0.4,0.2-0.7,0.2
				c-0.5-0.1-0.7-0.7-0.7-1.1C65.8,87.8,66.4,87.2,66.9,86.7z M62,91.2c0.8-0.7,1.7-1.5,2.5-2.3c0.1,0.6,0.4,1.1,1,1.3
				c0.4,0.1,0.8,0.1,1.2-0.1c-0.1,1-0.1,2.1-0.2,3.1c0,0.4-0.1,0.9-0.1,1.3c-0.5,0.8-1.1,1.4-1.8,1.9c0-0.8,0.1-1.5,0.2-2.3
				c0.1-0.3-0.4-0.5-0.5-0.2c-0.5,0.7-2.2,3.7-3,2.1c-0.6-1.1-0.4-2.6-0.5-3.9C61.2,91.9,61.6,91.5,62,91.2z M50.3,114.9
				c3.4-7,6.9-13.9,9.8-21.1c0,1.3,0.1,2.8,1.1,3.5c1.1,0.9,2.1-0.4,2.8-1.6c0,0.5,0,0.9,0.1,1.4c0.1,0.2,0.3,0.4,0.5,0.2
				c0.5-0.3,0.9-0.7,1.3-1c-3.7,7.9-8,15.5-11.4,23.5c-2,4.8-4,9.7-5.8,14.7c-2.1-0.4-4.6-1-6-2.9C45.1,126,47.6,120.4,50.3,114.9z
				 M44,145.8c-2.3-0.7-3.8-2.5-5-4.5c0.7-1.8,1.4-3.7,2.1-5.5c0.9,0.8,1.9,1.3,3,1.8c0.9,0.4,2.2,1,3.3,0.9c-0.8,2.5-1.6,5-2.3,7.5
				C44.7,145.9,44.3,145.9,44,145.8z"/>
		</g>
	</g>
	<g>
		<g>
			<path class="st0" d="M66.9,108.6c0.2-1.2-0.2-2.4-0.8-3.4c0,0.3,0,0.5,0,0.8c1.5,4.1-4.6,3.7-7.3,3.4c-5.2-0.5-10.3-2.2-15-4.4
				c-3.8-1.7-8.2-3.5-11.4-6.2c-2.1-1.7-3.6-5.7,0.3-5.7c0.1-0.2,0.2-0.5,0.4-0.7c-0.4,0.1-0.9,0.1-1.3,0.3
				c-0.4,0.2-0.9,0.3-1.3,0.6c-0.2,0.2-0.4,0.3-0.7,0.5c-2.2,3.8-3.9,8.2-5.3,12.2c-1.6,4.5-2.9,9.2-3.9,13.9c-1,5-1.7,10-2.3,15
				c3.1,2.4,6.3,4.7,9.8,6.5c3.4,1.7,6.8,3,10.3,4.5c0.2,0.1,0.1,0.4-0.1,0.3c-7.3-2.4-14.2-5.4-20.1-10.5c-0.1,0.4-0.1,0.9-0.2,1.3
				c1.2,1.3,2.5,2.5,4,3.6c4,2.7,8.6,5,13.2,6.5c4.7,1.6,9.3,2.5,14.1,0.7c0.1-0.2,0.2-0.5,0.3-0.7c-2.3,0.6-4.8,0.6-7-0.1
				c-0.2-0.1-0.1-0.4,0.1-0.4c2.5,0.2,4.8,0,7.2-0.2c2.1-4.7,4.3-9.4,6.4-14C60,124.4,63.8,116.6,66.9,108.6z M49.6,140.2
				c0.3,0,0.5-0.1,0.8,0c0.2,0,0.2,0.3,0,0.4c-0.3,0.1-0.6,0.1-0.9,0.1C49.2,140.7,49.3,140.2,49.6,140.2z M47.5,142.8
				c0.4-0.2,0.8-0.2,1.2-0.3c0.4-0.1,0.7-0.1,1.1-0.1c0.2,0,0.2,0.3,0,0.4c-0.4,0.1-0.8,0.2-1.2,0.2c-0.3,0-0.7,0.1-1.1,0.1
				C47.4,143.2,47.4,142.9,47.5,142.8z M34.2,136c-6.5-2.8-9.5-10.4-6.7-16.9c2.8-6.5,10.4-9.5,16.9-6.7c6.5,2.8,9.5,10.4,6.7,16.9
				C48.3,135.8,40.7,138.8,34.2,136z M49.6,144.9c-1.3,0.4-2.6,0.4-3.9,0.3c-0.4,0-0.3-0.6,0.1-0.5c1.3,0.1,2.5,0,3.7-0.1
				C49.8,144.5,49.9,144.8,49.6,144.9z"/>
			<path class="st0" d="M32.7,97.7c0,0,0-0.1,0-0.1c0.7-1.6,0.9-3.3,1.4-5c-0.4,0.4-0.7,0.8-0.6,1.3c0.1,0.5-0.7,0.6-0.8,0.1
				c0-0.2,0-0.3,0-0.4C29.7,94.1,31.2,96.3,32.7,97.7z"/>
			<path class="st9" d="M32.7,97.6c0.5-1.2,0.8-2.4,1.1-3.7c-0.1,0-0.2-0.1-0.3-0.1c0,0,0,0.1,0,0.1c0.1,0.5-0.7,0.6-0.8,0.1
				c0-0.2,0-0.3,0-0.4c-2.9,0.6-1.4,2.7,0,4.1C32.7,97.7,32.7,97.6,32.7,97.6z"/>
			<path class="st9" d="M42.8,146.5c2.5,0.2,4.8,0,7.2-0.2c0.6-1.4,1.2-2.8,1.9-4.2c-0.7,0.3-1.4,0.6-2.1,0.8c0,0,0,0,0,0
				c0,0,0,0,0,0c-8.2,2.4-17.7-1.4-22.6-8.7c-3.7-5.5-4.2-12.4-3.6-18.9c0.4-4.8,1.4-9.6,2.8-14.2c-0.7,1.7-1.3,3.3-1.8,4.9
				c-1.6,4.5-2.9,9.2-3.9,13.9c-1,5-1.7,10-2.3,15c3.1,2.4,6.3,4.7,9.8,6.5c3.4,1.7,6.8,3,10.3,4.5c0.2,0.1,0.1,0.4-0.1,0.3
				c-7.3-2.4-14.2-5.4-20.1-10.5c-0.1,0.4-0.1,0.9-0.2,1.3c1.2,1.3,2.5,2.5,4,3.6c4,2.7,8.6,5,13.2,6.5c4.7,1.6,9.3,2.5,14.1,0.7
				c0.1-0.2,0.2-0.5,0.3-0.7c-2.3,0.6-4.8,0.6-7-0.1C42.5,146.8,42.6,146.5,42.8,146.5z M45.8,144.6c1.3,0.1,2.5,0,3.7-0.1
				c0.2,0,0.3,0.3,0.1,0.4c-1.3,0.4-2.6,0.4-3.9,0.3C45.4,145.2,45.5,144.6,45.8,144.6z"/>
			<path class="st8" d="M44.2,112.8c-6-2.6-13.2,0.6-15.8,6.6c-2.6,6,0.2,13.1,6.2,15.7c6,2.6,13.3,0.4,15.9-5.7
				C53.1,123.4,50.2,115.4,44.2,112.8z M44.9,119.6c0.1,0,0.2,0,0.2,0c0.3,0,0.4,0.2,0.6,0.4c0.2,0.3-0.3,1-0.5,1.2
				c-0.3,0.4-0.6,0.6-0.9,0.9c-0.2,0.2-0.5,0-0.5-0.2C43.6,121,44.1,120.1,44.9,119.6z M37.7,117.1c0,0,0.1,0,0.1,0
				c0,0,0.1-0.1,0.1-0.1c0.2-0.1,0.4,0.1,0.5,0.3c0.1,0.5,0.1,1.2-0.2,1.7c-0.3,0.4-0.8,0.6-1.3,0.7c-0.2,0-0.4-0.2-0.4-0.4
				C36.6,118.4,37,117.7,37.7,117.1z M46.4,129.2c-0.6,0.1-1.1-0.5-1.4-1.1c-2.4,2.5-5.5,4-9,2.7c-3.1-1.1-5.3-3.9-4.7-7.2
				c-0.5,0-1.1-0.1-1.4-0.5c-0.1-0.1,0-0.4,0.2-0.4c0.5,0,1,0.3,1.6,0.3c0.6,0,1.1-0.2,1.6-0.5c0.2-0.1,0.4,0.1,0.2,0.3
				c-0.5,0.4-1,0.7-1.6,0.8c0,3.2,1.9,5.9,5.2,6.5c3.3,0.6,5.2-0.7,7.5-2.8c-0.2-0.6-0.1-1.2,0.1-1.7c0.1-0.2,0.4-0.1,0.3,0.1
				c0,0.5,0,1,0.2,1.5c0.1,0.1,0.2,0.2,0.2,0.3c0,0,0,0.1,0.1,0.1c0.2,0.2,0.4,0.5,0.7,0.7c0.2,0.2,0.4,0.3,0.5,0.5
				C46.7,129,46.6,129.2,46.4,129.2z"/>
		</g>
		<g>
			<path class="st4" d="M63.5,119.4c1.5-3.3,3.4-6.7,4.1-10.2c1.4-2.7-0.9-5.4-3.6-7.3c-0.1,0.2-0.3,0.4-0.4,0.7
				c0.6,0.5,1.2,1.1,1.7,1.7c0.2-0.1,0.4,0,0.6,0.2c0.1,0.3,0.2,0.6,0.2,0.8c0.7,1.1,1,2.2,0.8,3.4c-3.1,8-6.9,15.8-10.5,23.7
				c-2.1,4.6-4.3,9.3-6.4,14c-2.4,0.2-4.8,0.4-7.2,0.2c-0.2,0-0.4,0.3-0.1,0.4c2.2,0.8,4.7,0.7,7,0.1c-0.1,0.2-0.2,0.5-0.3,0.7
				c-4.8,1.8-9.4,0.9-14.1-0.7c-4.6-1.5-9.2-3.7-13.2-6.5c-1.5-1-2.8-2.2-4-3.6c0.1-0.4,0.1-0.9,0.2-1.3c5.8,5.1,12.7,8.1,20.1,10.5
				c0.2,0.1,0.4-0.2,0.1-0.3c-3.5-1.5-6.9-2.8-10.3-4.5c-3.5-1.8-6.7-4.1-9.8-6.5c0.6-5,1.3-10,2.3-15c1-4.7,2.3-9.3,3.9-13.9
				c1.4-4.1,3.1-8.5,5.3-12.2c0.2-0.1,0.4-0.3,0.7-0.5c0.4-0.3,0.8-0.5,1.3-0.6c0.4-0.1,0.9-0.2,1.3-0.3c0.4-0.5,0.9-0.9,1.4-1.1
				c-1,0-2,0.2-3,0.6c0,0-0.1,0-0.1,0c-0.4,0.1-0.8,0.3-1.2,0.5c-0.1,0-0.1,0-0.2,0.1c0,0,0,0,0,0c-0.4,0.2-0.7,0.5-0.8,0.9
				c-2.4,3-3.8,7.1-5.2,10.6c-1.7,4.3-2.9,8.8-4,13.2c-1.4,6-2.5,12.2-3.2,18.4l-0.1,1.4l1.2,1.4c0.9,1,1.8,1.9,2.9,2.7
				c4.1,3.1,9.1,5.3,14,7c4.3,1.5,8.7,2.4,13.2,1.2c0.3-0.1,0.6-0.2,0.8-0.2l1.9-0.7l0.7-1.6c2.1-4.7,4-9.5,6.1-14.2
				C59.5,128.3,61.5,123.8,63.5,119.4z"/>
			<path class="st4" d="M66,106c0,0.3-0.1,0.6-0.2,0.8c0,0.2-0.1,0.2-0.3,0.3c-0.4,1.5-3.5,1.3-4.8,1.3c-1.7,0-3.4-0.2-5.2-0.6
				c-3.5-0.7-7-1.9-10.3-3.3c-2.5-1.1-5-2.4-7.5-3.6c-1.4-0.7-2.7-1.4-4-2.3c-0.2-0.1-0.5-0.3-0.8-0.6c-0.2,0-0.5-0.2-0.5-0.4
				c-1.5-1.4-3-3.6,0-4.2c0-0.1,0-0.3,0.1-0.4c-3.9,0.1-2.4,4-0.3,5.7c3.2,2.7,7.6,4.4,11.4,6.2c4.7,2.2,9.8,3.8,15,4.4
				C61.4,109.7,67.5,110.1,66,106z"/>
			<path class="st4" d="M49.5,144.5c-1.2,0.2-2.5,0.2-3.7,0.1c-0.4,0-0.4,0.5-0.1,0.5c1.3,0.1,2.6,0.2,3.9-0.3
				C49.9,144.8,49.8,144.5,49.5,144.5z"/>
			<path class="st4" d="M49.8,142.5c-0.4,0-0.7,0-1.1,0.1c-0.4,0.1-0.8,0.1-1.2,0.3c-0.2,0.1-0.1,0.3,0,0.4c0.4,0,0.7,0,1.1-0.1
				c0.4-0.1,0.8-0.1,1.2-0.2C50,142.8,50,142.5,49.8,142.5z"/>
			<path class="st4" d="M50.4,140.2c-0.3,0-0.5,0.1-0.8,0c-0.3,0-0.4,0.5-0.1,0.5c0.3,0,0.6,0,0.9-0.1
				C50.6,140.5,50.6,140.2,50.4,140.2z"/>
			<path class="st4" d="M34.2,136c-6.5-2.8-9.5-10.4-6.7-16.9c2.8-6.5,10.4-9.5,16.9-6.7c6.5,2.8,9.5,10.4,6.7,16.9
				C48.3,135.8,40.7,138.8,34.2,136z M44.2,112.8c-6-2.6-13.2,0.6-15.8,6.6c-2.6,6,0.2,13.1,6.2,15.7c6,2.6,13.3,0.4,15.9-5.7
				C53.1,123.4,50.2,115.4,44.2,112.8z"/>
			<path class="st4" d="M38.4,117.3c0-0.2-0.2-0.4-0.5-0.3c-0.1,0-0.1,0.1-0.1,0.1c0,0-0.1,0-0.1,0c-0.7,0.6-1.1,1.2-1.2,2.1
				c0,0.2,0.1,0.4,0.4,0.4c0.5-0.1,1-0.3,1.3-0.7C38.5,118.5,38.5,117.8,38.4,117.3z"/>
			<path class="st4" d="M45.7,120c-0.1-0.2-0.3-0.4-0.6-0.4c-0.1,0-0.1,0-0.2,0c-0.8,0.5-1.3,1.4-1.1,2.3c0,0.2,0.3,0.4,0.5,0.2
				c0.3-0.3,0.7-0.6,0.9-0.9C45.4,121,45.9,120.3,45.7,120z"/>
			<path class="st4" d="M46.6,128.8c-0.1-0.3-0.3-0.4-0.5-0.5c-0.3-0.2-0.5-0.4-0.7-0.7c0,0-0.1-0.1-0.1-0.1c0-0.1-0.1-0.2-0.2-0.3
				c-0.2-0.5-0.2-1-0.2-1.5c0-0.2-0.3-0.3-0.3-0.1c-0.2,0.6-0.2,1.2-0.1,1.7c-2.3,2-4.3,3.4-7.5,2.8c-3.3-0.6-5.2-3.3-5.2-6.5
				c0.6-0.1,1.1-0.4,1.6-0.8c0.2-0.1,0-0.4-0.2-0.3c-0.5,0.3-1,0.4-1.6,0.5c-0.6,0-1.1-0.3-1.6-0.3c-0.2,0-0.3,0.2-0.2,0.4
				c0.3,0.4,0.9,0.5,1.4,0.5c-0.6,3.3,1.6,6.1,4.7,7.2c3.5,1.3,6.6-0.1,9-2.7c0.3,0.5,0.9,1.2,1.4,1.1
				C46.6,129.2,46.7,129,46.6,128.8z"/>
		</g>
		<path class="st1" d="M56.7,127.1c1.8-4.1,2.9-8.3,3.9-12.6c0.1-0.5-0.7-0.7-0.9-0.3c-1.7,3.7-3.6,7.2-5.4,10.9
			c-1.7,3.5-4.6,7.4-4.9,11.4c0,0.7,0.7,1.2,1.3,0.8C53.8,134.9,55.2,130.5,56.7,127.1z"/>
	</g>
</g>
<g>
	<g>
		<path class="st8" d="M50.3,1.7c-2.8,0-5.6,0-8.3,0c-3.1,0.1-6.2,0.2-9.2,0.5c-1.5,2.6-3.3,5-4.7,7.6c-2.8,5.1-5.5,10.3-8,15.5
			c-3.1,6.5-5.8,13.2-8.6,19.9c3.5,0.4,7,1,10.5,1.6c1.2-3.8,2.6-7.5,4.1-11.2l0.5-1.3l1.4,0.1c3.1,0.2,6.2,0.6,9.3,0.8l1.3,0.1
			l0.1,1.5c0.1,2.6,0.1,5.2,0.1,7.9c0,2,0.1,3.9,0.3,5.9c3.1-0.3,6.2-0.9,9.3-1.6c-0.2-4.3,0.1-8.6,0.3-12.7
			C49,24.8,49.4,13.2,50.3,1.7z M38.2,24.9c-1.4-0.1-2.8-0.3-4.1-0.4c-0.4,0-0.8-0.1-1.2-0.1l-1.4-0.2l0.7-1.1c2.1-3.6,4-7.2,5.7-11
			c0.2-0.5,1.2-0.7,1.3,0c0.6,3.6,0.9,7.5,0.8,11.4L39.9,25L38.2,24.9z"/>
		<path class="st2" d="M16.3,40.9c-0.3-0.1-0.5-0.4-0.4-0.7c2.5-6.3,3.9-12.9,6.3-19.2c-0.7,1.5-1.5,3-2.2,4.5
			c-3.1,6.5-5.8,13.2-8.6,19.9c3.5,0.4,7,1,10.5,1.6c0.4-1.2,0.8-2.4,1.2-3.5C20.7,42.6,18.5,41.7,16.3,40.9z"/>
		<path class="st2" d="M43.9,45.5c-1.8,0-2.9-1.3-3.5-3c-0.4-1.1-1-8.7-1.7-8.7c-3.8-0.1-7.6-0.1-11.2,0.8l0.2,0
			c3.1,0.2,6.2,0.6,9.3,0.8l1.3,0.1l0.1,1.5c0.1,2.6,0.1,5.2,0.1,7.9c0,2,0.1,3.9,0.3,5.9c3.1-0.3,6.2-0.9,9.3-1.6
			c0-1.3-0.1-2.5,0-3.7C46.7,45.4,45.3,45.5,43.9,45.5z"/>
		<path class="st8" d="M68.5,9.4L69,8.1C69.4,7,69.8,6,70.2,4.9c-1.9-0.4-3.8-0.7-5.7-1c-0.3,1-0.6,2.1-1,3.1L63.2,8l-1-0.3
			c-1.6-0.4-3.1-0.7-4.7-1c-0.4,1.6-0.9,3.1-1.5,4.6c1.6,0.2,3.3,0.5,4.9,0.8l1,0.2l-0.3,1.1c-0.3,1.2-0.7,2.5-1,3.7
			c1.6,0.1,3.2,0.3,4.9,0.5c0.3-1.1,0.7-2.1,1.1-3.1l0.5-1.3l1.2,0.2c1.2,0.2,2.4,0.4,3.6,0.6c0.3-1.3,0.8-2.5,1.3-3.7
			c-1.2-0.3-2.3-0.6-3.5-0.9L68.5,9.4z"/>
		<path class="st2" d="M63,15.3c-0.8-0.5-0.8-1.3-0.7-2.2c0.1-0.7,0.4-1.5,0.7-2.1c0.6-1.6,0.1-1.4-1.5-2c-1.4-0.6-2.8-1.1-4-1.9
			C57,8.6,56.6,10,56,11.3c1.6,0.2,3.3,0.5,4.9,0.8l1,0.2l-0.3,1.1c-0.3,1.2-0.7,2.5-1,3.7c1.6,0.1,3.2,0.3,4.9,0.5
			c0.1-0.4,0.2-0.7,0.4-1.1C65.3,16.7,63.3,15.6,63,15.3z"/>
	</g>
	<path class="st1" d="M48.1,15.6c0-3.8-0.6-8-3.3-10.9c-0.2-0.2-0.4,0-0.3,0.2c1.6,3.7,0.6,8.5,0.5,12.4c-0.1,4.7-1.6,9.1-0.4,13.8
		c0.2,0.6,1,0.6,1.2,0C47.7,26.2,48.1,20.9,48.1,15.6z"/>
	<path class="st1" d="M47,34.8c0.5-0.5,0.1-1.3-0.5-1.3c-0.4,0-0.9,0-1.3,0.2c-0.6,0.3-0.9,0.8-0.9,1.5c0,0.5,0.3,0.9,0.7,1.1
		c0.5,0.2,0.9-0.1,1.2-0.4c-0.2,0.3,0.3-0.4,0.2-0.3c0-0.1,0.1-0.2,0.1-0.3c0,0,0.1-0.1,0.1-0.1C46.8,35,46.9,34.9,47,34.8z"/>
	<g>
		<path class="st4" d="M72.4,15.7l0.6-1.3c0.5-1.2,0.9-2.4,1.3-3.7l0.4-1.4l-0.9-0.2c-1.2-0.3-2.4-0.5-3.7-0.8
			c0.4-1.1,0.8-2.2,1.1-3.3l0.3-1l-1-0.2c-0.2,0-0.4-0.1-0.7-0.1c-1.7-0.3-3.4-0.7-5.1-0.9l-1.3-0.2l-0.2,1c-0.3,1-0.5,2-0.8,3.1
			l-5.6-1l-0.2,0.8c-0.4,1.6-1,3.1-1.5,4.7l-0.2,0.9l0.7,0.1c1.7,0.3,3.3,0.7,5,1c-0.3,1.3-0.7,2.6-0.9,4l-0.2,1l0.8,0.1
			c1.6,0.1,3.2,0.4,4.8,0.7l1.4,0.3l0.3-1.3c0.3-1,0.5-2.1,0.9-3.1c1.3,0.3,2.5,0.5,3.8,0.7L72.4,15.7z M68.2,13.6L67,13.4l-0.5,1.3
			c-0.4,1-0.7,2.1-1.1,3.1c-1.6-0.3-3.2-0.5-4.9-0.5c0.3-1.3,0.6-2.5,1-3.7l0.3-1.1l-1-0.2c-1.6-0.3-3.3-0.6-4.9-0.8
			c0.6-1.5,1.1-3,1.5-4.6c1.6,0.3,3.1,0.6,4.7,1l1,0.3l0.3-1.1c0.3-1,0.6-2,1-3.1c1.9,0.3,3.8,0.6,5.7,1C69.8,6,69.4,7,69,8.1
			l-0.5,1.2l1.1,0.3c1.2,0.3,2.3,0.6,3.5,0.9c-0.5,1.2-1,2.5-1.3,3.7C70.6,14,69.4,13.8,68.2,13.6z"/>
		<g>
			<path class="st4" d="M49.8,48.6c-0.2-4.4,0-8.8,0.2-13.1c0.6-11.3,1.3-22.5,1.6-33.8l0-1.7l-1.2,0c-3.2,0.1-6.3,0.2-9.5,0.3
				c-2.5,0.1-4.9,0.2-7.4,0.5l-1.8,0.2l-0.9,1.4c-1.4,2.2-2.8,4.3-4.1,6.6c-2.9,5-5.5,10.2-8.1,15.5c-3.2,6.7-6.3,13.6-9.2,20.5
				L9,46.3l1.8,0.3c3.5,0.6,7,1.4,10.5,1.9l1.9,0.2l0.5-1.5c1.2-3.8,2.3-7.6,3.6-11.4c3.3,0.4,6.6,1,9.8,1.1c0.1,3.3,0,6.6,0,9.9
				c0,1.3,0,2.6,0.1,4l0.1,1.6l1.7-0.2c2.4-0.3,4.8-0.8,6.8-1.2c0.8-0.1,1.6-0.3,2.4-0.4l1.7-0.3L49.8,48.6z M38.8,50.6
				c-0.2-1.9-0.3-3.9-0.3-5.9c0-2.6,0-5.3-0.1-7.9l-0.1-1.5l-1.3-0.1c-3.1-0.2-6.2-0.6-9.3-0.8l-1.4-0.1l-0.5,1.3
				c-1.4,3.6-2.9,7.4-4.1,11.2c-3.5-0.6-7-1.1-10.5-1.6c2.8-6.7,5.5-13.4,8.6-19.9c2.5-5.3,5.2-10.4,8-15.5c1.4-2.6,3.2-5,4.7-7.6
				c3.1-0.3,6.1-0.5,9.2-0.5c2.7,0,5.6,0,8.3,0c-0.9,11.5-1.3,23.1-1.9,34.6c-0.2,4-0.4,8.3-0.3,12.7C45,49.7,42,50.3,38.8,50.6z"/>
			<path class="st4" d="M39.1,12.1c-0.1-0.7-1.1-0.6-1.3,0c-1.7,3.8-3.6,7.4-5.7,11l-0.7,1.1l1.4,0.2c0.4,0,0.8,0.1,1.2,0.1
				c1.3,0.1,2.7,0.3,4.1,0.4l1.7,0.1l0.1-1.5C40,19.7,39.7,15.8,39.1,12.1z M35.2,23.4c-0.5,0-1-0.1-1.4-0.1
				c1.7-2.6,3.1-5.6,4.3-8.4c0.2,2.9,0.1,5.7,0.1,8.6C37.1,23.4,36.1,23.4,35.2,23.4z"/>
		</g>
	</g>
</g>
</svg>
