<?xml version="1.0" encoding="utf-8"?>
<!-- Generator: Adobe Illustrator 26.2.1, SVG Export Plug-In . SVG Version: 6.00 Build 0)  -->
<svg version="1.1" id="圖層_1" xmlns="http://www.w3.org/2000/svg" xmlns:xlink="http://www.w3.org/1999/xlink" x="0px" y="0px"
	 viewBox="0 0 95 150" style="enable-background:new 0 0 95 150;" xml:space="preserve">
<style type="text/css">
	.st0{fill:#F8D955;}
	.st1{fill:#FFFFFF;}
	.st2{fill:#DD943D;}
	.st3{fill:#93B8C9;}
	.st4{fill:#231F20;}
	.st5{fill:#688A9D;}
	.st6{fill:#2D4959;}
	.st7{fill:#A52D3F;}
	.st8{fill:#C66632;}
	.st9{fill:#7A5433;}
	.st10{fill:#5198CC;}
	.st11{fill:#E94356;}
</style>
<g>
	<g>
		<path class="st0" d="M55.3,16.8c1.1-0.4,2.2-1.6,1.8-2.9c-0.1-0.6-0.5-1.2-1-1.6c-0.5-0.4-1-0.5-1.6-0.5c-1.1,0.5-2.3,1.6-2.3,2.9
			C52.3,16.2,53.8,17.4,55.3,16.8z"/>
		<path class="st0" d="M46.5,17.8c-0.3,0.3-0.5,0.9-0.3,1.3c0.2,0.6,1,0.5,1.4,0.1c0.3-0.4,0.3-1.1,0-1.4
			C47.2,17.3,46.8,17.5,46.5,17.8z"/>
		<path class="st0" d="M50.4,7.1c0.1-2.6-2.2-4.1-4.6-3.5c-1.2,0.8-2.2,2.2-2.4,3.7c-0.3,2,0.9,3.7,3.1,3.7
			C48.6,11,50.4,9.3,50.4,7.1z"/>
		<path class="st1" d="M53.3,23.7c0.8-0.3,2.1-1,3.1-0.7l0.9,0.7c0.5-0.7,0.7-1.3,0.5-2.3c-0.1-0.3-0.2-0.6-0.4-1
			c-1.2,0.1-2.3,0.3-3.4,0.6c-2,0.6-3.7,1.6-5.2,2.9c0.2,1.4,0.8,2.7,2.3,2.6l0.3-1.2C51.8,24.6,52.7,24,53.3,23.7z"/>
		<path class="st0" d="M69.8,38.3c-0.3-0.1-0.5-0.1-0.9-0.1c0.3,0.2,0.5,0.5,0.6,1c0,0.1-0.1,0.1-0.1,0.1c-0.5-0.8-1.4-1-2.2-0.9
			c-0.6,0.1-1.2,0.2-1.8,0.4l0,0c-1.4,0.5-2,1.7-3.1,2.5c-1.1,0.8-2.3,1.2-3.6,1.5c-1.4,0.3-3.1,0.5-4.3,1.3
			c-0.1,0.1-0.3,0.2-0.5,0.3c-0.4,0.6-0.7,1.4-0.7,2.1c0,0.5,0,1,0.3,1.4c0.3,0.5,0.7,0.6,1.2,0.9c0.1,0.1,0,0.1-0.1,0.1
			c-1.1-0.3-1.9-1-1.8-2.2c0-0.5,0.1-0.9,0.3-1.4c-0.2,0.2-0.3,0.4-0.5,0.7c-0.9,1.6-1.3,3.4-1.2,5.2s0.5,4.1,2,5.3
			c1.9,1.5,4.4,0.7,6.4-0.3c2.2-1.2,4.1-2.8,6.1-4.3c1.6-1.3,3.3-2.4,4.7-3.9c1.4-1.5,2.9-3.4,2.9-5.6C73.2,40.4,72,38.6,69.8,38.3z
			 M55.7,52.7c-0.1,0.3-0.4,0.5-0.7,0.5c-0.3,0.1-0.7,0-1-0.3c-0.2-0.3-0.1-0.8,0.3-1.1c0.1-0.1,0.1,0,0.1,0.1
			c-0.1,0.2-0.1,0.3-0.1,0.5c0,0.1,0,0.2,0.1,0.3c0.1,0.1,0.1,0.1,0.3,0.1c0.1,0,0.2,0,0.3,0s0.2-0.1,0.3-0.1
			c0.1-0.1,0.1-0.1,0.1-0.2c0-0.1,0-0.2-0.1-0.3C55.2,52.2,55,52,55,51.9c-0.1-0.1,0-0.2,0.1-0.2c0.2,0,0.5,0.3,0.6,0.5
			C55.7,52.4,55.7,52.6,55.7,52.7z M57.9,51.5C57.9,51.5,57.8,51.5,57.9,51.5c-0.3,0.1-0.5,0.1-0.7,0.1c-0.1,0-0.1,0-0.1-0.1
			c-0.1-0.1-0.1-0.2-0.1-0.3c0-0.1,0.1-0.2,0.1-0.3c0-0.1,0.1-0.1,0.2,0c0.1,0.1-0.1,0.3,0,0.4c0.1,0,0.3,0,0.4-0.1
			c0-0.1-0.1-0.2-0.1-0.3c-0.1-0.1-0.1-0.1-0.1-0.2c0-0.1,0.1-0.1,0.1,0c0-0.1,0.1,0,0.1,0.1c0.1,0,0.1,0.1,0.1,0.1
			C58,51.1,58,51.3,57.9,51.5z M60.7,51.1c-0.1,0.3-0.5,0.5-0.8,0.6s-0.7,0.1-1-0.2c-0.3-0.3,0-0.9,0.2-1.2c0.1-0.1,0.3,0,0.3,0.1
			c-0.1,0.2-0.2,0.4-0.2,0.6c0,0.1,0.1,0.2,0.1,0.2c0.1,0,0,0,0.1,0h0.1c-0.1,0,0.1,0,0.1,0c0.1,0,0.1,0,0.1,0s0.3-0.1,0.3-0.1
			c0.1-0.1,0.2-0.1,0.3-0.3c0.1-0.1,0.1-0.2,0-0.3c-0.1-0.2-0.3-0.3-0.5-0.5c-0.1-0.1-0.1-0.3,0-0.3s0.3,0.1,0.4,0.2
			C60.6,50.3,60.9,50.7,60.7,51.1z M67.5,42.2c-0.9,0.3-2,0.3-2.7,0.9c-0.7,0.5-1.2,1.2-1.7,2c-1.7,2.5-4.6,4.1-7.7,3.9
			c-0.1,0-0.1-0.1,0-0.1c1.6-0.1,3.3-0.6,4.8-1.5c1.4-0.8,2-1.9,2.9-3.1c0.7-1,1.6-1.8,2.9-2.1c1.4-0.3,3.2-0.6,3.5-2.2
			c0-0.1,0.1-0.1,0.1,0C69.5,41,68.4,41.8,67.5,42.2z M71.4,42.3c-0.2,0.2-0.5,0.3-0.7,0.2c-0.3-0.1-0.5-0.3-0.5-0.5
			c-0.1-0.3,0.3-0.7,0.5-0.7c0.1,0,0.1,0.1,0.1,0.1c-0.1,0.2-0.3,0.4-0.3,0.6c0,0.1,0.1,0.2,0.3,0.2c0.1,0,0.3,0,0.3-0.1
			c0.1-0.1,0.1-0.4,0.1-0.6c0-0.1,0.1-0.2,0.2-0.1C71.5,41.6,71.7,42,71.4,42.3z"/>
		<path class="st2" d="M70.8,46.3c-1.6,1-3.5,1.8-5.1,2.9c-1.5,1-2.9,2.4-4.4,3.3c-1.6,1-5,3.1-6.9,1.6c-0.9-0.7-1.8-2-1.6-3.1
			c0.1-1.3,0.9-1.4,1.6-2.1c-1-0.3-1.8-1-1.7-2.1c0-0.5,0.1-0.9,0.3-1.4c-0.2,0.2-0.3,0.4-0.5,0.7c-0.9,1.6-1.3,3.4-1.2,5.2
			s0.5,4.1,2,5.3c1.9,1.5,4.4,0.7,6.4-0.3c2.2-1.2,4.1-2.8,6.1-4.3c1.6-1.3,3.3-2.4,4.7-3.9c1-1.1,2.1-2.4,2.6-3.8
			C72.5,45.1,71.7,45.8,70.8,46.3z"/>
		<path class="st2" d="M64.7,43c-0.7,0.5-1.2,1.2-1.7,2c-1.3,1.9-3.2,3.3-5.4,3.7c0.9,0.1,1.8,0.1,2.6-0.2c1.8-0.6,2.6-1.9,3.7-3.3
			c0.8-1,1.7-1.6,2.8-2.2c1-0.5,1.8-1.1,2.3-1.8c-0.4,0.5-1,0.8-1.6,1C66.6,42.4,65.5,42.4,64.7,43z"/>
		<path class="st0" d="M62.5,7.9c0.3-0.1,0.7-0.6,0.5-0.9c-0.1-0.3-0.5-0.4-0.8-0.4C62,6.9,61.9,7.3,62,7.5
			C62,7.7,62.2,7.9,62.5,7.9z"/>
		<path class="st1" d="M70.5,36.3c-2.9-1.1-5.9-1-8.9-1.3l-1-0.1l-0.5-1.1c-0.5-1.2-1-2.5-1.5-3.8c-0.7-1.7-1.3-3.5-1.8-5.3
			c-0.1-0.1-0.1-0.2-0.1-0.3c-0.1-0.3-0.1-0.5-0.2-0.8c-0.7,0.3-1.7,0.2-2.4,0.5c-1.2,0.5-1.8,1.1-2.4,2c0.5,2.3,1,4.6,1.7,6.9
			c0.4,1.4,0.9,2.7,1.4,4.1l0.3,0.7l-0.5,0.9c-2.6,4.1-4.8,8.6-5.3,13.4c-0.3,2.1-0.4,4.8,0.9,6.6c1.8,2.6,4.3,1.8,6.7,1
			c4.1-1.8,8.1-3.7,11.5-6.7c2.9-2.4,6.2-5.4,6.9-9.3C76,40.3,73.9,37.5,70.5,36.3z M71.9,47.3c-1.4,1.6-3,2.9-4.6,4.1
			c-1.9,1.5-3.7,3.1-5.8,4.3c-1.7,1.1-3.9,2.4-6,2.2c-1.6-0.1-2.9-1-3.7-2.4c-1.4-2.8-1.4-6.7,0.3-9.4c0.4-0.7,0.9-1.5,1.6-2
			c1.2-1,2.6-1.4,4.1-1.6c1.8-0.3,3.5-0.7,4.8-2.1c0.4-0.4,0.8-1,1.3-1.4c0,0,0-0.1,0.1-0.1c0.1,0,0.1-0.1,0.1-0.1
			c0.3-0.2,0.5-0.3,0.9-0.4c2-0.8,4.4-1.3,6.4-0.3c1.5,0.7,2.4,2.3,2.4,4C73.9,44.1,73,45.9,71.9,47.3z"/>
		<path class="st3" d="M74.8,45.1c-0.9,1.1-2.2,2.3-3.6,3c-1.2,1.3-2.6,2.3-3.9,3.4c-1.9,1.5-3.7,3.1-5.8,4.3
			c-1.7,1.1-3.9,2.4-6,2.2c-1.6-0.1-2.9-1-3.7-2.4c-1.4-2.8-1.4-6.7,0.3-9.4c0.4-0.7,0.9-1.5,1.6-2c1.2-1,2.6-1.4,4.1-1.6
			c1.2-0.2,2.4-0.5,3.5-1.1c-0.1,0-0.1,0-0.2,0c-1.2,0-2.6-0.2-3.5-1.1c-1.1-1.1-1.1-2.4-1.3-3.9c-0.2-1.5-3.1-10.3-0.8-12.6
			C55,24,54.6,24,54.2,24.2c-1.2,0.5-1.8,1.1-2.4,2c0.5,2.3,1,4.6,1.7,6.9c0.4,1.4,0.9,2.7,1.4,4.1l0.3,0.7l-0.5,0.9
			c-2.6,4.1-4.8,8.6-5.3,13.4c-0.3,2.1-0.4,4.8,0.9,6.6c1.8,2.6,4.3,1.8,6.7,1C61,58,65,56,68.4,53.1c2.6-2.2,5.6-4.9,6.7-8.3
			C74.9,45,74.9,45,74.8,45.1z"/>
	</g>
	<path class="st1" d="M49.4,5.9C49,5.1,47.9,4.3,47,4.6c-0.3,0.1-0.5,0.4-0.3,0.7c0.3,0.5,0.7,1,0.8,1.6c0.2,0.7-0.1,1.4,0.4,2.1
		c0.3,0.3,0.8,0.3,1.2,0.1C50.2,8.5,49.8,6.8,49.4,5.9z"/>
	<path class="st1" d="M55.8,13c-0.4-0.3-1.2,0-1,0.5c0.1,0.3,0.2,0.5,0.2,0.8c0.1,0.3-0.1,0.6,0,1c0.1,0.3,0.5,0.5,0.8,0.5
		C57.1,15.4,56.6,13.7,55.8,13z"/>
	<path class="st1" d="M47.6,18.5c0-0.1-0.1-0.3-0.2-0.3c-0.1-0.1-0.3,0-0.3,0.1c-0.1,0.1-0.1,0.3,0,0.4c0,0.1,0.2,0.3,0.3,0.2
		C47.6,18.9,47.6,18.7,47.6,18.5z"/>
	<path class="st4" d="M73.8,42.2c-0.1-1.6-1-3.2-2.4-4c-2-1-4.4-0.5-6.4,0.3c-0.3,0.1-0.6,0.2-0.9,0.4C64,38.9,64,39,63.9,39
		c-0.1,0-0.1,0.1-0.1,0.1c-0.5,0.4-0.9,0.9-1.3,1.4c-1.3,1.4-3.1,1.8-4.8,2.1c-1.4,0.3-3,0.6-4.1,1.6c-0.7,0.5-1.2,1.3-1.6,2
		c-1.7,2.8-1.8,6.6-0.3,9.4c0.7,1.4,2.1,2.3,3.7,2.4c2.1,0.2,4.3-1.1,6-2.2c2-1.3,3.9-2.9,5.8-4.3c1.6-1.3,3.3-2.5,4.6-4.1
		C73,45.9,73.9,44.1,73.8,42.2z M70.5,48.1c-1.4,1.4-3.1,2.6-4.7,3.9c-2,1.6-3.9,3.1-6.1,4.3c-1.9,1-4.5,1.9-6.4,0.3
		c-1.6-1.2-2-3.5-2-5.3c-0.1-1.8,0.3-3.7,1.2-5.2c0.1-0.2,0.3-0.5,0.5-0.7c-0.1,0.4-0.3,0.9-0.3,1.4c-0.1,1.2,0.7,1.8,1.8,2.2
		c0.1,0,0.1-0.1,0.1-0.1c-0.5-0.2-0.9-0.4-1.2-0.9c-0.3-0.4-0.3-0.9-0.3-1.4c0-0.7,0.3-1.5,0.7-2.1c0.1-0.1,0.3-0.3,0.5-0.3
		c1.3-0.8,2.9-1,4.3-1.3c1.3-0.3,2.5-0.7,3.6-1.5c1.2-0.9,1.7-2,3.1-2.5l0,0c0.6-0.1,1.2-0.3,1.8-0.4c0.8-0.1,1.6,0.1,2.2,0.9
		c0.1,0.1,0.2,0,0.1-0.1c-0.1-0.5-0.3-0.7-0.6-1c0.3,0,0.5,0,0.9,0.1c2.1,0.3,3.4,2.1,3.5,4.2C73.4,44.7,71.9,46.7,70.5,48.1z"/>
	<path class="st4" d="M69.4,39.9c-0.4,1.6-2.2,1.9-3.5,2.2c-1.3,0.3-2.1,1-2.9,2.1c-0.9,1.2-1.6,2.3-2.9,3.1
		c-1.4,0.9-3.1,1.3-4.8,1.5c-0.1,0-0.1,0.1,0,0.1c3.1,0.2,6-1.4,7.7-3.9c0.5-0.7,1-1.5,1.7-2c0.7-0.5,1.8-0.5,2.7-0.9
		c1-0.3,2-1.1,2.2-2.2C69.6,39.9,69.4,39.9,69.4,39.9z"/>
	<path class="st4" d="M55.6,52.2c-0.1-0.2-0.3-0.5-0.6-0.5c-0.1,0-0.1,0.1-0.1,0.2c0.1,0.1,0.3,0.3,0.4,0.4c0.1,0.1,0.1,0.2,0.1,0.3
		c0,0.1-0.1,0.1-0.1,0.2c-0.1,0.1-0.2,0.1-0.3,0.1c-0.1,0-0.2,0-0.3,0s-0.2-0.1-0.3-0.1c-0.1-0.1-0.1-0.1-0.1-0.3
		c0-0.2,0.1-0.3,0.1-0.5c0-0.1-0.1-0.1-0.1-0.1C54,52.2,53.8,52.7,54,53c0.2,0.3,0.6,0.3,1,0.3c0.3-0.1,0.7-0.3,0.7-0.5
		C55.7,52.6,55.7,52.4,55.6,52.2z"/>
	<path class="st4" d="M60.3,50.1c-0.1-0.1-0.3-0.2-0.4-0.2c-0.2,0.1-0.1,0.2,0,0.3c0.2,0.2,0.3,0.3,0.5,0.5c0.1,0.1,0,0.2,0,0.3
		c-0.1,0.1-0.1,0.2-0.3,0.3c-0.1,0.1-0.3,0.1-0.3,0.1c-0.1,0-0.1,0-0.1,0c0,0-0.1,0-0.1,0h-0.1c-0.1,0,0,0-0.1,0
		c-0.1-0.1-0.1-0.1-0.1-0.2c0-0.2,0.1-0.5,0.2-0.6c0.1-0.1-0.1-0.3-0.3-0.1c-0.2,0.3-0.5,0.8-0.2,1.2c0.2,0.3,0.6,0.3,1,0.2
		c0.3-0.1,0.7-0.3,0.8-0.6C60.9,50.7,60.6,50.3,60.3,50.1z"/>
	<path class="st4" d="M71.3,41.4c-0.1-0.1-0.2-0.1-0.2,0.1c0,0.2,0.1,0.5-0.1,0.6c-0.1,0.1-0.2,0.1-0.3,0.1c-0.1,0-0.2-0.1-0.3-0.2
		c0-0.2,0.2-0.4,0.3-0.6c0.1-0.1,0-0.1-0.1-0.1c-0.3,0.1-0.6,0.4-0.5,0.7c0,0.3,0.2,0.5,0.5,0.5c0.3,0.1,0.5,0,0.7-0.2
		C71.7,42,71.5,41.6,71.3,41.4z"/>
	<path class="st4" d="M57.8,50.9c-0.1-0.1-0.1-0.1-0.1-0.1l-0.1-0.1c-0.1-0.1-0.1-0.1-0.1,0c0,0.1,0,0.2,0.1,0.2
		c0.1,0.1,0.2,0.1,0.1,0.3c-0.1,0-0.3,0-0.4,0.1c-0.1-0.1,0.1-0.3,0-0.4c0-0.1-0.2-0.1-0.2,0c0,0.1-0.1,0.2-0.1,0.3
		c-0.1,0.1,0.1,0.3,0.1,0.3c0,0.1,0.1,0.1,0.1,0.1c0.2-0.1,0.4,0,0.6-0.1c0.1,0,0.1-0.1,0.1-0.1C58,51.3,58,51.1,57.8,50.9z"/>
	<path class="st4" d="M61.1,33.8c-0.6-1.4-1.2-2.6-1.7-4c-0.7-1.7-1.2-3.5-1.8-5.3c0.9-0.5,1.2-1.8,1.1-2.8c-0.1-0.5-0.2-1-0.5-1.4
		l-0.7-0.9l-0.6,0.1c-3,0.3-6,1.6-8.2,3.5l-0.6,0.5l0.1,0.9c0.3,1.7,1,3.1,3,2.9c0.3,1.8,0.7,3.5,1.2,5.3c0.5,1.8,1,3.5,1.6,5.3
		c-3.6,4.5-5.8,10.6-6,16.3c-0.1,2.3,0.5,4.9,2.4,6.4c2.5,2,5.7,0.5,8.2-0.7c3.7-1.4,7.1-3.5,10.3-6c3.3-2.6,6.7-6.2,7.3-10.5
		C77.5,35.4,67.8,34,61.1,33.8z M51.2,26.5c-1.5,0.1-2-1.2-2.3-2.6c1.4-1.3,3.1-2.2,5.2-2.9c1.2-0.3,2.3-0.5,3.4-0.6
		c0.1,0.3,0.3,0.7,0.4,1c0.3,1,0.1,1.6-0.5,2.3l-0.9-0.7c-1-0.2-2.3,0.4-3.1,0.7c-0.7,0.3-1.5,0.9-1.8,1.6L51.2,26.5z M75.2,43.9
		c-0.7,3.9-4.1,6.9-6.9,9.3c-3.5,2.9-7.5,4.9-11.5,6.7c-2.4,0.7-4.9,1.5-6.7-1c-1.3-1.8-1.2-4.5-0.9-6.6c0.5-4.8,2.6-9.4,5.3-13.4
		l0.5-0.9l-0.3-0.7c-0.5-1.4-1-2.7-1.4-4.1c-0.7-2.2-1.2-4.6-1.7-6.9c0.7-1,1.3-1.6,2.4-2c0.7-0.3,1.7-0.3,2.4-0.5
		c0.1,0.3,0.1,0.5,0.2,0.8c0,0.1,0,0.2,0.1,0.3c0.5,1.8,1.2,3.6,1.8,5.3c0.5,1.2,1,2.5,1.5,3.8l0.5,1.1l1,0.1c3,0.2,6,0.2,8.9,1.3
		C73.9,37.5,76,40.3,75.2,43.9z"/>
	<path class="st4" d="M57.8,14.2c-0.1-1.5-2.1-3.7-3.7-2.7c-0.1,0-0.1,0.1-0.1,0.1c-1.3,0.5-2.2,1.9-2.3,3.3c-0.1,1.8,2,2.9,3.5,2.6
		C56.8,17.2,57.9,15.7,57.8,14.2z M55.3,16.8c-1.5,0.5-3.1-0.7-3.1-2.2c0-1.3,1.2-2.3,2.3-2.9c0.5,0.1,1.1,0.1,1.6,0.5
		c0.5,0.4,0.9,1,1,1.6C57.5,15.3,56.4,16.5,55.3,16.8z"/>
	<path class="st4" d="M51.1,6.5C51,4.1,48.7,2.6,46.6,3c-0.1-0.1-0.1-0.1-0.2-0.1c-2.2,0.7-3.5,2.9-3.7,5.2
		c-0.1,2.4,2.2,3.9,4.5,3.5C49.7,11.1,51.2,9,51.1,6.5z M46.5,11.1c-2.2,0.1-3.4-1.6-3.1-3.7c0.3-1.5,1.2-2.8,2.4-3.7
		c2.4-0.7,4.7,0.8,4.6,3.5C50.4,9.3,48.6,11,46.5,11.1z"/>
	<path class="st4" d="M47.9,17.4c-0.3-0.3-0.7-0.4-1-0.3c-0.6,0.1-0.9,0.5-1.1,1c0,0.1,0,0.1,0.1,0.1c-0.1,0.3-0.1,0.7,0.1,1.2
		c0.4,0.7,1.5,0.7,2,0.1S48.5,17.9,47.9,17.4z M47.6,19.1c-0.3,0.4-1.2,0.5-1.4-0.1c-0.1-0.4,0-1,0.3-1.3c0.3-0.3,0.7-0.4,1.1-0.1
		C47.9,18.1,47.9,18.8,47.6,19.1z"/>
	<path class="st4" d="M63.5,6.9c-0.1-0.5-0.7-0.7-1.2-0.7c-0.1,0-0.1-0.1-0.1,0c0,0,0,0-0.1,0H62c-0.1,0-0.1,0.1-0.1,0.1
		c-0.2,0.1-0.3,0.3-0.4,0.5c-0.1,0.3-0.1,0.5,0,0.8c0.2,0.5,0.7,0.9,1.2,0.7C63.3,8.3,63.7,7.5,63.5,6.9z M62.5,7.9
		C62.3,8,62.1,7.7,62,7.5c-0.1-0.3,0-0.7,0.2-0.9c0.3,0,0.7,0.1,0.8,0.4C63.1,7.3,62.8,7.8,62.5,7.9z"/>
	<path class="st4" d="M61.1,33.8c-0.6-1.4-1.2-2.6-1.7-4c-0.7-1.7-1.2-3.5-1.8-5.3c0.9-0.5,1.2-1.8,1.1-2.8c-0.1-0.5-0.2-1-0.5-1.4
		l-0.7-0.9l-0.6,0.1c-3,0.3-6,1.6-8.2,3.5l-0.6,0.5l0.1,0.9c0.3,1.7,1,3.1,3,2.9c0.3,1.8,0.7,3.5,1.2,5.3c0.5,1.8,1,3.5,1.6,5.3
		c-3.6,4.5-5.8,10.6-6,16.3c-0.1,2.3,0.5,4.9,2.4,6.4c2.5,2,5.7,0.5,8.2-0.7c3.7-1.4,7.1-3.5,10.3-6c3.3-2.6,6.7-6.2,7.3-10.5
		C77.5,35.4,67.8,34,61.1,33.8z M51.2,26.5c-1.5,0.1-2-1.2-2.3-2.6c1.4-1.3,3.1-2.2,5.2-2.9c1.2-0.3,2.3-0.5,3.4-0.6
		c0.1,0.3,0.3,0.7,0.4,1c0.3,1,0.1,1.6-0.5,2.3l-0.9-0.7c-1-0.2-2.3,0.4-3.1,0.7c-0.7,0.3-1.5,0.9-1.8,1.6L51.2,26.5z M75.2,43.9
		c-0.7,3.9-4.1,6.9-6.9,9.3c-3.5,2.9-7.5,4.9-11.5,6.7c-2.4,0.7-4.9,1.5-6.7-1c-1.3-1.8-1.2-4.5-0.9-6.6c0.5-4.8,2.6-9.4,5.3-13.4
		l0.5-0.9l-0.3-0.7c-0.5-1.4-1-2.7-1.4-4.1c-0.7-2.2-1.2-4.6-1.7-6.9c0.7-1,1.3-1.6,2.4-2c0.7-0.3,1.7-0.3,2.4-0.5
		c0.1,0.3,0.1,0.5,0.2,0.8c0,0.1,0,0.2,0.1,0.3c0.5,1.8,1.2,3.6,1.8,5.3c0.5,1.2,1,2.5,1.5,3.8l0.5,1.1l1,0.1c3,0.2,6,0.2,8.9,1.3
		C73.9,37.5,76,40.3,75.2,43.9z"/>
	<path class="st4" d="M57.8,14.2c-0.1-1.5-2.1-3.7-3.7-2.7c-0.1,0-0.1,0.1-0.1,0.1c-1.3,0.5-2.2,1.9-2.3,3.3c-0.1,1.8,2,2.9,3.5,2.6
		C56.8,17.2,57.9,15.7,57.8,14.2z M55.3,16.8c-1.5,0.5-3.1-0.7-3.1-2.2c0-1.3,1.2-2.3,2.3-2.9c0.5,0.1,1.1,0.1,1.6,0.5
		c0.5,0.4,0.9,1,1,1.6C57.5,15.3,56.4,16.5,55.3,16.8z"/>
	<path class="st4" d="M51.1,6.5C51,4.1,48.7,2.6,46.6,3c-0.1-0.1-0.1-0.1-0.2-0.1c-2.2,0.7-3.5,2.9-3.7,5.2
		c-0.1,2.4,2.2,3.9,4.5,3.5C49.7,11.1,51.2,9,51.1,6.5z M46.5,11.1c-2.2,0.1-3.4-1.6-3.1-3.7c0.3-1.5,1.2-2.8,2.4-3.7
		c2.4-0.7,4.7,0.8,4.6,3.5C50.4,9.3,48.6,11,46.5,11.1z"/>
	<path class="st4" d="M47.9,17.4c-0.3-0.3-0.7-0.4-1-0.3c-0.6,0.1-0.9,0.5-1.1,1c0,0.1,0,0.1,0.1,0.1c-0.1,0.3-0.1,0.7,0.1,1.2
		c0.4,0.7,1.5,0.7,2,0.1S48.5,17.9,47.9,17.4z M47.6,19.1c-0.3,0.4-1.2,0.5-1.4-0.1c-0.1-0.4,0-1,0.3-1.3c0.3-0.3,0.7-0.4,1.1-0.1
		C47.9,18.1,47.9,18.8,47.6,19.1z"/>
	<path class="st4" d="M63.5,6.9c-0.1-0.5-0.7-0.7-1.2-0.7c-0.1,0-0.1-0.1-0.1,0c0,0,0,0-0.1,0H62c-0.1,0-0.1,0.1-0.1,0.1
		c-0.2,0.1-0.3,0.3-0.4,0.5c-0.1,0.3-0.1,0.5,0,0.8c0.2,0.5,0.7,0.9,1.2,0.7C63.3,8.3,63.7,7.5,63.5,6.9z M62.5,7.9
		C62.3,8,62.1,7.7,62,7.5c-0.1-0.3,0-0.7,0.2-0.9c0.3,0,0.7,0.1,0.8,0.4C63.1,7.3,62.8,7.8,62.5,7.9z"/>
</g>
<g>
	<g>
		<path class="st5" d="M58.5,121.5c-4-2.5-7.9-5-11.9-7.6c-4-2.5-7.9-5.1-11.9-7.7c-2.1-1.4-4.3-2.7-6.4-4.1c1.9,1.7,3.7,3.4,5.7,5
			c3.5,2.9,7,5.8,10.4,8.8c3.8,3.2,7.5,6.5,11.4,9.7c3.3,2.7,6.3,5.7,9.5,8.4l0.2-0.1l0.1,0.4c0.1,0.1,0.1,0.2,0.1,0.3l0.1,0.4
			c0.6,2.7,0.8,5.6,1.1,8.4c0.1,1.2,0.2,2.3,0.4,3.5c0.7-2.5,1.4-5,2-7.5c0.7-3.1,1.3-6.3,1.8-9.5l0.1-0.8l0,0
			C67,126.3,62.6,124,58.5,121.5z"/>
		<path class="st3" d="M64.8,135.6c-1.6,1.1-3.3,2.2-4.9,3.4c-0.4,0.3-0.8,0.6-1.1,0.9c1,0.9,1.9,1.9,2.9,2.9c1.5,1.5,3,3.1,4.5,4.6
			c-0.1-0.8-0.1-1.7-0.2-2.5C65.7,141.8,65.3,138.7,64.8,135.6z"/>
		<path class="st1" d="M37.4,102.7c-4-1.1-8.1-2.2-11.9-3.8c0.4,0.3,0.7,0.5,1.1,0.8c0.1,0.1,0.3,0.2,0.4,0.3c3.1,1.8,6,3.9,8.9,5.8
			c4,2.5,7.9,5.1,11.9,7.6s7.9,5.1,11.9,7.5c3.9,2.4,8,4.4,11.7,7.1l1-0.9c2-1.7,4.2-3.2,6.3-4.5s4.2-2.6,6.3-3.8
			c0.2-0.1,0.4-0.2,0.6-0.4c-10-2.9-19.9-6.1-29.6-9.5C49.8,106.8,43.7,104.5,37.4,102.7z"/>
		<path class="st1" d="M54.5,125.8c-3.8-3.2-7.6-6.4-11.4-9.7c-3.6-3.1-7.3-6.1-11-9.3c-2.2-1.9-4.5-3.9-6.6-6.1
			c3.9,8.3,7.4,16.8,10.8,25.4c2.1,5.4,4.3,10.9,6.9,16.2c1,2,2.1,4,3.2,5.9c1.5-1.2,3-2.4,4.5-3.6c2-1.6,4.1-3.4,6.2-5.1l0.7-0.5
			c2.1-1.6,4.2-3.2,6.4-4.5C61.1,131.6,57.9,128.6,54.5,125.8z"/>
		<path class="st3" d="M78.7,120.4c-2.7,0.8-5.6,1.8-8.4,1.6c-2.9-0.2-5.8-1.8-8.5-2.8c-6.4-2.4-12.6-5.4-18.6-8.7
			c-0.7-0.4-1.4-0.8-2.1-1.2c2.2,1.4,4.4,2.8,6.6,4.3c4,2.5,7.9,5.1,11.9,7.5c3.9,2.4,8,4.4,11.7,7.1l1-0.9c2-1.7,4.2-3.2,6.3-4.5
			s4.2-2.6,6.3-3.8c0.2-0.1,0.4-0.2,0.6-0.4h-0.1C83.2,119.1,81,119.7,78.7,120.4z"/>
		<path class="st3" d="M51,140.3c-1.8,0.2-2.6-0.7-3.8-2.1c-1.6-2-3.1-4.2-4.6-6.4c-3.2-4.6-6.5-9.2-9.5-13.9
			c1.1,2.7,2.2,5.5,3.3,8.2c2.1,5.4,4.3,10.9,6.9,16.2c1,2,2.1,4,3.2,5.9c1.5-1.2,3-2.4,4.5-3.6c2-1.6,4.1-3.4,6.2-5.1l0.7-0.5
			c0.8-0.6,1.5-1.2,2.3-1.7C57.3,138.7,54.2,140,51,140.3z"/>
	</g>
	<g>
		<path class="st4" d="M87,117.5c-9.7-3-19.6-5.7-29.2-9c-6.3-2.1-12.4-4.6-18.8-6.4c-5-1.4-10.1-2.6-15-4.7L23,97l0.4,0.8
			c0,0.1-0.1,0.1,0,0.2c0.1,0.1,0.1,0.2,0.2,0.3c0,0.1,0.1,0.1,0.1,0.2v0.1c4.3,9.6,8.3,19.3,12.2,29.2c2,5.1,4.1,10.2,6.5,15.1
			c1,2,2,4.1,3.2,6.1l0.6,1l0.9-0.8c1.2-1,2.4-1.9,3.5-2.9c2.5-2,4.9-4,7.5-5.9c1.2,1.1,2.3,2.3,3.5,3.5c1.6,1.7,3.2,3.5,4.8,5.2
			l0.8,0.9l0.4-1.2c2.1-6.5,3.8-13.3,4.7-20.1c2.3-2.1,4.8-3.9,7.5-5.7c2.3-1.4,4.9-2.7,7.3-4.2l1.3-0.9L87,117.5z M57.9,139
			l-0.7,0.5c-2.1,1.7-4.2,3.4-6.2,5.1c-1.5,1.2-3,2.4-4.5,3.6c-1.1-1.9-2.2-3.9-3.2-5.9c-2.6-5.3-4.8-10.7-6.9-16.2
			c-3.4-8.6-6.9-17.1-10.8-25.4c2,2.2,4.3,4.2,6.6,6.1c3.6,3.1,7.3,6.1,11,9.3c3.8,3.2,7.5,6.5,11.4,9.7c3.4,2.8,6.6,5.9,9.9,8.8
			C62.2,135.9,60,137.4,57.9,139z M61.7,142.8c-0.9-1-1.9-2-2.9-2.9c0.4-0.3,0.8-0.6,1.1-0.9c1.6-1.2,3.2-2.3,4.9-3.4
			c0.5,3.1,0.9,6.1,1.1,9.3c0.1,0.8,0.1,1.7,0.2,2.5C64.7,145.9,63.2,144.3,61.7,142.8z M71,129.8c-0.5,3.2-1.1,6.3-1.8,9.5
			c-0.6,2.5-1.3,5-2,7.5c-0.1-1.2-0.3-2.3-0.4-3.5c-0.2-2.7-0.5-5.6-1.1-8.4l-0.1-0.4c0-0.1,0-0.2-0.1-0.3l-0.1-0.4l-0.2,0.1
			c-3.2-2.8-6.2-5.7-9.5-8.4c-3.8-3.1-7.6-6.4-11.4-9.7c-3.4-3-6.9-5.9-10.4-8.8c-1.9-1.6-3.8-3.3-5.7-5c2.1,1.4,4.3,2.8,6.4,4.1
			c3.9,2.6,7.9,5.1,11.9,7.7c4,2.5,7.9,5.1,11.9,7.6c4.2,2.6,8.5,4.9,12.6,7.6l0,0L71,129.8z M85,118.8c-2.1,1.3-4.2,2.5-6.3,3.8
			c-2.1,1.4-4.4,2.8-6.3,4.5l-1,0.9c-3.7-2.7-7.8-4.7-11.7-7.1c-4-2.5-8-5-11.9-7.5c-4-2.5-7.9-5.1-11.9-7.6c-3-1.9-5.9-4-8.9-5.8
			c-0.1-0.1-0.3-0.2-0.4-0.3c-0.4-0.3-0.7-0.6-1.1-0.8c3.8,1.6,7.9,2.7,11.9,3.8c6.3,1.7,12.4,4,18.6,6.2c9.7,3.4,19.7,6.6,29.6,9.5
			C85.4,118.6,85.2,118.7,85,118.8z"/>
	</g>
</g>
<g>
	<g>
		<g>
			<path class="st6" d="M29.9,55.7c-1.3,1.9-3.3,2.9-5.5,3.3c-0.3-0.5-0.5-1.1-0.8-1.6c2.3-0.4,4.5-1.3,5.9-2.7
				C29.6,55,29.8,55.4,29.9,55.7z"/>
			<path class="st0" d="M30.2,56.4c1.2,3.1,2.3,6.2,3.2,9.4c2.2,8.2,2.5,16.5,1.4,24.8c-0.3,0.1-0.5,0.2-0.9,0.2
				c-1,0-1.7-0.6-2.2-1.3c0-5.9-0.9-11.8-2.4-17.4c-1.2-4.2-2.6-8.3-4.5-12.2C26.9,59.3,28.9,58.1,30.2,56.4z"/>
			<path class="st2" d="M24.8,59.9c1.7-0.5,3.3-1.3,4.5-2.4c-0.5,1.4-0.9,2.8-0.6,4.2c0.4,2.6,1.5,5.2,2.2,7.8
				c0.9,3.5,1.5,6.9,1.5,10.5c0.1,2.8-0.1,8.2,2.1,10.7c-0.2,0.1-0.4,0.1-0.6,0.1c-1,0-1.7-0.6-2.2-1.3c0-5.9-0.9-11.8-2.4-17.4
				C28.1,67.9,26.6,63.8,24.8,59.9z"/>
			<path class="st7" d="M18.4,35.1c1.4,1.1,2.7,2.3,3.4,3.9c-1.5-0.4-2.8-1.2-4.3-1.6c-0.2,0-0.3,0.2-0.2,0.3
				c0.9,0.8,1.8,1.6,2.4,2.6c0.3,0.6,0.7,1.1,0.8,1.8c0.4,1.3,0.3,1.6-0.5,1c-1.6-0.9-2.5-2.4-3.6-3.9c-0.2-0.3-0.7-0.1-0.6,0.3
				c0.1,0.5,0.9,4.6-0.9,3.6c-0.9-0.5-1.5-1.4-2.1-2.3c-0.1-0.6-0.3-1.1-0.7-1.6c-1.1-1.8-2.9-2.8-4.8-3.4
				C11.1,34.8,14.9,34.2,18.4,35.1z"/>
			<path class="st3" d="M23.2,50.2c1.2-0.6,2.2-1.4,2.9-2.5c1.4,1.9,2.3,4.2,3.2,6.3c-1.5,1.5-3.7,2.3-6,2.7c-1-2-2.1-4.1-3.4-6
				C21,50.8,22.1,50.6,23.2,50.2z"/>
			<path class="st1" d="M15.8,43.8c1.2-0.2,1.3-1.7,1.1-3c1,1.4,2.1,2.7,3.8,3.1c0.1,0,0.2,0,0.3-0.1c0.5-0.6-0.1-2.1-0.3-2.8
				c-0.4-1.1-1.3-2-2.1-2.8c1.2,0.6,2.4,1.3,3.8,1.5c0.2,0,0.5-0.2,0.4-0.4c-0.5-1.6-1.5-2.8-2.8-3.8c0.2,0.1,0.5,0.2,0.7,0.3
				c2.1,0.9,4.2,2.3,5.2,4.4c1.2,2.4,0.8,4.9-0.5,7.1c0.3-1,0.3-2.2,0.2-3.1c0-0.3-0.4-0.2-0.4,0.1c-0.1,1.7-0.2,3.3-1.3,4.7
				c-0.1,0.1-0.2,0.1-0.2,0.1c0.2-0.5,0.2-1.2,0.2-1.7c0-0.2-0.3-0.2-0.3,0c0,0.7-0.1,1.3-0.4,1.9c-0.2,0.1-0.4,0.1-0.5,0.2
				c-0.1,0-0.1,0-0.1,0c-2.3-0.5-3.9-1.9-5.9-3.1c-0.2-0.1-0.4,0.2-0.3,0.3c1.1,1.2,3,2.6,4.8,3c-0.5,0-1,0-1.5,0
				c-2.6-0.6-5.5-1.8-6-4.5c-0.2-1-0.2-2-0.3-3C13.9,43.2,14.8,44,15.8,43.8z"/>
			<path class="st1" d="M23.7,47.4c0-0.1-0.1-0.2-0.2-0.1c0.2-0.6,0.3-1.3,0.3-1.9c0.4,0.6,0.7,1.3,0.8,2.1c-0.2,0.5-0.4,1-0.8,1.5
				c-0.1,0.1-0.2,0.1-0.2,0.1C23.7,48.5,23.8,47.8,23.7,47.4z"/>
			<path class="st3" d="M15.4,43.9c0.9,1.5,2.1,2.7,3.8,3.6c0.4,0.2,0.6-0.3,0.3-0.5c-0.4-0.3-0.7-0.7-0.8-1.2
				c1.5,0.5,2.9,1.4,4.4,1.9c0.1,0,0.2,0,0.3-0.1c0,0.6-0.1,1.2-0.4,1.8c-0.2,0.1-0.4,0.1-0.5,0.2c-0.1,0-0.1,0-0.1,0
				c-2.3-0.5-3.9-1.9-5.9-3.1c-0.2-0.1-0.4,0.2-0.3,0.3c1.1,1.2,3,2.6,4.8,3c-0.5,0-1,0-1.5,0c-2.6-0.6-5.5-1.8-6-4.5
				c-0.2-1-0.2-2-0.3-3C13.8,43.1,14.6,43.8,15.4,43.9z"/>
		</g>
		<path class="st1" d="M25.4,49.7c1.2,1.2,3,3,2.3,4.8c-0.1,0.3-0.5,0.2-0.7,0.1c-0.7-0.6-0.9-1.4-1.2-2.2c-0.4-0.8-0.6-1.6-0.9-2.4
			C24.7,49.7,25.2,49.5,25.4,49.7z"/>
		<g>
			<path class="st4" d="M5.1,35.9l1.1,0.3c3.4,1,6.3,2.8,6.3,7c0,1.8,0.1,3.6,1.6,4.9c1.4,1.2,2.9,1.9,4.6,2.2l0.2,0.4
				c1.2,2.1,2.4,4.1,3.5,6.2l0.4,0.7c0.3,0.5,0.6,1.1,0.8,1.6L24,60c1.8,4,3.3,8,4.5,12.3c1.4,5.1,2.2,10.3,2.4,15.5l0.1,2.2
				l0.7,0.7c0.6,0.5,1.2,0.8,1.9,0.8c0.4,0,0.7,0,1.1-0.2l0.8-0.4l0.2-1.1c1.5-8.2,0.6-17.1-1.7-25c-0.9-3.2-2-6.3-3.2-9.4l-0.3-0.7
				c-0.1-0.3-0.2-0.6-0.3-0.8l-0.3-0.7c0-0.1-0.1-0.2-0.1-0.3c-0.9-2-1.8-4.2-3.3-5.9l-0.1-0.1c1.1-1.6,1.5-3.7,0.9-5.7
				c-0.7-2.5-2.7-4.5-5-5.7c-5.1-2.6-10.8-2-16-0.2L5.1,35.9z M24.8,59.9c2.2-0.6,4.1-1.7,5.4-3.4c1.2,3.1,2.3,6.2,3.2,9.4
				c2.2,8.2,2.5,16.5,1.4,24.8c-0.3,0.1-0.5,0.2-0.9,0.2c-1,0-1.7-0.6-2.2-1.3c0-5.9-0.9-11.8-2.4-17.4
				C28.1,67.9,26.6,63.8,24.8,59.9z M23.6,57.4c2.3-0.4,4.5-1.3,5.9-2.7c0.1,0.3,0.3,0.7,0.4,1c-1.3,1.9-3.3,2.9-5.5,3.3
				C24.1,58.5,23.9,57.9,23.6,57.4z M19.9,50.8c1.1,0.1,2.3-0.1,3.3-0.6c1.2-0.6,2.2-1.4,2.9-2.5c1.4,1.9,2.3,4.2,3.2,6.3
				c-1.5,1.5-3.7,2.3-6,2.7C22.2,54.7,21.1,52.7,19.9,50.8z M13.2,42.3c0.7,1,1.6,1.8,2.6,1.6c1.2-0.2,1.3-1.7,1.1-3
				c1,1.4,2.1,2.7,3.8,3.1c0.1,0,0.2,0,0.3-0.1c0.5-0.6-0.1-2.1-0.3-2.8c-0.4-1.1-1.3-2-2.1-2.8c1.2,0.6,2.4,1.3,3.8,1.5
				c0.2,0,0.5-0.2,0.4-0.4c-0.5-1.6-1.5-2.8-2.8-3.8c0.2,0.1,0.5,0.2,0.7,0.3c2.1,0.9,4.2,2.3,5.2,4.4c1.2,2.4,0.8,4.9-0.5,7.1
				c0.3-1,0.3-2.2,0.2-3.1c0-0.3-0.4-0.2-0.4,0.1c-0.1,1.7-0.2,3.3-1.3,4.7c-0.1,0.1-0.2,0.1-0.2,0.1c0.2-0.5,0.2-1.2,0.2-1.7
				c0-0.2-0.3-0.2-0.3,0c0,0.7-0.1,1.3-0.4,1.9c-0.2,0.1-0.4,0.1-0.5,0.2c-0.1,0-0.1,0-0.1,0c-2.3-0.5-3.9-1.9-5.9-3.1
				c-0.2-0.1-0.4,0.2-0.3,0.3c1.1,1.2,3,2.6,4.8,3c-0.5,0-1,0-1.5,0c-2.6-0.6-5.5-1.8-6-4.5C13.3,44.3,13.3,43.3,13.2,42.3z
				 M7.5,35.8c3.6-1,7.4-1.6,10.9-0.7c1.4,1.1,2.7,2.3,3.4,3.9c-1.5-0.4-2.8-1.2-4.3-1.6c-0.2,0-0.3,0.2-0.2,0.3
				c0.9,0.8,1.8,1.6,2.4,2.6c0.3,0.6,0.7,1.1,0.8,1.8c0.4,1.3,0.3,1.6-0.5,1c-1.6-0.9-2.5-2.4-3.6-3.9c-0.2-0.3-0.7-0.1-0.6,0.3
				c0.1,0.5,0.9,4.6-0.9,3.6c-0.9-0.5-1.5-1.4-2.1-2.3c-0.1-0.6-0.3-1.1-0.7-1.6C11.2,37.4,9.5,36.4,7.5,35.8z"/>
		</g>
	</g>
	<g>
		<g>
			<path class="st8" d="M43.4,84.7c-0.7-0.4-1.5-0.6-2.3-0.5c-1.1,0.3-2,1-2.4,2.1c-0.8,2.1,0,3.4,1.7,4.4c1,0.1,2,0,2.9-0.5
				C45.6,88.8,45,86.4,43.4,84.7z"/>
			<path class="st9" d="M39.1,84.7c-1.9,0.9-3.1,2.8-1.4,4.7c0.1,0.1,0.2,0.2,0.3,0.3C37.4,88.2,37.9,86,39.1,84.7z"/>
			<path class="st6" d="M70.2,63.9c1.8,0.7,4.4,0.4,5.4-1.4c0,0,0-0.1,0-0.1c-0.8-2.1-2.3-3.4-4.6-3.7c-0.9-0.1-2-0.2-2.9,0.3
				c0,0-0.1,0-0.1,0.1C67.1,60.9,68.2,63.1,70.2,63.9z"/>
			<path class="st9" d="M70.5,58.1c2.1,0.1,4.6,1.2,5.5,3.2c0-0.7-0.3-1.5-0.8-2.1c-1.1-1.3-2.5-1.7-4.1-1.9c-0.8,0.1-1.6,0.4-2.2,1
				C69.3,58.1,69.9,58.1,70.5,58.1z"/>
			<path class="st1" d="M60.1,74.8c-1.2,0.5-2.2,1.5-2.3,2.9c0,1,0.2,1.9,0.8,2.7c0.5,0.5,1.1,0.9,1.5,1.4c1.7,0.4,3.5,0,4.7-1.4
				c1-1.2,1.1-2.5,0.7-3.7C64.5,74.9,62.3,73.8,60.1,74.8z"/>
			<path class="st0" d="M48.6,73.6c-0.3-1.7-2.2-2.6-4-2.8c-2.8-0.2-4.6,0.7-5.3,3.4c0.3,0.7,0.7,1.4,1.5,1.9
				c1.9,1.3,4.9,1.4,6.7-0.3C48.1,75.2,48.5,74.4,48.6,73.6z"/>
			<path class="st10" d="M54.2,60.2c-1,0.4-1.9,1.3-1.9,2.4c-0.1,1.2,0.4,2.1,1.1,3.1c1.7,1,4.3,1.2,5.8-0.2c1-0.9,1.3-2.3,0.7-3.6
				c-0.1-0.2-0.2-0.3-0.2-0.4C58.2,60.1,56,59.4,54.2,60.2z"/>
			<path class="st9" d="M53.6,59.6c1.2-0.5,2.5-0.6,3.7-0.3c-0.2-0.1-0.4-0.2-0.6-0.3c-1.3-0.3-2.6-0.1-3.7,0.7
				c-1.2,0.9-1.7,2.3-1.4,3.6C51.5,61.8,52.1,60.3,53.6,59.6z"/>
			<path class="st9" d="M47.7,71c-0.8-0.9-1.9-1.2-3.2-1.6c0,0,0,0,0,0c-1.3-0.1-2.6,0.1-3.6,0.7c-0.7,0.4-1.2,1-1.4,1.6
				C41,69.7,45.3,69.5,47.7,71z"/>
			<path class="st9" d="M52.5,101.4c2.2-0.8,4.8-0.3,6.3,1.4c-0.3-0.7-0.8-1.4-1.3-2c-1.5-1-3.5-1.1-5.1-0.3
				c-1.6,0.7-3.6,2.6-2.6,4.6c0,0.1,0.1,0.2,0.1,0.3C50,103.7,51.1,101.9,52.5,101.4z"/>
			<path class="st2" d="M66.6,94C66.7,94,66.7,94,66.6,94c0.8-2.3,2.7-4.1,4.7-5.3c2.4-1.5,4.7-3,7-4.7c2.6-2.7,4.9-5.7,6.4-9.1
				c0.1-0.3,0.2-0.6,0.4-0.9c-1,2.2-2.4,4.2-4,5.9c-1.8,2-3.9,3.7-6.2,5.2c-2.2,1.4-4.4,2.6-6.3,4.4c-0.1,0.1-0.3-0.1-0.2-0.2
				c1.3-2,3.5-3.1,5.5-4.4c2-1.3,4.1-2.8,5.8-4.5C82.9,77,86,72,86.4,67.1c0-4.9-2.1-9.5-6.9-12.2c-6.5-3.8-14.9-4.3-22.2-3.3
				c-7.8,1-15.3,3.9-20.4,10.1c-6.5,7.9-8.7,18.7-6.7,28.6c1.4,7.1,5.7,13.8,10.9,18.8c5.2,5,12.8,9.4,20,5.8c4.4-2.2,5.2-6.4,5-11
				C65.9,100.4,65.6,97.2,66.6,94z M52.2,59.3c1-0.8,2.2-1.2,3.3-1.2c0,0,0.1,0,0.1,0c0.3,0,0.7,0.1,1,0.2c0.2,0.1,0.4,0.1,0.7,0.2
				c2.8,1.1,5,4.3,2.8,7.1c-1.7,2.2-5.7,2.3-7.7,0.5C50.5,64.3,49.8,61.2,52.2,59.3z M39.8,69.8c1.8-1.2,4.2-1.6,6.2-0.8
				c2.8,0.5,4.7,4.1,2.8,6.6C47,78,43,78.7,40.6,77C38.3,75.3,37.1,71.7,39.8,69.8z M44.1,90.6c-0.8,0.5-1.9,0.9-3,1
				c0,0-0.1,0.1-0.2,0c-0.1,0-0.2,0-0.3,0c-1.4,0-2.7-0.5-3.5-1.6c-4-5.2,6-9.5,7.7-4.6C46,87,46.2,89.3,44.1,90.6z M67.9,58.2
				c1.2-1.4,3.2-1.9,4.8-1.4c2.6,0.6,5.1,3,3.9,5.7c-1.1,2.4-4.4,3.4-6.8,2.3C67.3,63.6,65.8,60.5,67.9,58.2z M57.4,74.6
				c1.6-1.5,4.1-2.4,6.1-1.4c2.7,1,4.3,4.5,2.5,7.2c-1.6,2.4-5,3.4-7.5,1.6C56.1,80.3,55.1,76.9,57.4,74.6z M46.7,112.2
				c-3.5-1.9-6.3-5-8.6-8.1c-0.1-0.2,0.1-0.3,0.2-0.2c2.7,2.9,5.4,5.7,8.6,8.1C47.1,112.1,46.9,112.3,46.7,112.2z M49.4,105.9
				c-2.3-4.6,4-8,7.7-5.9c0,0,0.1,0,0.1,0c2.8,1.7,3.7,5.8,0.5,7.6C55.1,109.2,51,109,49.4,105.9z M48.5,113.4
				c-0.2-0.1,0-0.4,0.2-0.3c5.7,3.2,15.6,2.3,16.3-5.8c0.4-5-1-9.8,1.2-14.6c0.1-0.2,0.5-0.1,0.4,0.1c-1.4,3.4-1,6.9-0.8,10.4
				c0.2,2.8,0.3,5.9-1.4,8.3C60.9,116.2,52.8,117.2,48.5,113.4z"/>
			<path class="st8" d="M66.1,103.8c-0.2-3.4-0.4-6.6,0.6-9.8c0,0,0,0,0.1,0c0.7-2.3,2.6-4.1,4.6-5.4c2.4-1.5,4.7-3,7-4.7
				c2.6-2.7,4.9-5.7,6.4-9.1c0.1-0.3,0.2-0.6,0.4-0.9c-1,2.2-2.4,4.2-4,5.9c-1.8,2-3.9,3.7-6.2,5.2c-2.2,1.4-4.4,2.6-6.3,4.4
				c-0.1,0.1-0.3-0.1-0.2-0.2c0,0,0,0,0,0c-1.4,1.2-2.7,2.6-3.2,4.4c-0.6,2.2-0.6,4.5-0.7,6.7c-0.1,3.1-0.5,6.6-2.5,9.1
				c-4.3,5.5-11,3.1-15.6-0.8c-3.3-2.8-7-5.3-9.6-8.7c-2.2-2.9-3.8-6.3-4.9-9.7c-1.1-3.5-1.1-7.1-1.6-10.7c-0.1-0.8-0.3-1.7-0.4-2.5
				c-0.7,4.3-0.7,8.8,0.2,13.1c1.4,7.1,5.7,13.8,10.9,18.8c5.2,5,12.8,9.4,20,5.8C65.5,112.5,66.3,108.4,66.1,103.8z M46.7,112.2
				c-3.5-1.9-6.3-5-8.6-8.1c-0.1-0.2,0.1-0.3,0.2-0.2c2.7,2.9,5.4,5.7,8.6,8.1C47.1,112.1,46.9,112.3,46.7,112.2z M48.5,113.4
				c-0.2-0.1,0-0.4,0.2-0.3c5.7,3.2,15.6,2.3,16.3-5.8c0.4-5-1-9.8,1.2-14.6c0.1-0.2,0.5-0.1,0.4,0.1c-1.4,3.4-1,6.9-0.8,10.4
				c0.2,2.8,0.3,5.9-1.4,8.3C60.9,116.2,52.8,117.2,48.5,113.4z"/>
			<path class="st9" d="M57.6,80.1c-0.3-0.7-0.5-1.5-0.4-2.1c0.2-1.5,1-2.9,2.4-3.5c1.2-0.6,2.6-0.7,3.8-0.3
				c-0.2-0.2-0.5-0.3-0.7-0.4c-1.5-0.4-3.1-0.1-4.3,1.1C56.7,76.2,56.4,78.4,57.6,80.1z"/>
			<path class="st11" d="M59,104.3c0-0.2,0-0.4,0-0.6c-1.3-1.5-3.7-2.4-5.7-1.8c-2.3,0.7-2.8,2.7-2.2,4.8c1.5,1.2,3.7,1.4,5.5,0.5
				C57.8,106.6,58.9,105.7,59,104.3z"/>
		</g>
		<path class="st1" d="M79.9,74.4c2.1-3.7,3.3-7.7,2.5-12c0-0.1-0.2-0.1-0.2,0c0.2,2.2-1.2,4.2-2.2,6.1c-0.9,1.6-1.9,3.2-3,4.7
			c-1.4,2-3.2,3.8-5.1,5.4c-1.5,1.3-3.6,2.5-4.3,4.4c-0.2,0.5,0.2,1.2,0.8,1.2c2.3,0.1,4.6-1.9,6.3-3.4C76.8,79,78.5,76.8,79.9,74.4
			z"/>
		<path class="st1" d="M65.9,87.5c0.1-0.3,0-0.7-0.1-1.1c-0.2-0.7-0.6-1.1-1.2-1.4c-0.8-0.4-1.5,0.7-0.9,1.3c0,0,0,0,0.1,0.1
			c0,0,0.1,0.1,0.1,0.1c0,0,0,0.1,0,0.1c0,0,0,0.1,0.1,0.2c0,0.1,0.1,0.2,0.1,0.3c0.1,0.2,0.1,0.2,0.2,0.5c0.1,0.2,0.2,0.3,0.3,0.5
			c0.2,0.4,0.8,0.5,1.1,0.1C65.7,88,65.8,87.7,65.9,87.5z"/>
		<g>
			<path class="st4" d="M66.9,105.8c-0.1-4-0.4-7.7,0.5-11.5c1.3-3.1,3.5-4.6,6.5-6.3c2-1.1,3.8-2.3,5.3-4c0,0,0,0,0,0
				c2.7-2.8,5.1-5.9,6.7-9.4c3.4-7.3,1.8-15.7-5-20.3C74.5,50,65.6,49.5,58,50.3C49.7,51,42,54.2,36.3,60.5
				c-6.2,6.9-8.5,16.7-7.9,25.8c0.5,7.4,3.7,14,8.3,19.7c4.2,5.3,10.1,10.3,17.1,11.2c3.1,0.4,6.4-0.4,9.1-2.1
				C66.1,113,66.9,109.6,66.9,105.8z M61.1,114.8c-7.2,3.6-14.8-0.8-20-5.8c-5.2-5-9.5-11.6-10.9-18.8c-2-9.9,0.2-20.7,6.7-28.6
				c5.1-6.2,12.6-9.1,20.4-10.1c7.3-0.9,15.7-0.4,22.2,3.3c4.8,2.8,6.9,7.3,6.9,12.2C86,72,82.9,77,79.6,80.3
				c-1.7,1.8-3.8,3.2-5.8,4.5c-2,1.3-4.1,2.4-5.5,4.4c-0.1,0.2,0.1,0.4,0.2,0.2c1.9-1.8,4.2-3,6.3-4.4c2.3-1.5,4.4-3.2,6.2-5.2
				c1.5-1.7,2.9-3.7,4-5.9c-0.1,0.3-0.2,0.6-0.4,0.9c-1.5,3.4-3.8,6.4-6.4,9.1c-2.2,1.7-4.5,3.2-7,4.7c-2,1.2-3.9,3.1-4.6,5.4
				c0,0,0,0-0.1,0c-1,3.2-0.7,6.4-0.6,9.8C66.3,108.4,65.5,112.5,61.1,114.8z"/>
			<path class="st4" d="M57.3,100.1c0,0-0.1,0-0.1,0c-3.8-2.1-10,1.2-7.7,5.9c1.5,3.1,5.7,3.3,8.3,1.7
				C60.9,105.9,60,101.8,57.3,100.1z M49.8,105c-1-2,1-3.8,2.6-4.6c1.6-0.7,3.6-0.7,5.1,0.3c0.5,0.6,1,1.3,1.3,2
				c-1.5-1.7-4.1-2.2-6.3-1.4c-1.3,0.5-2.5,2.3-2.5,3.9C49.9,105.2,49.8,105.1,49.8,105z M56.7,107.2c-1.8,0.9-4,0.6-5.5-0.5
				c-0.7-2-0.1-4.1,2.2-4.8c2-0.6,4.3,0.3,5.7,1.8c0,0.2,0,0.4,0,0.6C58.9,105.7,57.8,106.6,56.7,107.2z"/>
			<path class="st4" d="M44.8,85.3c-1.7-4.8-11.7-0.5-7.7,4.6c0.8,1.1,2.2,1.6,3.5,1.6c0.1,0,0.2,0,0.3,0c0.1,0,0.1,0,0.2,0
				c1.1-0.1,2.1-0.4,3-1C46.2,89.3,46,87,44.8,85.3z M39.1,84.7c-1.2,1.3-1.7,3.5-1,5c-0.1-0.1-0.2-0.2-0.3-0.3
				C36,87.5,37.2,85.6,39.1,84.7z M43.2,90.2c-0.9,0.5-1.9,0.7-2.9,0.5c-1.6-1-2.5-2.4-1.7-4.4c0.4-1.1,1.4-1.8,2.4-2.1
				c0.8-0.1,1.6,0.1,2.3,0.5C45,86.4,45.6,88.8,43.2,90.2z"/>
			<path class="st4" d="M46,69c-2-0.9-4.4-0.5-6.2,0.8c-2.7,1.9-1.5,5.6,0.8,7.2c2.5,1.7,6.4,1,8.2-1.3C50.7,73.2,48.8,69.5,46,69z
				 M40.8,70.1c1.1-0.7,2.4-0.9,3.6-0.7c0,0,0,0,0,0c1.3,0.4,2.4,0.7,3.2,1.6c-2.3-1.5-6.7-1.2-8.3,0.8
				C39.6,71.1,40.1,70.5,40.8,70.1z M47.4,75.8c-1.8,1.6-4.8,1.5-6.7,0.3c-0.7-0.5-1.2-1.2-1.5-1.9c0.7-2.7,2.5-3.6,5.3-3.4
				c1.8,0.2,3.7,1.1,4,2.8C48.5,74.4,48.1,75.2,47.4,75.8z"/>
			<path class="st4" d="M63.5,73.2c-2-1-4.6-0.2-6.1,1.4c-2.3,2.3-1.3,5.7,1.1,7.5c2.4,1.7,5.9,0.7,7.5-1.6
				C67.8,77.7,66.2,74.2,63.5,73.2z M58.4,74.7c1.3-1.1,2.9-1.4,4.3-1.1c0.3,0.1,0.5,0.3,0.7,0.4c-1.2-0.3-2.6-0.2-3.8,0.3
				c-1.4,0.7-2.3,2-2.4,3.5c-0.1,0.7,0.1,1.4,0.4,2.1C56.4,78.4,56.7,76.2,58.4,74.7z M60.2,81.8c-0.5-0.5-1.1-0.9-1.5-1.4
				c-0.6-0.8-0.8-1.7-0.8-2.7c0.1-1.4,1.1-2.4,2.3-2.9c2.2-1,4.4,0.1,5.5,1.9c0.4,1.2,0.2,2.4-0.7,3.7
				C63.7,81.8,61.8,82.3,60.2,81.8z"/>
			<path class="st4" d="M57.3,58.5c-0.2-0.1-0.4-0.2-0.7-0.2c-0.3-0.1-0.7-0.1-1-0.2c-0.1,0-0.1,0-0.1,0c-1.2,0-2.3,0.4-3.3,1.2
				c-2.4,1.8-1.7,5,0.3,6.8c2,1.8,6,1.7,7.7-0.5C62.3,62.9,60.1,59.6,57.3,58.5z M52.9,59.8c1.1-0.8,2.5-1,3.7-0.7
				c0.2,0.1,0.4,0.2,0.6,0.3c-1.2-0.3-2.5-0.2-3.7,0.3c-1.5,0.7-2.2,2.2-2.1,3.7C51.3,62.1,51.8,60.7,52.9,59.8z M53.3,65.7
				c-0.6-0.9-1.1-1.8-1.1-3.1c0-1.2,0.9-2,1.9-2.4c1.8-0.8,4-0.1,5.4,1.3c0.1,0.1,0.2,0.3,0.2,0.4c0.6,1.3,0.3,2.6-0.7,3.6
				C57.6,66.9,55,66.7,53.3,65.7z"/>
			<path class="st4" d="M76.6,62.5c1.2-2.7-1.3-5.1-3.9-5.7c-1.7-0.5-3.6,0-4.8,1.4c-2.1,2.4-0.6,5.4,2,6.6
				C72.3,65.9,75.5,64.9,76.6,62.5z M71,57.3c1.6,0.2,3,0.6,4.1,1.9c0.5,0.6,0.8,1.4,0.8,2.1c-0.8-2-3.3-3.1-5.5-3.2
				c-0.6,0-1.2,0-1.7,0.2C69.4,57.7,70.2,57.4,71,57.3z M70.2,63.9c-2-0.8-3.1-3-2.1-4.8c0,0,0.1,0,0.1-0.1c0.8-0.5,1.9-0.4,2.9-0.3
				c2.3,0.3,3.8,1.6,4.6,3.7c0,0,0,0.1,0,0.1C74.6,64.4,72,64.6,70.2,63.9z"/>
			<path class="st4" d="M65.7,103.4c-0.2-3.6-0.6-7,0.8-10.4c0.1-0.2-0.3-0.4-0.4-0.1c-2.2,4.8-0.8,9.6-1.2,14.6
				c-0.7,8-10.6,9-16.3,5.8c-0.2-0.1-0.4,0.1-0.2,0.3c4.3,3.8,12.4,2.8,15.8-1.8C66,109.3,65.9,106.2,65.7,103.4z"/>
			<path class="st4" d="M46.9,112c-3.2-2.4-5.8-5.2-8.6-8.1c-0.1-0.1-0.4,0-0.2,0.2c2.4,3.1,5.2,6.2,8.6,8.1
				C46.9,112.3,47.1,112.1,46.9,112z"/>
		</g>
	</g>
</g>
</svg>
