<?xml version="1.0" encoding="utf-8"?>
<!-- Generator: Adobe Illustrator 16.0.0, SVG Export Plug-In . SVG Version: 6.00 Build 0)  -->
<!DOCTYPE svg PUBLIC "-//W3C//DTD SVG 1.1//EN" "http://www.w3.org/Graphics/SVG/1.1/DTD/svg11.dtd">
<svg version="1.1" xmlns="http://www.w3.org/2000/svg" xmlns:xlink="http://www.w3.org/1999/xlink" x="0px" y="0px" width="150px"
	 height="150px" viewBox="0 0 150 150" enable-background="new 0 0 150 150" xml:space="preserve">
<g id="圖層_2">
</g>
<g id="圖層_1">
	<g>
		<g>
			<polygon fill="#FFFFFF" points="74.342,20.183 34.047,54.684 34.047,54.527 5.209,54.527 5.209,67.238 5.209,82.758 
				5.209,95.471 34.047,95.471 34.047,95.314 74.342,129.817 84.844,129.817 84.844,82.758 84.844,67.238 84.844,20.183 			"/>
			<path fill="#FFFFFF" d="M84.844,135.027H74.342c-1.244,0-2.442-0.446-3.386-1.254l-38.65-33.093H5.209
				c-2.877,0-5.209-2.332-5.209-5.21V54.529c0-2.878,2.332-5.21,5.209-5.21h27.096l38.65-33.093
				c0.944-0.808,2.143-1.254,3.386-1.254h10.502c2.877,0,5.209,2.332,5.209,5.21v109.635
				C90.053,132.695,87.721,135.027,84.844,135.027z M76.268,124.607h3.365V25.393h-3.365l-38.83,33.249
				c-1.298,1.111-3.044,1.5-4.652,1.095H10.419v30.524h22.675c1.522-0.299,3.125,0.056,4.343,1.098L76.268,124.607z"/>
		</g>
		<path fill="#FFFFFF" d="M106.121,103.153c-1.289,0-2.584-0.476-3.592-1.437c-2.084-1.979-2.164-5.275-0.18-7.359
			c18.299-19.223,0.771-37.897,0.018-38.683c-1.994-2.071-1.93-5.373,0.145-7.367c2.072-1.99,5.369-1.929,7.363,0.146
			c8.789,9.138,20.1,31.998,0.02,53.092C108.871,102.61,107.498,103.153,106.121,103.153z"/>
		<path fill="#FFFFFF" d="M126.5,123.325c-1.293,0-2.584-0.479-3.594-1.435c-2.082-1.984-2.164-5.281-0.182-7.365
			c37.246-39.122,1.551-77.427,0.012-79.039c-1.982-2.079-1.912-5.376,0.162-7.362c2.072-1.988,5.361-1.924,7.355,0.148
			c0.447,0.464,44.193,47.033,0.016,93.437C129.248,122.784,127.875,123.325,126.5,123.325z"/>
	</g>
</g>
</svg>
