<?xml version="1.0" encoding="utf-8"?>
<!-- Generator: Adobe Illustrator 16.0.0, SVG Export Plug-In . SVG Version: 6.00 Build 0)  -->
<!DOCTYPE svg PUBLIC "-//W3C//DTD SVG 1.1//EN" "http://www.w3.org/Graphics/SVG/1.1/DTD/svg11.dtd">
<svg version="1.1" id="圖層_1" xmlns="http://www.w3.org/2000/svg" xmlns:xlink="http://www.w3.org/1999/xlink" x="0px" y="0px"
	 width="150px" height="150px" viewBox="0 0 150 150" enable-background="new 0 0 150 150" xml:space="preserve">
<g id="圖層_2">
</g>
<g id="圖層_1_1_">
	<g>
		<g>
			<polygon fill="#FFFFFF" points="74.342,20.184 34.047,54.685 34.047,54.527 5.209,54.527 5.209,67.238 5.209,82.758 
				5.209,95.471 34.047,95.471 34.047,95.314 74.342,129.816 84.845,129.816 84.845,82.758 84.845,67.238 84.845,20.184 			"/>
			<path fill="#FFFFFF" d="M84.845,135.027H74.342c-1.244,0-2.442-0.446-3.386-1.254l-38.65-33.094H5.209
				C2.333,100.68,0,98.348,0,95.47v-40.94c0-2.878,2.332-5.21,5.209-5.21h27.096l38.65-33.093c0.944-0.809,2.143-1.254,3.386-1.254
				h10.502c2.878,0,5.209,2.332,5.209,5.21v109.634C90.054,132.695,87.722,135.027,84.845,135.027z M76.269,124.607h3.365V25.394
				h-3.365l-38.83,33.249c-1.298,1.11-3.044,1.5-4.652,1.095H10.419v30.523h22.675c1.522-0.299,3.125,0.056,4.343,1.099
				L76.269,124.607z"/>
		</g>
		<path fill="#FFFFFF" d="M106.122,103.152c-1.289,0-2.584-0.476-3.592-1.437c-2.084-1.979-2.164-5.274-0.18-7.358
			c18.299-19.224,0.771-37.897,0.018-38.684c-1.994-2.07-1.93-5.373,0.145-7.366c2.072-1.99,5.369-1.93,7.363,0.146
			c8.789,9.138,20.1,31.998,0.02,53.092C108.872,102.609,107.499,103.152,106.122,103.152z"/>
		<path fill="#FFFFFF" d="M126.501,123.325c-1.293,0-2.584-0.479-3.594-1.435c-2.082-1.984-2.164-5.281-0.182-7.365
			c37.246-39.122,1.551-77.427,0.012-79.039c-1.982-2.079-1.912-5.376,0.162-7.362c2.072-1.988,5.36-1.924,7.354,0.148
			c0.447,0.464,44.192,47.033,0.017,93.437C129.249,122.784,127.876,123.325,126.501,123.325z"/>
	</g>
</g>
</svg>
