<?xml version="1.0" encoding="utf-8"?>
<!-- Generator: Adobe Illustrator 16.0.0, SVG Export Plug-In . SVG Version: 6.00 Build 0)  -->
<!DOCTYPE svg PUBLIC "-//W3C//DTD SVG 1.1//EN" "http://www.w3.org/Graphics/SVG/1.1/DTD/svg11.dtd">
<svg version="1.1" id="圖層_1" xmlns="http://www.w3.org/2000/svg" xmlns:xlink="http://www.w3.org/1999/xlink" x="0px" y="0px"
	 width="75px" height="75px" viewBox="0 0 75 75" enable-background="new 0 0 75 75" xml:space="preserve">
<g>
	<path fill="#EC7563" d="M72.5,76.534c-0.657,0-1.314-0.259-1.807-0.771l-70-73.066C-0.261,1.7-0.227,0.117,0.77-0.838
		c0.996-0.956,2.578-0.923,3.535,0.076l70,73.067c0.955,0.996,0.922,2.579-0.076,3.534C73.745,76.303,73.122,76.534,72.5,76.534z"/>
	<path fill="#EC7563" d="M2.5,76.534c-0.622,0-1.245-0.229-1.729-0.695c-0.997-0.955-1.031-2.538-0.076-3.534l70-73.067
		c0.955-0.998,2.539-1.03,3.535-0.076c0.996,0.955,1.031,2.538,0.076,3.535l-70,73.066C3.814,76.275,3.157,76.534,2.5,76.534z"/>
</g>
</svg>
