<?xml version="1.0" encoding="utf-8"?>
<!-- Generator: Adobe Illustrator 26.2.1, SVG Export Plug-In . SVG Version: 6.00 Build 0)  -->
<svg version="1.1" id="圖層_1" xmlns="http://www.w3.org/2000/svg" xmlns:xlink="http://www.w3.org/1999/xlink" x="0px" y="0px"
	 viewBox="0 0 75 75" style="enable-background:new 0 0 75 75;" xml:space="preserve">
<style type="text/css">
	.st0{fill:#EC7563;}
	.st1{fill:none;stroke:#C4AAFF;stroke-width:5;stroke-linecap:round;stroke-linejoin:round;stroke-miterlimit:10;}
	.st2{fill:none;stroke:#EC7563;stroke-width:5;stroke-linecap:round;stroke-linejoin:round;stroke-miterlimit:10;}
</style>
<g>
	<path class="st0" d="M-38.5,64.6c-20.7,0-37.5,16.2-37.5,36.2c0,9.2,3.5,17.8,9.9,24.5l-6.3,7.8c-0.6,0.8-0.7,1.9-0.2,2.8
		c0.4,0.8,1.3,1.3,2.2,1.3c0.1,0,0.2,0,0.3,0l19.2-2.2c4,1.3,8.1,2,12.4,2c5.3,0,10.4-1,15.2-3.1c1.3-0.5,1.9-2,1.3-3.3
		s-2-1.9-3.3-1.3c-4.2,1.8-8.6,2.7-13.2,2.7c-3.9,0-7.7-0.6-11.3-1.9c-0.4-0.2-0.9-0.2-1.3-0.1c-0.1,0-0.1,0-0.2,0l-13.3,1.5
		l3.9-4.8c0,0,0.1-0.1,0.1-0.1c0-0.1,0.1-0.1,0.1-0.2c0-0.1,0.1-0.1,0.1-0.2c0-0.1,0.1-0.2,0.1-0.2c0-0.1,0-0.2,0.1-0.2
		c0-0.1,0-0.2,0-0.2c0-0.1,0-0.2,0-0.2c0-0.1,0-0.2,0-0.2c0-0.1,0-0.2,0-0.2c0-0.1,0-0.2,0-0.2c0-0.1,0-0.1-0.1-0.2
		c0-0.1-0.1-0.2-0.1-0.2c0-0.1-0.1-0.1-0.1-0.2c0-0.1-0.1-0.1-0.1-0.2c-0.1-0.1-0.1-0.1-0.2-0.2c0,0-0.1-0.1-0.1-0.1
		c-6.5-5.9-10-13.9-10-22.5c0-17.2,14.6-31.2,32.5-31.2S-6,83.5-6,100.7c0,6.5-2.1,12.7-5.9,18c-0.8,1.1-0.6,2.7,0.5,3.5
		c1.1,0.8,2.7,0.6,3.5-0.5c4.5-6.1,6.9-13.4,6.9-20.9C-1,80.8-17.8,64.6-38.5,64.6z"/>
	<g>
		<path class="st0" d="M-21.9,92h-33.3c-1.4,0-2.5-1.1-2.5-2.5c0-1.4,1.1-2.5,2.5-2.5h33.3c1.4,0,2.5,1.1,2.5,2.5
			C-19.4,90.8-20.5,92-21.9,92z"/>
		<path class="st0" d="M-21.9,103.2h-33.3c-1.4,0-2.5-1.1-2.5-2.5c0-1.4,1.1-2.5,2.5-2.5h33.3c1.4,0,2.5,1.1,2.5,2.5
			C-19.4,102.1-20.5,103.2-21.9,103.2z"/>
		<path class="st0" d="M-34.5,114.7h-20.7c-1.4,0-2.5-1.1-2.5-2.5c0-1.4,1.1-2.5,2.5-2.5h20.7c1.4,0,2.5,1.1,2.5,2.5
			C-32,113.5-33.1,114.7-34.5,114.7z"/>
	</g>
</g>
<line class="st1" x1="68.1" y1="-6.5" x2="101.9" y2="-6.5"/>
<g id="圖層_1_00000038391228451387184140000015606893468245813435_">
	<g>
		<path class="st0" d="M-170.7,102.3c-0.1,0-0.1,0-0.2,0c-0.8-0.1-1.3-0.5-1.4-0.7c-9.1-8.4-26.9-4.5-27.1-4.5
			c-0.6,0.1-1.2,0-1.7-0.4c-1-0.8-1-2.5-1-2.8l0-28.3c0-0.6,0.5-1,1-1c0.6,0,1,0.5,1,1v28.4c0,0.4,0.1,1,0.2,1.1
			c0.9-0.2,19.1-4.1,28.9,5c0,0,0.1,0.1,0.1,0.1c0,0.1,0.2,0.2,0.5-0.1c0,0,0.1,0,0.1-0.1c0.6-0.4,14.1-9.6,28.1-4.5
			c0.2,0,0.6,0,0.8-0.1c0.1-0.1,0.1-0.2,0.2-0.5l0-10.7c0-0.6,0.4-1,1-1c0.6,0,1,0.5,1,1V95c0,1.1-0.5,1.7-0.9,2
			c-1,0.8-2.3,0.5-2.5,0.5c-0.1,0-0.1,0-0.1,0c-12.8-4.7-25.6,3.7-26.4,4.2C-169.7,102.2-170.2,102.3-170.7,102.3z"/>
		<path class="st0" d="M-140.3,80.5c-0.6,0-1-0.5-1-1V52.1c-0.1,0-0.1,0-0.2,0c0,0,0,0-0.1,0c-18.1-4.4-28.3,5-28.4,5.1
			c-0.4,0.4-1,0.4-1.4,0c-10-9.1-27.8-5.4-28-5.4c-0.1,0-0.1,0-0.2,0c-0.2,0-0.3,0-0.4,0.1c0,0.1-0.1,0.2-0.1,0.4c0,0,0,0.1,0,0.2
			V61c0,0.6-0.5,1-1,1c-0.6,0-1-0.5-1-1v-8.6c0-0.3-0.1-1.2,0.5-1.9c0.3-0.3,0.8-0.8,1.8-0.8c1.6-0.3,18.5-3.5,29,5.3
			c2.7-2.1,12.9-9,29.6-5c0.8,0.2,1.8,0.7,1.8,1.7v27.8C-139.3,80.1-139.8,80.5-140.3,80.5z"/>
		<path class="st0" d="M-166.2,107.1h-7.6c-0.2,0-0.4-0.1-0.6-0.2c-0.1-0.1-10.4-7.8-30.9-3.6c-0.1,0-0.2,0-0.4,0
			c-0.1,0-2.3-0.4-2.4-3.5l0-43.5c0,0,0-0.1,0-0.1c0-0.2,0.6-4,7.1-3.6c0.6,0,1,0.5,0.9,1.1c0,0.6-0.5,1-1.1,0.9
			c-4.2-0.2-4.9,1.5-5,1.9v43.4c0,1,0.4,1.4,0.7,1.5c19.6-3.9,30.1,2.5,31.9,3.8h6.9c10.6-8.4,30-3.8,30.8-3.6c0.1,0,0.1,0,0.1,0
			c0.2-0.1,0.4-0.7,0.5-1.3V56.7c0-0.9-0.5-1.1-0.7-1.2l-4.7-0.9c-0.5-0.1-0.9-0.6-0.8-1.2c0.1-0.5,0.6-0.9,1.2-0.8l4.7,0.9
			c0.8,0.1,2.3,1,2.3,3.2v43.7c0,0,0,0.1,0,0.1c0,0.3-0.2,2-1.3,2.8c-0.5,0.4-1.1,0.5-1.8,0.3c-0.2,0-19.6-4.6-29.4,3.4
			C-165.7,107.1-166,107.1-166.2,107.1z"/>
		<path class="st0" d="M-170.7,102.3c-0.6,0-1-0.5-1-1V56.4c0-0.6,0.5-1,1-1c0.6,0,1,0.5,1,1v44.9
			C-169.7,101.9-170.2,102.3-170.7,102.3z"/>
		<path class="st0" d="M-174.5,63.3c-0.2,0-0.5-0.1-0.7-0.3c-6.3-5.6-21.9-3.4-22.1-3.4c-0.5,0.1-1.1-0.3-1.1-0.9
			c-0.1-0.5,0.3-1.1,0.9-1.1c0.7-0.1,16.7-2.3,23.7,3.8c0.4,0.4,0.5,1,0.1,1.4C-173.9,63.2-174.2,63.3-174.5,63.3z"/>
		<path class="st0" d="M-174.5,72.6c-0.2,0-0.5-0.1-0.7-0.3c-6.3-5.6-21.9-3.4-22.1-3.4c-0.5,0.1-1.1-0.3-1.1-0.9
			c-0.1-0.5,0.3-1.1,0.9-1.1c0.7-0.1,16.7-2.3,23.7,3.8c0.4,0.4,0.5,1,0.1,1.4C-173.9,72.4-174.2,72.6-174.5,72.6z"/>
		<path class="st0" d="M-174.5,81.8c-0.2,0-0.5-0.1-0.7-0.3c-6.3-5.6-21.9-3.4-22.1-3.4c-0.5,0.1-1.1-0.3-1.1-0.9
			c-0.1-0.5,0.3-1.1,0.9-1.1c0.7-0.1,16.7-2.3,23.7,3.8c0.4,0.4,0.5,1,0.1,1.4C-173.9,81.7-174.2,81.8-174.5,81.8z"/>
		<path class="st0" d="M-174.5,91.1c-0.2,0-0.5-0.1-0.7-0.3c-6.3-5.6-21.9-3.4-22.1-3.4c-0.5,0.1-1.1-0.3-1.1-0.9
			c-0.1-0.6,0.3-1.1,0.9-1.1c0.7-0.1,16.7-2.3,23.7,3.8c0.4,0.4,0.5,1,0.1,1.4C-173.9,90.9-174.2,91.1-174.5,91.1z"/>
		<path class="st0" d="M-167.4,63.3c-0.3,0-0.6-0.1-0.8-0.3c-0.4-0.4-0.3-1.1,0.1-1.4c7-6.2,23-3.9,23.7-3.8
			c0.5,0.1,0.9,0.6,0.9,1.1c-0.1,0.5-0.6,0.9-1.1,0.9c-0.2,0-15.8-2.2-22.1,3.4C-166.9,63.2-167.1,63.3-167.4,63.3z"/>
		<path class="st0" d="M-167.4,72.6c-0.3,0-0.6-0.1-0.8-0.3c-0.4-0.4-0.3-1.1,0.1-1.4c7-6.2,23-3.9,23.7-3.8
			c0.5,0.1,0.9,0.6,0.9,1.1c-0.1,0.5-0.6,0.9-1.1,0.9c-0.2,0-15.8-2.2-22.1,3.4C-166.9,72.5-167.1,72.6-167.4,72.6z"/>
		<path class="st0" d="M-167.4,81.8c-0.3,0-0.6-0.1-0.8-0.3c-0.4-0.4-0.3-1.1,0.1-1.4c7-6.2,23-3.9,23.7-3.8
			c0.5,0.1,0.9,0.6,0.9,1.1c-0.1,0.5-0.6,0.9-1.1,0.9c-0.2,0-15.8-2.2-22.1,3.4C-166.9,81.7-167.1,81.8-167.4,81.8z"/>
		<path class="st0" d="M-167.4,91.1c-0.3,0-0.6-0.1-0.8-0.3c-0.4-0.4-0.3-1.1,0.1-1.4c7-6.2,23-3.9,23.7-3.8
			c0.5,0.1,0.9,0.6,0.9,1.1c-0.1,0.5-0.6,0.9-1.1,0.9c-0.2,0-15.8-2.2-22.1,3.4C-166.9,91-167.1,91.1-167.4,91.1z"/>
	</g>
</g>
<g>
	<g>
		<path class="st2" d="M-67.2-3.6c0,0-10.5-10-30.4-4.5l0.4,44.4c0,0,19.4-4.5,30,5.1L-67.2-3.6z"/>
		<g>
			<path class="st2" d="M-90.5,2.5c0,0,10.5-2.6,16.9,3.9"/>
			<path class="st2" d="M-90.5,14.1c0,0,10.5-2.6,16.9,3.9"/>
			<path class="st2" d="M-90.5,25.8c0,0,10.5-2.6,16.9,3.9"/>
		</g>
	</g>
	<g>
		<path class="st2" d="M-66.2-3.6c0,0,10.5-10,30.4-4.5l-0.4,44.4c0,0-19.4-4.5-30,5.1L-66.2-3.6z"/>
		<g>
			<path class="st2" d="M-42.9,2.5c0,0-10.5-2.6-16.9,3.9"/>
			<path class="st2" d="M-42.9,14.1c0,0-10.5-2.6-16.9,3.9"/>
			<path class="st2" d="M-42.9,25.8c0,0-10.5-2.6-16.9,3.9"/>
		</g>
	</g>
	<path class="st2" d="M-98.6-4.6c0,0-6,1-6.2,3.8v42.1c0,0-0.2,4.9,2,3.2c0,0,20-3.7,31.8,4.2h3.8"/>
	<path class="st2" d="M-34.8-4.6c0,0,6,1,6.2,3.8v42.1c0,0,0.2,4.9-2,3.2c0,0-20-3.7-31.8,4.2h-3.8"/>
</g>
<g>
	<g>
		<path class="st0" d="M37.1,59.3c-0.5,0-1-0.2-1.4-0.5c-9-8.2-26-4.3-26.1-4.3c-0.6,0.1-1.2,0-1.7-0.4c-0.5-0.4-0.8-1-0.8-1.6
			L6.7,11.3c0-0.9,0.6-1.7,1.5-2C27.6,4,38,13.6,38.4,14c0.4,0.4,0.6,0.9,0.6,1.5l0,41.8c0,0.8-0.5,1.5-1.2,1.9
			C37.6,59.3,37.3,59.3,37.1,59.3z M18.9,49.5c5,0,11.1,0.8,16.2,3.8l0-36.9c-2.3-1.7-10.4-6.9-24.2-3.6l0.3,37.3
			C12.9,49.9,15.7,49.5,18.9,49.5z"/>
		<g>
			<path class="st0" d="M31.1,26.8c-0.5,0-1.1-0.2-1.5-0.6c-5-5.2-13.7-3.1-13.8-3.1c-1.1,0.3-2.2-0.4-2.4-1.5
				c-0.3-1.1,0.4-2.2,1.5-2.4c0.4-0.1,11-2.6,17.7,4.2c0.8,0.8,0.8,2.1,0,2.9C32.1,26.6,31.6,26.8,31.1,26.8z"/>
			<path class="st0" d="M31.1,37.6c-0.5,0-1.1-0.2-1.5-0.6c-5-5.2-13.7-3.1-13.8-3.1c-1.1,0.3-2.2-0.4-2.4-1.5
				c-0.3-1.1,0.4-2.2,1.5-2.4c0.4-0.1,11-2.6,17.7,4.2c0.8,0.8,0.8,2.1,0,2.9C32.1,37.4,31.6,37.6,31.1,37.6z"/>
			<path class="st0" d="M31.1,48.5c-0.5,0-1.1-0.2-1.5-0.6c-5-5.2-13.7-3.1-13.8-3.1c-1.1,0.3-2.2-0.4-2.5-1.5
				c-0.3-1.1,0.4-2.2,1.5-2.5c0.4-0.1,11-2.6,17.7,4.2c0.8,0.8,0.8,2.1,0,2.9C32.1,48.3,31.6,48.5,31.1,48.5z"/>
		</g>
	</g>
	<g>
		<path class="st0" d="M38,59.3c-0.3,0-0.6-0.1-0.8-0.2c-0.7-0.3-1.2-1.1-1.2-1.9l0-41.8c0-0.6,0.2-1.1,0.6-1.5
			C37,13.6,47.4,4,66.8,9.3c0.9,0.2,1.5,1.1,1.5,2L68,52.6c0,0.6-0.3,1.2-0.8,1.6c-0.5,0.4-1.1,0.5-1.7,0.4
			c-0.2,0-17.2-3.9-26.2,4.3C38.9,59.2,38.5,59.3,38,59.3z M40,16.4l0,36.9c8.3-4.9,19.1-3.9,23.9-3.2l0.3-37.3
			C50.4,9.5,42.3,14.7,40,16.4z"/>
		<g>
			<path class="st0" d="M43.9,26.8c-0.5,0-1-0.2-1.4-0.6c-0.8-0.8-0.8-2.1,0-2.9c6.7-6.8,17.2-4.3,17.7-4.2c1.1,0.3,1.7,1.4,1.5,2.5
				c-0.3,1.1-1.4,1.7-2.5,1.5c-0.1,0-8.8-2-13.8,3.1C45,26.6,44.5,26.8,43.9,26.8z"/>
			<path class="st0" d="M43.9,37.6c-0.5,0-1-0.2-1.4-0.6c-0.8-0.8-0.8-2.1,0-2.9c6.7-6.8,17.2-4.3,17.7-4.2c1.1,0.3,1.7,1.4,1.5,2.5
				c-0.3,1.1-1.4,1.7-2.4,1.5l0,0c-0.1,0-8.8-2.1-13.8,3.1C45,37.4,44.5,37.6,43.9,37.6z"/>
			<path class="st0" d="M43.9,48.5c-0.5,0-1-0.2-1.4-0.6c-0.8-0.8-0.8-2.1,0-2.9c6.7-6.8,17.2-4.3,17.7-4.2c1.1,0.3,1.7,1.4,1.5,2.5
				c-0.3,1.1-1.4,1.7-2.4,1.5l0,0c-0.1,0-8.8-2.1-13.8,3.1C45,48.3,44.5,48.5,43.9,48.5z"/>
		</g>
	</g>
	<path class="st0" d="M37,67.3h-3.5c-0.4,0-0.8-0.1-1.1-0.3C23,60.7,7.3,62.8,4.6,63.3c-1.2,0.7-2.3,0.4-2.7,0.1
		c-1.7-0.9-2-3.3-1.9-5.1l0-39.2C0,19,0,19,0,18.9c0.3-4,6.3-5.2,7.5-5.4c1.1-0.2,2.1,0.6,2.3,1.7c0.2,1.1-0.6,2.1-1.7,2.3
		c-1.9,0.3-3.9,1.2-4.1,1.7v39.1c0,0.3,0,0.6,0,0.9c3.3-0.5,19.4-2.7,30,4H37c1.1,0,2,0.9,2,2S38.2,67.3,37,67.3z"/>
	<path class="st0" d="M41.5,67.3H38c-1.1,0-2-0.9-2-2s0.9-2,2-2h2.9c10.6-6.6,26.7-4.5,30-4c0-0.3,0-0.6,0-0.8l0-39.2
		c-0.2-0.5-2.3-1.4-4.1-1.7c-1.1-0.2-1.8-1.2-1.7-2.3c0.2-1.1,1.2-1.9,2.3-1.7c1.2,0.2,7.1,1.4,7.5,5.4c0,0.1,0,0.1,0,0.2v39.3
		c0.1,1.8-0.2,4.2-1.9,5.1c-0.4,0.2-1.4,0.6-2.7-0.1C67.7,62.8,52,60.7,42.6,67C42.3,67.2,41.9,67.3,41.5,67.3z"/>
</g>
</svg>
