<?xml version="1.0" encoding="utf-8"?>
<!-- Generator: Adobe Illustrator 26.2.1, SVG Export Plug-In . SVG Version: 6.00 Build 0)  -->
<svg version="1.1" id="圖層_1" xmlns="http://www.w3.org/2000/svg" xmlns:xlink="http://www.w3.org/1999/xlink" x="0px" y="0px"
	 viewBox="0 0 75 75" style="enable-background:new 0 0 75 75;" xml:space="preserve">
<style type="text/css">
	.st0{fill:#EC7563;}
</style>
<g>
	<g>
		<path class="st0" d="M37.1,59.3c-0.5,0-1-0.2-1.4-0.5c-9-8.2-26-4.3-26.1-4.3c-0.6,0.1-1.2,0-1.7-0.4c-0.5-0.4-0.8-1-0.8-1.6
			L6.7,11.3c0-0.9,0.6-1.7,1.5-2C27.6,4,38,13.6,38.4,14c0.4,0.4,0.6,0.9,0.6,1.5l0,41.8c0,0.8-0.5,1.5-1.2,1.9
			C37.6,59.3,37.3,59.3,37.1,59.3z M18.9,49.5c5,0,11.1,0.8,16.2,3.8l0-36.9c-2.3-1.7-10.4-6.9-24.2-3.6l0.3,37.3
			C12.9,49.9,15.7,49.5,18.9,49.5z"/>
		<g>
			<path class="st0" d="M31.1,26.8c-0.5,0-1.1-0.2-1.5-0.6c-5-5.2-13.7-3.1-13.8-3.1c-1.1,0.3-2.2-0.4-2.4-1.5
				c-0.3-1.1,0.4-2.2,1.5-2.4c0.4-0.1,11-2.6,17.7,4.2c0.8,0.8,0.8,2.1,0,2.9C32.1,26.6,31.6,26.8,31.1,26.8z"/>
			<path class="st0" d="M31.1,37.6c-0.5,0-1.1-0.2-1.5-0.6c-5-5.2-13.7-3.1-13.8-3.1c-1.1,0.3-2.2-0.4-2.4-1.5
				c-0.3-1.1,0.4-2.2,1.5-2.4c0.4-0.1,11-2.6,17.7,4.2c0.8,0.8,0.8,2.1,0,2.9C32.1,37.4,31.6,37.6,31.1,37.6z"/>
			<path class="st0" d="M31.1,48.5c-0.5,0-1.1-0.2-1.5-0.6c-5-5.2-13.7-3.1-13.8-3.1c-1.1,0.3-2.2-0.4-2.5-1.5
				c-0.3-1.1,0.4-2.2,1.5-2.5c0.4-0.1,11-2.6,17.7,4.2c0.8,0.8,0.8,2.1,0,2.9C32.1,48.3,31.6,48.5,31.1,48.5z"/>
		</g>
	</g>
	<g>
		<path class="st0" d="M38,59.3c-0.3,0-0.6-0.1-0.8-0.2c-0.7-0.3-1.2-1.1-1.2-1.9l0-41.8c0-0.6,0.2-1.1,0.6-1.5
			C37,13.6,47.4,4,66.8,9.3c0.9,0.2,1.5,1.1,1.5,2L68,52.6c0,0.6-0.3,1.2-0.8,1.6c-0.5,0.4-1.1,0.5-1.7,0.4
			c-0.2,0-17.2-3.9-26.2,4.3C38.9,59.2,38.5,59.3,38,59.3z M40,16.4l0,36.9c8.3-4.9,19.1-3.9,23.9-3.2l0.3-37.3
			C50.4,9.5,42.3,14.7,40,16.4z"/>
		<g>
			<path class="st0" d="M43.9,26.8c-0.5,0-1-0.2-1.4-0.6c-0.8-0.8-0.8-2.1,0-2.9c6.7-6.8,17.2-4.3,17.7-4.2c1.1,0.3,1.7,1.4,1.5,2.5
				c-0.3,1.1-1.4,1.7-2.5,1.5c-0.1,0-8.8-2-13.8,3.1C45,26.6,44.5,26.8,43.9,26.8z"/>
			<path class="st0" d="M43.9,37.6c-0.5,0-1-0.2-1.4-0.6c-0.8-0.8-0.8-2.1,0-2.9c6.7-6.8,17.2-4.3,17.7-4.2c1.1,0.3,1.7,1.4,1.5,2.5
				c-0.3,1.1-1.4,1.7-2.4,1.5l0,0c-0.1,0-8.8-2.1-13.8,3.1C45,37.4,44.5,37.6,43.9,37.6z"/>
			<path class="st0" d="M43.9,48.5c-0.5,0-1-0.2-1.4-0.6c-0.8-0.8-0.8-2.1,0-2.9c6.7-6.8,17.2-4.3,17.7-4.2c1.1,0.3,1.7,1.4,1.5,2.5
				c-0.3,1.1-1.4,1.7-2.4,1.5l0,0c-0.1,0-8.8-2.1-13.8,3.1C45,48.3,44.5,48.5,43.9,48.5z"/>
		</g>
	</g>
	<path class="st0" d="M37,67.3h-3.5c-0.4,0-0.8-0.1-1.1-0.3C23,60.7,7.3,62.8,4.6,63.3c-1.2,0.7-2.3,0.4-2.7,0.1
		c-1.7-0.9-2-3.3-1.9-5.1l0-39.2C0,19,0,19,0,18.9c0.3-4,6.3-5.2,7.5-5.4c1.1-0.2,2.1,0.6,2.3,1.7c0.2,1.1-0.6,2.1-1.7,2.3
		c-1.9,0.3-3.9,1.2-4.1,1.7v39.1c0,0.3,0,0.6,0,0.9c3.3-0.5,19.4-2.7,30,4H37c1.1,0,2,0.9,2,2S38.2,67.3,37,67.3z"/>
	<path class="st0" d="M41.5,67.3H38c-1.1,0-2-0.9-2-2s0.9-2,2-2h2.9c10.6-6.6,26.7-4.5,30-4c0-0.3,0-0.6,0-0.8l0-39.2
		c-0.2-0.5-2.3-1.4-4.1-1.7c-1.1-0.2-1.8-1.2-1.7-2.3c0.2-1.1,1.2-1.9,2.3-1.7c1.2,0.2,7.1,1.4,7.5,5.4c0,0.1,0,0.1,0,0.2v39.3
		c0.1,1.8-0.2,4.2-1.9,5.1c-0.4,0.2-1.4,0.6-2.7-0.1C67.7,62.8,52,60.7,42.6,67C42.3,67.2,41.9,67.3,41.5,67.3z"/>
</g>
</svg>
