<?xml version="1.0" encoding="utf-8"?>
<!-- Generator: Adobe Illustrator 26.2.1, SVG Export Plug-In . SVG Version: 6.00 Build 0)  -->
<svg version="1.1" id="圖層_1" xmlns="http://www.w3.org/2000/svg" xmlns:xlink="http://www.w3.org/1999/xlink" x="0px" y="0px"
	 viewBox="0 0 75 75" style="enable-background:new 0 0 75 75;" xml:space="preserve">
<style type="text/css">
	.st0{fill:#EC7563;}
	.st1{fill:none;stroke:#EC7563;stroke-width:3;stroke-linecap:round;stroke-linejoin:round;stroke-miterlimit:10;}
</style>
<g>
	<path class="st0" d="M41.4,75h-2.6c-0.8,0-1.5-0.7-1.5-1.5S38,72,38.8,72h1.3c0.7-2.4,2.5-3.1,3.6-3.1H72V23.1
		c0-0.8,0.7-1.5,1.5-1.5s1.5,0.7,1.5,1.5v47.3c0,0.8-0.7,1.5-1.5,1.5H43.7c-0.1,0-0.7,0.2-0.8,1.6C42.8,74.4,42.1,75,41.4,75z"/>
	<path class="st0" d="M38.8,75h-5.1c-0.8,0-1.5-0.6-1.5-1.4c-0.1-1.4-0.7-1.6-0.9-1.6l-29.8,0c-0.8,0-1.5-0.7-1.5-1.5V31.7
		c0-0.8,0.7-1.5,1.5-1.5S3,30.9,3,31.7v37.2h28.3c1,0,2.9,0.7,3.6,3.1h3.9c0.8,0,1.5,0.7,1.5,1.5S39.6,75,38.8,75z"/>
	<g>
		<path class="st0" d="M38.1,68.8c-0.1,0-0.1,0-0.2,0c-1.3-0.1-2.3-1.2-2.3-2.5V21.7c0-0.3,0.1-0.6,0.2-0.9C36,20.2,41.7,5,58.6,0.1
			c0.8-0.2,1.6-0.1,2.2,0.4c0.6,0.5,1,1.2,1,2v44.2c0,1.1-0.8,2.1-1.9,2.4c-0.2,0-17.4,4.9-19.3,17.5C40.4,67.9,39.4,68.8,38.1,68.8
			z M40.6,22.2v33c5.1-6,12.6-9.2,16.1-10.4V6.1C46,10.6,41.5,20.2,40.6,22.2z"/>
		<path class="st0" d="M43.8,25.2c-0.2,0-0.5-0.1-0.7-0.2c-0.7-0.4-1-1.3-0.6-2c0.2-0.4,4.9-9,10.6-11.2c0.8-0.3,1.6,0.1,1.9,0.9
			c0.3,0.8-0.1,1.7-0.9,2c-4.7,1.8-9,9.8-9.1,9.8C44.9,24.9,44.3,25.2,43.8,25.2z"/>
		<path class="st0" d="M43.8,36.1c-0.2,0-0.5-0.1-0.7-0.2c-0.7-0.4-1-1.3-0.6-2c0.2-0.4,4.9-9,10.6-11.2c0.8-0.3,1.6,0.1,1.9,0.9
			c0.3,0.8-0.1,1.7-0.9,2c-4.7,1.8-9,9.8-9.1,9.8C44.9,35.8,44.3,36.1,43.8,36.1z"/>
		<path class="st0" d="M43.8,47c-0.2,0-0.5-0.1-0.7-0.2c-0.7-0.4-1-1.3-0.6-2c0.2-0.4,4.9-9,10.6-11.2c0.8-0.3,1.6,0.1,1.9,0.9
			c0.3,0.8-0.1,1.7-0.9,2c-4.7,1.8-9,9.8-9.1,9.8C44.9,46.7,44.3,47,43.8,47z"/>
		<path class="st1" d="M53.7,25.3"/>
		<path class="st1" d="M47.2,34.7"/>
		<path class="st1" d="M53.7,36.5"/>
		<path class="st1" d="M47.2,45.9"/>
		<path class="st0" d="M38.1,68.8c-0.6,0-1.3-0.2-1.7-0.7c-2.6-2.5-17.1-3.3-29-2.6c-0.7,0-1.4-0.2-1.9-0.7C5,64.3,4.7,63.6,4.7,63
			V18.4c0-1.4,1.1-2.5,2.4-2.5c28.6-0.9,31.6,2.5,32.6,3.7c0.6,0.7,0.9,1.5,0.9,2.3v44.4c0,1-0.6,1.9-1.5,2.3
			C38.8,68.7,38.5,68.8,38.1,68.8z M16.2,60.2c6.3,0,14.3,0.4,19.5,2V22.7c-1.4-0.7-6.9-2.3-25.9-1.8v39.5
			C11.5,60.2,13.7,60.2,16.2,60.2z M35.7,21.4c0,0.1,0,0.1,0,0.2C35.7,21.5,35.7,21.4,35.7,21.4z M35.7,21.3
			C35.7,21.3,35.7,21.4,35.7,21.3C35.7,21.4,35.7,21.3,35.7,21.3z M35.7,21.3C35.7,21.3,35.7,21.3,35.7,21.3
			C35.7,21.3,35.7,21.3,35.7,21.3z"/>
		<path class="st0" d="M38.1,68.3c-0.4,0-0.8-0.1-1.1-0.3c-0.9-0.6-1.2-1.9-0.5-2.8c6.6-9.8,22.7-12.2,28.3-12.7V9.1
			c0-1.1,0.9-2,2-2s2,0.9,2,2v45.1c0,1.1-0.8,2-1.9,2c-0.2,0-20.3,1.1-27.1,11.1C39.4,67.9,38.8,68.3,38.1,68.3z"/>
		<g>
			<path class="st0" d="M31,31.6c-0.2,0-0.3,0-0.5-0.1c-9.2-3.3-16.2-1.8-16.3-1.8c-0.8,0.2-1.6-0.3-1.8-1.1
				c-0.2-0.8,0.3-1.6,1.1-1.8c0.3-0.1,8-1.8,18,1.9c0.8,0.3,1.2,1.2,0.9,1.9C32.2,31.2,31.6,31.6,31,31.6z"/>
			<path class="st0" d="M31,39.2c-0.2,0-0.3,0-0.5-0.1c-9.1-3.3-16.2-1.8-16.3-1.8c-0.8,0.2-1.6-0.3-1.8-1.1
				c-0.2-0.8,0.3-1.6,1.1-1.8c0.3-0.1,8-1.8,18,1.9c0.8,0.3,1.2,1.2,0.9,1.9C32.2,38.9,31.6,39.2,31,39.2z"/>
			<path class="st0" d="M31,46.9c-0.2,0-0.3,0-0.5-0.1C21.4,43.5,14.3,45,14.2,45c-0.8,0.2-1.6-0.3-1.8-1.1
				c-0.2-0.8,0.3-1.6,1.1-1.8c0.3-0.1,8-1.8,18,1.9c0.8,0.3,1.2,1.2,0.9,1.9C32.2,46.5,31.6,46.9,31,46.9z"/>
			<path class="st0" d="M31,54.6c-0.2,0-0.3,0-0.5-0.1c-9.1-3.3-16.2-1.8-16.3-1.8c-0.8,0.2-1.6-0.3-1.8-1.1
				c-0.2-0.8,0.3-1.6,1.1-1.8c0.3-0.1,8-1.8,18,1.9c0.8,0.3,1.2,1.2,0.9,1.9C32.2,54.2,31.6,54.6,31,54.6z"/>
		</g>
	</g>
</g>
</svg>
