<?xml version="1.0" encoding="utf-8"?>
<!-- Generator: Adobe Illustrator 26.2.1, SVG Export Plug-In . SVG Version: 6.00 Build 0)  -->
<svg version="1.1" id="圖層_1" xmlns="http://www.w3.org/2000/svg" xmlns:xlink="http://www.w3.org/1999/xlink" x="0px" y="0px"
	 viewBox="0 0 75 75" style="enable-background:new 0 0 75 75;" xml:space="preserve">
<style type="text/css">
	.st0{fill:#EC7563;}
</style>
<g>
	<path class="st0" d="M37,74.9h-3.4c-0.5,0-1.1-0.2-1.5-0.5c-8.9-6.6-23.7-4.5-26.6-4c-1.4,0.8-2.5,0.4-3,0.2
		c-1.6-0.8-2.4-2.8-2.3-5.9l0-43.2c0-0.1,0-0.1,0-0.2c0.3-4.6,6.5-6,7.7-6.2c1.4-0.3,2.7,0.6,2.9,2c0.3,1.4-0.6,2.7-2,2.9l0,0
		c-1.7,0.3-3.4,1.2-3.7,1.7v43.1c0,0.2,0,0.4,0,0.6c4.3-0.7,19.1-2.5,29.2,4.5H37c1.4,0,2.5,1.1,2.5,2.5S38.4,74.9,37,74.9z"/>
	<path class="st0" d="M41.4,74.9H38c-1.4,0-2.5-1.1-2.5-2.5s1.1-2.5,2.5-2.5h2.6c10.1-7,24.9-5.2,29.2-4.5c0-0.2,0-0.4,0-0.6l0-43.2
		c-0.2-0.5-2.1-1.4-3.7-1.7c-1.4-0.3-2.2-1.6-2-2.9c0.3-1.4,1.6-2.2,2.9-2c1.2,0.2,7.4,1.6,7.7,6.2c0,0.1,0,0.1,0,0.2v43.3
		c0.1,3.1-0.7,5.1-2.3,5.9c-0.5,0.2-1.7,0.6-3-0.2c-2.9-0.5-17.8-2.7-26.6,4C42.5,74.7,41.9,74.9,41.4,74.9z"/>
</g>
<g>
	<path class="st0" d="M37.5,66.3c-0.7,0-1.4-0.3-1.9-0.9c-8.6-10.2-24.9-5.4-25-5.3c-0.8,0.2-1.6,0.1-2.2-0.4c-0.6-0.5-1-1.2-1-2
		L7,4.6c0-1.1,0.7-2,1.7-2.4c19.8-7,30.3,5.7,30.8,6.2c0.4,0.4,0.6,1,0.6,1.6l0,53.8c0,1-0.7,2-1.6,2.3
		C38.1,66.3,37.8,66.3,37.5,66.3z M19.6,53.9c4.8,0,10.5,0.9,15.4,4.3L35,11c-2.1-2.1-9.8-8.5-23-4.6l0.3,48.2
		C14.2,54.2,16.7,53.9,19.6,53.9z"/>
	<path class="st0" d="M37.5,66.3c-0.3,0-0.6,0-0.9-0.2c-1-0.4-1.6-1.3-1.6-2.3L35,10c0-0.6,0.2-1.1,0.6-1.6
		c0.4-0.5,11-13.2,30.8-6.2c1,0.4,1.7,1.3,1.7,2.4l-0.3,53.1c0,0.8-0.4,1.5-1,2c-0.6,0.5-1.5,0.6-2.2,0.4c-0.2,0-16.5-4.8-25,5.3
		C38.9,66,38.2,66.3,37.5,66.3z M40,11l0,47.2c7.9-5.4,17.7-4.5,22.7-3.6L63,6.4C49.8,2.5,42.1,8.9,40,11z"/>
</g>
<g>
	<g>
		<path class="st0" d="M30.6,21.1c-0.7,0-1.4-0.3-1.9-0.8c-4.2-4.8-11.6-2.9-11.6-2.9c-1.3,0.4-2.7-0.4-3.1-1.8
			c-0.4-1.3,0.4-2.7,1.8-3.1c0.4-0.1,10.4-2.7,16.7,4.4c0.9,1,0.8,2.6-0.2,3.5C31.8,20.8,31.2,21.1,30.6,21.1z"/>
		<path class="st0" d="M30.6,48.3c-0.7,0-1.4-0.3-1.9-0.8c-4.2-4.8-11.6-2.9-11.6-2.9c-1.3,0.4-2.7-0.4-3.1-1.8
			c-0.4-1.3,0.4-2.7,1.8-3.1c0.4-0.1,10.4-2.7,16.7,4.4c0.9,1,0.8,2.6-0.2,3.5C31.8,48.1,31.2,48.3,30.6,48.3z"/>
		<path class="st0" d="M30.6,34.7c-0.7,0-1.4-0.3-1.9-0.8c-4.2-4.8-11.6-2.9-11.6-2.9c-1.3,0.4-2.7-0.4-3.1-1.8
			c-0.4-1.3,0.4-2.7,1.8-3.1c0.4-0.1,10.4-2.7,16.7,4.4c0.9,1,0.8,2.6-0.2,3.5C31.8,34.5,31.2,34.7,30.6,34.7z"/>
	</g>
	<g>
		<path class="st0" d="M44.4,21.1c-0.6,0-1.2-0.2-1.7-0.6c-1-0.9-1.1-2.5-0.2-3.5c6.3-7.1,16.3-4.5,16.7-4.4
			c1.3,0.4,2.1,1.7,1.8,3.1c-0.4,1.3-1.7,2.1-3.1,1.8c-0.1,0-7.5-1.9-11.6,2.9C45.8,20.8,45.1,21.1,44.4,21.1z"/>
		<path class="st0" d="M44.4,48.3c-0.6,0-1.2-0.2-1.7-0.6c-1-0.9-1.1-2.5-0.2-3.5c6.3-7.1,16.3-4.5,16.7-4.4
			c1.3,0.4,2.1,1.7,1.8,3.1c-0.4,1.3-1.7,2.1-3.1,1.8c-0.1,0-7.4-1.9-11.6,2.9C45.8,48,45.1,48.3,44.4,48.3z"/>
		<path class="st0" d="M44.4,34.7c-0.6,0-1.2-0.2-1.7-0.6c-1-0.9-1.1-2.5-0.2-3.5c6.3-7.1,16.3-4.5,16.7-4.4
			c1.3,0.4,2.1,1.7,1.8,3.1c-0.4,1.3-1.7,2.1-3.1,1.8c-0.1,0-7.5-1.9-11.6,2.9C45.8,34.4,45.1,34.7,44.4,34.7z"/>
	</g>
</g>
</svg>
