<?xml version="1.0" encoding="utf-8"?>
<!-- Generator: Adobe Illustrator 26.2.1, SVG Export Plug-In . SVG Version: 6.00 Build 0)  -->
<svg version="1.1" id="圖層_1" xmlns="http://www.w3.org/2000/svg" xmlns:xlink="http://www.w3.org/1999/xlink" x="0px" y="0px"
	 viewBox="0 0 75 75" style="enable-background:new 0 0 75 75;" xml:space="preserve">
<style type="text/css">
	.st0{fill:#EC7563;}
</style>
<g>
	<path class="st0" d="M37.1,64.7c-0.5,0-1-0.2-1.4-0.7c-9-10.2-26-5.4-26.1-5.3c-0.6,0.2-1.2,0-1.7-0.5c-0.5-0.5-0.8-1.2-0.8-2
		L6.7,4.5c0-1.2,0.6-2.2,1.5-2.5C27.6-4.6,38,7.4,38.4,7.9c0.4,0.5,0.6,1.1,0.6,1.8l0,52.4c0,1-0.5,1.9-1.2,2.3
		C37.6,64.6,37.3,64.7,37.1,64.7z M18.9,52.4c5,0,11.1,1,16.2,4.7l0-46.2c-2.3-2.2-10.4-8.6-24.2-4.5l0.3,46.8
		C12.9,52.8,15.7,52.4,18.9,52.4z"/>
	<path class="st0" d="M38,64.7c-0.3,0-0.6-0.1-0.8-0.2c-0.7-0.4-1.2-1.3-1.2-2.3l0-52.4c0-0.7,0.2-1.4,0.6-1.8
		C37,7.4,47.4-4.7,66.8,2c0.9,0.3,1.5,1.3,1.5,2.5L68,56.2c0,0.8-0.3,1.5-0.8,2c-0.5,0.5-1.1,0.6-1.7,0.5
		c-0.2-0.1-17.2-4.9-26.2,5.3C38.9,64.5,38.5,64.7,38,64.7z M40,10.9l0,46.2c8.3-6.1,19.1-4.9,23.9-4l0.3-46.8
		C50.4,2.3,42.3,8.8,40,10.9z"/>
	<g>
		<path class="st0" d="M31.1,29.1c-0.5,0-1.1-0.2-1.5-0.6c-5-5.2-13.7-3.1-13.8-3.1c-1.1,0.3-2.2-0.4-2.4-1.5
			c-0.3-1.1,0.4-2.2,1.5-2.4c0.4-0.1,11-2.6,17.7,4.2c0.8,0.8,0.8,2.1,0,2.9C32.1,29,31.6,29.1,31.1,29.1z"/>
		<path class="st0" d="M31.1,39.7c-0.5,0-1.1-0.2-1.5-0.6C24.6,34,15.9,36,15.8,36c-1.1,0.3-2.2-0.4-2.4-1.5
			c-0.3-1.1,0.4-2.2,1.5-2.4c0.4-0.1,11-2.6,17.7,4.2c0.8,0.8,0.8,2.1,0,2.9C32.1,39.6,31.6,39.7,31.1,39.7z"/>
		<path class="st0" d="M31.1,50.3c-0.5,0-1.1-0.2-1.5-0.6c-5-5.2-13.7-3.1-13.8-3.1c-1.1,0.3-2.2-0.4-2.5-1.5
			c-0.3-1.1,0.4-2.2,1.5-2.5c0.4-0.1,11-2.6,17.7,4.2c0.8,0.8,0.8,2.1,0,2.9C32.1,50.1,31.6,50.3,31.1,50.3z"/>
		<path class="st0" d="M31.1,18.5c-0.5,0-1.1-0.2-1.5-0.6c-5-5.2-13.7-3.1-13.8-3.1c-1.1,0.3-2.2-0.4-2.4-1.5
			c-0.3-1.1,0.4-2.2,1.5-2.4c0.4-0.1,11-2.6,17.7,4.2c0.8,0.8,0.8,2.1,0,2.9C32.1,18.4,31.6,18.5,31.1,18.5z"/>
	</g>
	<g>
		<path class="st0" d="M43.9,29.1c-0.5,0-1-0.2-1.4-0.6c-0.8-0.8-0.8-2.1,0-2.9c6.7-6.8,17.2-4.3,17.7-4.2c1.1,0.3,1.7,1.4,1.5,2.5
			c-0.3,1.1-1.4,1.7-2.5,1.5c-0.1,0-8.8-2-13.8,3.1C45,28.9,44.5,29.1,43.9,29.1z"/>
		<path class="st0" d="M43.9,18.5c-0.5,0-1-0.2-1.4-0.6c-0.8-0.8-0.8-2.1,0-2.9c6.7-6.8,17.2-4.3,17.7-4.2c1.1,0.3,1.7,1.4,1.5,2.5
			c-0.3,1.1-1.4,1.7-2.5,1.5c-0.1,0-8.8-2-13.8,3.1C45,18.3,44.5,18.5,43.9,18.5z"/>
		<path class="st0" d="M43.9,39.7c-0.5,0-1-0.2-1.4-0.6c-0.8-0.8-0.8-2.1,0-2.9c6.7-6.8,17.2-4.3,17.7-4.2c1.1,0.3,1.7,1.4,1.5,2.5
			c-0.3,1.1-1.4,1.7-2.4,1.5l0,0c-0.1,0-8.8-2.1-13.8,3.1C45,39.5,44.5,39.7,43.9,39.7z"/>
		<path class="st0" d="M43.9,50.3c-0.5,0-1-0.2-1.4-0.6c-0.8-0.8-0.8-2.1,0-2.9c6.7-6.8,17.2-4.3,17.7-4.2c1.1,0.3,1.7,1.4,1.5,2.5
			c-0.3,1.1-1.4,1.7-2.4,1.5l0,0c-0.1,0-8.8-2.1-13.8,3.1C45,50.1,44.5,50.3,43.9,50.3z"/>
	</g>
</g>
<g>
	<path class="st0" d="M37,75h-3.5c-0.4,0-0.8-0.1-1.1-0.4C23,66.8,7.3,69.4,4.6,70c-1.2,0.9-2.3,0.4-2.7,0.2c-1.7-1.1-2-4.1-1.9-6.4
		l0-49c0-0.1,0-0.1,0-0.2c0.3-5,6.3-6.5,7.5-6.8c1.1-0.2,2.1,0.7,2.3,2.1c0.2,1.4-0.6,2.7-1.7,2.9c-1.9,0.4-3.9,1.5-4.1,2.2v48.9
		c0,0.4,0,0.8,0,1.1c3.3-0.7,19.4-3.3,30,5H37c1.1,0,2,1.1,2,2.5S38.2,75,37,75z"/>
	<path class="st0" d="M41.5,75H38c-1.1,0-2-1.1-2-2.5s0.9-2.5,2-2.5h2.9c10.6-8.3,26.7-5.7,30-5c0-0.3,0-0.7,0-1l0-49
		c-0.2-0.7-2.3-1.8-4.1-2.2c-1.1-0.2-1.8-1.5-1.7-2.9c0.2-1.4,1.2-2.3,2.3-2.1c1.2,0.3,7.1,1.8,7.5,6.8c0,0.1,0,0.1,0,0.2v49.1
		c0.1,2.2-0.2,5.2-1.9,6.3c-0.4,0.3-1.4,0.7-2.7-0.2c-2.7-0.5-18.4-3.2-27.8,4.6C42.3,74.9,41.9,75,41.5,75z"/>
</g>
</svg>
