<?xml version="1.0" encoding="utf-8"?>
<!-- Generator: Adobe Illustrator 16.0.0, SVG Export Plug-In . SVG Version: 6.00 Build 0)  -->
<!DOCTYPE svg PUBLIC "-//W3C//DTD SVG 1.1//EN" "http://www.w3.org/Graphics/SVG/1.1/DTD/svg11.dtd">
<svg version="1.1" id="圖層_1" xmlns="http://www.w3.org/2000/svg" xmlns:xlink="http://www.w3.org/1999/xlink" x="0px" y="0px"
	 width="75px" height="75px" viewBox="0 0 75 75" enable-background="new 0 0 75 75" xml:space="preserve">
<g>
	<path fill="#EC7563" d="M48.318,44.023H72.5c1.381,0,2.5,1.119,2.5,2.5c0,1.382-1.119,2.5-2.5,2.5H50.818v22.232
		c0,1.381-1.119,2.5-2.5,2.5s-2.5-1.119-2.5-2.5v-24.73C45.818,45.145,46.938,44.023,48.318,44.023z"/>
	<path fill="#EC7563" d="M2.5,44.023h24.182c1.381,0,2.5,1.119,2.5,2.5v24.732c0,1.381-1.119,2.5-2.5,2.5
		c-1.381,0-2.5-1.119-2.5-2.5v-22.23H2.5c-1.381,0-2.5-1.119-2.5-2.5S1.12,44.023,2.5,44.023z"/>
	<path fill="#EC7563" d="M26.682,1.244c1.381,0,2.5,1.119,2.5,2.5v24.731c0,1.381-1.119,2.5-2.5,2.5H2.5c-1.381,0-2.5-1.119-2.5-2.5
		c0-1.381,1.119-2.5,2.5-2.5h21.682V3.744C24.182,2.363,25.301,1.244,26.682,1.244z"/>
	<path fill="#EC7563" d="M48.318,1.244c1.381,0,2.5,1.119,2.5,2.5v22.231H72.5c1.381,0,2.5,1.119,2.5,2.5c0,1.381-1.119,2.5-2.5,2.5
		H48.318c-1.381,0-2.5-1.119-2.5-2.5V3.744C45.818,2.363,46.938,1.244,48.318,1.244z"/>
</g>
</svg>
