<?xml version="1.0" encoding="utf-8"?>
<!-- Generator: Adobe Illustrator 16.0.0, SVG Export Plug-In . SVG Version: 6.00 Build 0)  -->
<!DOCTYPE svg PUBLIC "-//W3C//DTD SVG 1.1//EN" "http://www.w3.org/Graphics/SVG/1.1/DTD/svg11.dtd">
<svg version="1.1" id="圖層_1" xmlns="http://www.w3.org/2000/svg" xmlns:xlink="http://www.w3.org/1999/xlink" x="0px" y="0px"
	 width="75px" height="75px" viewBox="0 0 75 75" enable-background="new 0 0 75 75" xml:space="preserve">
<g>
	<path fill="#EC7563" d="M38.439,20.073c-1.663,0-3.008-1.348-3.008-3.01c-0.063-1.431-3.01-7.25-6.305-12.442
		c-0.891-1.402-0.474-3.262,0.929-4.153c1.402-0.889,3.26-0.475,4.156,0.929c2.175,3.428,7.238,11.821,7.238,15.667
		C41.45,18.726,40.104,20.073,38.439,20.073z"/>
	<path fill="#EC7563" d="M71.546,20.073H3.454c-1.663,0-3.01-1.348-3.01-3.01s1.347-3.009,3.01-3.009h68.092
		c1.664,0,3.011,1.347,3.011,3.009S73.21,20.073,71.546,20.073z"/>
	<path fill="#EC7563" d="M3.454,75c-1.296,0-2.492-0.842-2.883-2.146c-0.477-1.592,0.426-3.271,2.019-3.748
		c46.237-13.871,50.021-50.737,50.158-52.299c0.146-1.652,1.593-2.854,3.257-2.736c1.654,0.143,2.88,1.593,2.739,3.248
		c-0.035,0.422-4.139,42.469-54.426,57.556C4.03,74.957,3.739,75,3.454,75z"/>
	<path fill="#EC7563" d="M70.045,75c-0.266,0-0.535-0.035-0.803-0.109c-37.917-10.445-52.58-48.798-53.186-50.426
		c-0.579-1.557,0.215-3.288,1.77-3.868c1.558-0.58,3.289,0.21,3.871,1.767c0.138,0.37,14.248,37.11,49.144,46.725
		c1.603,0.441,2.543,2.099,2.103,3.7C72.575,74.123,71.363,75,70.045,75z"/>
</g>
</svg>
