<?xml version="1.0" encoding="utf-8"?>
<!-- Generator: Adobe Illustrator 16.0.0, SVG Export Plug-In . SVG Version: 6.00 Build 0)  -->
<!DOCTYPE svg PUBLIC "-//W3C//DTD SVG 1.1//EN" "http://www.w3.org/Graphics/SVG/1.1/DTD/svg11.dtd">
<svg version="1.1" id="圖層_1" xmlns="http://www.w3.org/2000/svg" xmlns:xlink="http://www.w3.org/1999/xlink" x="0px" y="0px"
	 width="75px" height="75px" viewBox="0 0 75 75" enable-background="new 0 0 75 75" xml:space="preserve">
<g>
	<path fill="#EC7563" d="M6.172,73.3c-1.148,0-2.291-0.317-3.294-0.95C1.086,71.217,0,69.246,0,67.128V7.873
		c0-2.111,1.079-4.076,2.859-5.207C4.642,1.53,6.881,1.387,8.79,2.283l62.657,29.346c2.16,1.012,3.546,3.18,3.554,5.568
		c0.007,2.388-1.36,4.564-3.513,5.595L8.832,72.698C7.987,73.1,7.079,73.3,6.172,73.3z M12.345,17.578v39.763l42.043-20.07
		L12.345,17.578z"/>
</g>
</svg>
