<?xml version="1.0" encoding="utf-8"?>
<!-- Generator: Adobe Illustrator 16.0.0, SVG Export Plug-In . SVG Version: 6.00 Build 0)  -->
<!DOCTYPE svg PUBLIC "-//W3C//DTD SVG 1.1//EN" "http://www.w3.org/Graphics/SVG/1.1/DTD/svg11.dtd">
<svg version="1.1" id="圖層_1" xmlns="http://www.w3.org/2000/svg" xmlns:xlink="http://www.w3.org/1999/xlink" x="0px" y="0px"
	 width="75px" height="75px" viewBox="0 0 75 75" enable-background="new 0 0 75 75" xml:space="preserve">
<g>
	<path fill="#EC7563" d="M66.168,72.698L3.513,42.791C1.36,41.762-0.007,39.584,0,37.197c0.007-2.388,1.392-4.555,3.553-5.568
		L66.21,2.283c1.909-0.896,4.147-0.753,5.931,0.383C73.921,3.796,75,5.762,75,7.873v59.255c0,2.118-1.086,4.089-2.879,5.222
		c-1.002,0.633-2.146,0.951-3.294,0.951C67.921,73.3,67.014,73.1,66.168,72.698z M20.611,37.271l42.043,20.07V17.578L20.611,37.271z
		"/>
</g>
</svg>
