<?xml version="1.0" encoding="utf-8"?>
<!-- Generator: Adobe Illustrator 16.0.0, SVG Export Plug-In . SVG Version: 6.00 Build 0)  -->
<!DOCTYPE svg PUBLIC "-//W3C//DTD SVG 1.1//EN" "http://www.w3.org/Graphics/SVG/1.1/DTD/svg11.dtd">
<svg version="1.1" id="圖層_1" xmlns="http://www.w3.org/2000/svg" xmlns:xlink="http://www.w3.org/1999/xlink" x="0px" y="0px"
	 width="75px" height="75px" viewBox="0 0 75 75" enable-background="new 0 0 75 75" xml:space="preserve">
<g>
	<g>
		<circle fill="#EC7563" cx="38.273" cy="21.053" r="2.79"/>
	</g>
	<g>
		<path fill="#EC7563" d="M22.319,37.653l-0.821,2.701c0,0,7.911,0,10.496,0c0,2.478,0,9.067,0,9.067s12.48,0,15.723,0
			c-0.468,2.615-2.699,7.413-12.678,9.579l-1.65,0.361v1.688c0,1.747,0.206,7.625,2.794,9.934l-0.216-0.225
			c0.116,0.143,2.909,3.422,8.524,4.221L44.637,75h18.284v-4.188c0,0-17.507,0-17.923,0c-3.883-0.582-5.751-2.662-5.829-2.75
			l-0.09-0.1l-0.114-0.107c-0.662-0.592-1.149-2.976-1.315-5.271c13.081-3.539,14.37-11.81,14.37-14.631
			c0-0.584-0.051-0.935-0.054-0.954l-0.28-1.764c0,0-12.354,0-15.505,0c0-2.479,0-9.07,0-9.07s-6.184,0-9.038,0
			c1.318-4.335,7.087-23.342,7.087-23.342l-4.004-1.212L22.319,37.653z"/>
	</g>
	<g>
		<path fill="#EC7563" d="M57.284,15.854c-0.005-0.004-0.025-0.027-0.031-0.035c-0.062-0.062-0.119-0.133-0.185-0.193L57.284,15.854
			z"/>
	</g>
	<g>
		<path fill="#EC7563" d="M60.954,11.826c-0.315-0.063-0.608-0.146-0.942-0.193l-0.148-0.021H30.328v4.186c0,0,28.758,0,29.174,0
			c0.736,0.109,1.376,0.284,1.969,0.478C61.574,14.793,61.309,13.31,60.954,11.826z"/>
	</g>
	<g>
		<path fill="#EC7563" d="M24.373,66.326c-0.634,0-1.268-0.239-1.755-0.721c-3.681-3.629-5.362-7.377-4.996-11.142
			c0.525-5.396,5.174-8.53,5.372-8.661c1.151-0.764,2.703-0.447,3.464,0.706c0.759,1.147,0.448,2.691-0.694,3.456
			c-0.078,0.055-2.898,2.03-3.169,5.018c-0.198,2.181,0.991,4.557,3.534,7.063c0.983,0.971,0.994,2.553,0.025,3.535
			C25.664,66.077,25.019,66.326,24.373,66.326z"/>
		<path fill="#EC7563" d="M17.595,69.783c-0.634,0-1.268-0.239-1.755-0.721C10.805,64.1,8.501,59.02,8.993,53.965
			c0.703-7.229,6.957-11.443,7.223-11.619c1.152-0.764,2.703-0.445,3.464,0.706c0.76,1.148,0.447,2.695-0.698,3.459
			c-0.091,0.063-4.569,3.156-5.016,7.976c-0.322,3.472,1.489,7.178,5.384,11.018c0.983,0.971,0.995,2.553,0.025,3.535
			C18.886,69.534,18.24,69.783,17.595,69.783z"/>
		<path fill="#EC7563" d="M11.202,75c-0.634,0-1.268-0.239-1.755-0.72c-7.077-6.976-10.32-14.063-9.64-21.067
			c0.972-9.996,9.646-15.842,10.015-16.086c1.151-0.764,2.703-0.446,3.464,0.706c0.761,1.149,0.447,2.697-0.7,3.46
			c-0.098,0.066-7.091,4.848-7.807,12.443c-0.51,5.418,2.241,11.132,8.177,16.982c0.983,0.969,0.995,2.553,0.025,3.535
			C12.493,74.751,11.847,75,11.202,75z"/>
	</g>
	<g>
		<polygon fill="#EC7563" points="28.641,16.005 20.503,1.011 72.702,0 72.779,4.014 27.18,4.895 32.169,14.091 		"/>
	</g>
</g>
</svg>
