<?xml version="1.0" encoding="utf-8"?>
<!-- Generator: Adobe Illustrator 16.0.0, SVG Export Plug-In . SVG Version: 6.00 Build 0)  -->
<!DOCTYPE svg PUBLIC "-//W3C//DTD SVG 1.1//EN" "http://www.w3.org/Graphics/SVG/1.1/DTD/svg11.dtd">
<svg version="1.1" id="圖層_1" xmlns="http://www.w3.org/2000/svg" xmlns:xlink="http://www.w3.org/1999/xlink" x="0px" y="0px"
	 width="75px" height="75px" viewBox="0 0 75 75" enable-background="new 0 0 75 75" xml:space="preserve">
<g>
	<path fill="#EC7563" d="M36.602,63.313c-7.044,0-14.963-2.494-22.874-9.977c-1.003-0.949-1.047-2.531-0.099-3.534
		c0.95-1.003,2.532-1.047,3.534-0.099c20.133,19.045,39.84,0.792,40.669,0.006c1.001-0.949,2.583-0.91,3.533,0.088
		c0.951,0.999,0.914,2.577-0.082,3.53C61.125,53.479,50.588,63.313,36.602,63.313z"/>
	<g>
		<g>
			<path fill="#EC7563" d="M37.5,0c-8.986,0-16.312,6.782-16.312,15.101v24.504c0,8.41,7.326,15.102,16.312,15.191
				c8.986,0,16.313-6.781,16.313-15.102V15.101C53.813,6.782,46.486,0,37.5,0z"/>
		</g>
	</g>
	<path fill="#EC7563" d="M37.5,74.427c-1.381,0-2.5-1.118-2.5-2.5V61.607c0-1.381,1.119-2.5,2.5-2.5s2.5,1.119,2.5,2.5v10.319
		C40,73.309,38.881,74.427,37.5,74.427z"/>
	<path fill="#EC7563" d="M51.1,75H23.901c-1.381,0-2.5-1.119-2.5-2.5s1.119-2.5,2.5-2.5H51.1c1.381,0,2.5,1.119,2.5,2.5
		S52.48,75,51.1,75z"/>
</g>
</svg>
