<?xml version="1.0" encoding="utf-8"?>
<!-- Generator: Adobe Illustrator 16.0.0, SVG Export Plug-In . SVG Version: 6.00 Build 0)  -->
<!DOCTYPE svg PUBLIC "-//W3C//DTD SVG 1.1//EN" "http://www.w3.org/Graphics/SVG/1.1/DTD/svg11.dtd">
<svg version="1.1" id="圖層_1" xmlns="http://www.w3.org/2000/svg" xmlns:xlink="http://www.w3.org/1999/xlink" x="0px" y="0px"
	 width="75px" height="75px" viewBox="0 0 75 75" enable-background="new 0 0 75 75" xml:space="preserve">
<g>
	<path fill="#EC7563" d="M72.5,73.756H48.318c-1.381,0-2.5-1.119-2.5-2.5s1.119-2.5,2.5-2.5H70V46.523c0-1.381,1.119-2.5,2.5-2.5
		s2.5,1.119,2.5,2.5v24.731C75,72.636,73.881,73.756,72.5,73.756z"/>
	<path fill="#EC7563" d="M26.682,73.756H2.5c-1.381,0-2.5-1.119-2.5-2.5V46.523c0-1.381,1.119-2.5,2.5-2.5s2.5,1.119,2.5,2.5v22.231
		h21.682c1.381,0,2.5,1.119,2.5,2.5S28.062,73.756,26.682,73.756z"/>
	<path fill="#EC7563" d="M2.5,30.975c-1.381,0-2.5-1.119-2.5-2.5V3.744c0-1.381,1.119-2.5,2.5-2.5h24.182c1.381,0,2.5,1.119,2.5,2.5
		c0,1.381-1.119,2.5-2.5,2.5H5v22.231C5,29.856,3.881,30.975,2.5,30.975z"/>
	<path fill="#EC7563" d="M72.5,30.975c-1.381,0-2.5-1.119-2.5-2.5V6.244H48.318c-1.381,0-2.5-1.119-2.5-2.5
		c0-1.381,1.119-2.5,2.5-2.5H72.5c1.381,0,2.5,1.119,2.5,2.5v24.731C75,29.856,73.881,30.975,72.5,30.975z"/>
</g>
</svg>
