<?xml version="1.0" encoding="utf-8"?>
<!-- Generator: Adobe Illustrator 16.0.0, SVG Export Plug-In . SVG Version: 6.00 Build 0)  -->
<!DOCTYPE svg PUBLIC "-//W3C//DTD SVG 1.1//EN" "http://www.w3.org/Graphics/SVG/1.1/DTD/svg11.dtd">
<svg version="1.1" id="圖層_1" xmlns="http://www.w3.org/2000/svg" xmlns:xlink="http://www.w3.org/1999/xlink" x="0px" y="0px"
	 width="75px" height="75px" viewBox="0 0 75 75" enable-background="new 0 0 75 75" xml:space="preserve">
<g>
	<path fill="#808080" d="M37.5,1.245C16.822,1.245,0,17.463,0,37.398c0,9.209,3.52,17.827,9.948,24.519l-6.261,7.771
		c-0.637,0.791-0.733,1.888-0.243,2.775c0.443,0.805,1.286,1.293,2.188,1.293c0.096,0,0.191-0.005,0.288-0.017l19.193-2.216
		c3.973,1.342,8.136,2.028,12.387,2.028c5.291,0,10.406-1.042,15.204-3.096c1.269-0.543,1.856-2.013,1.313-3.282
		s-2.014-1.855-3.283-1.314c-4.172,1.787-8.625,2.692-13.234,2.692c-3.886,0-7.687-0.649-11.295-1.932
		c-0.448-0.16-0.911-0.177-1.346-0.085c-0.051,0.003-0.1-0.004-0.151,0.002l-13.3,1.535l3.851-4.78
		c0.036-0.044,0.059-0.094,0.091-0.14c0.05-0.072,0.1-0.144,0.142-0.219c0.04-0.072,0.072-0.145,0.104-0.219
		c0.033-0.074,0.065-0.15,0.09-0.227c0.025-0.079,0.043-0.158,0.06-0.239c0.017-0.077,0.033-0.153,0.042-0.231
		c0.01-0.08,0.012-0.162,0.013-0.242c0.002-0.08,0.003-0.157-0.003-0.236c-0.006-0.08-0.019-0.157-0.033-0.236
		c-0.014-0.08-0.027-0.158-0.049-0.236c-0.021-0.076-0.048-0.149-0.076-0.224c-0.029-0.077-0.058-0.153-0.095-0.228
		c-0.035-0.072-0.078-0.139-0.121-0.208c-0.044-0.07-0.087-0.14-0.138-0.206c-0.051-0.066-0.109-0.127-0.167-0.188
		c-0.04-0.043-0.072-0.091-0.115-0.131C8.554,53.951,5,45.965,5,37.398C5,20.22,19.579,6.245,37.5,6.245S70,20.22,70,37.398
		c0,6.476-2.053,12.683-5.938,17.952c-0.818,1.111-0.582,2.678,0.529,3.496c1.11,0.818,2.678,0.584,3.496-0.529
		C72.609,52.182,75,44.949,75,37.398C75,17.463,58.178,1.245,37.5,1.245z"/>
	<g>
		<path fill="#808080" d="M54.159,28.653H20.841c-1.381,0-2.5-1.118-2.5-2.498c0-1.38,1.119-2.498,2.5-2.498h33.318
			c1.381,0,2.5,1.118,2.5,2.498C56.659,27.535,55.54,28.653,54.159,28.653z"/>
		<path fill="#808080" d="M54.159,39.893H20.841c-1.381,0-2.5-1.119-2.5-2.499c0-1.38,1.119-2.498,2.5-2.498h33.318
			c1.381,0,2.5,1.118,2.5,2.498C56.659,38.773,55.54,39.893,54.159,39.893z"/>
		<path fill="#808080" d="M41.516,51.343H20.841c-1.381,0-2.5-1.118-2.5-2.497c0-1.381,1.119-2.498,2.5-2.498h20.675
			c1.381,0,2.5,1.117,2.5,2.498C44.016,50.225,42.896,51.343,41.516,51.343z"/>
	</g>
</g>
</svg>
