<?xml version="1.0" encoding="utf-8"?>
<!-- Generator: Adobe Illustrator 17.0.0, SVG Export Plug-In . SVG Version: 6.00 Build 0)  -->
<!DOCTYPE svg PUBLIC "-//W3C//DTD SVG 1.1//EN" "http://www.w3.org/Graphics/SVG/1.1/DTD/svg11.dtd">
<svg version="1.1" id="圖層_1" xmlns="http://www.w3.org/2000/svg" xmlns:xlink="http://www.w3.org/1999/xlink" x="0px" y="0px"
	 width="75px" height="75px" viewBox="0 0 75 75" enable-background="new 0 0 75 75" xml:space="preserve">
<g>
	<path fill="#20294E" d="M53.402,71.728H36.077c-1.408,0-2.548-1.141-2.548-2.548c0-1.408,1.141-2.548,2.548-2.548h17.325
		c1.408,0,2.548,1.141,2.548,2.548C55.95,70.588,54.809,71.728,53.402,71.728z"/>
	<g>
		<polygon fill="#20294E" points="17.216,68.303 15.834,69.507 2.221,69.48 9.518,60.882 		"/>
		<path fill="#20294E" d="M15.834,71.728c-0.001,0-0.003,0-0.004,0L2.217,71.702c-0.865-0.002-1.65-0.505-2.012-1.29
			c-0.363-0.785-0.236-1.709,0.323-2.368l7.296-8.598c0.397-0.468,0.97-0.751,1.583-0.781c0.61-0.029,1.211,0.194,1.653,0.62
			l7.698,7.42c0.449,0.432,0.695,1.033,0.679,1.655c-0.016,0.623-0.292,1.21-0.761,1.619l-0.433,0.957
			C17.838,71.286,16.37,71.728,15.834,71.728z M7.012,67.268l5.942,0.012L9.68,64.124L7.012,67.268z"/>
	</g>
	<path fill="none" stroke="#040000" stroke-width="5" stroke-linecap="round" stroke-linejoin="round" stroke-miterlimit="10" d="
		M20.22,40.256"/>
	<path fill="#20294E" d="M17.168,71.172c-0.662,0-1.314-0.258-1.802-0.747l-7.518-7.519C7.09,62.149,6.887,61,7.339,60.03
		l9.874-21.217c0.154-0.332,0.378-0.626,0.657-0.864L57.807,3.882c1.041-0.889,2.598-0.796,3.526,0.21l6.167,6.681l6.68,6.166
		c1.005,0.928,1.099,2.485,0.21,3.526L40.323,60.404c-0.237,0.278-0.532,0.502-0.864,0.657l-21.217,9.874
		C17.899,71.094,17.532,71.172,17.168,71.172z M12.712,60.564l4.997,4.997l19.097-8.887l32.117-37.652l-4.954-4.573
		c-0.05-0.046-0.098-0.094-0.144-0.144L59.251,9.35L21.599,41.466L12.712,60.564z"/>
	<path fill="#20294E" d="M38.34,60.925c-0.652,0-1.305-0.249-1.802-0.747L18.355,41.995c-0.995-0.995-0.995-2.609,0-3.604
		c0.994-0.995,2.609-0.995,3.604,0l18.183,18.183c0.995,0.995,0.995,2.609,0,3.604C39.645,60.676,38.992,60.925,38.34,60.925z"/>
</g>
</svg>
