<?xml version="1.0" encoding="utf-8"?>
<!-- Generator: Adobe Illustrator 16.0.0, SVG Export Plug-In . SVG Version: 6.00 Build 0)  -->
<!DOCTYPE svg PUBLIC "-//W3C//DTD SVG 1.1//EN" "http://www.w3.org/Graphics/SVG/1.1/DTD/svg11.dtd">
<svg version="1.1" id="圖層_1" xmlns="http://www.w3.org/2000/svg" xmlns:xlink="http://www.w3.org/1999/xlink" x="0px" y="0px"
	 width="75px" height="75px" viewBox="0 0 75 75" enable-background="new 0 0 75 75" xml:space="preserve">
<g>
	<g>
		<path fill="#EC7563" d="M22.899,15.963H3.063C1.37,15.963,0,14.593,0,12.899s1.37-3.064,3.063-3.064h19.836
			c1.693,0,3.064,1.37,3.064,3.064S24.593,15.963,22.899,15.963z"/>
		<path fill="#EC7563" d="M19.835,27.837H6.128c-1.693,0-3.064-1.371-3.064-3.064c0-1.694,1.371-3.065,3.064-3.065h13.707
			c1.694,0,3.064,1.371,3.064,3.065C22.899,26.466,21.529,27.837,19.835,27.837z"/>
		<path fill="#EC7563" d="M19.835,40.092H6.128c-1.693,0-3.064-1.369-3.064-3.063s1.371-3.064,3.064-3.064h13.707
			c1.694,0,3.064,1.37,3.064,3.064S21.529,40.092,19.835,40.092z"/>
		<path fill="#EC7563" d="M12.986,15.963c-0.09,0-0.18-0.003-0.27-0.012c-1.688-0.147-2.933-1.634-2.786-3.318
			c-0.076-0.91-1.654-5.06-3.081-8.268C6.164,2.821,6.858,1.008,8.405,0.323c1.551-0.694,3.359,0.006,4.043,1.554
			c2.537,5.697,3.746,9.497,3.588,11.289C15.896,14.76,14.558,15.963,12.986,15.963z"/>
		<path fill="#EC7563" d="M22.009,74.945c-1.694,0-3.064-1.369-3.064-3.063V51.84H7.708v20.043c0,1.693-1.371,3.063-3.064,3.063
			S1.58,73.576,1.58,71.883V48.775c0-1.693,1.37-3.063,3.063-3.063h17.365c1.692,0,3.063,1.369,3.063,3.063v23.106
			C25.072,73.576,23.701,74.945,22.009,74.945z"/>
		<path fill="#EC7563" d="M22.009,68.436H4.644c-1.693,0-3.063-1.371-3.063-3.063s1.37-3.063,3.063-3.063h17.365
			c1.692,0,3.063,1.371,3.063,3.063S23.701,68.436,22.009,68.436z"/>
	</g>
	<g>
		<path fill="#EC7563" d="M67.16,73.25H54.65c-1.694,0-3.065-1.371-3.065-3.064c0-1.692,1.371-3.063,3.065-3.063h12.51
			c0.445,0,1.029-0.062,1.287-0.353c0.419-0.477,0.47-1.645,0.404-2.164c-0.019-0.127-0.029-0.291-0.029-0.42V7.881H29.626
			c-1.693,0-3.064-1.37-3.064-3.064s1.371-3.064,3.064-3.064h42.261c1.691,0,3.063,1.37,3.063,3.064v59.188
			c0.104,1.017,0.252,4.313-1.858,6.759C72.116,71.896,70.29,73.25,67.16,73.25z"/>
		<path fill="#EC7563" d="M60.395,23.076h-27.5c-1.693,0-3.063-1.371-3.063-3.064c0-1.694,1.37-3.064,3.063-3.064h27.5
			c1.695,0,3.064,1.37,3.064,3.064C63.459,21.705,62.09,23.076,60.395,23.076z"/>
		<path fill="#EC7563" d="M60.395,60.102H32.436c-1.694,0-3.063-1.369-3.063-3.063v-22.98c0-1.694,1.369-3.064,3.063-3.064h27.958
			c1.695,0,3.064,1.37,3.064,3.064v22.98C63.459,58.732,62.09,60.102,60.395,60.102z M35.499,53.975h21.832V37.121H35.499V53.975z"
			/>
	</g>
</g>
</svg>
