<?xml version="1.0" encoding="utf-8"?>
<!-- Generator: Adobe Illustrator 16.0.0, SVG Export Plug-In . SVG Version: 6.00 Build 0)  -->
<!DOCTYPE svg PUBLIC "-//W3C//DTD SVG 1.1//EN" "http://www.w3.org/Graphics/SVG/1.1/DTD/svg11.dtd">
<svg version="1.1" id="圖層_1" xmlns="http://www.w3.org/2000/svg" xmlns:xlink="http://www.w3.org/1999/xlink" x="0px" y="0px"
	 width="75px" height="75px" viewBox="0 0 75 75" enable-background="new 0 0 75 75" xml:space="preserve">
<g>
	<g>
		<path fill="#EC7563" d="M18.068,19.853c-1.059,0-2.088-0.549-2.651-1.533C13.663,15.266,6.535,7.821,3.937,5.208
			C2.747,4.015,2.752,2.08,3.949,0.89c1.19-1.192,3.129-1.184,4.318,0.01c1.015,1.019,9.98,10.08,12.446,14.377
			c0.842,1.464,0.334,3.332-1.127,4.17C19.106,19.721,18.584,19.853,18.068,19.853z"/>
		<path fill="#EC7563" d="M11.662,75c-0.594,0-1.19-0.173-1.709-0.521c-1.148-0.775-1.632-2.226-1.175-3.535l1.596-4.602V33.009
			H3.516c-1.688,0-3.054-1.366-3.054-3.055S1.827,26.9,3.516,26.9h9.911c1.688,0,3.054,1.365,3.054,3.054v33.733l7.171-6.258
			c1.265-1.106,3.194-0.979,4.31,0.295c1.106,1.271,0.976,3.199-0.295,4.311L13.668,74.248C13.099,74.746,12.38,75,11.662,75z"/>
	</g>
	<g>
		<path fill="#EC7563" d="M66.723,73.133H54.252c-1.688,0-3.054-1.365-3.054-3.054s1.366-3.056,3.054-3.056h12.471
			c0.444,0,1.025-0.06,1.282-0.352c0.418-0.475,0.468-1.638,0.402-2.156c-0.019-0.125-0.029-0.289-0.029-0.418V7.976H29.309
			c-1.688,0-3.054-1.366-3.054-3.054c0-1.687,1.366-3.054,3.054-3.054h42.123c1.688,0,3.055,1.368,3.055,3.054V63.92
			c0.104,1.012,0.25,4.298-1.853,6.734C71.661,71.785,69.842,73.133,66.723,73.133z"/>
		<path fill="#EC7563" d="M59.979,23.122H32.567c-1.688,0-3.055-1.366-3.055-3.054s1.366-3.054,3.055-3.054h27.412
			c1.688,0,3.056,1.366,3.056,3.054S61.667,23.122,59.979,23.122z"/>
		<path fill="#EC7563" d="M59.979,60.027H32.11c-1.688,0-3.054-1.366-3.054-3.055V34.068c0-1.688,1.366-3.055,3.054-3.055h27.869
			c1.688,0,3.056,1.366,3.056,3.055v22.907C63.033,58.661,61.667,60.027,59.979,60.027z M35.165,53.919h21.76V37.122h-21.76V53.919z
			"/>
	</g>
</g>
</svg>
