<?xml version="1.0" encoding="utf-8"?>
<!-- Generator: Adobe Illustrator 16.0.0, SVG Export Plug-In . SVG Version: 6.00 Build 0)  -->
<!DOCTYPE svg PUBLIC "-//W3C//DTD SVG 1.1//EN" "http://www.w3.org/Graphics/SVG/1.1/DTD/svg11.dtd">
<svg version="1.1" id="圖層_1" xmlns="http://www.w3.org/2000/svg" xmlns:xlink="http://www.w3.org/1999/xlink" x="0px" y="0px"
	 width="75px" height="75px" viewBox="0 0 75 75" enable-background="new 0 0 75 75" xml:space="preserve">
<g>
	<g>
		<path fill="#1E284B" d="M-32.056,112.153l0.938-0.467l0.963-0.386l0.504-0.181l0.481-0.142l0.986-0.264l1.053-0.224l1.054-0.142
			l1.076-0.102l1.099-0.021l1.146,0.021l1.1,0.102l1.077,0.142l1.031,0.224l1.031,0.264l0.963,0.322l0.962,0.386l0.894,0.467
			l0.895,0.468l0.847,0.547l0.801,0.589l0.756,0.629l0.711,0.648l0.663,0.711l0.621,0.75l0.572,0.791l0.48,0.71l0.414,0.751
			l0.344,0.751l0.297,0.81l0.252,0.793l0.183,0.83l0.115,0.853l0.069,0.892l0.045,0.791l0.023,0.69l-0.068,0.711l-0.069,0.688
			l-0.16,0.711l-0.16,0.668l-0.229,0.691l-0.252,0.648l-0.344,0.669l-0.297,0.608l-0.367,0.629l-0.39,0.589l-0.457,0.609
			l-0.459,0.566l-0.504,0.569l-0.526,0.526l-0.595,0.547l5.061,8.48l-13.195-4.688l-3.277,0.285l-1.099-0.063l-0.252-0.039
			l-0.275-0.02l-0.549-0.039l-1.054-0.165l-1.053-0.204l-0.229-0.079l-0.116-0.04l-0.136-0.02l-0.504-0.145l-0.481-0.162
			l-0.504-0.141l-0.963-0.386l-0.457-0.224l-0.48-0.203l-0.093-0.08l-0.045-0.039l-0.068-0.023l-0.229-0.119l-0.435-0.243
			l-0.412-0.286l-0.092-0.079l-0.046-0.042l-0.068-0.021l-0.229-0.122l-0.184-0.161l-0.091-0.082l-0.047-0.04l-0.069-0.02
			l-0.411-0.283l-0.367-0.306l-0.39-0.283l-0.024-0.063l-0.045-0.04l-0.092-0.082l-0.181-0.161l-0.368-0.326l-0.32-0.365
			l-0.022-0.06l-0.045-0.039l-0.092-0.082l-0.183-0.162l-0.139-0.204l-0.022-0.059l-0.047-0.043l-0.092-0.079l-0.32-0.365
			l-0.275-0.386l-0.297-0.365l-0.229-0.428l-0.252-0.405l-0.229-0.425l-0.229-0.407l-0.182-0.445l-0.184-0.427l-0.161-0.445
			l-0.023-0.121l-0.045-0.103l-0.09-0.201l-0.048-0.243l-0.022-0.125l-0.045-0.099l-0.113-0.448l-0.184-0.932l-0.045-0.487
			l-0.047-0.467l-0.021-0.487l-0.048-0.467v-0.791l0.116-0.892l0.137-0.853l0.206-0.83l0.229-0.793l0.32-0.81l0.344-0.751
			l0.414-0.751l0.435-0.71l0.572-0.791l0.62-0.75l0.663-0.711l0.368-0.346l0.342-0.303l0.756-0.629l0.802-0.589l0.848-0.547
			L-32.056,112.153L-32.056,112.153 M-23.902,112.46l-0.915,0.02l-0.917,0.079l-0.87,0.122l-0.895,0.184l-0.847,0.224l-0.414,0.122
			l-0.433,0.161l-0.803,0.346l-0.803,0.386l-0.732,0.385l-0.709,0.468l-0.664,0.464l-0.664,0.55l-0.574,0.547l-0.572,0.608
			l-0.527,0.629l-0.483,0.669l-0.343,0.589l-0.344,0.608l-0.296,0.629l-0.253,0.648l-0.205,0.648l-0.162,0.691l-0.113,0.708
			l-0.094,0.73l-0.045,0.791l0.069,0.813l0.092,0.813l0.159,0.771l0.184,0.771l0.275,0.73l0.297,0.729l0.116,0.164l0.09,0.181
			l0.184,0.365l0.115,0.162l0.092,0.184l0.181,0.365l0.139,0.142l0.113,0.162l0.231,0.325l0.275,0.304l0.252,0.325l0.297,0.283
			l0.274,0.303l0.574,0.569l0.343,0.244l0.321,0.264l0.664,0.486l0.367,0.224l0.342,0.244l0.732,0.425l0.414,0.165l0.207,0.078
			l0.183,0.103l0.412,0.161l0.391,0.162l0.433,0.121l0.414,0.145l0.436,0.122l0.411,0.122l0.459,0.079l0.229,0.042h0.068l0.045,0.02
			l0.093,0.041l0.87,0.141l0.917,0.082l0.915,0.061l3.164-0.324l0.411-0.102l7.468,2.676l-2.818-4.604l0.779-0.586l0.574-0.448
			l0.502-0.464l0.481-0.487l0.437-0.487l0.435-0.529l0.367-0.527l0.365-0.566l0.3-0.569l0.32-0.605l0.252-0.592l0.229-0.606
			l0.16-0.609l0.16-0.648l0.091-0.629l0.071-0.648v-0.631l-0.048-0.791l-0.159-1.438l-0.161-0.691l-0.206-0.648l-0.253-0.648
			l-0.297-0.629l-0.343-0.608l-0.391-0.589l-0.458-0.669l-0.525-0.629l-0.551-0.608l-0.619-0.547l-0.617-0.55l-0.688-0.464
			l-0.71-0.468l-0.78-0.385l-0.756-0.386l-0.802-0.346l-0.824-0.283l-0.869-0.224l-0.873-0.184L-22,112.559l-0.917-0.079
			L-23.902,112.46L-23.902,112.46z"/>
		<path fill="#1E284B" d="M-7.43,144.154c-0.122,0-0.245-0.02-0.364-0.061l-12.972-4.609l-3.041,0.266
			c-0.052,0.004-0.104,0.006-0.156,0.002l-2.192-0.162l-2.235-0.385c-0.05-0.01-0.1-0.023-0.148-0.041l-0.229-0.078
			c-0.048-0.008-0.149-0.029-0.196-0.043l-1.484-0.445l-2.032-0.859c-0.101-0.043-0.195-0.101-0.278-0.172l0.002-0.002
			c-0.002-0.002-0.004-0.002-0.005-0.002l-0.695-0.381l-0.5-0.341c-0.015-0.011-0.051-0.04-0.088-0.069
			c-0.003-0.002-0.006-0.004-0.009-0.005l-0.229-0.122c-0.075-0.039-0.144-0.088-0.208-0.143l-0.184-0.162l0.001-0.002
			c-0.042-0.02-0.079-0.041-0.108-0.063l-1.189-0.887c-0.099-0.072-0.185-0.16-0.253-0.26l-0.956-0.94
			c-0.026-0.029-0.05-0.061-0.072-0.092l-0.173-0.152c-0.068-0.061-0.128-0.128-0.179-0.203l-0.135-0.198
			c-0.038-0.035-0.071-0.067-0.084-0.082l-0.918-1.146c-0.044-0.054-0.082-0.111-0.115-0.172l-1.346-2.622l-0.185-0.504
			c-0.021-0.056-0.036-0.113-0.047-0.172l-0.081-0.177c-0.034-0.076-0.06-0.154-0.076-0.236l-0.048-0.243
			c-0.027-0.06-0.039-0.104-0.055-0.168l-0.31-1.436l-0.176-2.009l-0.006-0.901l0.268-1.917l0.463-1.753l0.721-1.711l0.909-1.575
			l1.281-1.666l1.492-1.482l1.633-1.279l0.903-0.584l1.913-0.994l2.127-0.778l2.12-0.507l2.253-0.263l1.182-0.024l1.185,0.02
			l2.299,0.253l2.189,0.512l2.06,0.752l1.888,0.979l1.789,1.224l1.556,1.351l1.389,1.572l1.115,1.585l0.845,1.657l0.598,1.727
			l0.208,0.926l0.252,2.706l0.024,0.718l-0.143,1.544l-0.344,1.523l-0.525,1.479l-1.083,2.061l-0.917,1.304l-1.018,1.203
			l-0.55,0.553l4.609,7.722c0.235,0.395,0.198,0.893-0.092,1.248C-6.8,144.014-7.11,144.154-7.43,144.154z M-20.625,137.293
			c0.124,0,0.247,0.021,0.364,0.063l10.35,3.676l-3.513-5.887c-0.264-0.442-0.181-1.009,0.198-1.357l1.088-1.042l1.32-1.629
			l0.686-1.112l0.819-1.771l0.502-1.915l0.115-1.265l-0.247-2.978l-0.394-1.438l-0.593-1.437l-0.807-1.306l-1.129-1.456
			l-1.268-1.249l-1.469-1.146l-0.792-0.509l-1.703-0.885l-1.766-0.642l-1.947-0.455l-2.046-0.224l-1.064-0.015l-1.06,0.02
			l-2.004,0.234l-2.802,0.755l-0.928,0.372l-1.698,0.883l-1.52,1.055l-1.367,1.193l-1.189,1.36l-0.917,1.376l-0.697,1.388
			l-0.493,1.452l-0.314,1.553l-0.111,0.859l0.166,2.458l0.25,1.136c0.034,0.087,0.07,0.189,0.081,0.249l0.083,0.317
			c0.036,0.079,0.107,0.264,0.123,0.35l0.658,1.512l1.417,2.128c0.028,0.024,0.058,0.051,0.062,0.054
			c0.106,0.097,0.226,0.243,0.296,0.383l0.083,0.074c0.079,0.069,0.195,0.192,0.29,0.315l0.744,0.721
			c0.053,0.048,0.125,0.122,0.196,0.204l0.923,0.7c0.097,0.044,0.192,0.099,0.259,0.155l-0.566,0.951l0.694-0.8l0.005,0.003
			l0.019-0.021l0.148,0.11c0.127,0.053,0.26,0.127,0.347,0.207l0.938,0.586c0.118,0.05,0.249,0.121,0.33,0.193l0,0l3.052,1.135
			c0.086,0.015,0.203,0.037,0.249,0.053l0.276,0.096l3.071,0.445l0.91,0.047l3.202-0.279
			C-20.688,137.294-20.657,137.293-20.625,137.293z M-12.859,139.793c-0.123,0-0.247-0.021-0.367-0.063l-7.159-2.566l-0.091,0.023
			c-0.049,0.012-0.101,0.021-0.151,0.025l-3.164,0.323c-0.06,0.007-0.119,0.008-0.181,0.004l-1.859-0.144l-0.947-0.152
			c-0.078-0.012-0.154-0.033-0.228-0.063c0,0-0.001,0-0.002-0.001l-1.629-0.388l-1.754-0.623c-0.046-0.018-0.09-0.039-0.134-0.063
			l-0.674-0.285c-0.05-0.02-0.099-0.043-0.145-0.069l-1.462-0.905l-1.392-1.036c-0.048-0.034-0.094-0.073-0.136-0.114l-1.129-1.141
			c-0.04-0.037-0.076-0.078-0.11-0.121l-0.926-1.162c-0.08-0.082-0.146-0.176-0.197-0.277l-0.3-0.564
			c-0.032-0.045-0.06-0.092-0.085-0.141l-0.308-0.572c-0.048-0.068-0.087-0.141-0.119-0.217l-0.583-1.487l-0.39-1.704l-0.18-1.752
			c-0.005-0.052-0.006-0.104-0.002-0.155l0.145-1.597l0.294-1.509l0.505-1.445l1.056-1.978l1.117-1.449l1.229-1.244l1.456-1.118
			l0.734-0.484l1.663-0.843l1.813-0.691l1.83-0.43l1.913-0.219l0.985-0.024l2.019,0.104l1.919,0.325l0.917,0.234l0.906,0.308
			l2.466,1.17l1.524,1.005c0.04,0.027,0.079,0.057,0.115,0.09l1.233,1.093l1.191,1.355l1.304,2.03l0.616,1.415l0.413,1.488
			l0.233,2.41l0.002,0.697l-0.173,1.433l-0.344,1.379l-0.533,1.348l-1.072,1.905l-0.875,1.157l-1.523,1.547l-0.647,0.51l2.303,3.764
			c0.241,0.393,0.208,0.896-0.083,1.254C-12.226,139.65-12.539,139.793-12.859,139.793z M-20.328,134.941
			c0.125,0,0.249,0.021,0.367,0.064l4.563,1.635l-1.208-1.973c-0.292-0.478-0.174-1.1,0.273-1.437l1.771-1.428l1.25-1.396
			l0.911-1.479l0.534-1.117l0.338-1.064l0.227-1.156l0.066-0.612l-0.053-1.237l-0.154-1.386l-0.322-1.13l-0.498-1.141l-1.105-1.718
			l-0.985-1.123l-1.098-0.964l-1.328-0.885l-2.17-1.024l-1.535-0.453l-1.66-0.281l-1.781-0.09l-1.717,0.095l-1.639,0.289
			l-1.533,0.46l-2.211,1.059l-1.257,0.861l-1.11,0.992l-1.016,1.148l-0.719,1.105l-0.596,1.154l-0.407,1.163l-0.326,1.939
			l-0.035,0.635l0.152,1.521l0.32,1.41l0.518,1.248c0.032,0.045,0.06,0.093,0.085,0.142l0.303,0.564
			c0.032,0.046,0.062,0.093,0.086,0.144l0.216,0.416c0.042,0.043,0.079,0.088,0.113,0.137l1.359,1.596l1.122,0.966l1.314,0.909
			l1.112,0.54c0.048,0.018,0.095,0.04,0.141,0.065l0.87,0.369l2.106,0.557c0.126,0.013,0.266,0.041,0.365,0.084l1.587,0.196
			l0.797,0.052l3.333-0.39C-20.503,134.953-20.416,134.941-20.328,134.941z"/>
	</g>
	<g>
		<circle fill="#1E284B" cx="20.981" cy="106.549" r="2.519"/>
		<path fill="#1E284B" d="M20.983,110.157c-1.99,0-3.608-1.618-3.608-3.608s1.618-3.608,3.608-3.608
			c1.988,0,3.605,1.618,3.605,3.608S22.971,110.157,20.983,110.157z M20.983,105.115c-0.79,0-1.434,0.644-1.434,1.434
			s0.644,1.434,1.434,1.434c0.789,0,1.43-0.644,1.43-1.434S21.772,105.115,20.983,105.115z"/>
	</g>
	<g>
		<path fill="#1E284B" d="M-3.154,120.21l-0.936,3.075c0,0,9.011,0,11.955,0c0,2.822,0,10.329,0,10.329s14.213,0,17.906,0
			c-0.531,2.979-3.075,8.442-14.438,10.91l-1.88,0.412v1.921c0,1.988,0.233,8.686,3.183,11.314l-0.246-0.257
			c0.133,0.16,3.312,3.896,9.707,4.808l0.168,0.024h10.177v-4.769c0,0-9.29,0-9.766,0c-4.422-0.663-6.55-3.031-6.64-3.132
			l-0.101-0.114l-0.132-0.122c-0.753-0.675-1.308-3.389-1.496-6.003c14.896-4.032,16.364-13.45,16.364-16.665
			c0-0.664-0.057-1.064-0.061-1.086l-0.317-2.011c0,0-14.072,0-17.662,0c0-2.821,0-10.328,0-10.328s-7.043,0-10.293,0
			c1.5-4.939,8.072-26.587,8.072-26.587L5.85,90.549L-3.154,120.21z"/>
		<path fill="#1E284B" d="M32.441,164.119H22.264c-0.067,0-0.136-0.007-0.202-0.015c-6.179-0.882-9.563-4.051-10.503-5.062
			c-3.138-3.001-3.477-9.516-3.477-12.186v-1.921c0-0.646,0.448-1.202,1.077-1.34l1.88-0.412c8.652-1.878,11.798-5.484,12.91-8.198
			H7.865c-0.758,0-1.372-0.615-1.372-1.372v-8.958H-4.09c-0.435,0-0.843-0.205-1.102-0.555c-0.258-0.35-0.337-0.801-0.21-1.216
			L4.537,90.15c0.222-0.723,0.971-1.137,1.711-0.914l4.562,1.382c0.349,0.105,0.639,0.345,0.81,0.666
			c0.172,0.32,0.21,0.696,0.104,1.044l-7.534,24.817h8.443c0.758,0,1.372,0.614,1.372,1.372v8.957h16.29
			c0.675,0,1.25,0.49,1.355,1.157l0.318,2.011c0.001,0.015,0.076,0.496,0.076,1.3c0,3.044-1.197,13.134-16.267,17.672
			c0.25,2.239,0.7,3.684,0.967,3.999c0.035,0.033,0.191,0.179,0.224,0.216c0.166,0.189,1.978,2.173,5.813,2.777h9.661
			c0.758,0,1.372,0.615,1.372,1.372v4.769C33.813,163.505,33.199,164.119,32.441,164.119z M13.726,157.341
			c0.849,0.853,3.685,3.329,8.563,4.023l8.781,0.011v-2.024h-8.396c-0.067,0-0.136-0.006-0.203-0.016
			c-4.79-0.719-7.2-3.285-7.46-3.575c-1.521-1.379-1.951-5.388-2.073-7.054c-0.048-0.654,0.375-1.25,1.009-1.423
			c14.246-3.854,15.353-12.718,15.353-15.341c0-0.502-0.038-0.821-0.045-0.883l-0.133-0.842H12.631c-0.756,0-1.37-0.614-1.37-1.372
			v-8.957H2.338c-0.433,0-0.842-0.205-1.103-0.555c-0.258-0.349-0.337-0.801-0.21-1.215L8.7,92.846l-1.937-0.588l-9.002,29.656
			H7.865c0.757,0,1.37,0.614,1.37,1.371v8.957h16.536c0.405,0,0.792,0.181,1.052,0.491c0.262,0.311,0.371,0.722,0.3,1.122
			c-0.602,3.358-3.411,9.385-15.5,12.011l-0.798,0.174v0.817c0,3.58,0.64,7.998,2.412,9.979c0.051,0.038,0.097,0.082,0.144,0.13
			l0.246,0.257C13.663,157.261,13.697,157.3,13.726,157.341z"/>
	</g>
</g>
<path fill="#1E284B" d="M-40.892,19.471c-3.476,0-6.294-2.818-6.294-6.294V-2.857c0-3.476,2.819-6.294,6.294-6.294
	c3.477,0,6.295,2.818,6.295,6.294v16.034C-34.595,16.652-37.415,19.471-40.892,19.471z"/>
<path fill="#1E284B" d="M-17.188,20.658h-47.998c-3.477,0-6.294-2.817-6.294-6.294c0-3.477,2.817-6.294,6.294-6.294h47.998
	c3.476,0,6.294,2.818,6.294,6.294C-10.894,17.841-13.712,20.658-17.188,20.658z"/>
<path fill="#1E284B" d="M-66.971,77.071c-3.001,0-5.658-2.152-6.193-5.211c-0.598-3.414,1.679-6.668,5.086-7.28
	c1.433-0.27,33.131-6.752,40.532-51.249c0.57-3.43,3.815-5.749,7.242-5.177c3.43,0.571,5.747,3.813,5.176,7.243
	c-4.624,27.807-17.958,43.024-28.329,50.893c-11.455,8.692-21.98,10.61-22.422,10.688C-66.245,77.041-66.611,77.071-66.971,77.071z"
	/>
<path fill="#1E284B" d="M-14.222,77.665c-0.053,0-0.107-0.002-0.16-0.003c-26.778-0.67-46.996-32.477-47.843-33.831
	c-1.846-2.946-0.952-6.831,1.995-8.675c2.944-1.844,6.825-0.954,8.672,1.989l0,0c0.173,0.274,17.491,27.43,37.491,27.931
	c3.476,0.089,6.222,2.977,6.135,6.451C-8.017,74.949-10.819,77.665-14.222,77.665z"/>
<g>
	<g>
		<path fill="#1E284B" d="M18.068,19.853c-1.059,0-2.088-0.549-2.651-1.533C13.663,15.266,6.535,7.821,3.937,5.208
			C2.747,4.015,2.752,2.08,3.949,0.89c1.19-1.192,3.129-1.184,4.318,0.01c1.015,1.019,9.98,10.08,12.446,14.377
			c0.842,1.464,0.334,3.332-1.127,4.17C19.106,19.721,18.584,19.853,18.068,19.853z"/>
		<path fill="#1E284B" d="M11.662,75c-0.594,0-1.19-0.173-1.709-0.522c-1.148-0.775-1.632-2.225-1.175-3.534l1.596-4.602V33.009
			H3.516c-1.688,0-3.054-1.366-3.054-3.055s1.365-3.054,3.054-3.054h9.911c1.688,0,3.054,1.365,3.054,3.054v33.733l7.171-6.258
			c1.265-1.106,3.194-0.979,4.31,0.295c1.106,1.271,0.976,3.2-0.295,4.311L13.668,74.248C13.099,74.746,12.38,75,11.662,75z"/>
	</g>
	<g>
		<path fill="#1E284B" d="M66.723,73.133H54.252c-1.688,0-3.054-1.366-3.054-3.054c0-1.688,1.366-3.055,3.054-3.055h12.471
			c0.444,0,1.025-0.06,1.282-0.352c0.418-0.475,0.468-1.638,0.402-2.156c-0.018-0.126-0.029-0.29-0.029-0.418V7.976H29.309
			c-1.688,0-3.054-1.366-3.054-3.054c0-1.687,1.366-3.054,3.054-3.054h42.123c1.688,0,3.055,1.368,3.055,3.054V63.92
			c0.104,1.011,0.25,4.298-1.853,6.734C71.661,71.785,69.842,73.133,66.723,73.133z"/>
		<path fill="#1E284B" d="M59.979,23.122H32.567c-1.688,0-3.055-1.366-3.055-3.054s1.366-3.054,3.055-3.054h27.412
			c1.688,0,3.055,1.366,3.055,3.054S61.667,23.122,59.979,23.122z"/>
		<path fill="#1E284B" d="M59.979,60.027H32.11c-1.688,0-3.054-1.366-3.054-3.054V34.068c0-1.688,1.366-3.055,3.054-3.055h27.869
			c1.688,0,3.055,1.366,3.055,3.055v22.906C63.033,58.661,61.667,60.027,59.979,60.027z M35.165,53.919h21.76V37.122h-21.76V53.919z
			"/>
	</g>
</g>
<g>
	<g>
		<path fill="#1E284B" d="M101.85-68.188H82.014c-1.693,0-3.063-1.37-3.063-3.064s1.37-3.064,3.063-3.064h19.836
			c1.693,0,3.064,1.37,3.064,3.064S103.543-68.188,101.85-68.188z"/>
		<path fill="#1E284B" d="M98.785-56.315H85.078c-1.693,0-3.064-1.371-3.064-3.064c0-1.694,1.371-3.065,3.064-3.065h13.707
			c1.694,0,3.064,1.371,3.064,3.065C101.85-57.686,100.479-56.315,98.785-56.315z"/>
		<path fill="#1E284B" d="M98.785-44.06H85.078c-1.693,0-3.064-1.369-3.064-3.063c0-1.694,1.371-3.064,3.064-3.064h13.707
			c1.694,0,3.064,1.37,3.064,3.064C101.85-45.429,100.479-44.06,98.785-44.06z"/>
		<path fill="#1E284B" d="M91.937-68.188c-0.09,0-0.18-0.003-0.27-0.012c-1.688-0.147-2.933-1.634-2.786-3.318
			c-0.076-0.91-1.654-5.06-3.081-8.268c-0.686-1.544,0.009-3.357,1.556-4.043c1.551-0.694,3.359,0.006,4.043,1.554
			c2.537,5.697,3.746,9.497,3.588,11.289C94.846-69.392,93.508-68.188,91.937-68.188z"/>
		<path fill="#1E284B" d="M100.959-9.207c-1.694,0-3.064-1.369-3.064-3.063v-20.043H86.658v20.043c0,1.693-1.371,3.063-3.064,3.063
			s-3.063-1.369-3.063-3.063v-23.107c0-1.693,1.37-3.063,3.063-3.063h17.365c1.692,0,3.063,1.369,3.063,3.063v23.107
			C104.022-10.576,102.651-9.207,100.959-9.207z"/>
		<path fill="#1E284B" d="M100.959-15.716H83.594c-1.693,0-3.063-1.371-3.063-3.064s1.37-3.064,3.063-3.064h17.365
			c1.692,0,3.063,1.371,3.063,3.064S102.651-15.716,100.959-15.716z"/>
	</g>
	<g>
		<path fill="#1E284B" d="M146.11-10.902h-12.509c-1.695,0-3.066-1.371-3.066-3.064s1.371-3.064,3.066-3.064h12.509
			c0.446,0,1.029-0.061,1.287-0.352c0.419-0.477,0.47-1.645,0.404-2.164c-0.018-0.127-0.029-0.291-0.029-0.42v-56.304h-39.196
			c-1.693,0-3.064-1.37-3.064-3.064s1.371-3.064,3.064-3.064h42.26c1.692,0,3.063,1.37,3.063,3.064v59.188
			c0.104,1.016,0.252,4.313-1.858,6.758C151.066-12.255,149.24-10.902,146.11-10.902z"/>
		<path fill="#1E284B" d="M139.345-61.076h-27.501c-1.693,0-3.063-1.371-3.063-3.064c0-1.694,1.37-3.064,3.063-3.064h27.501
			c1.695,0,3.064,1.37,3.064,3.064C142.409-62.447,141.04-61.076,139.345-61.076z"/>
		<path fill="#1E284B" d="M139.345-24.05h-27.959c-1.694,0-3.063-1.369-3.063-3.064v-22.98c0-1.694,1.369-3.064,3.063-3.064h27.959
			c1.695,0,3.064,1.37,3.064,3.064v22.98C142.409-25.419,141.04-24.05,139.345-24.05z M114.449-30.177h21.832v-16.854h-21.832
			V-30.177z"/>
	</g>
</g>
<g>
	<path fill="#1E284B" d="M94.64,102.504c-0.553,0-1-0.447-1-1c-0.021-0.476-1-2.409-2.095-4.135
		c-0.296-0.465-0.157-1.084,0.309-1.379c0.466-0.297,1.083-0.158,1.381,0.309c0.723,1.139,2.405,3.928,2.405,5.205
		C95.64,102.057,95.192,102.504,94.64,102.504z"/>
	<path fill="#1E284B" d="M105.64,102.504H83.015c-0.553,0-1-0.447-1-1s0.447-1,1-1h22.625c0.553,0,1,0.447,1,1
		S106.192,102.504,105.64,102.504z"/>
	<path fill="#1E284B" d="M83.015,120.754c-0.431,0-0.828-0.279-0.958-0.713c-0.158-0.528,0.142-1.086,0.671-1.245
		c15.363-4.608,16.62-16.858,16.666-17.378c0.049-0.549,0.524-0.959,1.082-0.909c0.55,0.047,0.957,0.529,0.91,1.079
		c-0.012,0.141-1.375,14.111-18.084,19.124C83.206,120.74,83.109,120.754,83.015,120.754z"/>
	<path fill="#1E284B" d="M105.141,120.754c-0.088,0-0.178-0.012-0.267-0.036c-12.599-3.471-17.471-16.214-17.672-16.755
		c-0.192-0.518,0.071-1.092,0.588-1.285c0.517-0.191,1.093,0.07,1.286,0.587c0.046,0.123,4.734,12.331,16.329,15.525
		c0.532,0.146,0.845,0.697,0.698,1.229C105.981,120.463,105.579,120.754,105.141,120.754z"/>
</g>
<g>
	<path fill="#1E284B" d="M257.234,28.294c-1.695,0-3.068-1.373-3.068-3.068v-12.56c0-1.696,1.373-3.068,3.068-3.068
		c1.696,0,3.069,1.372,3.069,3.068v12.56C260.304,26.921,258.931,28.294,257.234,28.294z"/>
	<path fill="#1E284B" d="M282.032,28.294H232.44c-1.696,0-3.068-1.373-3.068-3.068c0-1.696,1.372-3.069,3.068-3.069h49.592
		c1.696,0,3.068,1.373,3.068,3.069C285.101,26.921,283.729,28.294,282.032,28.294z"/>
	<path fill="#1E284B" d="M227.841,84.598c-1.447,0-2.736-1.027-3.012-2.502c-0.314-1.666,0.782-3.27,2.448-3.58
		c35.732-6.705,46.391-53.476,46.496-53.946c0.362-1.66,2.022-2.703,3.652-2.341c1.657,0.362,2.703,1.999,2.341,3.653
		c-0.458,2.088-11.675,51.221-51.356,58.663C228.219,84.58,228.026,84.598,227.841,84.598z"/>
	<path fill="#1E284B" d="M281.78,84.598c-0.141,0-0.284-0.008-0.432-0.029c-25.537-3.596-43.754-33.123-44.518-34.377
		c-0.882-1.447-0.42-3.336,1.027-4.215c1.45-0.887,3.335-0.418,4.217,1.025c0.171,0.281,17.488,28.301,40.131,31.488
		c1.678,0.238,2.847,1.789,2.61,3.469C284.601,83.49,283.285,84.598,281.78,84.598z"/>
</g>
<g>
	<path fill="none" stroke="#000000" stroke-width="2" stroke-linecap="round" stroke-linejoin="round" stroke-miterlimit="10" d="
		M151.172,95.805c0,0,3.151,3.166,3.917,4.5"/>
	
		<polyline fill="none" stroke="#000000" stroke-width="2" stroke-linecap="round" stroke-linejoin="round" stroke-miterlimit="10" points="
		150.325,104.612 153.57,104.612 153.57,116.695 152.992,118.361 157.575,114.362 	"/>
</g>
<g>
	<path fill="none" stroke="#000000" stroke-width="2" stroke-linecap="round" stroke-linejoin="round" stroke-miterlimit="10" d="
		M158.771,96.416h13.792v19.376c0,0,0.291,1.958-1.542,1.958h-4.083"/>
	
		<line fill="none" stroke="#000000" stroke-width="2" stroke-linecap="round" stroke-linejoin="round" stroke-miterlimit="10" x1="159.837" y1="101.375" x2="168.813" y2="101.375"/>
	
		<rect x="159.688" y="105.959" fill="none" stroke="#000000" stroke-width="2" stroke-linecap="round" stroke-linejoin="round" stroke-miterlimit="10" width="9.125" height="7.5"/>
</g>
<g>
	
		<line fill="none" stroke="#000000" stroke-width="2" stroke-linecap="round" stroke-linejoin="round" stroke-miterlimit="10" x1="150.102" y1="130.393" x2="156.575" y2="130.393"/>
	
		<line fill="none" stroke="#000000" stroke-width="2" stroke-linecap="round" stroke-linejoin="round" stroke-miterlimit="10" x1="151.102" y1="134.268" x2="155.575" y2="134.268"/>
	
		<line fill="none" stroke="#000000" stroke-width="2" stroke-linecap="round" stroke-linejoin="round" stroke-miterlimit="10" x1="151.102" y1="138.268" x2="155.575" y2="138.268"/>
	<path fill="none" stroke="#000000" stroke-width="2" stroke-linecap="round" stroke-linejoin="round" stroke-miterlimit="10" d="
		M152.251,127.201c0,0,1.143,2.566,1.088,3.191"/>
	
		<polyline fill="none" stroke="#000000" stroke-width="2" stroke-linecap="round" stroke-linejoin="round" stroke-miterlimit="10" points="
		150.617,149.643 150.617,142.102 156.284,142.102 156.284,149.643 	"/>
	
		<line fill="none" stroke="#000000" stroke-width="2" stroke-linecap="round" stroke-linejoin="round" stroke-miterlimit="10" x1="150.617" y1="147.518" x2="156.284" y2="147.518"/>
</g>
<g>
	<path fill="none" stroke="#000000" stroke-width="2" stroke-linecap="round" stroke-linejoin="round" stroke-miterlimit="10" d="
		M158.771,127.755h13.792v19.376c0,0,0.291,1.958-1.542,1.958h-4.083"/>
	
		<line fill="none" stroke="#000000" stroke-width="2" stroke-linecap="round" stroke-linejoin="round" stroke-miterlimit="10" x1="159.837" y1="132.714" x2="168.813" y2="132.714"/>
	
		<rect x="159.688" y="137.298" fill="none" stroke="#000000" stroke-width="2" stroke-linecap="round" stroke-linejoin="round" stroke-miterlimit="10" width="9.125" height="7.5"/>
</g>
<g>
	<path fill="none" stroke="#000000" stroke-width="2" stroke-linecap="round" stroke-linejoin="round" stroke-miterlimit="10" d="
		M187.438,94.499c0,0,2.25,3.545,2.25,4.67"/>
	
		<line fill="none" stroke="#000000" stroke-width="2" stroke-linecap="round" stroke-linejoin="round" stroke-miterlimit="10" x1="178.063" y1="99.169" x2="200.688" y2="99.169"/>
	<path fill="none" stroke="#000000" stroke-width="2" stroke-linecap="round" stroke-linejoin="round" stroke-miterlimit="10" d="
		M195.438,99.169c0,0-1.125,13.375-17.375,18.25"/>
	<path fill="none" stroke="#000000" stroke-width="2" stroke-linecap="round" stroke-linejoin="round" stroke-miterlimit="10" d="
		M183.188,101.279c0,0,4.75,12.765,17,16.14"/>
</g>
<g>
	<path fill="#1E284B" d="M206.809-64.024c-1.663,0-3.009-1.348-3.009-3.01c-0.063-1.431-3.01-7.25-6.305-12.442
		c-0.891-1.402-0.474-3.262,0.929-4.153c1.402-0.889,3.26-0.475,4.156,0.929c2.175,3.428,7.238,11.821,7.238,15.667
		C209.818-65.372,208.473-64.024,206.809-64.024z"/>
	<path fill="#1E284B" d="M239.914-64.024h-68.092c-1.663,0-3.01-1.348-3.01-3.01s1.347-3.009,3.01-3.009h68.092
		c1.664,0,3.01,1.347,3.01,3.009S241.578-64.024,239.914-64.024z"/>
	<path fill="#1E284B" d="M171.822-9.098c-1.296,0-2.492-0.842-2.883-2.147c-0.477-1.592,0.426-3.27,2.019-3.748
		c46.237-13.871,50.021-50.738,50.158-52.3c0.147-1.652,1.593-2.854,3.257-2.736c1.654,0.143,2.88,1.593,2.739,3.248
		c-0.035,0.422-4.139,42.469-54.426,57.556C172.398-9.141,172.107-9.098,171.822-9.098z"/>
	<path fill="#1E284B" d="M238.413-9.098c-0.265,0-0.535-0.036-0.803-0.11c-37.917-10.445-52.58-48.797-53.186-50.425
		c-0.579-1.557,0.215-3.288,1.77-3.868c1.558-0.58,3.289,0.21,3.871,1.767c0.138,0.37,14.248,37.11,49.144,46.725
		c1.602,0.441,2.543,2.099,2.102,3.7C240.943-9.975,239.732-9.098,238.413-9.098z"/>
</g>
<g>
	
		<line fill="none" stroke="#000000" stroke-width="2" stroke-linecap="round" stroke-linejoin="round" stroke-miterlimit="10" x1="186.579" y1="126.647" x2="186.579" y2="130.74"/>
	
		<line fill="none" stroke="#000000" stroke-width="2" stroke-linecap="round" stroke-linejoin="round" stroke-miterlimit="10" x1="178.499" y1="130.74" x2="194.66" y2="130.74"/>
	<path fill="none" stroke="#000000" stroke-width="2" stroke-linecap="round" stroke-linejoin="round" stroke-miterlimit="10" d="
		M192.945,130.74c0,0-3.515,16.018-15.944,18.349"/>
	<path fill="none" stroke="#000000" stroke-width="2" stroke-linecap="round" stroke-linejoin="round" stroke-miterlimit="10" d="
		M180.784,138.356c0,0,5.844,9.613,13.793,10.732"/>
</g>
<text transform="matrix(1 0 0 1 117.5 41.25)" font-family="'MicrosoftJhengHeiLight'" font-size="26.5066">文字</text>
</svg>
