<?xml version="1.0" encoding="utf-8"?>
<!-- Generator: Adobe Illustrator 16.0.0, SVG Export Plug-In . SVG Version: 6.00 Build 0)  -->
<!DOCTYPE svg PUBLIC "-//W3C//DTD SVG 1.1//EN" "http://www.w3.org/Graphics/SVG/1.1/DTD/svg11.dtd">
<svg version="1.1" id="圖層_1" xmlns="http://www.w3.org/2000/svg" xmlns:xlink="http://www.w3.org/1999/xlink" x="0px" y="0px"
	 width="300px" height="86.156px" viewBox="0 0 300 86.156" enable-background="new 0 0 300 86.156" xml:space="preserve">
<g>
	<g>
		<g>
			<path fill="#595758" d="M204.178,52.125c0,1.673-1.361,3.032-3.033,3.032c-1.674,0-3.033-1.359-3.033-3.032
				s1.359-3.035,3.033-3.035C202.816,49.09,204.178,50.452,204.178,52.125z M201.145,48.575c-1.959,0-3.549,1.593-3.549,3.55
				c0,1.956,1.59,3.549,3.549,3.549c1.957,0,3.549-1.593,3.549-3.549C204.693,50.168,203.102,48.575,201.145,48.575z"/>
		</g>
		<g>
			<path fill="#595758" d="M199.563,54.198V50.05h1.842c0.371,0,0.65,0.038,0.845,0.112c0.19,0.074,0.349,0.206,0.461,0.395
				c0.117,0.19,0.174,0.398,0.174,0.629c0,0.293-0.096,0.543-0.286,0.744c-0.189,0.202-0.484,0.329-0.884,0.385
				c0.146,0.07,0.257,0.139,0.332,0.207c0.16,0.146,0.312,0.33,0.453,0.553l0.719,1.126h-0.686l-0.552-0.861
				c-0.158-0.249-0.291-0.438-0.395-0.569c-0.104-0.135-0.197-0.225-0.279-0.278s-0.164-0.091-0.252-0.11
				c-0.063-0.013-0.162-0.02-0.307-0.02h-0.635V54.2h-0.551V54.198z M200.113,51.884h1.182c0.25,0,0.447-0.024,0.588-0.077
				c0.145-0.053,0.25-0.137,0.326-0.25c0.074-0.115,0.111-0.24,0.111-0.375c0-0.197-0.072-0.359-0.215-0.484
				c-0.144-0.129-0.369-0.191-0.678-0.191h-1.314V51.884L200.113,51.884z"/>
		</g>
	</g>
	<g>
		<g>
			<g>
				<g>
					<path fill="#1E9CD4" d="M63.719,36.686l2.909-0.151c0.04,0.923,0.2,1.547,0.479,1.872c0.448,0.525,1.276,0.787,2.484,0.787
						c1.007,0,1.732-0.179,2.182-0.536c0.447-0.356,0.672-0.79,0.672-1.297c0-0.439-0.184-0.812-0.55-1.114
						c-0.259-0.224-0.968-0.585-2.125-1.085c-1.158-0.5-2.005-0.916-2.539-1.252c-0.533-0.334-0.953-0.768-1.258-1.302
						c-0.306-0.534-0.458-1.158-0.458-1.875c0-1.249,0.452-2.287,1.357-3.11c0.907-0.825,2.218-1.236,3.937-1.236
						c1.743,0,3.095,0.408,4.049,1.223c0.957,0.816,1.483,1.901,1.579,3.256l-2.91,0.131c-0.073-0.708-0.333-1.251-0.774-1.628
						c-0.443-0.379-1.098-0.568-1.961-0.568c-0.852,0-1.459,0.149-1.822,0.446c-0.365,0.296-0.547,0.672-0.547,1.124
						c0,0.426,0.167,0.777,0.499,1.054c0.332,0.284,1.067,0.672,2.206,1.164c1.713,0.735,2.804,1.334,3.272,1.793
						c0.698,0.676,1.046,1.544,1.046,2.603c0,1.311-0.518,2.43-1.556,3.358c-1.038,0.928-2.48,1.393-4.333,1.393
						c-1.277,0-2.383-0.215-3.318-0.642c-0.937-0.427-1.596-1.02-1.981-1.78C63.87,38.549,63.692,37.675,63.719,36.686z"/>
					<path fill="#D8BF4D" d="M79.221,30.716h2.717l-0.253,1.299c1.066-1.03,2.187-1.545,3.36-1.545c0.81,0,1.434,0.167,1.873,0.505
						c0.438,0.337,0.718,0.802,0.841,1.395c0.37-0.538,0.903-0.99,1.598-1.354c0.696-0.363,1.418-0.545,2.168-0.545
						c0.855,0,1.522,0.23,2.003,0.693c0.479,0.462,0.719,1.073,0.719,1.834c-0.012,0.368-0.119,1.005-0.322,1.909l-1.384,6.547
						h-2.875l1.368-6.545c0.172-0.82,0.27-1.285,0.294-1.394c0-0.3-0.092-0.537-0.272-0.712c-0.182-0.173-0.453-0.261-0.815-0.261
						c-0.731,0-1.385,0.381-1.959,1.144c-0.417,0.546-0.771,1.515-1.066,2.902l-1.018,4.865H83.32l1.356-6.486
						c0.154-0.747,0.231-1.233,0.231-1.455c0-0.283-0.097-0.515-0.288-0.697c-0.194-0.181-0.461-0.272-0.799-0.272
						c-0.319,0-0.648,0.095-0.988,0.284c-0.339,0.188-0.636,0.447-0.89,0.778c-0.256,0.329-0.474,0.754-0.657,1.272
						c-0.086,0.242-0.223,0.792-0.412,1.647l-1.02,4.929h-2.877L79.221,30.716z"/>
					<path fill="#D8BF4D" d="M99.576,33.749l-2.815-0.24c0.321-0.952,0.881-1.697,1.681-2.234c0.799-0.536,1.858-0.806,3.177-0.806
						c1.371,0,2.384,0.277,3.04,0.834c0.655,0.556,0.982,1.233,0.982,2.036c0,0.322-0.028,0.666-0.085,1.03
						c-0.058,0.363-0.258,1.32-0.604,2.869c-0.282,1.28-0.426,2.176-0.426,2.688c0,0.458,0.084,0.967,0.247,1.525h-2.782
						c-0.135-0.391-0.217-0.794-0.249-1.212c-0.423,0.472-0.91,0.837-1.463,1.099c-0.549,0.262-1.104,0.392-1.662,0.392
						c-0.887,0-1.619-0.292-2.195-0.876c-0.579-0.583-0.868-1.334-0.868-2.253c0-1.024,0.318-1.845,0.954-2.458
						c0.635-0.615,1.769-0.987,3.402-1.114c1.38-0.114,2.301-0.252,2.765-0.415c0.12-0.406,0.182-0.731,0.182-0.976
						c0-0.312-0.122-0.572-0.368-0.782c-0.246-0.21-0.611-0.315-1.096-0.315c-0.515,0-0.918,0.104-1.213,0.313
						C99.884,33.066,99.683,33.363,99.576,33.749z M102.29,36.44c-0.176,0.048-0.408,0.092-0.696,0.134
						c-1.452,0.178-2.4,0.438-2.844,0.778c-0.315,0.245-0.474,0.577-0.474,0.994c0,0.341,0.121,0.63,0.362,0.865
						c0.242,0.236,0.562,0.354,0.959,0.354c0.436,0,0.847-0.106,1.234-0.322c0.385-0.216,0.674-0.491,0.865-0.83
						c0.192-0.339,0.362-0.866,0.512-1.584L102.29,36.44z"/>
					<path fill="#D8BF4D" d="M109.051,30.716h2.718l-0.435,2.066c1.007-1.542,2.094-2.313,3.268-2.313
						c0.415,0,0.859,0.104,1.334,0.313l-1.114,2.366c-0.263-0.094-0.544-0.141-0.843-0.141c-0.502,0-1.012,0.188-1.529,0.566
						c-0.52,0.377-0.926,0.882-1.216,1.512c-0.292,0.631-0.58,1.632-0.864,3.001l-0.684,3.367h-2.877L109.051,30.716z"/>
					<path fill="#D8BF4D" d="M115.723,32.883l0.435-2.167h1.442l0.354-1.701l3.323-2.011l-0.764,3.712h1.707l-0.432,2.167h-1.719
						l-0.961,4.524c-0.172,0.816-0.255,1.28-0.255,1.396c0,0.223,0.067,0.397,0.205,0.521c0.137,0.126,0.386,0.188,0.745,0.188
						c0.125,0,0.436-0.023,0.932-0.069l-0.464,2.138c-0.494,0.101-1,0.151-1.521,0.151c-1.015,0-1.753-0.199-2.212-0.597
						c-0.462-0.399-0.69-0.953-0.69-1.659c0-0.33,0.13-1.09,0.393-2.28l0.927-4.313H115.723z"/>
					<path fill="#1E9CD4" d="M124.996,41.453h-3.066l3.097-14.79h6.574c1.132,0,2.013,0.116,2.642,0.348
						c0.629,0.232,1.138,0.658,1.525,1.276c0.388,0.619,0.58,1.368,0.58,2.249c0,1.259-0.376,2.296-1.127,3.113
						c-0.753,0.816-1.892,1.323-3.419,1.518c0.39,0.351,0.757,0.812,1.101,1.382c0.679,1.159,1.436,2.792,2.271,4.904h-3.279
						c-0.263-0.834-0.775-2.137-1.54-3.906c-0.417-0.955-0.858-1.598-1.328-1.928c-0.29-0.194-0.793-0.292-1.51-0.292h-1.238
						L124.996,41.453z M126.744,33.099h1.613c1.633,0,2.716-0.098,3.25-0.292c0.533-0.194,0.953-0.498,1.254-0.915
						c0.304-0.413,0.454-0.851,0.454-1.307c0-0.534-0.218-0.937-0.654-1.205c-0.269-0.16-0.85-0.241-1.744-0.241h-3.345
						L126.744,33.099z"/>
					<path fill="#D8BF4D" d="M147.247,36.997h-7.257c-0.007,0.116-0.009,0.203-0.009,0.264c0,0.719,0.201,1.297,0.609,1.737
						c0.406,0.44,0.901,0.66,1.486,0.66c0.959,0,1.709-0.495,2.245-1.484l2.6,0.433c-0.505,1.041-1.178,1.823-2.021,2.344
						c-0.844,0.521-1.79,0.781-2.837,0.781c-1.438,0-2.606-0.457-3.508-1.372c-0.9-0.915-1.351-2.126-1.351-3.632
						c0-1.472,0.406-2.781,1.219-3.93c1.107-1.554,2.688-2.329,4.744-2.329c1.309,0,2.348,0.406,3.12,1.219
						c0.773,0.814,1.158,1.952,1.158,3.417C147.447,35.807,147.381,36.438,147.247,36.997z M144.817,35.233
						c0.007-0.129,0.011-0.226,0.011-0.294c0-0.8-0.18-1.398-0.535-1.797c-0.358-0.4-0.836-0.6-1.434-0.6
						c-0.601,0-1.137,0.228-1.611,0.681c-0.474,0.453-0.799,1.124-0.966,2.01H144.817L144.817,35.233z"/>
					<path fill="#D8BF4D" d="M152.451,33.749l-2.814-0.24c0.32-0.952,0.88-1.697,1.679-2.234c0.802-0.536,1.859-0.806,3.179-0.806
						c1.371,0,2.383,0.277,3.037,0.834c0.655,0.556,0.983,1.233,0.983,2.036c0,0.322-0.029,0.666-0.086,1.03
						c-0.057,0.363-0.258,1.32-0.602,2.869c-0.283,1.28-0.426,2.176-0.426,2.688c0,0.458,0.082,0.967,0.246,1.525h-2.783
						c-0.135-0.391-0.217-0.794-0.248-1.212c-0.424,0.472-0.91,0.837-1.461,1.099c-0.551,0.262-1.104,0.392-1.664,0.392
						c-0.887,0-1.618-0.292-2.195-0.876c-0.578-0.583-0.867-1.334-0.867-2.253c0-1.024,0.317-1.845,0.954-2.458
						c0.635-0.615,1.769-0.987,3.401-1.114c1.379-0.114,2.301-0.252,2.764-0.415c0.121-0.406,0.184-0.731,0.184-0.976
						c0-0.312-0.125-0.572-0.369-0.782c-0.245-0.21-0.612-0.315-1.098-0.315c-0.512,0-0.914,0.104-1.211,0.313
						C152.76,33.066,152.559,33.363,152.451,33.749z M155.164,36.44c-0.174,0.048-0.406,0.092-0.695,0.134
						c-1.451,0.178-2.398,0.438-2.844,0.778c-0.316,0.245-0.473,0.577-0.473,0.994c0,0.341,0.121,0.63,0.361,0.865
						c0.241,0.236,0.563,0.354,0.959,0.354c0.436,0,0.848-0.106,1.233-0.322c0.386-0.216,0.674-0.491,0.866-0.83
						c0.191-0.339,0.361-0.866,0.511-1.584L155.164,36.44z"/>
					<path fill="#D8BF4D" d="M169.736,41.453h-2.75l0.238-1.137c-0.525,0.506-1.043,0.868-1.554,1.087
						c-0.506,0.218-1.082,0.328-1.723,0.328c-1.111,0-2.013-0.38-2.703-1.141c-0.688-0.759-1.037-1.881-1.037-3.368
						c0-1.721,0.494-3.276,1.479-4.667c0.982-1.393,2.287-2.087,3.906-2.087c1.465,0,2.563,0.58,3.293,1.742l1.193-5.549h2.875
						L169.736,41.453z M163.027,37.116c0,0.77,0.195,1.371,0.588,1.802c0.391,0.431,0.875,0.647,1.447,0.647
						c0.533,0,1.026-0.181,1.487-0.541c0.459-0.361,0.828-0.912,1.104-1.654c0.277-0.742,0.416-1.453,0.416-2.135
						c0-0.775-0.213-1.403-0.635-1.882c-0.426-0.478-0.912-0.718-1.465-0.718c-0.861,0-1.563,0.472-2.119,1.416
						C163.301,34.996,163.027,36.018,163.027,37.116z"/>
					<path fill="#D8BF4D" d="M174.719,30.716h2.875l-2.246,10.737h-2.875L174.719,30.716z M175.568,26.663h2.875l-0.545,2.6h-2.877
						L175.568,26.663z"/>
					<path fill="#D8BF4D" d="M180.49,30.716h2.75l-0.279,1.414c0.695-0.599,1.346-1.024,1.951-1.279
						c0.602-0.253,1.238-0.381,1.906-0.381c0.895,0,1.6,0.256,2.113,0.766c0.516,0.512,0.771,1.189,0.771,2.034
						c-0.013,0.374-0.138,1.084-0.373,2.13l-1.308,6.055h-2.875l1.302-6.072c0.19-0.908,0.295-1.45,0.313-1.628
						c0-0.376-0.113-0.672-0.339-0.888c-0.223-0.216-0.534-0.323-0.937-0.323c-0.434,0-0.916,0.179-1.446,0.535
						c-0.531,0.356-0.949,0.827-1.252,1.413c-0.228,0.418-0.479,1.269-0.765,2.554l-0.899,4.409h-2.877L180.49,30.716z"/>
					<path fill="#D8BF4D" d="M190.727,42.041l3.068,0.439c0,0.307,0.049,0.539,0.148,0.696c0.096,0.156,0.256,0.29,0.475,0.4
						c0.219,0.109,0.518,0.166,0.896,0.166c0.649,0,1.172-0.124,1.563-0.37c0.293-0.192,0.533-0.499,0.72-0.925
						c0.114-0.267,0.262-0.851,0.438-1.747l0.104-0.501c-1.052,0.836-2.138,1.253-3.259,1.253c-1.041,0-1.896-0.369-2.562-1.107
						c-0.668-0.737-1.004-1.819-1.004-3.241c0-1.256,0.229-2.406,0.685-3.454c0.455-1.047,1.092-1.839,1.914-2.376
						c0.821-0.536,1.66-0.806,2.519-0.806c0.703,0,1.346,0.188,1.932,0.561c0.584,0.374,1.039,0.898,1.365,1.574l0.396-1.888h2.717
						l-1.706,8.915c-0.31,1.444-0.57,2.475-0.783,3.092c-0.211,0.617-0.455,1.108-0.729,1.476c-0.274,0.364-0.621,0.674-1.039,0.92
						c-0.418,0.247-0.912,0.426-1.479,0.534c-0.568,0.107-1.187,0.162-1.853,0.162c-1.502,0-2.64-0.26-3.403-0.773
						c-0.771-0.518-1.154-1.377-1.154-2.577C190.697,42.335,190.707,42.194,190.727,42.041z M194.137,36.802
						c0,0.809,0.18,1.424,0.543,1.849c0.365,0.425,0.82,0.637,1.369,0.637c0.51,0,1.008-0.19,1.49-0.571
						c0.482-0.382,0.852-0.921,1.107-1.624c0.256-0.702,0.383-1.38,0.383-2.034c0-0.755-0.209-1.362-0.631-1.824
						c-0.424-0.461-0.91-0.691-1.463-0.691c-0.515,0-0.986,0.204-1.414,0.611c-0.433,0.408-0.787,1.035-1.064,1.885
						C194.242,35.693,194.137,36.28,194.137,36.802z"/>
				</g>
			</g>
		</g>
	</g>
	<g>
		<path fill="#1E9CD4" d="M64.748,55.716h2.507c0.146,0,0.218,0.054,0.218,0.164v3.609c0.009,0.317,0.063,0.562,0.164,0.733
			c0.072,0.164,0.18,0.287,0.326,0.367c0.209,0.128,0.454,0.221,0.734,0.273c0.364,0.054,0.777,0.08,1.241,0.08h2.957
			c1.15,0,2.509-0.127,4.071-0.381c0.073-0.037,0.141-0.054,0.204-0.054c0.073,0,0.109,0.017,0.109,0.054
			c-0.109,0.373-0.195,0.748-0.261,1.131c-0.009,0.154-0.085,0.229-0.23,0.229h-6.851c-0.336,0-0.662-0.022-0.982-0.067
			c-0.308-0.045-0.611-0.116-0.912-0.217c-0.253-0.101-0.499-0.232-0.735-0.396c-0.146-0.145-0.313-0.391-0.504-0.734l-0.041-0.056
			c-0.064,0-0.1,0.011-0.109,0.028c-0.925,0.681-1.43,1.14-1.512,1.375c-0.026,0.047-0.068,0.066-0.122,0.066
			c-0.064,0-0.242-0.23-0.532-0.693c-0.046-0.08-0.068-0.177-0.068-0.285c0.536-0.217,1.204-0.618,2.004-1.198
			c0.045-0.035,0.067-0.122,0.067-0.259V56.6h-1.744c-0.107,0-0.164-0.078-0.164-0.233V55.93
			C64.585,55.788,64.64,55.716,64.748,55.716z M65.402,52.338c0.491,0.281,0.891,0.545,1.197,0.79
			c0.365,0.282,0.674,0.544,0.927,0.789c0,0.019-0.022,0.06-0.067,0.123c-0.263,0.39-0.403,0.586-0.422,0.586
			c-0.392-0.382-0.818-0.728-1.28-1.036c-0.363-0.254-0.664-0.431-0.899-0.531c0-0.063,0.145-0.271,0.437-0.625
			C65.339,52.369,65.375,52.338,65.402,52.338z M65.675,49.572c0.472,0.236,0.858,0.459,1.157,0.667
			c0.354,0.243,0.659,0.473,0.912,0.682c0,0.019-0.021,0.06-0.067,0.122c-0.262,0.391-0.403,0.585-0.422,0.585
			c-0.391-0.326-0.804-0.62-1.239-0.885c-0.354-0.226-0.65-0.382-0.885-0.463c0-0.054,0.145-0.259,0.435-0.613
			C65.602,49.604,65.639,49.572,65.675,49.572z M72.376,49.178c0.698,0,1.049,0.055,1.049,0.163c0,0.127-0.049,0.195-0.148,0.204
			c-0.092,0.018-0.139,0.113-0.139,0.286v0.651h3.707c0.071,0,0.108,0.058,0.108,0.164v0.437c0,0.11-0.037,0.163-0.108,0.163h-2.356
			l0.477,0.206c0.136,0.053,0.203,0.112,0.203,0.176c0,0.056-0.041,0.097-0.122,0.122c-0.082,0-0.133,0.041-0.15,0.124
			c-0.146,0.399-0.29,0.735-0.437,1.008h1.731c0.182,0,0.271,0.06,0.271,0.177v6.442c0,0.254-0.135,0.463-0.408,0.627
			c-0.265,0.108-0.601,0.183-1.008,0.218c-0.101,0-0.159-0.05-0.178-0.148c-0.01-0.2-0.114-0.494-0.314-0.885
			c0-0.028,0.027-0.043,0.083-0.043c0.409,0,0.643-0.03,0.706-0.095c0.092-0.055,0.137-0.146,0.137-0.272v-5.243h-2.505v1.021h1.962
			c0.073,0,0.109,0.061,0.109,0.178v0.424c0,0.117-0.037,0.177-0.109,0.177h-1.962v1.022h1.254c0.145,0,0.219,0.058,0.219,0.177
			v2.383c0,0.108-0.074,0.164-0.219,0.164h-2.725v0.382c0,0.107-0.073,0.163-0.218,0.163H70.74c-0.108,0-0.163-0.056-0.163-0.163
			v-2.929c0-0.118,0.055-0.177,0.163-0.177h1.254v-1.022h-1.689c-0.072,0-0.109-0.06-0.109-0.177v-0.424
			c0-0.117,0.037-0.178,0.109-0.178h1.689v-1.021h-2.289v6.306c0,0.117-0.073,0.18-0.218,0.18h-0.546
			c-0.146,0-0.219-0.062-0.219-0.18v-6.904c0-0.117,0.073-0.178,0.219-0.178h1.989c-0.026-0.063-0.054-0.128-0.083-0.191
			c-0.145-0.336-0.344-0.67-0.6-1.008c0-0.055,0.237-0.199,0.71-0.437c0.254,0.364,0.453,0.7,0.599,1.01
			c0.11,0.207,0.205,0.417,0.287,0.626h1.525c0.182-0.254,0.317-0.48,0.407-0.682c0.174-0.309,0.296-0.618,0.369-0.928
			c0-0.008,0-0.017,0-0.026h-5.64c-0.072,0-0.108-0.054-0.108-0.163v-0.436c0-0.109,0.036-0.164,0.108-0.164h3.651V49.34
			C72.158,49.23,72.231,49.178,72.376,49.178z M71.505,58.439h2.016v-1.186h-2.016V58.439z"/>
		<path fill="#1E9CD4" d="M80.125,51.792c0.689,0.146,1.034,0.254,1.034,0.327c0,0.101-0.055,0.174-0.163,0.219
			c-0.109,0.09-0.168,0.194-0.177,0.313c-0.093,0.974-0.206,1.781-0.34,2.427c-0.082,0.346-0.188,0.698-0.314,1.063
			c-0.036,0.08-0.068,0.121-0.095,0.121c-0.308-0.091-0.577-0.154-0.805-0.191c-0.082-0.018-0.122-0.063-0.122-0.137
			c0.19-0.463,0.354-0.975,0.49-1.537c0.145-0.556,0.258-1.359,0.34-2.412C79.974,51.857,80.024,51.792,80.125,51.792z
			 M81.54,49.123c0.69,0,1.035,0.055,1.035,0.163c0,0.129-0.045,0.194-0.137,0.205c-0.091,0.008-0.135,0.104-0.135,0.284v12
			c0,0.101-0.073,0.15-0.22,0.15h-0.545c-0.145,0-0.218-0.051-0.218-0.15V49.286C81.322,49.178,81.395,49.123,81.54,49.123z
			 M83.339,51.684c0.081,0,0.137,0.02,0.163,0.057c0.263,0.635,0.499,1.313,0.708,2.027c0,0.127-0.032,0.195-0.095,0.205
			c-0.326,0.227-0.587,0.34-0.776,0.34c-0.21-0.881-0.409-1.61-0.6-2.192C82.739,52.029,82.938,51.883,83.339,51.684z
			 M85.408,50.227l0.94,0.34c0.1,0.074,0.149,0.142,0.149,0.205c0,0.073-0.035,0.123-0.108,0.149c-0.073,0-0.118,0.06-0.138,0.177
			c-0.08,0.438-0.164,0.813-0.245,1.131h1.798v-2.888c0-0.108,0.073-0.163,0.219-0.163c0.689,0,1.034,0.055,1.034,0.163
			c0,0.127-0.045,0.195-0.137,0.204c-0.089,0.018-0.135,0.113-0.135,0.286v2.397h3.052c0.108,0,0.163,0.071,0.163,0.217v0.437
			c0,0.153-0.055,0.231-0.163,0.231h-3.052v3.201h2.724c0.109,0,0.163,0.078,0.163,0.23v0.423c0,0.155-0.054,0.231-0.163,0.231
			h-2.724v3.363h3.433c0.109,0,0.163,0.073,0.163,0.219v0.449c0,0.138-0.054,0.203-0.163,0.203h-8.011
			c-0.107,0-0.163-0.066-0.163-0.203v-0.449c0-0.146,0.056-0.219,0.163-0.219h3.597V57.2h-2.67c-0.108,0-0.163-0.076-0.163-0.231
			v-0.423c0-0.153,0.055-0.231,0.163-0.231h2.67v-3.2H85.79c-0.128,0.427-0.269,0.835-0.423,1.227
			c-0.155,0.371-0.323,0.703-0.503,0.995c-0.118,0-0.221-0.016-0.302-0.041c-0.18-0.072-0.358-0.143-0.53-0.204
			c-0.064-0.028-0.098-0.056-0.098-0.083c0-0.044,0.015-0.08,0.043-0.109c0.272-0.442,0.513-0.991,0.722-1.647
			c0.127-0.371,0.241-0.771,0.34-1.198c0.109-0.445,0.21-1.016,0.301-1.717C85.359,50.262,85.382,50.227,85.408,50.227z"/>
		<path fill="#1E9CD4" d="M95.228,49.396h4.575c0.146,0,0.218,0.06,0.218,0.178v3.908c0,0.117-0.071,0.179-0.218,0.179H95.99v8.05
			c0,0.117-0.072,0.176-0.217,0.176h-0.545c-0.146,0-0.218-0.058-0.218-0.176V49.573C95.01,49.455,95.082,49.396,95.228,49.396z
			 M95.99,51.139h3.161v-0.966H95.99V51.139z M95.99,52.883h3.161v-0.968H95.99V52.883z M98.551,54.463l0.83,0.354
			c0.137,0.055,0.204,0.119,0.204,0.19c0,0.046-0.063,0.077-0.189,0.097c-0.173,0-0.278,0.03-0.314,0.095
			c-0.262,0.264-0.517,0.491-0.762,0.681h4.834c-0.09-0.063-0.167-0.126-0.229-0.189c-0.227-0.199-0.396-0.432-0.504-0.695
			c-0.021-0.026-0.032-0.053-0.043-0.081h-1.976c-0.108,0-0.163-0.076-0.163-0.231v-0.423c0-0.116,0.055-0.178,0.163-0.178h2.508
			c0.146,0,0.218,0.06,0.218,0.178c0,0.22,0.054,0.409,0.164,0.572c0.099,0.163,0.235,0.305,0.408,0.423
			c0.163,0.117,0.391,0.223,0.682,0.313c0.208,0.063,0.437,0.117,0.68,0.164c0.064,0.011,0.095,0.022,0.095,0.041
			c0,0.026-0.041,0.06-0.122,0.096c-0.153,0.152-0.304,0.313-0.448,0.475c-0.063,0.057-0.15,0.083-0.259,0.083
			c-0.182-0.036-0.396-0.114-0.642-0.231c-0.081-0.035-0.158-0.072-0.23-0.109v2.521c0,0.107-0.073,0.162-0.218,0.162h-1.199v1.09
			c0,0.362,0.218,0.545,0.653,0.545h0.546c0.071,0,0.131-0.041,0.177-0.121c0.035-0.074,0.058-0.293,0.067-0.655
			c0.009-0.056,0.018-0.081,0.027-0.081c0.236,0.137,0.489,0.208,0.763,0.219c0.108,0.01,0.163,0.06,0.163,0.149
			c-0.073,0.554-0.171,0.921-0.299,1.103c-0.073,0.146-0.208,0.219-0.409,0.219h-1.471c-0.726,0-1.09-0.277-1.09-0.83V58.77h-0.98
			c-0.01,0.254-0.023,0.48-0.042,0.681c-0.046,0.256-0.127,0.495-0.245,0.723c-0.1,0.208-0.258,0.407-0.477,0.601
			c-0.228,0.181-0.505,0.34-0.83,0.476c-0.263,0.092-0.568,0.173-0.913,0.246c-0.082,0-0.132-0.045-0.15-0.138
			c-0.127-0.162-0.245-0.34-0.354-0.531c-0.027-0.045-0.041-0.09-0.041-0.135c0.454-0.073,0.818-0.151,1.09-0.232
			c0.218-0.073,0.391-0.167,0.518-0.285c0.138-0.092,0.241-0.205,0.313-0.34c0.091-0.146,0.159-0.318,0.205-0.518
			c0.027-0.129,0.041-0.311,0.041-0.545H98.28c-0.146,0-0.219-0.057-0.219-0.164v-2.533c-0.118,0.082-0.23,0.154-0.341,0.218
			c-0.118,0.056-0.203,0.081-0.259,0.081c-0.063,0-0.141-0.025-0.231-0.081c-0.189-0.082-0.367-0.158-0.531-0.231
			c-0.072-0.026-0.107-0.045-0.107-0.056c0-0.017,0.026-0.045,0.081-0.08c0.437-0.235,0.768-0.45,0.994-0.641
			c0.319-0.228,0.56-0.464,0.723-0.709C98.433,54.499,98.487,54.463,98.551,54.463z M102.474,57.949v-1.254h-3.433v1.254H102.474z
			 M101.712,49.396h4.631c0.182,0,0.271,0.06,0.271,0.178v10.951c0,0.463-0.168,0.822-0.503,1.074
			c-0.318,0.192-0.731,0.318-1.239,0.383c-0.1,0-0.154-0.051-0.164-0.149c-0.019-0.2-0.126-0.495-0.326-0.885
			c0-0.056,0.032-0.082,0.096-0.082c0.554,0,0.88-0.056,0.979-0.165c0.118-0.116,0.178-0.299,0.178-0.543v-6.499h-3.923
			c-0.146,0-0.218-0.06-0.218-0.177v-3.909C101.494,49.455,101.566,49.396,101.712,49.396z M102.474,51.139h3.16v-0.966h-3.16
			V51.139z M102.474,52.883h3.16v-0.968h-3.16V52.883z"/>
		<path fill="#1E9CD4" d="M109.623,51.465h4.195c0.108,0,0.163,0.073,0.163,0.219v0.437c0,0.146-0.055,0.219-0.163,0.219h-4.195
			c-0.109,0-0.163-0.073-0.163-0.219v-0.437C109.46,51.538,109.513,51.465,109.623,51.465z M110.003,57.514h3.433
			c0.146,0,0.219,0.055,0.219,0.163v3.759c0,0.11-0.072,0.164-0.219,0.164h-0.544c-0.109,0-0.163-0.054-0.163-0.164V61h-1.963v0.655
			c0,0.116-0.072,0.176-0.218,0.176h-0.545c-0.107,0-0.164-0.058-0.164-0.176v-3.979C109.839,57.568,109.896,57.514,110.003,57.514z
			 M110.276,49.45h3.052c0.107,0,0.163,0.077,0.163,0.231v0.422c0,0.146-0.056,0.219-0.163,0.219h-3.052
			c-0.109,0-0.164-0.073-0.164-0.219v-0.422C110.112,49.527,110.167,49.45,110.276,49.45z M110.276,53.428h3.052
			c0.107,0,0.163,0.077,0.163,0.23v0.422c0,0.156-0.056,0.232-0.163,0.232h-3.052c-0.109,0-0.164-0.076-0.164-0.232v-0.422
			C110.112,53.505,110.167,53.428,110.276,53.428z M110.276,55.402h3.052c0.107,0,0.163,0.066,0.163,0.203v0.449
			c0,0.139-0.056,0.205-0.163,0.205h-3.052c-0.109,0-0.164-0.066-0.164-0.205v-0.449C110.112,55.47,110.167,55.402,110.276,55.402z
			 M110.766,60.143h1.964v-1.798h-1.964V60.143z M115.18,56.098h6.047c0.146,0,0.22,0.055,0.22,0.163v4.087
			c0,0.108-0.073,0.163-0.22,0.163h-1.279c0.263,0.163,0.509,0.3,0.735,0.408c0.281,0.127,0.698,0.267,1.253,0.423
			c0.072,0.045,0.109,0.076,0.109,0.094c0,0.074-0.182,0.291-0.546,0.654c-0.026,0-0.073-0.004-0.137-0.014
			c-1.053-0.408-1.835-0.794-2.342-1.157c-0.055-0.035-0.082-0.063-0.082-0.08c0-0.047,0.096-0.155,0.286-0.327h-2.044
			c0.337,0.281,0.506,0.443,0.506,0.489c0,0.063-0.051,0.097-0.15,0.097c-0.174,0-0.268,0.021-0.285,0.066
			c-0.728,0.428-1.491,0.771-2.29,1.036c-0.1,0-0.171-0.036-0.218-0.11c-0.055-0.107-0.15-0.222-0.285-0.34
			c-0.063-0.055-0.097-0.104-0.097-0.15c0-0.035,0.038-0.063,0.109-0.08c0.428-0.129,0.798-0.272,1.117-0.437
			c0.326-0.146,0.645-0.336,0.953-0.571h-1.362c-0.146,0-0.218-0.056-0.218-0.164v-4.086
			C114.962,56.152,115.034,56.098,115.18,56.098z M114.581,50.05h3.16v-0.709c0-0.073,0.056-0.108,0.163-0.108
			c0.653,0,0.98,0.055,0.98,0.164c0,0.117-0.035,0.182-0.108,0.189c-0.074,0.01-0.11,0.092-0.11,0.245v0.219h3.161
			c0.071,0,0.108,0.06,0.108,0.177v0.313c0,0.155-0.037,0.229-0.108,0.229h-3.161v0.601h2.561c0.073,0,0.109,0.05,0.109,0.149v0.328
			c0,0.145-0.036,0.217-0.109,0.217h-6.101c-0.073,0-0.109-0.072-0.109-0.217V51.52c0-0.1,0.036-0.148,0.109-0.148h2.615v-0.6h-3.16
			c-0.073,0-0.11-0.076-0.11-0.23v-0.313C114.471,50.107,114.508,50.05,114.581,50.05z M114.688,52.666h7.029
			c0.146,0,0.218,0.052,0.218,0.161V55.4c0,0.101-0.072,0.15-0.218,0.15h-7.029c-0.145,0-0.218-0.051-0.218-0.15v-2.573
			C114.471,52.719,114.544,52.666,114.688,52.666z M116.542,54.953v-1.689h-1.197v1.689H116.542z M115.888,57.405h4.632V56.75
			h-4.632V57.405z M115.888,58.657h4.632v-0.653h-4.632V58.657z M120.52,59.855v-0.6h-4.632v0.6H120.52z M118.776,54.953v-1.689
			h-1.309v1.689H118.776z M121.063,54.953v-1.689h-1.36v1.689H121.063z"/>
	</g>
	<g>
		<path fill="#D8BF4D" d="M204.471,35.662h5.537l-0.576,2.754h-5.539L204.471,35.662z"/>
		<path fill="#1E9CD4" d="M219.105,42.294h-2.844l-0.527-12.18l-2.316,12.18h-2.705l3.043-14.575h4.275l0.447,10.211l4.971-10.211
			h4.326l-3.055,14.575h-2.732l2.873-12.09L219.105,42.294z"/>
		<path fill="#D8BF4D" d="M231.691,34.728l-2.783-0.238c0.318-0.94,0.873-1.678,1.666-2.207c0.793-0.53,1.842-0.796,3.146-0.796
			c1.356,0,2.364,0.273,3.014,0.821c0.649,0.547,0.975,1.214,0.975,2.003c0,0.318-0.027,0.656-0.084,1.015
			c-0.057,0.357-0.254,1.299-0.59,2.824c-0.279,1.259-0.42,2.141-0.42,2.644c0,0.452,0.08,0.951,0.238,1.502h-2.773
			c-0.113-0.384-0.184-0.782-0.211-1.192c-0.416,0.464-0.896,0.82-1.439,1.069c-0.543,0.248-1.09,0.372-1.641,0.372
			c-0.875,0-1.598-0.286-2.168-0.86c-0.57-0.573-0.854-1.312-0.854-2.212c0-1.008,0.311-1.813,0.938-2.417
			c0.627-0.603,1.746-0.967,3.355-1.093c1.358-0.113,2.268-0.248,2.725-0.408c0.119-0.397,0.18-0.716,0.18-0.954
			c0-0.306-0.123-0.561-0.367-0.768c-0.248-0.204-0.611-0.309-1.094-0.309c-0.512,0-0.914,0.105-1.209,0.314
			C231.998,34.046,231.799,34.344,231.691,34.728z M234.406,37.373c-0.172,0.046-0.4,0.088-0.686,0.13
			c-1.433,0.172-2.365,0.423-2.804,0.754c-0.313,0.239-0.469,0.562-0.469,0.966c0,0.33,0.118,0.611,0.358,0.841
			c0.238,0.227,0.553,0.342,0.943,0.342c0.432,0,0.836-0.104,1.219-0.313c0.381-0.208,0.666-0.477,0.854-0.806
			c0.188-0.327,0.356-0.839,0.504-1.535L234.406,37.373z"/>
		<path fill="#D8BF4D" d="M241.238,31.734h2.705l-0.279,1.373c0.676-0.583,1.309-0.999,1.895-1.248s1.203-0.373,1.854-0.373
			c0.869,0,1.553,0.248,2.055,0.746c0.5,0.496,0.75,1.156,0.75,1.979c0,0.371-0.108,1.073-0.327,2.108l-1.244,5.975h-2.853
			l1.252-5.995c0.187-0.895,0.279-1.429,0.279-1.601c0-0.364-0.109-0.652-0.326-0.86c-0.215-0.209-0.515-0.314-0.896-0.314
			c-0.42,0-0.883,0.178-1.396,0.528c-0.51,0.352-0.912,0.815-1.203,1.392c-0.211,0.411-0.448,1.25-0.717,2.517l-0.901,4.334h-2.855
			L241.238,31.734z"/>
		<path fill="#D8BF4D" d="M261.182,42.294h-2.703l0.238-1.143c-0.516,0.497-1.025,0.853-1.523,1.068
			c-0.502,0.215-1.065,0.322-1.696,0.322c-1.095,0-1.979-0.371-2.658-1.118c-0.68-0.745-1.021-1.847-1.021-3.306
			c0-1.69,0.478-3.218,1.431-4.583c0.957-1.367,2.219-2.049,3.789-2.049c1.42,0,2.481,0.563,3.19,1.689l1.146-5.457h2.854
			L261.182,42.294z M254.592,37.999c0,0.755,0.189,1.346,0.572,1.77c0.381,0.425,0.85,0.637,1.406,0.637
			c0.516,0,0.998-0.177,1.447-0.532c0.444-0.354,0.805-0.896,1.071-1.625c0.269-0.729,0.404-1.429,0.404-2.099
			c0-0.762-0.207-1.378-0.617-1.85c-0.41-0.47-0.885-0.706-1.422-0.706c-0.836,0-1.521,0.465-2.058,1.393
			C254.861,35.915,254.592,36.918,254.592,37.999z"/>
		<path fill="#D8BF4D" d="M267.896,34.728l-2.785-0.238c0.318-0.94,0.873-1.678,1.666-2.207c0.791-0.53,1.84-0.796,3.145-0.796
			c1.359,0,2.363,0.273,3.014,0.821c0.65,0.547,0.976,1.214,0.976,2.003c0,0.318-0.027,0.656-0.084,1.015
			c-0.058,0.357-0.255,1.299-0.593,2.824c-0.276,1.259-0.418,2.141-0.418,2.644c0,0.452,0.08,0.951,0.24,1.502h-2.772
			c-0.113-0.384-0.183-0.782-0.21-1.192c-0.418,0.464-0.897,0.82-1.44,1.069c-0.545,0.248-1.092,0.372-1.641,0.372
			c-0.875,0-1.599-0.286-2.169-0.86c-0.571-0.573-0.854-1.312-0.854-2.212c0-1.008,0.313-1.813,0.938-2.417
			c0.625-0.603,1.744-0.967,3.355-1.093c1.357-0.113,2.268-0.248,2.725-0.408c0.119-0.397,0.179-0.716,0.179-0.954
			c0-0.306-0.123-0.561-0.367-0.768c-0.243-0.204-0.61-0.309-1.094-0.309c-0.513,0-0.912,0.105-1.209,0.314
			C268.203,34.046,268,34.344,267.896,34.728z M270.609,37.373c-0.172,0.046-0.4,0.088-0.688,0.13
			c-1.43,0.172-2.362,0.423-2.803,0.754c-0.313,0.239-0.468,0.562-0.468,0.966c0,0.33,0.121,0.611,0.357,0.841
			c0.24,0.227,0.555,0.342,0.943,0.342c0.432,0,0.838-0.104,1.219-0.313c0.383-0.208,0.666-0.477,0.855-0.806
			c0.188-0.327,0.354-0.839,0.504-1.535L270.609,37.373z"/>
		<path fill="#D8BF4D" d="M277.242,31.734h2.664l-0.43,2.049c0.996-1.532,2.071-2.297,3.231-2.297c0.412,0,0.854,0.103,1.321,0.308
			l-1.094,2.337c-0.258-0.093-0.533-0.139-0.826-0.139c-0.487,0-0.987,0.186-1.495,0.557c-0.507,0.371-0.902,0.866-1.188,1.486
			c-0.285,0.619-0.566,1.603-0.846,2.947l-0.695,3.312h-2.854L277.242,31.734z"/>
		<path fill="#D8BF4D" d="M285.324,31.734h2.854l-2.207,10.56h-2.854L285.324,31.734z M286.16,27.719h2.854l-0.537,2.585h-2.854
			L286.16,27.719z"/>
		<path fill="#D8BF4D" d="M291.021,31.734h2.705l-0.279,1.373c0.676-0.583,1.309-0.999,1.895-1.248s1.205-0.373,1.855-0.373
			c0.867,0,1.551,0.248,2.053,0.746c0.5,0.496,0.75,1.156,0.75,1.979c0,0.371-0.109,1.073-0.328,2.108l-1.242,5.975h-2.854
			l1.252-5.995c0.186-0.895,0.279-1.429,0.279-1.601c0-0.364-0.107-0.652-0.324-0.86c-0.215-0.209-0.516-0.314-0.898-0.314
			c-0.418,0-0.883,0.178-1.393,0.528c-0.512,0.352-0.912,0.815-1.203,1.392c-0.215,0.411-0.451,1.25-0.717,2.517l-0.904,4.334
			h-2.854L291.021,31.734z"/>
	</g>
	<polygon fill="#FFFFFF" points="0.164,17.766 6.401,16.591 37.461,4.806 44.406,5.074 44.577,8.919 51.374,10.156 51.511,13.23 
		58.416,15.291 6.396,26.188 	"/>
	<path fill="#1E9CD4" d="M4.784,22.717l-4.62-4.95l-0.102,7.405C0.021,25.382,0,25.631,0,25.926v54.291
		c0,3.279,2.636,5.939,5.89,5.939h46.635c3.254,0,5.892-2.66,5.892-5.939V29.813v-3.887V15.291
		C30.361,15.951,4.784,22.717,4.784,22.717z"/>
	<path fill="#1E9CD4" d="M6.401,16.591l31.06-11.785L37.247,0C37.247,0,18.104,11.254,6.401,16.591z"/>
	<path fill="#84BDE2" d="M10.104,17.581c0,0,31.791-8.351,34.474-8.662l-0.171-3.846C44.406,5.074,15.603,15.603,10.104,17.581z"/>
	<path fill="#A6CCE9" d="M12.682,19.2c0,0,33.421-6.307,38.829-5.97l-0.137-3.075C51.374,10.156,16.272,17.691,12.682,19.2z"/>
	<path fill="#D8BF4D" d="M6.364,36.025c-0.228-1.037,0.653-1.953,0.681-2.214c0.092-0.898,0.75-1.654,1.485-2.224
		c1.316-1.021,2.604-2.091,3.879-3.15c0.867-0.725,1.676-1.796,2.754-1.945c0.24-0.031,0.593-0.015,0.818-0.104
		c0.438-0.177,0.785-0.746,1.165-1.028c0.501-0.374,0.841-0.412,1.424-0.523c0.979-0.188,2.063-0.467,3.008-0.802
		c1.03-0.364,2.032-0.658,3.115-0.916c1.157-0.275,2.32-0.193,3.482-0.215c1.55-0.028,3.069-0.225,4.615-0.202
		c0.739,0.01,1.464,0.034,2.193,0.175c1.248,0.241,2.329,1.059,3.623,1.305c0.725,0.139,1.463,0.247,2.191,0.4
		c0.429,0.089,0.896,0.103,1.275,0.352c0.462,0.306,0.888,0.661,1.362,0.982c1.158,0.793,1.996,1.974,3.092,2.883
		c0.705,0.584,1.689,0.957,2.355,1.502c0.447,0.361,0.814,0.751,1.359,1.032c0.554,0.285,1.301,0.398,1.766,0.862
		c0.447,0.447,0.779,1.185,1.128,1.712c0.251,0.381,0.511,0.69,0.717,1.076c0.205,0.383,0.311,0.772,0.488,1.161
		c0.313,0.685,0.582,0.96,0.203,1.487c-0.331,0.461-0.143,0.496,0.255,1.142c0.282,0.457,0.251,0.832,0.418,1.331
		c0.249,0.747,0.774,1.445,1.003,2.174s0.26,1.588,0.387,2.335c0.202,1.182,0.641,2.428,0.688,3.591
		c0.012,0.259,0.077,0.681-0.007,0.901c-0.123,0.33-0.511,0.521-0.668,0.855c-0.311,0.66-0.625,1.678-1.215,2.137
		c-0.326,0.256-0.44,0.036-0.943,0.031c-0.428-0.004-0.671,0.146-0.77,0.583c-0.163,0.716,0.053,1.61-0.007,2.363
		c-0.076,0.993-0.68,1.969-1.428,2.515c-0.394,0.285-0.907,0.295-1.262,0.613c-0.424,0.385-0.701,0.912-1.202,1.22
		c-0.603,0.368-1.313,0.651-2.008,0.937c-0.465,0.187-0.93,0.479-1.469,0.515c-0.406,0.024-0.84-0.099-1.254-0.089
		c-1.237,0.033-2.151,0.566-3.486,0.256c-0.404-0.094-0.887-0.324-1.208-0.583c-0.704-0.576-0.506-1.103-0.671-1.833
		c-0.222-0.967-0.82-2.114-1.381-2.896c-0.942-1.31,0.223-2.408,0.313-3.685c0.106-1.497-1.271-2.308-2.021-3.466
		c-0.271-0.418-0.629-1.155-0.635-1.656c-0.004-0.424,0.434-0.576,0.401-0.998c-0.069-0.923-1.386-0.601-1.922-0.854
		c-0.307-0.145-0.515-0.644-0.74-0.909c-0.327-0.381-0.719-0.747-1.118-1.051c-0.471-0.354-0.998-0.512-1.529-0.764
		c-0.334-0.157-0.677-0.301-1.069-0.21c-0.538,0.125-1.177,0.82-1.642,1.146c-0.612,0.427-1.2,0.896-1.783,1.366
		c-0.386,0.309-0.757,0.717-1.003,1.143c-0.21,0.367-0.269,0.891-0.617,1.166c-1.138,0.895-0.68-0.875-0.852-1.34
		c-0.14-0.372-0.502-0.176-0.838-0.473c-0.333-0.295-0.372-0.926-0.688-1.203c-0.037-0.064-0.078-0.129-0.119-0.191
		c-0.46,0.094-0.815,0.994-1.066,1.375c-0.243,0.368-0.561,0.811-0.933,1.081c-0.347,0.253-0.739,0.342-1.116,0.563
		c-0.436,0.26-0.512,0.516-0.789,0.961c-0.456,0.735-0.988,0.272-1.633,0.682c-0.315,0.199-0.354,0.484-0.729,0.619
		c-0.429,0.154-0.866-0.09-1.25-0.188c-0.803-0.204-1.603-0.097-2.477,0.073c-1.162,0.234-1.884,0.251-2.974-0.039
		c-0.802-0.21-1.588-0.175-2.45-0.229c-1.305-0.078-1.749-1.451-1.746-2.655c0.003-0.724,0.004-1.435-0.057-2.142
		c-0.048-0.591-0.25-1.149-0.258-1.741c0.001,0.004-0.405-0.97,0.944-2.162c1.351-1.185,0.362-0.169-0.089-0.866
		C5.581,38.694,6.622,37.188,6.364,36.025z"/>
	<g>
		<path fill="#1E9CD4" d="M30.166,22.433l-1.996,0.1l-0.775,0.004c-0.908-0.002-1.846-0.002-2.786,0.222
			c-1.113,0.266-2.114,0.559-3.153,0.928c-0.879,0.31-1.928,0.589-2.953,0.786L18.361,24.5c-0.508,0.095-0.909,0.17-1.437,0.563
			l-0.494,0.474c-0.196,0.213-0.399,0.433-0.587,0.509c0.002-0.001-0.432,0.056-0.432,0.056l-0.298,0.025
			c-0.924,0.127-1.626,0.797-2.305,1.444l-0.637,0.583l-3.869,3.141c-0.989,0.768-1.537,1.603-1.627,2.479
			c0.007-0.035-0.13,0.208-0.13,0.208c-0.23,0.386-0.591,0.985-0.591,1.691c0,0.14,0.015,0.283,0.047,0.432v0.001
			c0.023,0.103,0.032,0.209,0.032,0.319c0,0.493-0.197,1.053-0.362,1.521c-0.138,0.391-0.25,0.709-0.25,0.975
			c0,0.135,0.028,0.255,0.1,0.364c0.077,0.119,0.179,0.199,0.287,0.27c-0.056,0.048-0.132,0.114-0.132,0.114
			c-0.925,0.817-1.123,1.563-1.123,2.052c0,0.191,0.028,0.338,0.058,0.441c0.011,0.083,0.135,0.988,0.135,0.988l0.118,0.73
			c0,0.002,0.055,2.118,0.055,2.124c0,1.754,0.82,2.936,2.096,3.016l0.676,0.031c0.593,0.021,1.153,0.039,1.702,0.186
			c1.095,0.291,1.857,0.301,3.141,0.046c0.915-0.181,1.62-0.257,2.314-0.079l0.26,0.081c0.34,0.114,0.762,0.256,1.206,0.096
			c0.31-0.11,0.464-0.297,0.587-0.444l0.216-0.209c0.19-0.121,0.37-0.135,0.58-0.149c0.338-0.025,0.805-0.062,1.169-0.65
			l0.154-0.257c0.163-0.279,0.244-0.423,0.509-0.579l0.451-0.217l0.694-0.368c0.421-0.306,0.77-0.79,1.024-1.177l0.224-0.388
			c0.092-0.17,0.272-0.496,0.432-0.685c0.078,0.091,0.146,0.246,0.211,0.41c0.102,0.257,0.217,0.548,0.452,0.755
			c0.223,0.198,0.456,0.249,0.611,0.284l0.127,0.033c0.017,0.058,0.021,0.213,0.021,0.354c0,0.049-0.002,0.236-0.002,0.286
			c0,0.466,0.032,0.952,0.41,1.136c0.361,0.178,0.741-0.067,0.997-0.269c0.308-0.242,0.438-0.591,0.551-0.896l0.159-0.375
			c0.208-0.362,0.54-0.74,0.912-1.037c0.001-0.002,1.765-1.354,1.765-1.354l0.511-0.408c0.321-0.273,0.722-0.614,1.003-0.679
			c0.271-0.063,0.525,0.04,0.827,0.184l0.487,0.215c0.352,0.147,0.684,0.288,0.978,0.51c0.378,0.286,0.754,0.64,1.059,0.993
			l0.199,0.291c0.171,0.269,0.367,0.574,0.665,0.715c0.234,0.109,0.519,0.135,0.819,0.16c0.698,0.061,0.873,0.136,0.892,0.386
			c0.001,0.005,0.001,0.011,0.001,0.015c0,0.065-0.035,0.12-0.127,0.247c-0.117,0.16-0.277,0.38-0.277,0.704
			c0,0.004,0,0.006,0,0.009c0.009,0.628,0.44,1.462,0.695,1.854l0.849,1.051c0.6,0.665,1.119,1.246,1.119,2.052
			c0,0.044-0.002,0.089-0.005,0.138c-0.026,0.381-0.169,0.761-0.32,1.16c-0.173,0.457-0.359,0.951-0.359,1.477
			c0,0.41,0.115,0.841,0.438,1.29c0.466,0.647,1.091,1.764,1.317,2.761l0.074,0.521c0.047,0.492,0.097,1.002,0.725,1.517
			c0.362,0.292,0.896,0.551,1.358,0.659c0.909,0.212,1.637,0.066,2.339-0.075c0.414-0.082,0.806-0.159,1.241-0.172l0.544,0.045
			l0.723,0.044c0.467-0.031,0.872-0.218,1.229-0.384l0.354-0.157c0.002-0.001,0.084-0.033,0.084-0.033
			c0.676-0.275,1.375-0.563,1.979-0.93c0.356-0.221,0.601-0.514,0.837-0.801l0.422-0.461c0.133-0.119,0.318-0.186,0.533-0.26
			l0.696-0.33c0.88-0.641,1.499-1.733,1.58-2.785l-0.021-1.06c-0.031-0.458-0.062-0.891,0.021-1.252
			c0.052-0.229,0.111-0.296,0.402-0.293l0.348,0.049c0.215,0.05,0.482,0.112,0.829-0.159c0.535-0.414,0.843-1.15,1.116-1.8
			l0.205-0.472l0.257-0.309c0.155-0.152,0.332-0.328,0.424-0.576c0.049-0.133,0.065-0.284,0.065-0.445
			c0-0.135-0.011-0.273-0.022-0.405l-0.013-0.194c-0.032-0.767-0.224-1.556-0.406-2.32l-0.288-1.319l-0.105-0.768
			c-0.063-0.541-0.131-1.1-0.292-1.615c-0.127-0.403-0.333-0.789-0.531-1.163l-0.475-1.017l-0.117-0.468
			c-0.062-0.292-0.123-0.596-0.336-0.94l-0.224-0.34c0,0-0.146-0.235-0.146-0.238c0.01,0,0.101-0.151,0.101-0.151
			c0.185-0.259,0.254-0.488,0.254-0.703c0-0.3-0.136-0.569-0.272-0.85l-0.149-0.307l-0.187-0.462l-0.312-0.721l-0.475-0.729
			l-0.261-0.374l-0.328-0.548c-0.251-0.436-0.511-0.889-0.849-1.225c-0.36-0.361-0.844-0.536-1.271-0.69l-0.586-0.239
			c-0.357-0.186-0.64-0.429-0.936-0.687l-0.358-0.304c-0.349-0.284-0.773-0.523-1.183-0.753c-0.411-0.229-0.834-0.469-1.17-0.746
			c-0.454-0.377-0.875-0.814-1.282-1.238c-0.563-0.585-1.145-1.19-1.837-1.665c-0.002-0.001-0.642-0.464-0.642-0.464l-0.727-0.521
			c-0.354-0.232-0.752-0.297-1.104-0.354l-0.3-0.053l-1.312-0.243l-0.886-0.158c-0.611-0.116-1.171-0.37-1.766-0.638
			c-0.588-0.266-1.197-0.541-1.857-0.668c-0.768-0.147-1.536-0.17-2.257-0.18C31.908,22.318,31.023,22.377,30.166,22.433z
			 M28.183,23.276l2.032-0.102c0.842-0.056,1.713-0.114,2.57-0.102c0.688,0.01,1.42,0.031,2.129,0.167
			c0.574,0.112,1.116,0.355,1.692,0.616c0.606,0.273,1.233,0.557,1.932,0.689l0.898,0.16l1.287,0.239
			c0.002,0,0.335,0.058,0.335,0.058c0.305,0.05,0.592,0.096,0.813,0.241l0.689,0.496l0.668,0.483c0.63,0.43,1.159,0.981,1.721,1.565
			c0.422,0.438,0.856,0.893,1.343,1.294c0.389,0.323,0.841,0.576,1.28,0.823c0.399,0.224,0.778,0.437,1.077,0.682
			c0.002,0.001,0.341,0.288,0.341,0.288c0.317,0.274,0.646,0.559,1.081,0.787c0.001,0,0.675,0.276,0.675,0.276
			c0.39,0.141,0.756,0.273,1,0.517c0.267,0.269,0.503,0.676,0.73,1.07l0.353,0.586l0.275,0.396l0.423,0.649l0.271,0.632l0.206,0.509
			l0.159,0.328c0.233,0.472,0.257,0.54,0.079,0.787c-0.395,0.552-0.243,0.83,0.038,1.243l0.204,0.311
			c0.144,0.234,0.186,0.439,0.24,0.7l0.141,0.553c0,0.001,0.522,1.13,0.522,1.13c0.192,0.36,0.373,0.699,0.479,1.038
			c0.141,0.448,0.204,0.973,0.266,1.48l0.109,0.806l0.297,1.368c0.176,0.729,0.358,1.484,0.387,2.178l0.015,0.223
			c0.013,0.154,0.035,0.44,0.002,0.529c-0.035,0.1-0.141,0.201-0.252,0.313l-0.405,0.518l-0.218,0.5
			c-0.237,0.565-0.507,1.206-0.888,1.502c-0.002,0.001-0.074,0.047-0.074,0.047l-0.132-0.024l-0.507-0.067
			c-0.62-0.008-1.002,0.287-1.134,0.872c-0.106,0.467-0.072,0.976-0.039,1.468l0.022,0.949c-0.063,0.833-0.576,1.732-1.277,2.244
			l-0.503,0.229c-0.253,0.088-0.542,0.188-0.786,0.409c0,0.001-0.495,0.54-0.495,0.54c-0.208,0.25-0.403,0.484-0.654,0.639
			c-0.552,0.338-1.223,0.61-1.871,0.877l-0.083,0.033c0.002-0.002-0.387,0.17-0.387,0.17c-0.328,0.152-0.638,0.295-0.965,0.315
			l-0.582-0.04l-0.657-0.049c-0.499,0.014-0.94,0.104-1.367,0.188c-0.655,0.133-1.272,0.254-2.025,0.078
			c-0.358-0.083-0.783-0.287-1.058-0.511c-0.389-0.317-0.413-0.58-0.456-1.015l-0.088-0.613c-0.252-1.104-0.933-2.321-1.439-3.029
			c-0.503-0.699-0.274-1.304,0.015-2.07c0.164-0.433,0.332-0.879,0.366-1.369c0.085-1.192-0.62-1.979-1.303-2.735l-0.777-0.958
			c-0.276-0.427-0.57-1.083-0.575-1.459c0-0.076,0.038-0.137,0.134-0.27c0.124-0.17,0.295-0.402,0.267-0.754
			c-0.069-0.939-1.006-1.021-1.566-1.069c-0.224-0.019-0.454-0.039-0.567-0.093c-0.104-0.049-0.25-0.276-0.356-0.444L34,43.916
			c-0.345-0.397-0.75-0.778-1.176-1.103c-0.367-0.278-0.758-0.443-1.137-0.602l-0.458-0.201c-0.389-0.185-0.809-0.354-1.312-0.236
			c-0.457,0.105-0.915,0.493-1.316,0.836l-0.454,0.366l-1.805,1.381c-0.447,0.358-0.835,0.802-1.091,1.246l-0.213,0.487
			c-0.087,0.235-0.17,0.458-0.313,0.571c-0.082,0.064-0.132,0.094-0.177,0.117c-0.02-0.112-0.028-0.271-0.028-0.418
			c0-0.045,0-0.228,0-0.275c0-0.234-0.008-0.438-0.067-0.602c-0.148-0.396-0.471-0.467-0.662-0.508
			c-0.128-0.028-0.203-0.047-0.278-0.113c-0.103-0.092-0.18-0.284-0.255-0.475c-0.099-0.25-0.211-0.533-0.436-0.729
			c0.028,0.022,0.058,0.062,0.077,0.092l-0.112-0.179c-0.081-0.131-0.25-0.22-0.401-0.189c-0.517,0.105-0.847,0.712-1.113,1.201
			l-0.189,0.332c-0.221,0.336-0.519,0.751-0.843,0.986l-0.55,0.285l-0.535,0.261c-0.433,0.256-0.592,0.528-0.773,0.845l-0.143,0.239
			c-0.166,0.269-0.292,0.278-0.596,0.301c-0.255,0.021-0.573,0.044-0.921,0.265l-0.389,0.36c-0.103,0.122-0.153,0.179-0.267,0.22
			c-0.204,0.073-0.453-0.011-0.719-0.1l-0.314-0.098c-0.919-0.233-1.809-0.095-2.641,0.07c-1.171,0.233-1.827,0.227-2.806-0.035
			c-0.631-0.164-1.231-0.188-1.867-0.209L7.063,48.28c-1.336-0.082-1.399-1.919-1.398-2.285l-0.059-2.179l-0.131-0.813l-0.127-0.897
			C5.344,42.081,5.332,42,5.324,41.976c-0.012-0.032-0.263-0.771,0.844-1.749l0.422-0.365c0.308-0.264,0.479-0.41,0.354-0.682
			c-0.054-0.12-0.182-0.255-0.473-0.211c-0.192,0.029-0.263,0.01-0.326-0.09c0.007-0.06,0.134-0.422,0.228-0.687
			c0.233-0.661,0.524-1.484,0.355-2.247l0,0c-0.132-0.603,0.222-1.191,0.455-1.582l0.232-0.515c0.084-0.833,0.776-1.529,1.343-1.969
			l3.89-3.158l0.673-0.615c0.595-0.565,1.208-1.152,1.894-1.247l0.239-0.019l0.663-0.108c0.346-0.137,0.618-0.433,0.858-0.693
			l0.393-0.382c0.39-0.291,0.652-0.341,1.127-0.43L18.64,25.2c1.063-0.204,2.149-0.494,3.063-0.816
			c1.013-0.358,1.991-0.646,3.077-0.906c0.854-0.203,1.708-0.201,2.613-0.199L28.183,23.276z"/>
		<path fill="#1E9CD4" d="M17.36,32.089c-3.287,0.604-5.923,3.92-5.526,6.957c0.105,0.813,0.323,1.586,0.532,2.334
			c0.332,1.189,0.647,2.312,0.564,3.604c-0.108,1.675-1.053,2.349-2.358,3.277l-0.815,0.596l0.3,0.395l0.803-0.585
			c1.311-0.935,2.442-1.74,2.564-3.649c0.089-1.377-0.251-2.593-0.581-3.77c-0.206-0.731-0.418-1.488-0.518-2.265
			c-0.366-2.794,2.08-5.849,5.129-6.407c1.183-0.241,3.181-0.349,3.863,0.332c0.216,0.215,0.283,0.5,0.207,0.875l0.487,0.097
			c0.108-0.542-0.008-0.986-0.345-1.323C20.563,31.453,17.49,32.063,17.36,32.089z"/>
		<path fill="#1E9CD4" d="M19.171,30.033c-0.396,0.687-0.501,1.424-0.297,2.077l0.474-0.146c-0.208-0.666,0.022-1.283,0.253-1.685
			c0.45-0.783,1.287-1.412,2.131-1.605l-0.11-0.483C20.648,28.414,19.688,29.137,19.171,30.033z"/>
		<path fill="#1E9CD4" d="M17.138,43.225l0.13,0.227c0.636,1.122,1.817,3.211,3.154,3.059l-0.056-0.491
			c-1.012,0.115-2.172-1.938-2.668-2.813l-0.131-0.229c-1.11-1.923-1.319-3.611-1.317-6.056h-0.495
			C15.753,39.452,15.973,41.207,17.138,43.225z"/>
		<path fill="#1E9CD4" d="M24.851,30.28c0.675,0.424,1.061,1.162,1.092,2.077c0.039,1.203-0.563,2.464-1.5,3.14
			c-1.318,0.952-3.416,0.404-4.939-0.426l-0.236,0.435c1.655,0.902,3.959,1.479,5.466,0.392c1.081-0.78,1.748-2.175,1.704-3.556
			c-0.034-1.086-0.504-1.966-1.323-2.481L24.851,30.28z"/>
		<path fill="#1E9CD4" d="M24.289,36.034c0.116,0.008,0.503,0.207,0.562,0.311c0.148,0.27,0.095,0.772-0.051,1.046
			c-0.272,0.51-0.802,0.704-1.358,0.911l-0.85,0.372c-1.203,0.702-2.137,2.016-2.38,3.35c-0.214,1.163-0.074,2.057,0.417,2.651
			c0.197,0.24,0.373,0.326,0.542,0.409l0.438,0.275l0.318-0.379l-0.539-0.342c-0.149-0.072-0.248-0.121-0.377-0.277
			c-0.394-0.479-0.499-1.234-0.313-2.25c0.215-1.179,1.076-2.388,2.142-3.011c0.002-0.002,0.771-0.336,0.771-0.336
			c0.592-0.217,1.264-0.464,1.625-1.142c0.209-0.391,0.287-1.082,0.046-1.518c-0.139-0.25-0.37-0.396-0.653-0.416L24.289,36.034z"/>
		<path fill="#1E9CD4" d="M8.059,31.765c0.213,0.396,0.377,0.947,0.552,1.532c0.372,1.245,0.793,2.657,1.866,3.229
			c0.58,0.311,1.3,0.336,2.135,0.078l-0.147-0.474c-0.713,0.222-1.287,0.208-1.753-0.041c-0.893-0.476-1.283-1.781-1.626-2.935
			c-0.181-0.608-0.354-1.184-0.589-1.623L8.059,31.765z"/>
		<path fill="#1E9CD4" d="M10.201,42.496c0.022,0.541-0.235,1.008-0.762,1.391c-1.185,0.858-3.385,1.021-4.233,0.704l-0.172,0.466
			c0.959,0.354,3.319,0.229,4.695-0.77c0.66-0.479,0.995-1.104,0.969-1.811L10.201,42.496z"/>
		<path fill="#1E9CD4" d="M8.312,44.604l0.473-0.146c-0.593-1.936-0.256-5.558,1.639-7.06l-0.308-0.39
			C7.976,38.707,7.691,42.576,8.312,44.604z"/>
		<path fill="#1E9CD4" d="M27.217,26.926c0.061,1.264,0.936,2.221,1.784,3.146c0.461,0.506,0.939,1.027,1.256,1.579
			c0.001,0,0.039,0.064,0.039,0.064c0.571,0.989,1.163,2.014,1.466,3.098c0.273,0.977,0.259,1.948,0.244,2.978L32,38.638
			c0.007,1.174-0.266,3.18-1.332,3.251l0.032,0.494c1.73-0.117,1.798-3.144,1.795-3.749l0.007-0.837
			c0.014-1.019,0.03-2.072-0.264-3.119c-0.319-1.144-0.926-2.194-1.515-3.211l-0.036-0.064c-0.345-0.598-0.841-1.141-1.321-1.665
			c-0.825-0.901-1.604-1.751-1.654-2.836c-0.06-1.18,0.718-3.257,1.483-3.969L28.86,22.57C27.901,23.46,27.157,25.709,27.217,26.926
			z"/>
		<path fill="#1E9CD4" d="M27.278,26.967l0.371,0.326c0.926-1.048,3.169-2.363,4.572-2.038c0.589,0.137,0.967,0.538,1.156,1.227
			c0,0.001,0.118,0.746,0.118,0.746c0.066,0.662,0.144,1.416,1.026,1.889c0.587,0.316,1.533,0.196,2.222,0.04
			c1.597-0.364,1.85-1.36,2.171-2.621l-0.48-0.122c-0.322,1.266-0.499,1.964-1.802,2.261c-0.856,0.194-1.523,0.196-1.877,0.008
			c-0.65-0.35-0.702-0.859-0.768-1.505l-0.134-0.827c-0.234-0.854-0.761-1.4-1.521-1.575C30.668,24.388,28.286,25.825,27.278,26.967
			z"/>
		<path fill="#1E9CD4" d="M34.478,36.835c-0.557,0.231-1.088,0.216-1.704,0.198l-0.43-0.011l-0.006,0.494l0.419,0.011
			c0.646,0.019,1.256,0.036,1.912-0.236c1.271-0.534,2.692-2.14,2.7-3.592l-0.495-0.004C36.868,34.92,35.604,36.361,34.478,36.835z"
			/>
		<path fill="#1E9CD4" d="M37.275,33.95c1.656,0.229,2.939-0.29,3.814-1.538l-0.406-0.284c-0.759,1.085-1.882,1.532-3.341,1.333
			c-1.004-0.141-2.441-1.18-2.364-2.326l-0.494-0.032C34.388,32.565,36.1,33.787,37.275,33.95z"/>
		<path fill="#1E9CD4" d="M26.149,41.025c0.229,1.204,0.877,2.517,1.765,2.552l0.219-0.467c-0.665-0.022-1.272-0.992-1.496-2.178
			c-0.183-0.968-0.107-2.056,0.467-2.308l-0.199-0.453C26.025,38.557,25.938,39.897,26.149,41.025z"/>
		<path fill="#1E9CD4" d="M42.747,25.742l-0.093,3.482c0.063,1.602,0.694,2.403,1.652,3.617l0.146,0.187
			c0.988,1.26,1.803,3.594,1.456,5.322c-0.161,0.808-0.557,1.392-1.173,1.737c-0.595,0.336-1.45,0.206-2.279,0.08l-0.92-0.116
			c-1.588-0.114-2.624,0.248-3.575,1.252c-0.358,0.379-0.748,0.693-1.125,0.998c-1.051,0.848-2.043,1.647-1.32,3.305l0.452-0.199
			c-0.57-1.309,0.124-1.87,1.179-2.72c0.372-0.3,0.793-0.64,1.175-1.042c0.848-0.896,1.739-1.204,3.18-1.1l0.881,0.111
			c0.868,0.133,1.853,0.281,2.596-0.138c0.737-0.412,1.228-1.129,1.415-2.071c0.388-1.938-0.509-4.396-1.551-5.725l-0.147-0.188
			c-0.929-1.179-1.49-1.89-1.546-3.33l0.092-3.482L42.747,25.742z"/>
		<path fill="#1E9CD4" d="M46.345,38.338c3.805,0.504,6.407,3.313,6.332,6.834l0.495,0.012c0.081-3.782-2.699-6.798-6.762-7.336
			L46.345,38.338z"/>
		<path fill="#1E9CD4" d="M51.356,46.23c-0.216,0.441-0.438,0.899-0.861,1.274l0.328,0.37c0.497-0.439,0.754-0.967,0.979-1.43
			c0.396-0.816,0.658-1.355,1.968-1.207c0.955,0.115,1.183,0.275,1.62,1.139l0.219,0.521c0.277,0.717,0.659,1.699,1.658,1.658
			l-0.021-0.494c-0.599,0.022-0.866-0.541-1.177-1.343l-0.238-0.564c-0.512-1.009-0.885-1.272-2.004-1.406
			C52.169,44.561,51.756,45.409,51.356,46.23z"/>
		<path fill="#1E9CD4" d="M40.202,40.59c1.267,0.177,1.904,0.728,2.587,1.227l0.197,0.144c1.845,1.344,2.063,2.646,1.825,4.58
			c-0.14,1.12-0.415,2.398-1.403,3.398l-0.619,0.555c-0.475,0.396-0.923,0.773-1.217,1.57c-0.361,0.98-1.64,6.504-0.334,8.442
			c0.295,0.437,0.698,0.666,1.198,0.681l0.083-0.422c-0.338-0.011-0.668-0.233-0.871-0.537c-1.122-1.664-0.017-6.896,0.388-7.994
			c0.249-0.672,0.611-0.976,1.071-1.36l0.652-0.585c1.093-1.105,1.394-2.484,1.543-3.688c0.25-2.02-0.002-3.567-2.025-5.041
			l-0.196-0.144c-0.7-0.514-1.424-1.044-2.344-1.17L40.202,40.59z"/>
		<path fill="#1E9CD4" d="M49.186,50.02c0.157,0.211,0.21,0.392,0.166,0.547c-0.119,0.418-0.929,0.742-1.579,1.002
			c-0.495,0.199-0.924,0.369-1.144,0.598c-0.785,0.795-0.594,2.658-0.491,3.659c0.089,0.872,0.541,3.569,1.429,4.512l0.359-0.34
			c-0.728-0.772-1.194-3.224-1.294-4.222c-0.09-0.855-0.272-2.633,0.351-3.265c0.147-0.151,0.567-0.319,0.973-0.481
			c0.791-0.315,1.687-0.674,1.873-1.327c0.087-0.31,0.005-0.638-0.244-0.976L49.186,50.02z"/>
		<path fill="#1E9CD4" d="M47.232,46.54l0.152,0.728c0.202,1.049,0.378,1.957,1.69,2.69c1.645,0.923,3.367,1.051,4.605,0.342
			l-0.244-0.43c-1.088,0.622-2.628,0.493-4.12-0.345c-1.11-0.621-1.252-1.35-1.444-2.354l-0.158-0.748L47.232,46.54z"/>
		<path fill="#1E9CD4" d="M43.467,50.124l0.237-0.397c-1.869-0.613-2.78-3.25-2.661-4.865l-0.494-0.035
			C40.422,46.534,41.262,49.398,43.467,50.124z"/>
		<path fill="#1E9CD4" d="M47.41,32.092c0.072,0.74-0.154,1.743-0.728,2.23c-0.317,0.269-0.706,0.345-1.152,0.223l0.1,0.429
			c0.606,0.163,0.931,0.1,1.373-0.275c0.735-0.623,0.983-1.814,0.9-2.654L47.41,32.092z"/>
		<path fill="#1E9CD4" d="M41.642,36.491c-0.018,0.713-0.032,1.388,0.543,2.085c0.627,0.761,1.963,1.958,2.991,1.627l0.096-0.533
			c-0.918,0.332-2.136-0.719-2.705-1.408c-0.458-0.556-0.445-1.086-0.43-1.758l0.006-0.334l-0.496-0.002L41.642,36.491z"/>
		<path fill="#1E9CD4" d="M42.239,54.878c1.291,1.904,2.552,2.203,4.47,2.47l0.067-0.49c-1.993-0.276-2.985-0.572-4.127-2.258
			L42.239,54.878z"/>
	</g>
	<g>
		<path fill="#FFFFFF" d="M19.696,58.004c0,1.73-0.342,3.12-1.024,4.166c-0.683,1.044-1.688,1.566-3.013,1.566v-1.871
			c1.325,0,1.988-1.289,1.988-3.861h-1.988v-4.038h4.037V58.004z"/>
		<path fill="#FFFFFF" d="M34.7,58.004c0,1.73-0.343,3.12-1.024,4.166c-0.685,1.044-1.688,1.566-3.015,1.566v-1.871
			c1.326,0,1.989-1.289,1.989-3.861h-1.989v-4.038H34.7V58.004z"/>
		<path fill="#FFFFFF" d="M25.323,73.802c-0.692-0.403-5.544-3.233-5.544-3.233l-0.748,1.283l5.941,3.465
			c0.242,0.143,0.546,0.135,0.78-0.021l7.921-5.198l-0.813-1.242C32.86,68.855,26.018,73.344,25.323,73.802z"/>
	</g>
	<g>
		<path fill="#FFFFFF" d="M10.785,81.704l0.55-0.046c0.026,0.221,0.086,0.402,0.18,0.543c0.097,0.144,0.243,0.259,0.444,0.346
			c0.199,0.088,0.424,0.131,0.674,0.131c0.222,0,0.418-0.031,0.588-0.098c0.17-0.066,0.296-0.159,0.379-0.275
			c0.083-0.113,0.125-0.24,0.125-0.377c0-0.138-0.041-0.26-0.122-0.363c-0.079-0.103-0.212-0.188-0.396-0.26
			c-0.117-0.047-0.379-0.117-0.783-0.215c-0.402-0.099-0.687-0.188-0.849-0.275c-0.211-0.111-0.369-0.248-0.473-0.414
			c-0.104-0.164-0.154-0.349-0.154-0.553c0-0.223,0.063-0.433,0.189-0.628c0.125-0.196,0.311-0.343,0.553-0.444
			c0.243-0.1,0.513-0.149,0.81-0.149c0.327,0,0.616,0.054,0.865,0.158c0.249,0.106,0.441,0.262,0.576,0.467
			c0.135,0.205,0.206,0.438,0.217,0.698l-0.564,0.037c-0.03-0.275-0.132-0.482-0.306-0.625c-0.172-0.139-0.428-0.209-0.765-0.209
			c-0.353,0-0.608,0.063-0.77,0.193c-0.162,0.131-0.24,0.285-0.24,0.469c0,0.158,0.057,0.291,0.17,0.392
			c0.111,0.104,0.403,0.208,0.877,0.315c0.473,0.106,0.797,0.201,0.974,0.28c0.257,0.118,0.448,0.271,0.57,0.452
			s0.185,0.391,0.185,0.627s-0.066,0.458-0.201,0.666c-0.135,0.207-0.327,0.369-0.578,0.485c-0.252,0.114-0.534,0.173-0.849,0.173
			c-0.397,0-0.732-0.061-1.001-0.176c-0.271-0.118-0.48-0.295-0.634-0.528C10.874,82.266,10.794,82.001,10.785,81.704z"/>
		<path fill="#FFFFFF" d="M15.034,83.127v-3.21h0.486v0.454c0.101-0.158,0.234-0.284,0.401-0.382
			c0.167-0.095,0.356-0.144,0.568-0.144c0.236,0,0.432,0.051,0.581,0.149c0.153,0.099,0.261,0.235,0.323,0.412
			c0.253-0.373,0.585-0.562,0.992-0.562c0.319,0,0.564,0.088,0.736,0.264c0.172,0.178,0.257,0.447,0.257,0.814v2.201h-0.541v-2.021
			c0-0.219-0.017-0.373-0.053-0.47c-0.035-0.096-0.1-0.172-0.192-0.229c-0.092-0.06-0.203-0.088-0.327-0.088
			c-0.227,0-0.414,0.074-0.564,0.225c-0.15,0.15-0.224,0.391-0.224,0.721v1.862h-0.542V81.04c0-0.24-0.044-0.423-0.133-0.543
			c-0.089-0.121-0.233-0.181-0.436-0.181c-0.152,0-0.293,0.039-0.423,0.121c-0.13,0.08-0.225,0.198-0.282,0.354
			c-0.059,0.154-0.088,0.378-0.088,0.67v1.663L15.034,83.127L15.034,83.127z"/>
		<path fill="#FFFFFF" d="M22.28,82.725c-0.195,0.174-0.387,0.295-0.574,0.366c-0.188,0.069-0.389,0.106-0.604,0.106
			c-0.354,0-0.627-0.088-0.817-0.258c-0.19-0.172-0.286-0.392-0.286-0.66c0-0.156,0.036-0.299,0.108-0.43
			c0.071-0.129,0.166-0.233,0.282-0.313c0.116-0.079,0.249-0.139,0.395-0.178c0.107-0.028,0.27-0.056,0.486-0.082
			c0.441-0.053,0.769-0.113,0.977-0.187c0.002-0.075,0.004-0.122,0.004-0.144c0-0.221-0.054-0.379-0.156-0.469
			c-0.141-0.123-0.349-0.186-0.625-0.186c-0.258,0-0.449,0.045-0.571,0.135c-0.123,0.09-0.215,0.247-0.272,0.477l-0.535-0.069
			c0.048-0.228,0.128-0.412,0.239-0.553c0.111-0.14,0.271-0.248,0.48-0.324c0.21-0.075,0.453-0.113,0.729-0.113
			c0.274,0,0.497,0.032,0.669,0.097c0.17,0.064,0.297,0.146,0.378,0.244c0.08,0.098,0.137,0.221,0.169,0.369
			c0.019,0.094,0.027,0.262,0.027,0.502v0.724c0,0.505,0.011,0.823,0.032,0.956c0.021,0.136,0.065,0.264,0.13,0.389h-0.556
			C22.333,83.012,22.297,82.879,22.28,82.725z M22.233,81.52c-0.197,0.08-0.493,0.146-0.89,0.203
			c-0.224,0.032-0.381,0.068-0.475,0.107c-0.093,0.041-0.165,0.1-0.215,0.178c-0.05,0.077-0.076,0.163-0.076,0.258
			c0,0.145,0.055,0.266,0.167,0.361c0.11,0.098,0.272,0.145,0.486,0.145c0.21,0,0.398-0.045,0.563-0.137s0.287-0.217,0.364-0.375
			c0.058-0.121,0.088-0.304,0.088-0.542L22.233,81.52z"/>
		<path fill="#FFFFFF" d="M23.616,83.127v-3.21h0.486v0.492c0.125-0.229,0.24-0.38,0.346-0.452c0.106-0.072,0.223-0.107,0.349-0.107
			c0.184,0,0.37,0.057,0.56,0.172l-0.194,0.502c-0.132-0.073-0.264-0.11-0.396-0.11c-0.118,0-0.224,0.035-0.318,0.108
			c-0.094,0.069-0.16,0.17-0.201,0.297c-0.06,0.191-0.091,0.402-0.091,0.633v1.678L23.616,83.127L23.616,83.127z"/>
		<path fill="#FFFFFF" d="M26.873,82.635l0.069,0.48c-0.153,0.031-0.289,0.049-0.411,0.049c-0.197,0-0.351-0.032-0.459-0.094
			c-0.109-0.063-0.187-0.146-0.23-0.246c-0.043-0.102-0.067-0.315-0.067-0.641V80.34h-0.401v-0.426h0.401V79.12l0.542-0.325v1.12
			h0.557v0.426h-0.557v1.869c0,0.155,0.01,0.255,0.029,0.298c0.019,0.044,0.051,0.079,0.096,0.105
			c0.043,0.025,0.107,0.039,0.189,0.039C26.691,82.652,26.772,82.646,26.873,82.635z"/>
		<path fill="#FFFFFF" d="M29.194,83.127v-4.424h1.963c0.394,0,0.693,0.039,0.898,0.119c0.204,0.078,0.367,0.22,0.491,0.421
			c0.123,0.2,0.183,0.424,0.183,0.667c0,0.314-0.102,0.579-0.303,0.794c-0.203,0.216-0.517,0.353-0.94,0.411
			c0.154,0.074,0.272,0.146,0.352,0.22c0.172,0.157,0.334,0.353,0.484,0.589l0.766,1.203h-0.731l-0.585-0.92
			c-0.17-0.266-0.311-0.469-0.422-0.607c-0.11-0.143-0.21-0.24-0.296-0.298c-0.087-0.057-0.177-0.096-0.267-0.118
			c-0.066-0.014-0.176-0.021-0.325-0.021h-0.679v1.965L29.194,83.127L29.194,83.127z M29.782,80.65h1.257
			c0.267,0,0.477-0.026,0.627-0.082c0.151-0.055,0.266-0.143,0.344-0.264c0.077-0.123,0.116-0.256,0.116-0.396
			c0-0.209-0.074-0.383-0.228-0.516c-0.151-0.136-0.39-0.203-0.718-0.203h-1.398V80.65z"/>
		<path fill="#FFFFFF" d="M35.773,82.091l0.56,0.069c-0.088,0.328-0.253,0.583-0.491,0.766c-0.24,0.18-0.545,0.271-0.918,0.271
			c-0.468,0-0.84-0.146-1.114-0.434c-0.275-0.287-0.412-0.693-0.412-1.216c0-0.538,0.139-0.956,0.416-1.254s0.638-0.446,1.082-0.446
			c0.428,0,0.777,0.146,1.049,0.437c0.272,0.292,0.408,0.7,0.408,1.229c0,0.032-0.001,0.08-0.003,0.146h-2.396
			c0.021,0.352,0.122,0.622,0.3,0.808c0.181,0.188,0.405,0.283,0.672,0.283c0.201,0,0.371-0.053,0.513-0.157
			C35.579,82.486,35.691,82.318,35.773,82.091z M33.985,81.208h1.794c-0.023-0.267-0.093-0.468-0.204-0.601
			c-0.175-0.209-0.4-0.313-0.676-0.313c-0.251,0-0.461,0.082-0.631,0.249C34.099,80.71,34.003,80.932,33.985,81.208z"/>
		<path fill="#FFFFFF" d="M39.118,82.725c-0.194,0.174-0.387,0.295-0.573,0.366c-0.188,0.069-0.39,0.106-0.604,0.106
			c-0.355,0-0.628-0.088-0.817-0.258c-0.191-0.172-0.287-0.392-0.287-0.66c0-0.156,0.036-0.299,0.108-0.43
			c0.071-0.129,0.166-0.233,0.282-0.313c0.117-0.078,0.249-0.139,0.396-0.178c0.107-0.028,0.269-0.056,0.486-0.082
			c0.442-0.053,0.767-0.113,0.977-0.187c0.002-0.075,0.003-0.122,0.003-0.144c0-0.221-0.053-0.379-0.156-0.469
			c-0.141-0.123-0.347-0.186-0.625-0.186c-0.258,0-0.448,0.045-0.57,0.135c-0.124,0.09-0.214,0.247-0.273,0.477l-0.533-0.069
			c0.049-0.228,0.127-0.412,0.238-0.553c0.111-0.14,0.271-0.248,0.48-0.324c0.21-0.075,0.454-0.113,0.729-0.113
			c0.274,0,0.496,0.032,0.668,0.097c0.172,0.064,0.298,0.146,0.379,0.244c0.079,0.098,0.137,0.221,0.169,0.369
			c0.018,0.094,0.026,0.262,0.026,0.502v0.724c0,0.505,0.012,0.823,0.033,0.956c0.021,0.136,0.064,0.264,0.13,0.389h-0.557
			C39.17,83.012,39.134,82.879,39.118,82.725z M39.072,81.52c-0.199,0.08-0.494,0.146-0.891,0.203
			c-0.224,0.032-0.382,0.068-0.475,0.107c-0.093,0.041-0.164,0.1-0.215,0.178c-0.051,0.077-0.075,0.163-0.075,0.258
			c0,0.145,0.055,0.266,0.166,0.361c0.11,0.098,0.273,0.145,0.485,0.145c0.211,0,0.4-0.045,0.564-0.137s0.285-0.217,0.362-0.375
			c0.06-0.121,0.089-0.304,0.089-0.542L39.072,81.52z"/>
		<path fill="#FFFFFF" d="M42.534,83.127v-0.409c-0.203,0.32-0.502,0.479-0.896,0.479c-0.256,0-0.49-0.071-0.704-0.213
			c-0.215-0.141-0.381-0.338-0.497-0.59c-0.118-0.252-0.178-0.543-0.178-0.869c0-0.32,0.054-0.611,0.16-0.87
			c0.106-0.263,0.267-0.462,0.479-0.601c0.213-0.139,0.45-0.209,0.714-0.209c0.193,0,0.363,0.043,0.514,0.122
			c0.151,0.081,0.274,0.188,0.369,0.317v-1.584h0.541v4.425L42.534,83.127L42.534,83.127z M40.815,81.523
			c0,0.408,0.087,0.718,0.262,0.92c0.172,0.203,0.378,0.305,0.614,0.305c0.238,0,0.441-0.098,0.608-0.291
			c0.165-0.193,0.249-0.49,0.249-0.889c0-0.439-0.084-0.762-0.254-0.965c-0.17-0.205-0.378-0.309-0.627-0.309
			c-0.242,0-0.444,0.098-0.606,0.296C40.897,80.787,40.815,81.1,40.815,81.523z"/>
		<path fill="#FFFFFF" d="M43.899,79.32v-0.618h0.541v0.618H43.899z M43.899,83.127v-3.21h0.541v3.21H43.899z"/>
		<path fill="#FFFFFF" d="M45.273,83.127v-3.21h0.487v0.456c0.235-0.352,0.573-0.525,1.019-0.525c0.192,0,0.368,0.034,0.531,0.104
			c0.162,0.067,0.282,0.159,0.363,0.272c0.08,0.112,0.137,0.246,0.167,0.401c0.021,0.101,0.031,0.276,0.031,0.526v1.974H47.33
			v-1.949c0-0.222-0.021-0.389-0.064-0.497c-0.042-0.109-0.117-0.197-0.224-0.264c-0.107-0.064-0.234-0.098-0.379-0.098
			c-0.23,0-0.43,0.074-0.598,0.222c-0.168,0.146-0.252,0.425-0.252,0.835v1.752H45.273L45.273,83.127z"/>
		<path fill="#FFFFFF" d="M48.612,83.391l0.524,0.069c0.022,0.166,0.085,0.288,0.186,0.364c0.136,0.103,0.321,0.154,0.556,0.154
			c0.253,0,0.45-0.052,0.587-0.151c0.139-0.101,0.231-0.241,0.28-0.421c0.028-0.111,0.041-0.344,0.039-0.696
			c-0.238,0.278-0.535,0.417-0.89,0.417c-0.442,0-0.785-0.159-1.028-0.479c-0.242-0.317-0.363-0.698-0.363-1.144
			c0-0.307,0.056-0.59,0.167-0.849c0.111-0.258,0.271-0.458,0.483-0.6c0.212-0.141,0.46-0.211,0.745-0.211
			c0.381,0,0.694,0.154,0.941,0.463v-0.394h0.486v2.772c0,0.5-0.052,0.853-0.152,1.062c-0.102,0.209-0.263,0.373-0.483,0.494
			c-0.22,0.121-0.491,0.182-0.813,0.182c-0.383,0-0.69-0.086-0.925-0.26C48.717,83.995,48.604,83.736,48.612,83.391z M49.06,81.466
			c0,0.423,0.084,0.729,0.253,0.923c0.168,0.193,0.379,0.289,0.631,0.289c0.251,0,0.462-0.096,0.632-0.287
			c0.17-0.193,0.256-0.494,0.256-0.906c0-0.394-0.088-0.688-0.263-0.89c-0.175-0.198-0.386-0.299-0.634-0.299
			c-0.242,0-0.45,0.099-0.62,0.295S49.06,81.079,49.06,81.466z"/>
	</g>
</g>
</svg>
