<?xml version="1.0" encoding="utf-8"?>
<!-- Generator: Adobe Illustrator 16.0.0, SVG Export Plug-In . SVG Version: 6.00 Build 0)  -->
<!DOCTYPE svg PUBLIC "-//W3C//DTD SVG 1.1//EN" "http://www.w3.org/Graphics/SVG/1.1/DTD/svg11.dtd">
<svg version="1.1" id="圖層_1" xmlns="http://www.w3.org/2000/svg" xmlns:xlink="http://www.w3.org/1999/xlink" x="0px" y="0px"
	 width="539.446px" height="74.372px" viewBox="0 0 539.446 74.372" enable-background="new 0 0 539.446 74.372"
	 xml:space="preserve">
<g>
	<g>
		<g>
			<path fill="#4E4C4B" d="M356.673,65.36c0,4.247-3.455,7.702-7.702,7.702c-4.248,0-7.702-3.455-7.702-7.702
				c0-4.248,3.454-7.704,7.702-7.704C353.218,57.656,356.673,61.112,356.673,65.36z M348.971,56.347
				c-4.97,0-9.011,4.044-9.011,9.014c0,4.969,4.041,9.012,9.011,9.012s9.014-4.043,9.014-9.012
				C357.984,60.391,353.94,56.347,348.971,56.347z"/>
		</g>
		<g>
			<path fill="#4E4C4B" d="M344.954,70.626V60.091h4.678c0.939,0,1.654,0.096,2.145,0.285c0.487,0.188,0.879,0.521,1.174,1.004
				c0.292,0.479,0.438,1.009,0.438,1.591c0,0.749-0.243,1.38-0.728,1.891c-0.482,0.517-1.231,0.841-2.243,0.979
				c0.367,0.177,0.647,0.352,0.842,0.523c0.408,0.375,0.794,0.84,1.153,1.399l1.824,2.86h-1.74l-1.396-2.188
				c-0.406-0.631-0.74-1.113-1.004-1.447c-0.267-0.337-0.501-0.568-0.71-0.705c-0.209-0.136-0.42-0.229-0.64-0.279
				c-0.155-0.033-0.413-0.051-0.774-0.051h-1.617v4.672H344.954z M346.351,64.75h3c0.638,0,1.138-0.064,1.498-0.197
				c0.363-0.135,0.637-0.346,0.825-0.637c0.188-0.291,0.281-0.607,0.281-0.949c0-0.502-0.182-0.913-0.545-1.234
				c-0.362-0.322-0.938-0.484-1.724-0.484h-3.338L346.351,64.75L346.351,64.75z"/>
		</g>
	</g>
	<g>
		<g>
			<g>
				<g>
					<g>
						<g>
							<path fill="#EC7563" d="M0.007,25.165l7.106-0.371c0.098,2.259,0.489,3.782,1.17,4.574c1.095,1.287,3.119,1.93,6.073,1.93
								c2.456,0,4.231-0.438,5.326-1.313c1.095-0.874,1.642-1.93,1.642-3.17c0-1.072-0.448-1.98-1.343-2.725
								c-0.631-0.543-2.363-1.426-5.194-2.647c-2.83-1.222-4.897-2.24-6.2-3.058c-1.304-0.817-2.33-1.879-3.076-3.183
								c-0.746-1.304-1.121-2.83-1.121-4.58c0-3.053,1.108-5.588,3.321-7.602c2.214-2.015,5.418-3.021,9.614-3.021
								c4.261,0,7.56,0.998,9.898,2.99c2.336,1.992,3.622,4.644,3.853,7.952l-7.106,0.322c-0.183-1.732-0.815-3.06-1.896-3.981
								c-1.082-0.925-2.678-1.386-4.79-1.386c-2.079,0-3.564,0.364-4.454,1.09c-0.89,0.725-1.334,1.64-1.334,2.744
								c0,1.041,0.405,1.898,1.216,2.574c0.812,0.693,2.606,1.643,5.39,2.846c4.188,1.798,6.854,3.258,7.995,4.381
								c1.707,1.651,2.56,3.77,2.56,6.359c0,3.201-1.268,5.937-3.801,8.202c-2.535,2.271-6.063,3.401-10.587,3.401
								c-3.12,0-5.823-0.521-8.11-1.563c-2.287-1.045-3.9-2.495-4.841-4.352C0.377,29.719-0.059,27.582,0.007,25.165z"/>
						</g>
						<path fill="#DFC44A" d="M37.881,10.583h6.638l-0.617,3.174c2.604-2.519,5.341-3.779,8.209-3.779
							c1.978,0,3.502,0.412,4.575,1.236c1.071,0.824,1.755,1.959,2.053,3.407c0.905-1.316,2.208-2.42,3.907-3.309
							c1.697-0.89,3.462-1.335,5.293-1.335c2.093,0,3.725,0.564,4.895,1.694c1.17,1.129,1.756,2.624,1.756,4.484
							c-0.028,0.896-0.291,2.453-0.787,4.664l-3.38,15.994h-7.027l3.346-15.991c0.419-2.001,0.658-3.14,0.715-3.406
							c0-0.732-0.222-1.311-0.665-1.736c-0.443-0.424-1.106-0.638-1.991-0.638c-1.788,0-3.382,0.932-4.784,2.794
							c-1.02,1.333-1.887,3.697-2.606,7.092l-2.486,11.886H47.9l3.311-15.848c0.378-1.823,0.567-3.01,0.567-3.553
							c0-0.693-0.236-1.261-0.707-1.705c-0.471-0.443-1.121-0.666-1.95-0.666c-0.78,0-1.583,0.232-2.412,0.693
							c-0.828,0.461-1.555,1.094-2.176,1.899c-0.623,0.808-1.159,1.846-1.604,3.112c-0.208,0.595-0.544,1.935-1.01,4.024
							l-2.491,12.042h-7.026L37.881,10.583z"/>
						<path fill="#DFC44A" d="M87.615,17.992l-6.879-0.585c0.783-2.329,2.152-4.149,4.106-5.463
							c1.954-1.309,4.539-1.967,7.759-1.967c3.35,0,5.827,0.68,7.427,2.038c1.603,1.357,2.404,3.017,2.404,4.974
							c0,0.791-0.071,1.632-0.21,2.521c-0.14,0.888-0.63,3.225-1.473,7.012c-0.692,3.127-1.039,5.315-1.039,6.565
							c0,1.119,0.2,2.364,0.599,3.728h-6.797c-0.326-0.952-0.528-1.939-0.605-2.958c-1.035,1.15-2.224,2.043-3.571,2.684
							c-1.346,0.636-2.7,0.954-4.063,0.954c-2.167,0-3.958-0.711-5.368-2.138c-1.412-1.427-2.117-3.26-2.117-5.504
							c0-2.505,0.776-4.51,2.328-6.008c1.552-1.503,4.323-2.41,8.315-2.724c3.367-0.279,5.618-0.617,6.752-1.012
							c0.296-0.994,0.445-1.788,0.445-2.386c0-0.759-0.301-1.398-0.901-1.909c-0.601-0.514-1.494-0.771-2.679-0.771
							c-1.251,0-2.237,0.256-2.96,0.768C88.365,16.324,87.874,17.049,87.615,17.992z M94.242,24.57
							c-0.428,0.115-0.993,0.224-1.7,0.323c-3.547,0.437-5.862,1.067-6.946,1.901c-0.772,0.603-1.157,1.411-1.157,2.432
							c0,0.834,0.295,1.538,0.886,2.113c0.59,0.577,1.371,0.865,2.339,0.865c1.067,0,2.072-0.262,3.017-0.789
							c0.944-0.527,1.65-1.2,2.118-2.029c0.468-0.824,0.882-2.114,1.243-3.867L94.242,24.57z"/>
						<path fill="#DFC44A" d="M110.763,10.583h6.638l-1.059,5.046c2.455-3.767,5.114-5.651,7.979-5.651
							c1.014,0,2.102,0.254,3.264,0.763l-2.722,5.782c-0.645-0.23-1.333-0.345-2.061-0.345c-1.227,0-2.472,0.461-3.739,1.383
							c-1.267,0.924-2.257,2.157-2.969,3.697c-0.712,1.54-1.417,3.985-2.111,7.33l-1.673,8.227h-7.026L110.763,10.583z"/>
						<path fill="#DFC44A" d="M127.066,15.875l1.059-5.293h3.527l0.863-4.157l8.119-4.915l-1.866,9.072h4.173l-1.058,5.293h-4.202
							l-2.348,11.057c-0.416,1.991-0.623,3.128-0.623,3.406c0,0.546,0.167,0.971,0.503,1.275c0.336,0.308,0.943,0.459,1.821,0.459
							c0.305,0,1.064-0.058,2.278-0.171l-1.134,5.224c-1.207,0.246-2.446,0.368-3.717,0.368c-2.48,0-4.282-0.486-5.408-1.457
							c-1.124-0.974-1.686-2.324-1.686-4.054c0-0.806,0.32-2.663,0.961-5.571l2.262-10.536H127.066z"/>
						<g>
							<path fill="#EC7563" d="M149.719,36.814h-7.488l7.563-36.134h16.065c2.764,0,4.915,0.282,6.453,0.85
								c1.538,0.566,2.781,1.607,3.727,3.119c0.946,1.512,1.418,3.343,1.418,5.496c0,3.072-0.918,5.607-2.754,7.604
								c-1.838,1.996-4.622,3.232-8.352,3.71c0.952,0.854,1.848,1.979,2.687,3.375c1.659,2.828,3.509,6.82,5.548,11.98h-8.014
								c-0.639-2.039-1.893-5.219-3.761-9.542c-1.017-2.334-2.099-3.905-3.246-4.711c-0.705-0.475-1.936-0.713-3.688-0.713h-3.025
								L149.719,36.814z M153.992,16.405h3.94c3.99,0,6.637-0.239,7.943-0.714c1.305-0.475,2.327-1.219,3.066-2.234
								c0.74-1.016,1.109-2.08,1.109-3.194c0-1.309-0.535-2.289-1.6-2.946c-0.658-0.392-2.077-0.588-4.26-0.588h-8.174
								L153.992,16.405z"/>
						</g>
						<path fill="#DFC44A" d="M204.085,25.927h-17.727c-0.017,0.281-0.024,0.496-0.024,0.646c0,1.755,0.496,3.17,1.488,4.245
							c0.993,1.074,2.204,1.613,3.631,1.613c2.346,0,4.176-1.209,5.489-3.628l6.35,1.056c-1.23,2.546-2.877,4.455-4.937,5.727
							c-2.06,1.273-4.371,1.908-6.932,1.908c-3.513,0-6.37-1.114-8.569-3.35c-2.2-2.237-3.299-5.194-3.299-8.873
							c0-3.596,0.992-6.797,2.977-9.603c2.707-3.794,6.568-5.691,11.589-5.691c3.199,0,5.741,0.993,7.626,2.98
							c1.888,1.986,2.831,4.771,2.831,8.347C204.577,23.02,204.413,24.56,204.085,25.927z M198.151,21.622
							c0.017-0.317,0.025-0.556,0.025-0.721c0-1.954-0.437-3.419-1.309-4.395c-0.872-0.974-2.04-1.464-3.503-1.464
							c-1.465,0-2.776,0.557-3.936,1.664c-1.16,1.108-1.945,2.746-2.358,4.915H198.151z"/>
						<path fill="#DFC44A" d="M216.805,17.992l-6.879-0.585c0.785-2.329,2.152-4.149,4.106-5.463
							c1.954-1.309,4.539-1.967,7.759-1.967c3.35,0,5.827,0.68,7.429,2.038c1.602,1.357,2.402,3.017,2.402,4.974
							c0,0.791-0.071,1.632-0.21,2.521c-0.141,0.888-0.632,3.225-1.472,7.012c-0.694,3.127-1.04,5.315-1.04,6.565
							c0,1.119,0.2,2.364,0.599,3.728h-6.797c-0.328-0.952-0.528-1.939-0.605-2.958c-1.035,1.15-2.225,2.043-3.571,2.684
							c-1.347,0.636-2.7,0.954-4.063,0.954c-2.167,0-3.956-0.711-5.368-2.138c-1.413-1.427-2.118-3.26-2.118-5.504
							c0-2.505,0.776-4.51,2.328-6.008c1.552-1.503,4.323-2.41,8.315-2.724c3.368-0.279,5.618-0.617,6.752-1.012
							c0.295-0.994,0.445-1.788,0.445-2.386c0-0.759-0.301-1.398-0.901-1.909c-0.601-0.514-1.494-0.771-2.679-0.771
							c-1.251,0-2.237,0.256-2.96,0.768C217.555,16.324,217.065,17.049,216.805,17.992z M223.432,24.57
							c-0.427,0.115-0.993,0.224-1.7,0.323c-3.547,0.437-5.862,1.067-6.945,1.901c-0.772,0.603-1.158,1.411-1.158,2.432
							c0,0.834,0.296,1.538,0.886,2.113c0.59,0.577,1.372,0.865,2.34,0.865c1.067,0,2.072-0.262,3.017-0.789
							c0.944-0.527,1.65-1.2,2.118-2.029c0.468-0.824,0.882-2.114,1.244-3.867L223.432,24.57z"/>
						<path fill="#DFC44A" d="M259.034,36.814h-6.717l0.581-2.773c-1.285,1.233-2.548,2.118-3.791,2.652
							c-1.242,0.534-2.646,0.801-4.21,0.801c-2.717,0-4.918-0.926-6.605-2.783c-1.688-1.856-2.532-4.597-2.532-8.228
							c0-4.208,1.203-8.009,3.609-11.407s5.59-5.099,9.549-5.099c3.577,0,6.259,1.42,8.047,4.26L259.88,0.68h7.026L259.034,36.814z
							 M242.64,26.22c0,1.879,0.479,3.348,1.438,4.401c0.957,1.054,2.138,1.583,3.538,1.583c1.3,0,2.513-0.442,3.638-1.323
							s2.024-2.229,2.7-4.042c0.675-1.812,1.013-3.553,1.013-5.216c0-1.895-0.517-3.428-1.551-4.598
							c-1.033-1.17-2.225-1.756-3.575-1.756c-2.1,0-3.825,1.153-5.176,3.459C243.314,21.04,242.64,23.535,242.64,26.22z"/>
						<path fill="#DFC44A" d="M271.209,10.583h7.026l-5.489,26.231h-7.025L271.209,10.583z M273.283,0.68h7.024l-1.329,6.351h-7.025
							L273.283,0.68z"/>
						<path fill="#DFC44A" d="M285.313,10.583h6.715l-0.679,3.451c1.7-1.459,3.287-2.499,4.763-3.123
							c1.475-0.62,3.029-0.934,4.662-0.934c2.184,0,3.906,0.625,5.164,1.873c1.258,1.249,1.888,2.905,1.888,4.969
							c-0.033,0.916-0.338,2.65-0.914,5.206l-3.191,14.789h-7.027l3.182-14.836c0.464-2.217,0.717-3.542,0.761-3.979
							c0-0.919-0.275-1.64-0.823-2.167c-0.549-0.527-1.311-0.79-2.288-0.79c-1.062,0-2.241,0.436-3.538,1.308
							c-1.298,0.872-2.316,2.022-3.057,3.452c-0.556,1.021-1.178,3.102-1.87,6.241l-2.199,10.771h-7.026L285.313,10.583z"/>
						<path fill="#DFC44A" d="M310.323,38.251l7.497,1.076c0,0.748,0.117,1.315,0.358,1.698c0.24,0.382,0.627,0.708,1.162,0.98
							c0.536,0.267,1.267,0.403,2.194,0.403c1.589,0,2.862-0.303,3.821-0.904c0.716-0.469,1.3-1.225,1.754-2.262
							c0.278-0.652,0.637-2.076,1.073-4.268l0.255-1.222c-2.568,2.041-5.223,3.06-7.962,3.06c-2.544,0-4.63-0.9-6.261-2.705
							c-1.63-1.803-2.444-4.444-2.444-7.922c0-3.065,0.555-5.877,1.666-8.436c1.109-2.56,2.669-4.494,4.677-5.808
							c2.008-1.309,4.058-1.967,6.147-1.967c1.719,0,3.294,0.457,4.724,1.372c1.428,0.913,2.54,2.194,3.335,3.843l0.966-4.609h6.641
							l-4.17,21.783c-0.756,3.529-1.392,6.044-1.911,7.552s-1.113,2.71-1.783,3.605c-0.671,0.893-1.516,1.645-2.538,2.248
							c-1.021,0.605-2.229,1.04-3.615,1.305c-1.393,0.265-2.9,0.396-4.523,0.396c-3.671,0-6.445-0.631-8.322-1.893
							c-1.876-1.261-2.815-3.361-2.815-6.295C310.247,38.97,310.273,38.628,310.323,38.251z M318.65,25.451
							c0,1.975,0.444,3.479,1.333,4.519c0.888,1.035,2.001,1.555,3.338,1.555c1.251,0,2.466-0.465,3.645-1.396
							c1.178-0.932,2.079-2.254,2.706-3.967c0.626-1.715,0.939-3.374,0.939-4.973c0-1.843-0.518-3.329-1.546-4.456
							c-1.032-1.127-2.223-1.69-3.576-1.69c-1.252,0-2.406,0.498-3.456,1.494c-1.051,0.997-1.917,2.53-2.601,4.604
							C318.909,22.741,318.65,24.177,318.65,25.451z"/>
					</g>
				</g>
			</g>
		</g>
		<g>
			<path fill="#DFC44A" d="M347.531,22.67h13.531l-1.409,6.725h-13.529L347.531,22.67z"/>
			<g>
				<path fill="#EC7563" d="M362.812,38.871l7.433-35.613h26.407l-1.239,5.951h-19.07l-1.7,8.089h18.438l-1.239,5.954h-18.438
					l-2.234,9.669h20.722l-1.264,5.95H362.812z"/>
			</g>
			<path fill="#DFC44A" d="M401.437,13.074h6.608l-0.68,3.35c1.652-1.425,3.193-2.44,4.628-3.048c1.433-0.607,2.941-0.91,4.529-0.91
				c2.122,0,3.794,0.608,5.018,1.819c1.223,1.216,1.834,2.828,1.834,4.837c0,0.907-0.268,2.623-0.803,5.149l-3.035,14.6h-6.974
				l3.062-14.648c0.453-2.186,0.682-3.489,0.682-3.91c0-0.891-0.266-1.592-0.79-2.103c-0.526-0.51-1.261-0.766-2.2-0.766
				c-1.019,0-2.153,0.431-3.399,1.288c-1.248,0.86-2.228,1.991-2.938,3.399c-0.52,1.007-1.104,3.057-1.751,6.146l-2.211,10.593
				h-6.972L401.437,13.074z"/>
			<path fill="#DFC44A" d="M425.974,40.232l7.359,1.068c0,0.746,0.123,1.309,0.366,1.688c0.242,0.381,0.635,0.707,1.178,0.973
				c0.542,0.266,1.283,0.4,2.223,0.4c1.474,0,2.656-0.29,3.547-0.874c0.664-0.453,1.206-1.183,1.628-2.187
				c0.258-0.632,0.592-2.009,0.996-4.13l0.241-1.214c-2.412,2.008-4.905,3.012-7.48,3.012c-2.526,0-4.6-0.891-6.218-2.672
				c-1.62-1.781-2.432-4.39-2.432-7.822c0-3.028,0.55-5.804,1.653-8.332c1.101-2.527,2.646-4.439,4.639-5.734
				c1.991-1.295,4.023-1.942,6.098-1.942c1.717,0,3.288,0.452,4.712,1.359c1.426,0.907,2.536,2.178,3.331,3.813l0.97-4.564h6.535
				l-4.471,21.498c-0.729,3.449-1.344,5.91-1.847,7.385c-0.502,1.475-1.076,2.648-1.723,3.521c-0.648,0.877-1.467,1.607-2.455,2.2
				c-0.987,0.591-2.154,1.016-3.498,1.273c-1.346,0.26-2.802,0.39-4.373,0.39c-3.643,0-6.398-0.624-8.259-1.871
				c-1.863-1.248-2.794-3.318-2.794-6.218C425.901,40.943,425.925,40.603,425.974,40.232z M434.183,27.771
				c0,1.958,0.443,3.451,1.326,4.48c0.882,1.028,1.988,1.54,3.315,1.54c1.215,0,2.394-0.458,3.535-1.381
				c1.142-0.925,2.017-2.235,2.623-3.937c0.607-1.7,0.912-3.346,0.912-4.933c0-1.828-0.494-3.303-1.482-4.42
				s-2.13-1.678-3.425-1.678c-1.247,0-2.394,0.494-3.438,1.482c-1.044,0.989-1.906,2.513-2.588,4.568
				C434.445,25.083,434.183,26.506,434.183,27.771z"/>
			<path fill="#DFC44A" d="M456.68,38.871l7.458-35.613h6.947l-7.434,35.613H456.68z"/>
			<path fill="#DFC44A" d="M475.946,13.074h6.972l-5.394,25.797h-6.973L475.946,13.074z M477.986,3.257h6.972l-1.313,6.316h-6.971
				L477.986,3.257z"/>
			<path fill="#DFC44A" d="M483.475,31.654l6.754-1.067c0.6,1.425,1.343,2.433,2.235,3.026c0.891,0.591,2.105,0.886,3.644,0.886
				c1.587,0,2.858-0.356,3.814-1.068c0.664-0.486,0.995-1.077,0.995-1.776c0-0.467-0.17-0.889-0.509-1.262
				c-0.357-0.356-1.321-0.793-2.892-1.311c-4.212-1.392-6.818-2.495-7.823-3.305c-1.57-1.262-2.355-2.915-2.355-4.957
				c0-2.039,0.762-3.797,2.281-5.271c2.121-2.055,5.273-3.083,9.453-3.083c3.318,0,5.829,0.608,7.529,1.819
				c1.701,1.216,2.778,2.861,3.231,4.934l-6.438,1.117c-0.34-0.939-0.891-1.644-1.652-2.114c-1.037-0.63-2.283-0.947-3.74-0.947
				c-1.458,0-2.507,0.243-3.147,0.73c-0.639,0.484-0.96,1.044-0.96,1.675c0,0.647,0.325,1.184,0.973,1.604
				c0.405,0.26,1.709,0.713,3.912,1.36c3.4,0.987,5.675,1.958,6.825,2.913c1.619,1.347,2.431,2.964,2.431,4.859
				c0,2.447-1.029,4.569-3.086,6.366c-2.058,1.798-4.956,2.697-8.696,2.697c-3.727,0-6.604-0.685-8.636-2.055
				C485.584,36.057,484.203,34.135,483.475,31.654z"/>
			<path fill="#DFC44A" d="M519.113,38.871h-6.97l7.458-35.613h6.97L523.9,15.939c1.57-1.231,3.036-2.119,4.396-2.66
				c1.36-0.543,2.818-0.813,4.372-0.813c2.092,0,3.742,0.599,4.957,1.799c1.214,1.196,1.821,2.767,1.821,4.711
				c0,1.037-0.227,2.639-0.681,4.81l-3.156,15.086h-6.973l3.231-15.376c0.339-1.668,0.51-2.738,0.51-3.208
				c0-0.857-0.267-1.545-0.801-2.065c-0.536-0.517-1.264-0.777-2.188-0.777c-1.166,0-2.283,0.407-3.352,1.215
				c-1.395,1.07-2.454,2.381-3.182,3.936c-0.406,0.86-0.941,2.878-1.604,6.05L519.113,38.871z"/>
		</g>
	</g>
</g>
</svg>
