<?xml version="1.0" encoding="utf-8"?>
<!-- Generator: Adobe Illustrator 16.0.0, SVG Export Plug-In . SVG Version: 6.00 Build 0)  -->
<!DOCTYPE svg PUBLIC "-//W3C//DTD SVG 1.1//EN" "http://www.w3.org/Graphics/SVG/1.1/DTD/svg11.dtd">
<svg version="1.1" id="圖層_1" xmlns="http://www.w3.org/2000/svg" xmlns:xlink="http://www.w3.org/1999/xlink" x="0px" y="0px"
	 width="466.736px" height="66.21px" viewBox="-2.479 -2.477 466.736 66.21" enable-background="new -2.479 -2.477 466.736 66.21"
	 xml:space="preserve">
<g>
	<g>
		<g>
			<g>
				<path fill="#595757" d="M293.772,53.834c0,3.498-2.846,6.343-6.344,6.343c-3.499,0-6.346-2.845-6.346-6.343
					c0-3.5,2.847-6.349,6.346-6.349C290.927,47.487,293.772,50.334,293.772,53.834z M287.429,46.41
					c-4.095,0-7.423,3.329-7.423,7.424c0,4.094,3.328,7.422,7.423,7.422c4.093,0,7.423-3.328,7.423-7.422
					C294.852,49.739,291.521,46.41,287.429,46.41z"/>
				<path fill="#FFFFFF" d="M287.429,63.733c-5.461,0-9.901-4.44-9.901-9.899c0-5.461,4.44-9.901,9.901-9.901
					c5.46,0,9.901,4.44,9.901,9.901C297.33,59.293,292.889,63.733,287.429,63.733z M287.429,49.966
					c-2.132,0-3.864,1.734-3.864,3.867c0,2.129,1.732,3.863,3.864,3.863c2.131,0,3.863-1.734,3.863-3.863
					C291.292,51.7,289.56,49.966,287.429,49.966z"/>
			</g>
		</g>
		<g>
			<g>
				<path fill="#595757" d="M284.119,58.171v-8.678h3.854c0.774,0,1.363,0.078,1.767,0.232c0.402,0.155,0.725,0.432,0.967,0.827
					c0.241,0.396,0.359,0.83,0.359,1.312c0,0.615-0.2,1.137-0.599,1.558c-0.399,0.424-1.016,0.69-1.85,0.808
					c0.304,0.146,0.533,0.289,0.693,0.431c0.335,0.311,0.651,0.692,0.95,1.155l1.502,2.355h-1.435l-1.149-1.803
					c-0.336-0.521-0.61-0.918-0.827-1.193c-0.219-0.277-0.413-0.469-0.585-0.58s-0.347-0.188-0.525-0.23
					c-0.128-0.026-0.342-0.043-0.639-0.043h-1.333v3.851L284.119,58.171L284.119,58.171z M285.271,53.33h2.472
					c0.523,0,0.938-0.054,1.233-0.162c0.299-0.11,0.522-0.285,0.68-0.522c0.154-0.24,0.232-0.502,0.232-0.783
					c0-0.412-0.149-0.752-0.449-1.018c-0.3-0.267-0.772-0.398-1.42-0.398h-2.748V53.33z"/>
				<path fill="#FFFFFF" d="M291.764,60.649h-1.435c-0.848,0-1.635-0.432-2.09-1.146L287.7,58.66
					c-0.229,1.137-1.229,1.989-2.432,1.989h-1.151c-1.368,0-2.479-1.108-2.479-2.479v-8.679c0-1.368,1.109-2.479,2.479-2.479h3.854
					c1.094,0,1.965,0.133,2.662,0.4c0.905,0.352,1.661,0.99,2.187,1.848c0.48,0.79,0.725,1.664,0.725,2.604
					c0,1.102-0.341,2.104-0.991,2.931l1.303,2.043c0.486,0.765,0.52,1.729,0.083,2.524
					C293.501,60.157,292.668,60.649,291.764,60.649z"/>
			</g>
		</g>
	</g>
	<g>
		<g>
			<g>
				<g>
					<g>
						<g>
							<path fill="#EC7563" d="M0.007,21.544l6.083-0.317c0.084,1.933,0.419,3.236,1.001,3.915c0.937,1.101,2.67,1.651,5.199,1.651
								c2.102,0,3.622-0.375,4.559-1.125c0.938-0.748,1.406-1.652,1.406-2.713c0-0.918-0.383-1.695-1.149-2.332
								c-0.541-0.466-2.023-1.221-4.446-2.268c-2.423-1.046-4.191-1.917-5.308-2.617c-1.116-0.7-1.994-1.607-2.633-2.724
								C4.08,11.897,3.76,10.591,3.76,9.093c0-2.613,0.948-4.783,2.843-6.506C8.499,0.862,11.241,0,14.833,0
								c3.646,0,6.472,0.854,8.473,2.56c2,1.705,3.1,3.975,3.298,6.807l-6.083,0.276c-0.157-1.483-0.698-2.619-1.623-3.408
								c-0.926-0.792-2.292-1.186-4.1-1.186c-1.78,0-3.051,0.311-3.813,0.932c-0.763,0.621-1.143,1.404-1.143,2.35
								c0,0.891,0.347,1.625,1.042,2.203c0.694,0.593,2.23,1.405,4.614,2.436c3.585,1.539,5.866,2.79,6.843,3.749
								c1.461,1.413,2.19,3.227,2.19,5.445c0,2.739-1.085,5.081-3.254,7.021c-2.169,1.942-5.189,2.912-9.063,2.912
								c-2.67,0-4.985-0.447-6.942-1.34c-1.958-0.894-3.338-2.136-4.144-3.725C0.323,25.443-0.05,23.613,0.007,21.544z"/>
							<path fill="#FFFFFF" d="M12.216,34.578c-3.016,0-5.697-0.526-7.973-1.564c-2.473-1.129-4.264-2.764-5.325-4.86
								c-0.99-1.952-1.458-4.199-1.391-6.678c0.035-1.292,1.059-2.341,2.35-2.408l6.083-0.317c0.661-0.033,1.307,0.196,1.796,0.641
								c0.49,0.444,0.781,1.066,0.81,1.727c0.083,1.907,0.42,2.426,0.423,2.431c0.146,0.168,0.844,0.765,3.301,0.765
								c2.119,0,2.839-0.444,3.01-0.581c0.476-0.38,0.476-0.62,0.476-0.778c0-0.109,0-0.213-0.254-0.424
								c-0.129-0.104-0.793-0.581-3.846-1.899c-2.566-1.107-4.412-2.021-5.643-2.793c-1.459-0.915-2.625-2.123-3.467-3.592
								c-0.854-1.492-1.288-3.226-1.288-5.153c0-3.328,1.229-6.134,3.654-8.34c2.356-2.145,5.687-3.232,9.898-3.232
								c4.233,0,7.626,1.061,10.08,3.152c2.519,2.146,3.919,5.013,4.164,8.521c0.048,0.667-0.178,1.323-0.621,1.822
								c-0.444,0.499-1.072,0.797-1.739,0.828l-6.083,0.276c-1.313,0.052-2.44-0.912-2.578-2.216
								c-0.131-1.241-0.61-1.65-0.768-1.784c-0.446-0.382-1.33-0.592-2.489-0.592c-1.767,0-2.241,0.371-2.245,0.375
								c-0.22,0.179-0.23,0.27-0.23,0.429c0,0.138,0.006,0.179,0.149,0.298c0.202,0.172,1.017,0.77,4.012,2.065
								c5.195,2.229,6.824,3.497,7.598,4.256c1.941,1.879,2.933,4.31,2.933,7.214c0,3.463-1.373,6.447-4.081,8.869
								C20.305,33.386,16.7,34.578,12.216,34.578z M2.655,23.889c0.143,0.729,0.37,1.399,0.687,2.024
								c0.549,1.084,1.519,1.932,2.962,2.591c1.623,0.74,3.612,1.116,5.913,1.116c3.226,0,5.719-0.767,7.409-2.28
								c1.634-1.462,2.428-3.154,2.428-5.173c0-1.552-0.456-2.716-1.437-3.664c-0.354-0.349-1.631-1.336-6.097-3.252
								c-3.514-1.52-4.677-2.342-5.247-2.829c-1.241-1.034-1.91-2.455-1.91-4.088c0-1.7,0.711-3.178,2.058-4.273
								c1.228-1.001,2.986-1.489,5.377-1.489c2.406,0,4.329,0.599,5.711,1.781c0.859,0.734,1.505,1.646,1.93,2.724l1.136-0.051
								c-0.406-1-1.029-1.853-1.878-2.576c-1.53-1.306-3.841-1.967-6.863-1.967c-2.938,0-5.146,0.653-6.562,1.941
								C6.885,5.686,6.239,7.171,6.239,9.097c0,1.067,0.207,1.947,0.632,2.689c0.438,0.764,1.026,1.371,1.799,1.855
								c1,0.627,2.673,1.448,4.973,2.441c3.513,1.518,4.54,2.199,5.082,2.666c1.304,1.083,2.011,2.548,2.011,4.21
								c0,1.822-0.809,3.431-2.338,4.651c-1.398,1.12-3.396,1.666-6.105,1.666c-3.324,0-5.643-0.826-7.088-2.524
								c-0.615-0.716-1.044-1.67-1.305-2.925L2.655,23.889z"/>
						</g>
					</g>
					<g>
						<path fill="#DFC44A" d="M32.427,9.06h5.683l-0.527,2.717c2.229-2.156,4.571-3.235,7.026-3.235
							c1.692,0,2.998,0.353,3.916,1.058c0.917,0.706,1.503,1.677,1.757,2.917c0.775-1.127,1.891-2.071,3.345-2.832
							c1.454-0.762,2.964-1.143,4.53-1.143c1.792,0,3.188,0.483,4.19,1.45c1.002,0.967,1.504,2.247,1.504,3.839
							c-0.024,0.768-0.249,2.1-0.674,3.992l-2.895,13.691h-6.016l2.865-13.688c0.358-1.714,0.563-2.688,0.611-2.917
							c0-0.627-0.189-1.122-0.567-1.486c-0.379-0.363-0.948-0.546-1.705-0.546c-1.53,0-2.896,0.798-4.095,2.391
							c-0.873,1.142-1.616,3.166-2.23,6.071l-2.128,10.175h-6.014l2.834-13.565c0.324-1.563,0.484-2.578,0.484-3.042
							c0-0.593-0.201-1.079-0.604-1.46c-0.403-0.38-0.959-0.57-1.669-0.57c-0.667,0-1.355,0.199-2.065,0.594
							c-0.708,0.394-1.331,0.936-1.861,1.626c-0.533,0.69-0.992,1.579-1.373,2.664c-0.179,0.508-0.467,1.656-0.865,3.446
							l-2.132,10.308h-6.015L32.427,9.06z"/>
						<path fill="#FFFFFF" d="M60.284,33.995h-6.016c-0.747,0-1.454-0.338-1.924-0.917c-0.471-0.579-0.655-1.341-0.502-2.071
							l3.269-15.615c-0.39,0.086-1.007,0.376-1.753,1.369c-0.372,0.486-1.083,1.774-1.786,5.092l-2.126,10.169
							c-0.24,1.148-1.253,1.972-2.427,1.972h-6.014c-0.747,0-1.453-0.337-1.924-0.916c-0.472-0.579-0.656-1.341-0.504-2.07
							l2.834-13.565c0.217-1.043,0.324-1.677,0.379-2.052c-0.219,0.052-0.437,0.156-0.601,0.248
							c-0.417,0.232-0.778,0.55-1.103,0.972c-0.372,0.482-0.707,1.146-0.998,1.973c-0.065,0.187-0.274,0.871-0.784,3.163
							l-2.125,10.271c-0.238,1.151-1.252,1.978-2.428,1.978h-6.015c-0.747,0-1.453-0.337-1.924-0.916
							c-0.471-0.579-0.656-1.341-0.503-2.07l4.689-22.456c0.239-1.149,1.253-1.972,2.427-1.972h5.683
							c0.61,0,1.193,0.224,1.644,0.623c1.563-0.758,3.186-1.141,4.855-1.141c2.243,0,4.068,0.528,5.426,1.57
							c0.321,0.247,0.616,0.515,0.885,0.804c0.481-0.341,1.002-0.658,1.558-0.949c1.803-0.945,3.715-1.425,5.68-1.425
							c2.448,0,4.438,0.722,5.912,2.146c1.479,1.427,2.262,3.371,2.262,5.623c-0.031,1.025-0.265,2.441-0.734,4.535L62.708,32.03
							C62.467,33.175,61.456,33.995,60.284,33.995z M57.32,29.036h0.954l2.479-11.725c0.516-2.3,0.609-3.214,0.621-3.557
							c-0.001-1.119-0.428-1.668-0.747-1.977c-0.54-0.521-1.38-0.766-2.555-0.755c0.297,0.169,0.57,0.373,0.818,0.61
							c0.612,0.59,1.334,1.632,1.334,3.278c0,0.173-0.018,0.345-0.054,0.514L57.32,29.036z M44.055,29.036h0.949l1.715-8.203
							c0.584-2.76,1.292-4.825,2.155-6.276c-0.517-0.356-0.889-0.902-1.021-1.541c-0.176-0.856-0.563-1.238-0.841-1.451
							c-0.467-0.358-1.333-0.528-2.44-0.543c0.349,0.197,0.628,0.417,0.847,0.622c0.905,0.856,1.384,1.984,1.384,3.264
							c0,0.471-0.064,1.26-0.537,3.545L44.055,29.036z M30.789,29.036h0.943l1.725-8.33c0.571-2.57,0.816-3.377,0.952-3.764
							c0.443-1.259,0.994-2.339,1.643-3.215c-0.661-0.519-1.019-1.343-0.938-2.188h-0.671L30.789,29.036z"/>
					</g>
					<g>
						<path fill="#DFC44A" d="M75.001,15.404l-5.89-0.501c0.67-1.993,1.842-3.551,3.516-4.676c1.673-1.12,3.886-1.684,6.642-1.684
							c2.868,0,4.988,0.582,6.358,1.744c1.373,1.163,2.058,2.583,2.058,4.258c0,0.676-0.061,1.396-0.18,2.157
							c-0.121,0.76-0.54,2.761-1.262,6.001c-0.593,2.678-0.889,4.552-0.889,5.621c0,0.959,0.171,2.023,0.513,3.191h-5.818
							c-0.279-0.816-0.452-1.661-0.519-2.533c-0.886,0.985-1.903,1.75-3.057,2.296c-1.152,0.545-2.312,0.818-3.479,0.818
							c-1.854,0-3.387-0.609-4.595-1.832c-1.209-1.22-1.813-2.79-1.813-4.71c0-2.145,0.665-3.86,1.993-5.144
							c1.327-1.286,3.7-2.062,7.118-2.331c2.883-0.239,4.81-0.528,5.779-0.866c0.254-0.851,0.381-1.531,0.381-2.042
							c0-0.65-0.257-1.198-0.771-1.635c-0.516-0.44-1.279-0.66-2.293-0.66c-1.071,0-1.916,0.219-2.534,0.657
							C75.643,13.975,75.223,14.597,75.001,15.404z M80.674,21.034c-0.366,0.099-0.852,0.192-1.455,0.278
							c-3.037,0.374-5.02,0.915-5.946,1.628c-0.661,0.515-0.991,1.208-0.991,2.08c0,0.715,0.253,1.317,0.759,1.81
							c0.505,0.495,1.174,0.74,2.003,0.74c0.913,0,1.772-0.224,2.582-0.675c0.808-0.45,1.413-1.027,1.813-1.736
							c0.4-0.707,0.755-1.812,1.065-3.312L80.674,21.034z"/>
						<path fill="#FFFFFF" d="M72.995,34.578c-2.534,0-4.674-0.864-6.357-2.568c-1.677-1.693-2.529-3.865-2.529-6.454
							c0-2.834,0.926-5.165,2.75-6.927c0.506-0.49,1.1-0.92,1.782-1.293c-0.653-0.126-1.233-0.511-1.604-1.074
							c-0.417-0.636-0.52-1.429-0.276-2.15c0.845-2.512,2.353-4.511,4.481-5.942c2.086-1.398,4.785-2.106,8.025-2.106
							c3.508,0,6.112,0.763,7.962,2.333c1.918,1.625,2.933,3.751,2.933,6.148c0,0.798-0.07,1.653-0.21,2.541
							c-0.133,0.839-0.555,2.852-1.29,6.156c-0.722,3.262-0.829,4.585-0.829,5.083c0,0.719,0.139,1.559,0.412,2.495
							c0.221,0.75,0.073,1.558-0.396,2.183c-0.468,0.625-1.203,0.993-1.984,0.993h-5.818c-0.718,0-1.381-0.31-1.841-0.819
							c-0.22,0.122-0.443,0.236-0.671,0.344C76.049,34.224,74.523,34.578,72.995,34.578z M70.986,21.708
							c-0.32,0.178-0.538,0.347-0.681,0.487c-0.845,0.816-1.238,1.884-1.238,3.362c0,1.27,0.349,2.212,1.095,2.965
							c0.706,0.714,1.557,1.064,2.667,1.095c-0.565-0.241-1.077-0.581-1.521-1.014c-0.983-0.958-1.504-2.198-1.504-3.583
							C69.803,23.74,70.209,22.612,70.986,21.708z M82.025,29.036h0.874c-0.016-0.242-0.023-0.479-0.023-0.712
							c0-1.279,0.301-3.235,0.947-6.156c0.876-3.939,1.154-5.358,1.233-5.854c0.099-0.63,0.149-1.227,0.149-1.769
							c0-0.945-0.364-1.675-1.182-2.367c-0.413-0.351-0.988-0.624-1.705-0.817c0.131,0.091,0.258,0.188,0.38,0.292
							c1.058,0.901,1.642,2.151,1.642,3.521c0,0.757-0.158,1.657-0.485,2.75c-0.198,0.666-0.665,1.213-1.281,1.516
							c0.485,0.578,0.685,1.352,0.527,2.101l-0.17,0.813c-0.365,1.766-0.801,3.085-1.335,4.027c-0.14,0.246-0.294,0.483-0.464,0.71
							c0.497,0.421,0.818,1.031,0.87,1.706C82.008,28.877,82.016,28.957,82.025,29.036z M74.784,24.904
							c-0.013,0-0.021,0.034-0.021,0.115c0.01,0.036,0.082,0.071,0.282,0.071c0.488,0,0.938-0.118,1.374-0.361
							c0.311-0.173,0.548-0.364,0.72-0.579C75.343,24.514,74.85,24.855,74.784,24.904C74.785,24.904,74.784,24.904,74.784,24.904z
							 M73.364,12.776l0.168,0.014c0.099-0.136,0.202-0.267,0.313-0.393C73.677,12.518,73.517,12.644,73.364,12.776z"/>
					</g>
					<g>
						<path fill="#DFC44A" d="M94.817,9.06h5.683l-0.905,4.32c2.101-3.224,4.377-4.837,6.829-4.837c0.869,0,1.8,0.217,2.794,0.653
							l-2.33,4.95c-0.552-0.197-1.141-0.295-1.765-0.295c-1.05,0-2.116,0.395-3.2,1.184c-1.084,0.791-1.933,1.845-2.542,3.164
							c-0.609,1.32-1.212,3.413-1.808,6.276l-1.432,7.042h-6.015L94.817,9.06z"/>
						<path fill="#FFFFFF" d="M96.141,33.995h-6.015c-0.747,0-1.453-0.338-1.925-0.916c-0.471-0.579-0.655-1.34-0.503-2.07
							l4.69-22.456c0.24-1.149,1.253-1.972,2.427-1.972h5.683c0.631,0,1.233,0.241,1.688,0.665c2.438-1.43,5.124-1.592,8.024-0.32
							c0.611,0.269,1.091,0.773,1.325,1.4c0.235,0.626,0.207,1.321-0.078,1.927l-2.33,4.949c-0.543,1.155-1.872,1.706-3.077,1.279
							c-0.708-0.253-1.592-0.229-2.671,0.558c-0.745,0.543-1.317,1.263-1.751,2.201c-0.363,0.786-0.941,2.42-1.629,5.739
							l-1.431,7.032C98.336,33.165,97.32,33.995,96.141,33.995z M93.177,29.036h0.938l1.029-5.056
							c0.64-3.087,1.289-5.315,1.985-6.822c0.292-0.633,0.631-1.222,1.015-1.767c-0.781-0.562-1.182-1.544-0.977-2.521l0.278-1.331
							h-0.613L93.177,29.036z M105.122,11.371c0.109,0,0.219,0.002,0.327,0.006l0.106-0.226c-0.189,0.056-0.378,0.129-0.568,0.221
							C105.032,11.371,105.077,11.371,105.122,11.371z"/>
					</g>
					<g>
						<path fill="#DFC44A" d="M108.772,13.592l0.906-4.531h3.019l0.739-3.558l6.95-4.207l-1.597,7.765h3.572l-0.905,4.531h-3.598
							l-2.01,9.464c-0.356,1.705-0.533,2.679-0.533,2.917c0,0.467,0.145,0.832,0.432,1.093c0.286,0.262,0.807,0.391,1.558,0.391
							c0.261,0,0.911-0.047,1.951-0.145l-0.972,4.47c-1.033,0.213-2.094,0.318-3.182,0.318c-2.123,0-3.665-0.418-4.629-1.25
							c-0.962-0.833-1.443-1.99-1.443-3.47c0-0.689,0.274-2.279,0.823-4.768l1.938-9.02L108.772,13.592L108.772,13.592z"/>
						<path fill="#FFFFFF" d="M115.103,34.578c-2.762,0-4.806-0.606-6.249-1.853c-1.508-1.306-2.302-3.154-2.302-5.347
							c0-0.609,0.1-1.762,0.881-5.302l1.29-6.007c-0.724-0.015-1.407-0.345-1.867-0.907c-0.471-0.574-0.66-1.33-0.514-2.058
							l0.906-4.531c0.231-1.159,1.25-1.993,2.432-1.993h1.001l0.329-1.583c0.14-0.675,0.554-1.26,1.143-1.617l6.95-4.207
							c0.843-0.51,1.909-0.474,2.713,0.095c0.807,0.569,1.198,1.56,0.999,2.525l-0.983,4.787h0.531c0.743,0,1.446,0.333,1.917,0.907
							c0.472,0.574,0.66,1.33,0.516,2.058l-0.906,4.531c-0.232,1.159-1.25,1.993-2.431,1.993h-1.59l-1.593,7.5
							c-0.119,0.57-0.209,1.015-0.275,1.361c0.249-0.02,0.582-0.048,1.024-0.09c0.796-0.075,1.563,0.232,2.087,0.823
							c0.524,0.592,0.736,1.398,0.568,2.171l-0.971,4.471c-0.208,0.959-0.964,1.706-1.926,1.903
							C117.593,34.454,116.355,34.578,115.103,34.578z M113.126,11.503c0.222,0.142,0.423,0.32,0.593,0.531
							c0.471,0.583,0.653,1.347,0.496,2.079l-1.938,9.02c-0.73,3.313-0.768,4.12-0.768,4.248c0,0.963,0.313,1.359,0.587,1.596
							c0.222,0.191,0.965,0.643,3.005,0.643c0.058,0,0.116,0,0.174-0.001c-0.461-0.17-0.858-0.411-1.201-0.722
							c-0.797-0.723-1.238-1.763-1.238-2.924c0-0.291,0-0.621,0.585-3.423l2.012-9.473c0.214-1.009,1.025-1.765,2.015-1.93
							c-0.217-0.14-0.414-0.314-0.581-0.519c-0.471-0.578-0.656-1.336-0.507-2.066l0.453-2.206l-1.169,0.708l-0.52,2.501
							C114.916,10.573,114.112,11.33,113.126,11.503z"/>
					</g>
					<g>
						<g>
							<path fill="#EC7563" d="M128.163,31.517h-6.41l6.474-30.933h13.752c2.366,0,4.207,0.242,5.524,0.727
								c1.316,0.485,2.38,1.376,3.189,2.67c0.811,1.294,1.215,2.861,1.215,4.705c0,2.63-0.785,4.8-2.357,6.509
								c-1.573,1.708-3.956,2.767-7.149,3.174c0.815,0.732,1.582,1.696,2.3,2.891c1.422,2.421,3.005,5.838,4.75,10.255h-6.86
								c-0.547-1.746-1.62-4.467-3.219-8.169c-0.871-1.998-1.798-3.342-2.779-4.032c-0.604-0.406-1.657-0.61-3.157-0.61h-2.59
								L128.163,31.517z M131.821,14.044h3.373c3.416,0,5.683-0.204,6.799-0.61c1.117-0.406,1.992-1.044,2.625-1.913
								c0.634-0.869,0.949-1.779,0.949-2.734c0-1.119-0.458-1.959-1.37-2.521c-0.562-0.335-1.776-0.503-3.646-0.503h-6.998
								L131.821,14.044z"/>
							<path fill="#FFFFFF" d="M149.45,33.995h-6.86c-1.084,0-2.042-0.704-2.366-1.738c-0.518-1.652-1.57-4.32-3.129-7.927
								c-0.925-2.122-1.655-2.796-1.927-2.987c0.052,0.035-0.356-0.161-1.732-0.161h-0.576l-2.27,10.84
								c-0.24,1.149-1.253,1.973-2.427,1.973h-6.41c-0.747,0-1.454-0.338-1.926-0.917c-0.471-0.579-0.654-1.341-0.502-2.071
								L125.8,0.075c0.24-1.149,1.253-1.972,2.427-1.972h13.752c2.688,0,4.775,0.288,6.381,0.88c1.838,0.678,3.33,1.917,4.436,3.682
								c1.057,1.689,1.592,3.714,1.592,6.021c0,3.26-1.013,6.014-3.013,8.188c-1.199,1.302-2.744,2.303-4.617,2.997
								c0.021,0.037,0.045,0.075,0.067,0.113c1.493,2.544,3.148,6.111,4.931,10.621c0.302,0.764,0.206,1.626-0.255,2.305
								C151.039,33.588,150.271,33.995,149.45,33.995z M144.36,29.036h1.393c-1.151-2.682-2.22-4.867-3.189-6.52
								c-0.574-0.956-1.189-1.738-1.819-2.302c-0.721-0.647-0.999-1.658-0.709-2.583c0.203-0.651,0.66-1.176,1.247-1.474
								c-1.036,0.178-2.59,0.326-5.031,0.359c0.674,0.169,1.241,0.415,1.727,0.74c1.415,0.994,2.601,2.652,3.667,5.099
								C142.839,25.125,143.736,27.33,144.36,29.036z M124.805,29.036h1.344l2.271-10.841c0.227-1.085,1.144-1.88,2.234-1.964
								c-0.289-0.153-0.546-0.365-0.757-0.624c-0.471-0.58-0.655-1.34-0.502-2.071l1.733-8.283c0.239-1.148,1.253-1.971,2.427-1.971
								h6.998c2.442,0,3.914,0.255,4.917,0.854c1.673,1.031,2.579,2.676,2.579,4.65c0,1.486-0.479,2.897-1.425,4.194
								c-0.926,1.271-2.197,2.207-3.781,2.783c-0.06,0.021-0.122,0.043-0.189,0.065c2.295-0.37,4.001-1.147,5.075-2.313
								c1.146-1.245,1.703-2.825,1.703-4.829c0-1.381-0.273-2.49-0.837-3.39c-0.516-0.823-1.152-1.366-1.946-1.659
								c-0.71-0.262-2.096-0.574-4.666-0.574h-11.738L124.805,29.036z M134.873,11.565h0.32c4.229,0,5.57-0.323,5.951-0.461
								c0.65-0.236,1.13-0.577,1.469-1.042c0.426-0.583,0.475-1.007,0.475-1.275c0-0.228-0.024-0.293-0.106-0.355
								c-0.164-0.047-0.794-0.19-2.43-0.19h-4.983L134.873,11.565z"/>
						</g>
					</g>
					<g>
						<path fill="#DFC44A" d="M174.701,22.197h-15.174c-0.014,0.241-0.021,0.425-0.021,0.552c0,1.502,0.425,2.713,1.273,3.633
							c0.851,0.92,1.886,1.381,3.108,1.381c2.008,0,3.573-1.035,4.697-3.106l5.438,0.905c-1.055,2.179-2.464,3.814-4.229,4.902
							c-1.764,1.089-3.74,1.634-5.932,1.634c-3.007,0-5.453-0.956-7.336-2.869c-1.883-1.914-2.824-4.446-2.824-7.596
							c0-3.077,0.851-5.818,2.549-8.219c2.315-3.248,5.623-4.872,9.919-4.872c2.737,0,4.914,0.851,6.528,2.551
							c1.615,1.701,2.422,4.083,2.422,7.145C175.121,19.707,174.982,21.026,174.701,22.197z M169.621,18.51
							c0.015-0.27,0.021-0.475,0.021-0.616c0-1.672-0.375-2.926-1.119-3.761c-0.748-0.834-1.748-1.254-3-1.254
							c-1.253,0-2.375,0.476-3.37,1.425c-0.993,0.949-1.666,2.351-2.019,4.206H169.621z"/>
						<path fill="#FFFFFF" d="M163.863,34.578c-3.683,0-6.746-1.214-9.103-3.609c-2.347-2.386-3.536-5.526-3.536-9.335
							c0-3.587,1.01-6.834,3.003-9.651c2.804-3.93,6.82-5.919,11.943-5.919c3.432,0,6.232,1.118,8.327,3.324
							c2.06,2.168,3.104,5.146,3.104,8.852c0,1.658-0.163,3.184-0.489,4.536c-0.146,0.609-0.508,1.121-0.996,1.458
							c0.039,0.061,0.074,0.124,0.107,0.188c0.358,0.693,0.371,1.516,0.03,2.219c-1.261,2.603-2.993,4.598-5.156,5.932
							C168.943,33.903,166.51,34.578,163.863,34.578z M159.929,13.051c-0.61,0.505-1.162,1.106-1.66,1.804
							c-1.402,1.983-2.087,4.204-2.087,6.78c0,2.496,0.691,4.412,2.112,5.857c0.234,0.239,0.481,0.458,0.74,0.656
							c-0.025-0.027-0.052-0.055-0.077-0.083c-1.282-1.388-1.933-3.177-1.933-5.315c0-0.161,0.008-0.393,0.026-0.696
							c0.048-0.835,0.506-1.554,1.172-1.966c-0.469-0.568-0.661-1.316-0.523-2.041C158.092,15.99,158.84,14.313,159.929,13.051z
							 M162.579,24.677c0.008,0.008,0.016,0.016,0.022,0.024c0.383,0.415,0.755,0.583,1.287,0.583c0.499,0,1.056-0.092,1.624-0.607
							H162.579z M171.787,19.718h0.797c0.039-0.47,0.059-0.963,0.059-1.479c0-2.426-0.568-4.205-1.74-5.438
							c-0.338-0.357-0.715-0.659-1.129-0.908c0.211,0.18,0.409,0.375,0.6,0.586c1.162,1.303,1.752,3.124,1.752,5.414
							c0,0.17-0.01,0.417-0.023,0.741C172.076,19.027,171.967,19.395,171.787,19.718z M163.938,16.03h2.9
							c-0.059-0.112-0.115-0.191-0.165-0.246c-0.196-0.22-0.476-0.426-1.149-0.426C165.126,15.358,164.591,15.436,163.938,16.03z"/>
					</g>
					<g>
						<path fill="#DFC44A" d="M185.588,15.404l-5.889-0.501c0.67-1.993,1.842-3.551,3.516-4.676c1.672-1.12,3.887-1.684,6.643-1.684
							c2.869,0,4.987,0.582,6.358,1.744c1.37,1.163,2.058,2.583,2.058,4.258c0,0.676-0.063,1.396-0.182,2.157
							c-0.119,0.76-0.539,2.761-1.26,6.001c-0.594,2.678-0.891,4.552-0.891,5.621c0,0.959,0.172,2.023,0.514,3.191h-5.818
							c-0.279-0.816-0.451-1.661-0.52-2.533c-0.885,0.985-1.901,1.75-3.057,2.296c-1.152,0.545-2.313,0.818-3.479,0.818
							c-1.854,0-3.389-0.609-4.596-1.832c-1.209-1.22-1.813-2.79-1.813-4.71c0-2.145,0.665-3.86,1.992-5.144
							c1.328-1.286,3.701-2.062,7.117-2.331c2.883-0.239,4.812-0.528,5.781-0.866c0.252-0.851,0.379-1.531,0.379-2.042
							c0-0.65-0.256-1.198-0.771-1.635c-0.517-0.44-1.28-0.66-2.293-0.66c-1.071,0-1.915,0.219-2.534,0.657
							C186.232,13.975,185.813,14.597,185.588,15.404z M191.264,21.034c-0.365,0.099-0.854,0.192-1.456,0.278
							c-3.036,0.374-5.019,0.915-5.944,1.628c-0.662,0.515-0.991,1.208-0.991,2.08c0,0.715,0.253,1.317,0.76,1.81
							c0.505,0.495,1.175,0.74,2.004,0.74c0.911,0,1.771-0.224,2.582-0.675c0.808-0.45,1.41-1.027,1.812-1.736
							c0.401-0.707,0.758-1.812,1.066-3.312L191.264,21.034z"/>
						<path fill="#FFFFFF" d="M183.584,34.578c-2.534,0-4.676-0.864-6.357-2.568c-1.677-1.692-2.529-3.864-2.529-6.453
							c0-2.833,0.926-5.163,2.75-6.927c0.507-0.49,1.102-0.92,1.783-1.293c-0.654-0.126-1.232-0.511-1.604-1.075
							c-0.418-0.636-0.521-1.429-0.274-2.151c0.846-2.512,2.354-4.512,4.479-5.941c2.085-1.398,4.784-2.106,8.024-2.106
							c3.508,0,6.11,0.763,7.963,2.333c1.918,1.627,2.933,3.753,2.933,6.149c0,0.804-0.07,1.659-0.211,2.543
							c-0.081,0.514-0.302,1.715-1.288,6.152c-0.723,3.267-0.83,4.587-0.83,5.083c0,0.718,0.141,1.558,0.413,2.495
							c0.22,0.749,0.071,1.558-0.396,2.183c-0.47,0.625-1.203,0.993-1.984,0.993h-5.818c-0.719,0-1.381-0.309-1.842-0.819
							c-0.221,0.122-0.441,0.237-0.671,0.345C186.639,34.224,185.111,34.578,183.584,34.578z M181.574,21.708
							c-0.321,0.178-0.537,0.348-0.682,0.486c-0.846,0.816-1.236,1.884-1.236,3.362c0,1.269,0.348,2.211,1.095,2.965
							c0.706,0.714,1.557,1.063,2.666,1.095c-0.565-0.241-1.076-0.581-1.521-1.014c-0.982-0.958-1.505-2.198-1.505-3.583
							C180.392,23.74,180.797,22.613,181.574,21.708z M192.613,29.036h0.873c-0.016-0.242-0.022-0.479-0.022-0.712
							c0-1.276,0.302-3.232,0.948-6.156c0.881-3.968,1.154-5.371,1.229-5.851c0.101-0.632,0.149-1.229,0.149-1.772
							c0-0.944-0.363-1.675-1.182-2.368c-0.412-0.35-0.986-0.624-1.705-0.816c0.133,0.091,0.259,0.188,0.381,0.292
							c1.059,0.902,1.642,2.153,1.642,3.521c0,0.754-0.157,1.653-0.483,2.748c-0.197,0.667-0.664,1.215-1.281,1.52
							c0.484,0.578,0.685,1.351,0.527,2.099l-0.17,0.813c-0.365,1.769-0.803,3.088-1.337,4.029c-0.14,0.246-0.294,0.482-0.463,0.709
							c0.495,0.42,0.817,1.029,0.869,1.703C192.597,28.875,192.605,28.956,192.613,29.036z M185.371,24.905
							c-0.012,0-0.021,0.034-0.021,0.115c0.01,0.036,0.082,0.071,0.283,0.071c0.486,0,0.938-0.118,1.372-0.361
							c0.312-0.173,0.549-0.364,0.722-0.579C185.931,24.516,185.438,24.857,185.371,24.905
							C185.372,24.905,185.372,24.905,185.371,24.905z M183.954,12.776l0.167,0.014c0.101-0.136,0.203-0.267,0.313-0.393
							C184.267,12.517,184.107,12.643,183.954,12.776z"/>
					</g>
					<g>
						<path fill="#DFC44A" d="M221.738,31.517h-5.75l0.496-2.375c-1.101,1.057-2.181,1.814-3.244,2.272
							c-1.063,0.456-2.266,0.686-3.604,0.686c-2.324,0-4.21-0.793-5.654-2.383c-1.445-1.588-2.168-3.936-2.168-7.043
							c0-3.601,1.029-6.855,3.09-9.765c2.062-2.909,4.785-4.364,8.175-4.364c3.063,0,5.356,1.215,6.89,3.646l2.494-11.605h6.016
							L221.738,31.517z M207.704,22.447c0,1.608,0.411,2.866,1.231,3.768c0.817,0.903,1.829,1.354,3.029,1.354
							c1.109,0,2.148-0.378,3.109-1.132c0.964-0.753,1.733-1.909,2.313-3.46c0.578-1.551,0.865-3.041,0.865-4.465
							c0-1.622-0.44-2.934-1.325-3.935c-0.887-1.001-1.904-1.502-3.063-1.502c-1.799,0-3.272,0.987-4.433,2.96
							C208.281,18.013,207.704,20.148,207.704,22.447z"/>
						<path fill="#FFFFFF" d="M209.638,34.578c-3.043,0-5.563-1.075-7.489-3.196c-1.865-2.048-2.813-4.979-2.813-8.71
							c0-4.109,1.191-7.877,3.545-11.198c2.507-3.539,6.032-5.41,10.197-5.41c2.023,0,3.836,0.448,5.386,1.319l1.574-7.319
							c0.245-1.142,1.256-1.958,2.424-1.958h6.017c0.75,0,1.459,0.34,1.93,0.924c0.472,0.584,0.652,1.35,0.492,2.083l-6.738,30.932
							c-0.248,1.14-1.258,1.952-2.424,1.952h-5.75c-0.52,0-1.02-0.163-1.434-0.457c-0.109,0.053-0.223,0.104-0.332,0.15
							C212.847,34.28,211.306,34.578,209.638,34.578z M210.615,11.403c-1.435,0.488-2.637,1.453-3.687,2.936
							c-1.772,2.502-2.636,5.229-2.636,8.333c0,2.457,0.514,4.265,1.521,5.374c0.967,1.065,2.17,1.566,3.781,1.573
							c-0.938-0.361-1.779-0.945-2.5-1.74c-1.24-1.364-1.874-3.193-1.874-5.432c0-2.731,0.695-5.309,2.07-7.662
							C208.305,13.065,209.469,12.02,210.615,11.403z M218.961,29.036h0.779l5.658-25.973h-0.935l-2.074,9.647
							c-0.212,0.985-1,1.744-1.991,1.92c-0.156,0.028-0.299,0.039-0.468,0.038c0.532,1.124,0.804,2.409,0.804,3.843
							c0,1.717-0.345,3.51-1.022,5.331c-0.479,1.281-1.084,2.373-1.81,3.265C218.542,27.553,218.93,28.271,218.961,29.036z
							 M213.867,15.553c-0.381,0-1.273,0-2.293,1.736c-0.936,1.603-1.392,3.292-1.392,5.158c0,0.965,0.195,1.671,0.587,2.098
							c0.352,0.389,0.696,0.545,1.195,0.545c0.553,0,1.057-0.192,1.583-0.605c0.592-0.463,1.103-1.262,1.519-2.375
							c0.471-1.265,0.709-2.475,0.709-3.599c0-1.006-0.229-1.756-0.705-2.294C214.554,15.633,214.171,15.553,213.867,15.553z"/>
					</g>
					<g>
						<path fill="#DFC44A" d="M232.16,9.06h6.015l-4.698,22.457h-6.015L232.16,9.06z M233.936,0.584h6.014l-1.139,5.436h-6.015
							L233.936,0.584z"/>
						<path fill="#FFFFFF" d="M233.477,33.995h-6.016c-0.746,0-1.453-0.338-1.926-0.917c-0.471-0.579-0.653-1.341-0.502-2.071
							l4.697-22.456c0.119-0.57,0.43-1.06,0.854-1.409c-0.254-0.499-0.333-1.074-0.218-1.631l1.14-5.436
							c0.24-1.149,1.253-1.972,2.427-1.972h6.016c0.746,0,1.453,0.337,1.925,0.917s0.655,1.341,0.502,2.071l-1.14,5.437
							c-0.119,0.569-0.428,1.059-0.854,1.408c0.254,0.499,0.333,1.074,0.217,1.632l-4.697,22.455
							C235.662,33.173,234.65,33.995,233.477,33.995z M230.514,29.036h0.946l3.661-17.497h-0.947L230.514,29.036z M235.849,3.541
							h0.947l0.101-0.478h-0.947L235.849,3.541z"/>
					</g>
					<g>
						<path fill="#DFC44A" d="M244.234,9.06h5.748l-0.58,2.955c1.453-1.249,2.813-2.14,4.076-2.673
							c1.262-0.531,2.592-0.799,3.99-0.799c1.867,0,3.342,0.535,4.42,1.604c1.076,1.069,1.615,2.486,1.615,4.252
							c-0.027,0.784-0.289,2.268-0.781,4.456l-2.732,12.662h-6.014l2.721-12.701c0.399-1.898,0.615-3.032,0.652-3.406
							c0-0.787-0.234-1.404-0.703-1.855c-0.47-0.452-1.121-0.677-1.959-0.677c-0.908,0-1.918,0.373-3.029,1.119
							c-1.107,0.746-1.979,1.731-2.616,2.956c-0.476,0.874-1.007,2.655-1.601,5.341l-1.883,9.221h-6.016L244.234,9.06z"/>
						<path fill="#FFFFFF" d="M259.99,33.995h-6.016c-0.748,0-1.457-0.34-1.929-0.922s-0.651-1.346-0.495-2.077l2.723-12.7
							c0.383-1.831,0.525-2.612,0.578-2.932c-0.041-0.003-0.098-0.006-0.164-0.006c-0.185,0-0.711,0.068-1.646,0.697
							c-0.766,0.515-1.354,1.182-1.799,2.04c-0.187,0.342-0.645,1.397-1.381,4.734l-1.875,9.183
							c-0.234,1.154-1.25,1.983-2.429,1.983h-6.016c-0.746,0-1.453-0.338-1.925-0.916c-0.471-0.579-0.655-1.34-0.502-2.07
							l4.689-22.456c0.239-1.149,1.253-1.972,2.428-1.972h5.746c0.695,0,1.356,0.292,1.825,0.801
							c0.235-0.117,0.474-0.225,0.707-0.324c1.568-0.66,3.234-0.995,4.955-0.995c2.536,0,4.608,0.782,6.164,2.323
							c1.562,1.549,2.353,3.572,2.353,6.013c-0.023,0.688-0.135,1.853-0.845,5.001l-2.729,12.639
							C262.166,33.181,261.158,33.995,259.99,33.995z M257.042,29.036h0.946l2.311-10.704c0.604-2.686,0.716-3.671,0.729-4.021
							c-0.002-1.359-0.506-2.028-0.885-2.405c-0.621-0.616-1.563-0.892-2.805-0.883c0.432,0.231,0.77,0.498,1.025,0.746
							c0.666,0.639,1.464,1.792,1.464,3.641c0,0.082-0.005,0.162-0.013,0.243c-0.031,0.331-0.141,1.047-0.692,3.672L257.042,29.036z
							 M242.595,29.036h0.938l1.479-7.237c0.874-3.966,1.475-5.34,1.852-6.031c0.317-0.614,0.691-1.189,1.117-1.721
							c-0.799-0.558-1.201-1.54-1.013-2.508h-0.72L242.595,29.036z"/>
					</g>
					<g>
						<path fill="#DFC44A" d="M265.643,32.746l6.416,0.92c0,0.642,0.102,1.128,0.309,1.456c0.205,0.324,0.535,0.605,0.994,0.836
							c0.459,0.229,1.084,0.346,1.879,0.346c1.358,0,2.449-0.259,3.271-0.771c0.612-0.4,1.113-1.046,1.503-1.935
							c0.237-0.56,0.543-1.778,0.918-3.654l0.218-1.046c-2.197,1.747-4.471,2.621-6.813,2.621c-2.179,0-3.964-0.771-5.358-2.315
							c-1.396-1.544-2.093-3.805-2.093-6.782c0-2.624,0.476-5.032,1.427-7.221c0.949-2.19,2.283-3.847,4.004-4.971
							c1.719-1.12,3.471-1.684,5.262-1.684c1.473,0,2.818,0.391,4.041,1.174c1.227,0.783,2.176,1.879,2.856,3.291l0.827-3.947h5.684
							l-3.569,18.646c-0.646,3.021-1.188,5.175-1.634,6.466c-0.445,1.29-0.955,2.318-1.527,3.083
							c-0.573,0.767-1.298,1.407-2.172,1.927c-0.876,0.518-1.906,0.893-3.096,1.116c-1.191,0.226-2.481,0.341-3.871,0.341
							c-3.144,0-5.52-0.541-7.125-1.621c-1.607-1.08-2.41-2.877-2.41-5.39C265.576,33.362,265.6,33.069,265.643,32.746z
							 M272.771,21.788c0,1.69,0.381,2.979,1.141,3.869c0.761,0.887,1.714,1.331,2.857,1.331c1.071,0,2.109-0.398,3.117-1.195
							c1.01-0.797,1.781-1.928,2.316-3.395c0.535-1.468,0.805-2.887,0.805-4.257c0-1.577-0.441-2.849-1.322-3.814
							c-0.885-0.964-1.902-1.447-3.062-1.447c-1.073,0-2.062,0.427-2.959,1.279c-0.898,0.854-1.642,2.166-2.228,3.941
							C272.992,19.469,272.771,20.698,272.771,21.788z"/>
						<path fill="#FFFFFF" d="M275.111,43.119c-3.681,0-6.463-0.669-8.508-2.046c-1.601-1.071-3.507-3.235-3.507-7.443
							c0-0.374,0.027-0.77,0.087-1.208c0.088-0.657,0.434-1.251,0.961-1.651c0.527-0.399,1.195-0.572,1.85-0.478l0.75,0.107
							c-1.555-1.971-2.342-4.652-2.342-7.981c0-2.953,0.549-5.715,1.631-8.208c1.143-2.631,2.797-4.669,4.921-6.059
							c2.127-1.387,4.354-2.088,6.618-2.088c1.945,0,3.757,0.526,5.379,1.565c0.076,0.048,0.152,0.098,0.228,0.148
							c0.438-0.725,1.233-1.195,2.121-1.195h5.684c0.739,0,1.439,0.33,1.911,0.899s0.663,1.32,0.523,2.046l-3.57,18.646
							c-0.683,3.198-1.242,5.408-1.725,6.808c-0.535,1.548-1.15,2.777-1.886,3.759c-0.771,1.027-1.743,1.893-2.894,2.574
							c-1.133,0.668-2.441,1.146-3.898,1.42C278.096,42.989,276.639,43.119,275.111,43.119z M268.357,35.64
							c0.27,0.729,0.676,1.094,1.014,1.32c0.578,0.389,1.357,0.688,2.313,0.889c-0.595-0.387-1.068-0.857-1.414-1.406
							c-0.113-0.181-0.211-0.369-0.295-0.569L268.357,35.64z M282.447,26.785c0,0,0,0,0.002,0.001
							c0.891,0.548,1.34,1.594,1.127,2.616l-0.219,1.046c-0.539,2.704-0.853,3.624-1.063,4.121
							c-0.521,1.193-1.216,2.124-2.069,2.782c0.211-0.093,0.409-0.193,0.596-0.305c0.593-0.352,1.067-0.771,1.449-1.277
							c0.414-0.554,0.808-1.363,1.166-2.404c0.409-1.188,0.933-3.268,1.553-6.174l2.997-15.649h-0.672l-0.413,1.976
							c-0.195,0.931-0.902,1.659-1.806,1.892c0.262,0.835,0.394,1.748,0.394,2.732c0,1.655-0.32,3.374-0.953,5.107
							C284.025,24.64,283.326,25.825,282.447,26.785z M274.781,11.677c-0.369,0.174-0.741,0.382-1.116,0.627
							c-1.313,0.859-2.322,2.13-3.082,3.881c-0.812,1.867-1.222,3.964-1.222,6.234c0,2.331,0.488,4.052,1.453,5.119
							c0.924,1.023,2.041,1.499,3.52,1.499c0.041,0,0.083,0,0.123-0.001c-0.916-0.365-1.735-0.958-2.428-1.765
							c-1.154-1.349-1.738-3.193-1.738-5.482c0-1.347,0.268-2.847,0.791-4.458c0.725-2.196,1.664-3.82,2.878-4.971
							C274.225,12.108,274.497,11.88,274.781,11.677z M278.624,15.358c-0.29,0-0.692,0.068-1.251,0.598
							c-0.41,0.389-1.018,1.21-1.58,2.919c-0.359,1.106-0.544,2.089-0.544,2.913c0,1.059,0.188,1.84,0.546,2.258
							c0.289,0.336,0.553,0.462,0.975,0.462c0.5,0,1.018-0.216,1.578-0.661c0.65-0.513,1.148-1.265,1.526-2.301
							c0.435-1.187,0.653-2.333,0.653-3.407c0-0.945-0.221-1.646-0.674-2.14C279.337,15.434,278.943,15.358,278.624,15.358z"/>
					</g>
				</g>
			</g>
		</g>
	</g>
	<g>
		<g>
			<path fill="#DFC44A" d="M297.493,19.408h11.583l-1.207,5.758h-11.582L297.493,19.408z"/>
			<path fill="#FFFFFF" d="M307.869,27.645h-11.582c-0.746,0-1.453-0.336-1.924-0.916c-0.472-0.58-0.656-1.34-0.503-2.071
				l1.205-5.759c0.241-1.148,1.254-1.971,2.428-1.971h11.583c0.747,0,1.454,0.336,1.925,0.916c0.472,0.58,0.655,1.341,0.502,2.072
				l-1.205,5.759C310.056,26.823,309.041,27.645,307.869,27.645z M299.34,22.687h6.517l0.167-0.8h-6.517L299.34,22.687z"/>
		</g>
		<g>
			<g>
				<path fill="#EC7563" d="M310.572,33.276l6.363-30.486h22.604l-1.063,5.094h-16.321l-1.456,6.925h15.783l-1.06,5.095H319.64
					l-1.913,8.277h17.736l-1.081,5.096H310.572L310.572,33.276z"/>
				<path fill="#FFFFFF" d="M334.383,35.756h-23.812c-0.746,0-1.452-0.337-1.925-0.917c-0.471-0.579-0.654-1.339-0.503-2.07
					l6.364-30.487c0.239-1.149,1.253-1.973,2.427-1.973h22.604c0.747,0,1.453,0.336,1.925,0.915c0.471,0.579,0.654,1.339,0.503,2.07
					l-1.063,5.094c-0.239,1.15-1.253,1.974-2.428,1.974h-14.311l-0.414,1.966h12.729c0.746,0,1.453,0.336,1.925,0.915
					c0.471,0.579,0.654,1.339,0.503,2.069l-1.061,5.095c-0.237,1.15-1.252,1.975-2.427,1.975h-13.813l-0.767,3.318h14.618
					c0.747,0,1.455,0.337,1.927,0.919c0.471,0.582,0.654,1.344,0.499,2.075l-1.082,5.095
					C336.564,34.938,335.554,35.756,334.383,35.756z M313.622,30.798h18.752l0.028-0.136h-14.677c-0.755,0-1.47-0.345-1.939-0.936
					c-0.471-0.592-0.646-1.365-0.476-2.102l1.912-8.277c0.26-1.125,1.263-1.921,2.416-1.921h13.769l0.027-0.137h-12.735
					c-0.747,0-1.455-0.337-1.927-0.917c-0.471-0.581-0.653-1.342-0.5-2.073l1.456-6.925c0.241-1.147,1.253-1.969,2.427-1.969h14.309
					l0.028-0.136h-17.541L313.622,30.798z"/>
			</g>
		</g>
		<g>
			<path fill="#DFC44A" d="M343.637,11.193h5.655l-0.579,2.868c1.413-1.219,2.732-2.089,3.962-2.609
				c1.227-0.52,2.517-0.779,3.877-0.779c1.814,0,3.247,0.521,4.295,1.558c1.045,1.041,1.568,2.421,1.568,4.14
				c0,0.776-0.229,2.244-0.687,4.408l-2.601,12.5h-5.969l2.62-12.542c0.39-1.871,0.582-2.987,0.582-3.347
				c0-0.763-0.227-1.363-0.676-1.799c-0.45-0.438-1.08-0.656-1.883-0.656c-0.873,0-1.844,0.368-2.912,1.103
				c-1.066,0.735-1.904,1.705-2.516,2.91c-0.443,0.86-0.941,2.616-1.497,5.262l-1.893,9.066h-5.97L343.637,11.193z"/>
			<path fill="#FFFFFF" d="M359.129,35.755h-5.968c-0.747,0-1.454-0.336-1.925-0.916c-0.472-0.579-0.655-1.34-0.504-2.07
				l2.621-12.541c0.396-1.905,0.497-2.591,0.522-2.814c-0.155-0.008-0.563-0.034-1.578,0.665c-0.727,0.5-1.284,1.15-1.708,1.987
				c-0.162,0.313-0.594,1.361-1.282,4.652l-1.894,9.064c-0.239,1.149-1.253,1.974-2.427,1.974h-5.97
				c-0.746,0-1.453-0.336-1.924-0.916c-0.472-0.579-0.656-1.34-0.503-2.069l4.614-22.084c0.24-1.149,1.253-1.973,2.428-1.973h5.655
				c0.671,0,1.312,0.272,1.773,0.748c0.215-0.105,0.429-0.203,0.642-0.293c1.523-0.647,3.153-0.976,4.845-0.976
				c2.481,0,4.514,0.766,6.038,2.275c1.53,1.524,2.306,3.508,2.306,5.902c0,0.61-0.077,1.784-0.738,4.921l-2.601,12.49
				C361.317,34.932,360.305,35.755,359.129,35.755z M356.212,30.798h0.9l2.188-10.524c0.571-2.708,0.634-3.632,0.634-3.903
				c0-1.387-0.479-2.024-0.839-2.383c-0.565-0.56-1.4-0.835-2.546-0.835c-0.001,0-0.002,0-0.003,0
				c0.355,0.21,0.643,0.442,0.866,0.659c0.65,0.632,1.429,1.766,1.429,3.579c0,0.386-0.05,1.034-0.634,3.851L356.212,30.798z
				 M342.072,30.798h0.901l1.479-7.095c0.811-3.859,1.369-5.211,1.722-5.892c0.313-0.621,0.682-1.2,1.098-1.732
				c-0.763-0.543-1.156-1.475-1.009-2.407h-0.613L342.072,30.798z"/>
		</g>
		<g>
			<path fill="#DFC44A" d="M364.641,34.44l6.301,0.915c0,0.639,0.105,1.12,0.313,1.444c0.208,0.325,0.545,0.604,1.009,0.831
				c0.465,0.229,1.101,0.345,1.902,0.345c1.263,0,2.271-0.25,3.037-0.748c0.567-0.389,1.03-1.012,1.395-1.872
				c0.22-0.541,0.505-1.719,0.852-3.536l0.209-1.039c-2.066,1.72-4.2,2.578-6.405,2.578c-2.164,0-3.938-0.762-5.321-2.287
				c-1.388-1.525-2.081-3.757-2.081-6.696c0-2.593,0.472-4.969,1.413-7.132c0.941-2.163,2.269-3.8,3.974-4.908
				c1.703-1.109,3.444-1.663,5.219-1.663c1.471,0,2.814,0.387,4.035,1.164c1.219,0.777,2.169,1.864,2.849,3.265l0.831-3.908h5.597
				l-3.828,18.403c-0.623,2.952-1.149,5.06-1.579,6.322c-0.431,1.261-0.923,2.266-1.477,3.014c-0.555,0.75-1.257,1.375-2.103,1.883
				c-0.846,0.506-1.845,0.869-2.994,1.092s-2.397,0.332-3.743,0.332c-3.119,0-5.478-0.533-7.069-1.603
				c-1.594-1.065-2.392-2.842-2.392-5.322C364.579,35.052,364.6,34.76,364.641,34.44z M371.669,23.774
				c0,1.677,0.378,2.956,1.135,3.836c0.755,0.879,1.7,1.319,2.838,1.319c1.039,0,2.048-0.394,3.026-1.184
				c0.978-0.791,1.726-1.913,2.244-3.369c0.521-1.455,0.78-2.863,0.78-4.223c0-1.565-0.423-2.827-1.271-3.783
				c-0.847-0.957-1.821-1.436-2.931-1.436c-1.067,0-2.05,0.423-2.944,1.269c-0.896,0.847-1.633,2.151-2.215,3.911
				C371.893,21.472,371.669,22.692,371.669,23.774z"/>
			<path fill="#FFFFFF" d="M374.039,44.716c-3.655,0-6.421-0.661-8.449-2.021c-1.594-1.065-3.49-3.211-3.49-7.38
				c0-0.367,0.026-0.767,0.082-1.188c0.084-0.659,0.429-1.257,0.959-1.66c0.527-0.401,1.197-0.577,1.854-0.479l0.543,0.078
				c-1.44-1.931-2.171-4.514-2.171-7.689c0-2.921,0.545-5.654,1.62-8.122c1.135-2.606,2.78-4.625,4.895-5.997
				c2.104-1.369,4.313-2.064,6.569-2.064c1.943,0,3.75,0.522,5.366,1.552c0.079,0.05,0.156,0.101,0.232,0.153
				c0.439-0.719,1.232-1.185,2.114-1.185h5.597c0.746,0,1.453,0.336,1.924,0.915c0.472,0.579,0.655,1.339,0.504,2.069L388.36,30.1
				c-0.646,3.076-1.188,5.237-1.658,6.616c-0.521,1.521-1.118,2.725-1.831,3.689c-0.738,1.002-1.688,1.854-2.818,2.533
				c-1.091,0.652-2.37,1.123-3.8,1.398C376.96,44.589,375.542,44.716,374.039,44.716z M367.375,37.342
				c0.266,0.675,0.649,1.019,0.975,1.233c0.521,0.349,1.205,0.621,2.036,0.818c-0.504-0.354-0.915-0.781-1.226-1.269
				c-0.114-0.181-0.215-0.369-0.302-0.57L367.375,37.342z M381.151,28.803c0.754,0.57,1.125,1.526,0.937,2.468l-0.209,1.039
				c-0.497,2.619-0.801,3.526-0.984,3.979c-0.468,1.112-1.081,1.989-1.833,2.635c0.155-0.073,0.305-0.153,0.443-0.237
				c0.572-0.343,1.023-0.744,1.381-1.228c0.401-0.542,0.778-1.329,1.125-2.341c0.396-1.17,0.901-3.201,1.5-6.034l3.205-15.412
				h-0.539l-0.413,1.944c-0.208,0.975-0.978,1.725-1.942,1.917c0.235,0.804,0.354,1.679,0.354,2.621
				c0,1.638-0.311,3.339-0.925,5.057C382.741,26.629,382.037,27.834,381.151,28.803z M373.347,13.966
				c-0.253,0.132-0.506,0.282-0.763,0.448c-1.303,0.847-2.3,2.096-3.051,3.82c-0.802,1.84-1.208,3.907-1.208,6.143
				c0,2.288,0.482,3.979,1.438,5.027c0.884,0.972,1.945,1.442,3.337,1.474c-0.815-0.368-1.55-0.922-2.178-1.653
				c-1.148-1.338-1.731-3.172-1.731-5.451c0-1.354,0.259-2.802,0.787-4.428c0.725-2.187,1.66-3.8,2.867-4.943
				C373.008,14.248,373.176,14.102,373.347,13.966z M377.494,17.414c-0.286,0-0.688,0.067-1.242,0.592
				c-0.402,0.38-1.003,1.192-1.563,2.886c-0.355,1.097-0.539,2.07-0.539,2.882c0,1.045,0.186,1.813,0.535,2.221
				c0.286,0.333,0.544,0.456,0.957,0.456c0.461,0,0.94-0.207,1.471-0.634c0.61-0.494,1.104-1.26,1.467-2.272
				c0.422-1.183,0.636-2.323,0.636-3.39c0-0.949-0.211-1.648-0.646-2.139C378.037,17.414,377.67,17.414,377.494,17.414z"/>
		</g>
		<g>
			<path fill="#DFC44A" d="M390.926,33.276L397.31,2.79h5.946l-6.36,30.486H390.926z"/>
			<path fill="#FFFFFF" d="M396.896,35.756h-5.97c-0.747,0-1.454-0.337-1.926-0.917c-0.471-0.58-0.654-1.34-0.503-2.07l6.386-30.488
				c0.24-1.148,1.253-1.971,2.427-1.971h5.947c0.747,0,1.452,0.336,1.924,0.916c0.473,0.579,0.655,1.339,0.504,2.07l-6.361,30.486
				C399.081,34.934,398.069,35.756,396.896,35.756z M393.978,30.798h0.901l5.327-25.528h-0.884L393.978,30.798z"/>
		</g>
		<g>
			<path fill="#DFC44A" d="M407.416,11.193h5.969l-4.617,22.083H402.8L407.416,11.193z M409.163,2.79h5.969l-1.122,5.407h-5.969
				L409.163,2.79z"/>
			<path fill="#FFFFFF" d="M408.768,35.756H402.8c-0.746,0-1.453-0.337-1.925-0.917c-0.471-0.58-0.655-1.34-0.503-2.07l4.617-22.084
				c0.116-0.56,0.417-1.042,0.828-1.39c-0.242-0.491-0.317-1.056-0.204-1.603l1.122-5.407c0.237-1.15,1.253-1.976,2.428-1.976h5.968
				c0.746,0,1.452,0.335,1.924,0.914c0.472,0.579,0.655,1.338,0.505,2.069l-1.121,5.406c-0.116,0.562-0.418,1.045-0.83,1.394
				c0.242,0.493,0.317,1.058,0.203,1.606l-4.615,22.083C410.954,34.934,409.941,35.756,408.768,35.756z M405.852,30.798h0.9
				l3.58-17.125h-0.9L405.852,30.798z M411.088,5.718h0.904l0.092-0.448h-0.902L411.088,5.718z"/>
		</g>
		<g>
			<path fill="#DFC44A" d="M413.864,27.099l5.78-0.914c0.513,1.219,1.148,2.083,1.913,2.589c0.765,0.505,1.803,0.758,3.118,0.758
				c1.358,0,2.447-0.305,3.267-0.914c0.568-0.417,0.852-0.922,0.852-1.521c0-0.401-0.146-0.76-0.438-1.081
				c-0.305-0.304-1.13-0.679-2.473-1.123c-3.604-1.191-5.84-2.136-6.698-2.829c-1.345-1.08-2.018-2.495-2.018-4.241
				c0-1.746,0.651-3.251,1.954-4.513c1.814-1.76,4.515-2.64,8.092-2.64c2.842,0,4.99,0.521,6.444,1.558
				c1.456,1.041,2.379,2.449,2.768,4.223l-5.512,0.957c-0.291-0.804-0.764-1.406-1.414-1.81c-0.888-0.54-1.955-0.811-3.202-0.811
				c-1.249,0-2.146,0.208-2.693,0.625c-0.546,0.416-0.819,0.894-0.819,1.435c0,0.554,0.277,1.012,0.831,1.372
				c0.348,0.222,1.464,0.611,3.349,1.165c2.911,0.847,4.857,1.678,5.845,2.495c1.385,1.151,2.079,2.537,2.079,4.159
				c0,2.094-0.881,3.911-2.642,5.448c-1.763,1.539-4.243,2.311-7.443,2.311c-3.188,0-5.654-0.586-7.395-1.76
				C415.669,30.868,414.485,29.222,413.864,27.099z"/>
			<path fill="#FFFFFF" d="M424.803,36.278c-3.729,0-6.604-0.717-8.78-2.185c-2.224-1.496-3.751-3.615-4.537-6.296
				c-0.2-0.684-0.098-1.421,0.284-2.024c0.381-0.603,1.003-1.012,1.707-1.123l4.15-0.656c-1.92-1.541-2.938-3.676-2.938-6.168
				c0-2.4,0.938-4.577,2.707-6.293c2.286-2.215,5.591-3.339,9.816-3.339c3.401,0,5.979,0.661,7.885,2.019
				c1.966,1.404,3.228,3.325,3.75,5.71c0.145,0.661,0.012,1.352-0.364,1.914c-0.378,0.561-0.968,0.944-1.634,1.06l-3.179,0.551
				c0.265,0.172,0.504,0.347,0.719,0.524c1.946,1.619,2.977,3.717,2.977,6.068c0,2.832-1.175,5.293-3.488,7.315
				C431.659,35.295,428.605,36.278,424.803,36.278z M417.661,29.009c0.331,0.363,0.707,0.686,1.133,0.972
				c0.27,0.182,0.568,0.345,0.896,0.49c-0.515-0.423-0.979-0.945-1.395-1.563L417.661,29.009z M420.596,15.357
				c-0.645,0.722-0.946,1.515-0.946,2.468c0,0.992,0.338,1.704,1.091,2.308c0.162,0.131,1.188,0.844,5.923,2.408
				c1.828,0.605,2.825,1.103,3.445,1.721c0.028,0.028,0.058,0.058,0.084,0.087c0.707,0.779,1.081,1.729,1.081,2.749
				c0,1.104-0.419,2.121-1.195,2.935c0.19-0.128,0.37-0.266,0.539-0.413c1.224-1.068,1.792-2.207,1.792-3.582
				c0-0.59-0.135-1.379-1.186-2.253c-0.322-0.268-1.456-1.004-4.951-2.021c-2.933-0.862-3.582-1.193-3.994-1.459
				c-1.275-0.828-1.973-2.054-1.973-3.458C420.306,16.33,420.404,15.829,420.596,15.357z M422.579,26.375
				c0.145,0.177,0.266,0.277,0.35,0.333c0.187,0.122,0.631,0.323,1.585,0.344C423.794,26.81,423.154,26.585,422.579,26.375z
				 M431.101,13.686c0.402,0.286,0.763,0.616,1.073,0.988l0.476-0.082c-0.133-0.12-0.275-0.234-0.431-0.344
				C431.912,14.029,431.537,13.842,431.101,13.686z"/>
		</g>
		<g>
			<path fill="#DFC44A" d="M444.37,33.276h-5.969l6.386-30.486h5.968l-2.287,10.856c1.345-1.054,2.6-1.814,3.764-2.277
				c1.165-0.465,2.413-0.696,3.743-0.696c1.79,0,3.203,0.512,4.243,1.54c1.038,1.024,1.561,2.368,1.561,4.033
				c0,0.887-0.194,2.259-0.584,4.116l-2.701,12.915h-5.971l2.768-13.164c0.292-1.428,0.438-2.344,0.438-2.746
				c0-0.734-0.229-1.323-0.687-1.768c-0.459-0.442-1.081-0.666-1.872-0.666c-0.999,0-1.955,0.348-2.868,1.039
				c-1.193,0.917-2.103,2.039-2.726,3.37c-0.349,0.736-0.806,2.463-1.373,5.179L444.37,33.276z"/>
			<path fill="#FFFFFF" d="M458.491,35.756h-5.971c-0.747,0-1.455-0.337-1.926-0.917c-0.472-0.58-0.654-1.341-0.5-2.072
				l2.768-13.164c0.296-1.454,0.363-2.013,0.38-2.188c-0.256-0.016-0.752,0.008-1.449,0.536c-0.867,0.667-1.519,1.469-1.974,2.442
				c-0.098,0.204-0.456,1.117-1.192,4.636l-1.828,8.753c-0.24,1.149-1.255,1.974-2.429,1.974h-5.969
				c-0.745,0-1.452-0.337-1.924-0.917c-0.471-0.58-0.655-1.34-0.503-2.07l6.386-30.488c0.24-1.148,1.253-1.971,2.427-1.971h5.969
				c0.747,0,1.453,0.337,1.925,0.917c0.471,0.581,0.654,1.342,0.501,2.074l-1.16,5.507c1.247-0.409,2.574-0.616,3.953-0.616
				c2.457,0,4.472,0.759,5.984,2.256c1.522,1.5,2.298,3.452,2.298,5.797c0,1.066-0.209,2.579-0.637,4.624l-2.702,12.915
				C460.678,34.934,459.664,35.756,458.491,35.756z M455.576,30.798h0.899l2.289-10.943c0.438-2.097,0.53-3.12,0.53-3.608
				c0-1.308-0.468-1.921-0.819-2.268c-0.578-0.571-1.42-0.846-2.591-0.826c0.357,0.21,0.646,0.443,0.874,0.662
				c0.947,0.923,1.443,2.149,1.443,3.554c0,0.424-0.059,1.141-0.486,3.242L455.576,30.798z M441.454,30.798h0.9l1.417-6.783
				c0.812-3.871,1.259-5.096,1.559-5.731c0.444-0.952,1.015-1.828,1.695-2.619c-0.799-0.569-1.189-1.561-0.985-2.53l1.656-7.865
				h-0.896L441.454,30.798z"/>
		</g>
	</g>
	<g>
		<g>
			<path fill="#595757" d="M293.772,53.834c0,3.498-2.846,6.343-6.344,6.343c-3.499,0-6.346-2.845-6.346-6.343
				c0-3.5,2.847-6.349,6.346-6.349C290.927,47.487,293.772,50.334,293.772,53.834z M287.429,46.41c-4.095,0-7.423,3.329-7.423,7.424
				c0,4.094,3.328,7.422,7.423,7.422c4.093,0,7.423-3.328,7.423-7.422C294.852,49.739,291.521,46.41,287.429,46.41z"/>
		</g>
		<g>
			<path fill="#595757" d="M284.119,58.171v-8.678h3.854c0.774,0,1.363,0.078,1.767,0.232c0.402,0.155,0.725,0.432,0.967,0.827
				c0.241,0.396,0.359,0.83,0.359,1.312c0,0.615-0.2,1.137-0.599,1.558c-0.399,0.424-1.016,0.69-1.85,0.808
				c0.304,0.146,0.533,0.289,0.693,0.431c0.335,0.311,0.651,0.692,0.95,1.155l1.502,2.355h-1.435l-1.149-1.803
				c-0.336-0.521-0.61-0.918-0.827-1.193c-0.219-0.277-0.413-0.469-0.585-0.58s-0.347-0.188-0.525-0.23
				c-0.128-0.026-0.342-0.043-0.639-0.043h-1.333v3.851L284.119,58.171L284.119,58.171z M285.271,53.33h2.472
				c0.523,0,0.938-0.054,1.233-0.162c0.299-0.11,0.522-0.285,0.68-0.522c0.154-0.24,0.232-0.502,0.232-0.783
				c0-0.412-0.149-0.752-0.449-1.018c-0.3-0.267-0.772-0.398-1.42-0.398h-2.748V53.33z"/>
		</g>
	</g>
	<g>
		<g>
			<g>
				<g>
					<g>
						<path fill="#EC7563" d="M0.007,21.544l6.083-0.317c0.084,1.933,0.419,3.236,1.001,3.915c0.937,1.101,2.67,1.651,5.199,1.651
							c2.102,0,3.622-0.375,4.559-1.125c0.938-0.748,1.406-1.652,1.406-2.713c0-0.918-0.383-1.695-1.149-2.332
							c-0.541-0.466-2.023-1.221-4.446-2.268c-2.423-1.046-4.191-1.917-5.308-2.617c-1.116-0.7-1.994-1.607-2.633-2.724
							C4.08,11.897,3.76,10.591,3.76,9.093c0-2.613,0.948-4.783,2.843-6.506C8.499,0.862,11.241,0,14.833,0
							c3.646,0,6.472,0.854,8.473,2.56c2,1.705,3.1,3.975,3.298,6.807l-6.083,0.276c-0.157-1.483-0.698-2.619-1.623-3.408
							c-0.926-0.792-2.292-1.186-4.1-1.186c-1.78,0-3.051,0.311-3.813,0.932c-0.763,0.621-1.143,1.404-1.143,2.35
							c0,0.891,0.347,1.625,1.042,2.203c0.694,0.593,2.23,1.405,4.614,2.436c3.585,1.539,5.866,2.79,6.843,3.749
							c1.461,1.413,2.19,3.227,2.19,5.445c0,2.739-1.085,5.081-3.254,7.021c-2.169,1.942-5.189,2.912-9.063,2.912
							c-2.67,0-4.985-0.447-6.942-1.34c-1.958-0.894-3.338-2.136-4.144-3.725C0.323,25.443-0.05,23.613,0.007,21.544z"/>
					</g>
					<path fill="#DFC44A" d="M32.427,9.06h5.683l-0.527,2.717c2.229-2.156,4.571-3.235,7.026-3.235c1.692,0,2.998,0.353,3.916,1.058
						c0.917,0.706,1.503,1.677,1.757,2.917c0.775-1.127,1.891-2.071,3.345-2.832c1.454-0.762,2.964-1.143,4.53-1.143
						c1.792,0,3.188,0.483,4.19,1.45c1.002,0.967,1.504,2.247,1.504,3.839c-0.024,0.768-0.249,2.1-0.674,3.992l-2.895,13.691h-6.016
						l2.865-13.688c0.358-1.714,0.563-2.688,0.611-2.917c0-0.627-0.189-1.122-0.567-1.486c-0.379-0.363-0.948-0.546-1.705-0.546
						c-1.53,0-2.896,0.798-4.095,2.391c-0.873,1.142-1.616,3.166-2.23,6.071l-2.128,10.175h-6.014l2.834-13.565
						c0.324-1.563,0.484-2.578,0.484-3.042c0-0.593-0.201-1.079-0.604-1.46c-0.403-0.38-0.959-0.57-1.669-0.57
						c-0.667,0-1.355,0.199-2.065,0.594c-0.708,0.394-1.331,0.936-1.861,1.626c-0.533,0.69-0.992,1.579-1.373,2.664
						c-0.179,0.508-0.467,1.656-0.865,3.446l-2.132,10.308h-6.015L32.427,9.06z"/>
					<path fill="#DFC44A" d="M75.001,15.404l-5.89-0.501c0.67-1.993,1.842-3.551,3.516-4.676c1.673-1.12,3.886-1.684,6.642-1.684
						c2.868,0,4.988,0.582,6.358,1.744c1.373,1.163,2.058,2.583,2.058,4.258c0,0.676-0.061,1.396-0.18,2.157
						c-0.121,0.76-0.54,2.761-1.262,6.001c-0.593,2.678-0.889,4.552-0.889,5.621c0,0.959,0.171,2.023,0.513,3.191h-5.818
						c-0.279-0.816-0.452-1.661-0.519-2.533c-0.886,0.985-1.903,1.75-3.057,2.296c-1.152,0.545-2.312,0.818-3.479,0.818
						c-1.854,0-3.387-0.609-4.595-1.832c-1.209-1.22-1.813-2.79-1.813-4.71c0-2.145,0.665-3.86,1.993-5.144
						c1.327-1.286,3.7-2.062,7.118-2.331c2.883-0.239,4.81-0.528,5.779-0.866c0.254-0.851,0.381-1.531,0.381-2.042
						c0-0.65-0.257-1.198-0.771-1.635c-0.516-0.44-1.279-0.66-2.293-0.66c-1.071,0-1.916,0.219-2.534,0.657
						C75.643,13.975,75.223,14.597,75.001,15.404z M80.674,21.034c-0.366,0.099-0.852,0.192-1.455,0.278
						c-3.037,0.374-5.02,0.915-5.946,1.628c-0.661,0.515-0.991,1.208-0.991,2.08c0,0.715,0.253,1.317,0.759,1.81
						c0.505,0.495,1.174,0.74,2.003,0.74c0.913,0,1.772-0.224,2.582-0.675c0.808-0.45,1.413-1.027,1.813-1.736
						c0.4-0.707,0.755-1.812,1.065-3.312L80.674,21.034z"/>
					<path fill="#DFC44A" d="M94.817,9.06h5.683l-0.905,4.32c2.101-3.224,4.377-4.837,6.829-4.837c0.869,0,1.8,0.217,2.794,0.653
						l-2.33,4.95c-0.552-0.197-1.141-0.295-1.765-0.295c-1.05,0-2.116,0.395-3.2,1.184c-1.084,0.791-1.933,1.845-2.542,3.164
						c-0.609,1.32-1.212,3.413-1.808,6.276l-1.432,7.042h-6.015L94.817,9.06z"/>
					<path fill="#DFC44A" d="M108.772,13.592l0.906-4.531h3.019l0.739-3.558l6.95-4.207l-1.597,7.765h3.572l-0.905,4.531h-3.598
						l-2.01,9.464c-0.356,1.705-0.533,2.679-0.533,2.917c0,0.467,0.145,0.832,0.432,1.093c0.286,0.262,0.807,0.391,1.558,0.391
						c0.261,0,0.911-0.047,1.951-0.145l-0.972,4.47c-1.033,0.213-2.094,0.318-3.182,0.318c-2.123,0-3.665-0.418-4.629-1.25
						c-0.962-0.833-1.443-1.99-1.443-3.47c0-0.689,0.274-2.279,0.823-4.768l1.938-9.02L108.772,13.592L108.772,13.592z"/>
					<g>
						<path fill="#EC7563" d="M128.163,31.517h-6.41l6.474-30.933h13.752c2.366,0,4.207,0.242,5.524,0.727
							c1.316,0.485,2.38,1.376,3.189,2.67c0.811,1.294,1.215,2.861,1.215,4.705c0,2.63-0.785,4.8-2.357,6.509
							c-1.573,1.708-3.956,2.767-7.149,3.174c0.815,0.732,1.582,1.696,2.3,2.891c1.422,2.421,3.005,5.838,4.75,10.255h-6.86
							c-0.547-1.746-1.62-4.467-3.219-8.169c-0.871-1.998-1.798-3.342-2.779-4.032c-0.604-0.406-1.657-0.61-3.157-0.61h-2.59
							L128.163,31.517z M131.821,14.044h3.373c3.416,0,5.683-0.204,6.799-0.61c1.117-0.406,1.992-1.044,2.625-1.913
							c0.634-0.869,0.949-1.779,0.949-2.734c0-1.119-0.458-1.959-1.37-2.521c-0.562-0.335-1.776-0.503-3.646-0.503h-6.998
							L131.821,14.044z"/>
					</g>
					<path fill="#DFC44A" d="M174.701,22.197h-15.174c-0.014,0.241-0.021,0.425-0.021,0.552c0,1.502,0.425,2.713,1.273,3.633
						c0.851,0.92,1.886,1.381,3.108,1.381c2.008,0,3.573-1.035,4.697-3.106l5.438,0.905c-1.055,2.179-2.464,3.814-4.229,4.902
						c-1.764,1.089-3.74,1.634-5.932,1.634c-3.007,0-5.453-0.956-7.336-2.869c-1.883-1.914-2.824-4.446-2.824-7.596
						c0-3.077,0.851-5.818,2.549-8.219c2.315-3.248,5.623-4.872,9.919-4.872c2.737,0,4.914,0.851,6.528,2.551
						c1.615,1.701,2.422,4.083,2.422,7.145C175.121,19.707,174.982,21.026,174.701,22.197z M169.621,18.51
						c0.015-0.27,0.021-0.475,0.021-0.616c0-1.672-0.375-2.926-1.119-3.761c-0.748-0.834-1.748-1.254-3-1.254
						c-1.253,0-2.375,0.476-3.37,1.425c-0.993,0.949-1.666,2.351-2.019,4.206H169.621z"/>
					<path fill="#DFC44A" d="M185.588,15.404l-5.889-0.501c0.67-1.993,1.842-3.551,3.516-4.676c1.672-1.12,3.887-1.684,6.643-1.684
						c2.869,0,4.987,0.582,6.358,1.744c1.37,1.163,2.058,2.583,2.058,4.258c0,0.676-0.063,1.396-0.182,2.157
						c-0.119,0.76-0.539,2.761-1.26,6.001c-0.594,2.678-0.891,4.552-0.891,5.621c0,0.959,0.172,2.023,0.514,3.191h-5.818
						c-0.279-0.816-0.451-1.661-0.52-2.533c-0.885,0.985-1.901,1.75-3.057,2.296c-1.152,0.545-2.313,0.818-3.479,0.818
						c-1.854,0-3.389-0.609-4.596-1.832c-1.209-1.22-1.813-2.79-1.813-4.71c0-2.145,0.665-3.86,1.992-5.144
						c1.328-1.286,3.701-2.062,7.117-2.331c2.883-0.239,4.812-0.528,5.781-0.866c0.252-0.851,0.379-1.531,0.379-2.042
						c0-0.65-0.256-1.198-0.771-1.635c-0.517-0.44-1.28-0.66-2.293-0.66c-1.071,0-1.915,0.219-2.534,0.657
						C186.232,13.975,185.813,14.597,185.588,15.404z M191.264,21.034c-0.365,0.099-0.854,0.192-1.456,0.278
						c-3.036,0.374-5.019,0.915-5.944,1.628c-0.662,0.515-0.991,1.208-0.991,2.08c0,0.715,0.253,1.317,0.76,1.81
						c0.505,0.495,1.175,0.74,2.004,0.74c0.911,0,1.771-0.224,2.582-0.675c0.808-0.45,1.41-1.027,1.812-1.736
						c0.401-0.707,0.758-1.812,1.066-3.312L191.264,21.034z"/>
					<path fill="#DFC44A" d="M221.738,31.517h-5.75l0.496-2.375c-1.101,1.057-2.181,1.814-3.244,2.272
						c-1.063,0.456-2.266,0.686-3.604,0.686c-2.324,0-4.21-0.793-5.654-2.383c-1.445-1.588-2.168-3.936-2.168-7.043
						c0-3.601,1.029-6.855,3.09-9.765c2.062-2.909,4.785-4.364,8.175-4.364c3.063,0,5.356,1.215,6.89,3.646l2.494-11.605h6.016
						L221.738,31.517z M207.704,22.447c0,1.608,0.411,2.866,1.231,3.768c0.817,0.903,1.829,1.354,3.029,1.354
						c1.109,0,2.148-0.378,3.109-1.132c0.964-0.753,1.733-1.909,2.313-3.46c0.578-1.551,0.865-3.041,0.865-4.465
						c0-1.622-0.44-2.934-1.325-3.935c-0.887-1.001-1.904-1.502-3.063-1.502c-1.799,0-3.272,0.987-4.433,2.96
						C208.281,18.013,207.704,20.148,207.704,22.447z"/>
					<path fill="#DFC44A" d="M232.16,9.06h6.015l-4.698,22.457h-6.015L232.16,9.06z M233.936,0.584h6.014l-1.139,5.436h-6.015
						L233.936,0.584z"/>
					<path fill="#DFC44A" d="M244.234,9.06h5.748l-0.58,2.955c1.453-1.249,2.813-2.14,4.076-2.673
						c1.262-0.531,2.592-0.799,3.99-0.799c1.867,0,3.342,0.535,4.42,1.604c1.076,1.069,1.615,2.486,1.615,4.252
						c-0.027,0.784-0.289,2.268-0.781,4.456l-2.732,12.662h-6.014l2.721-12.701c0.399-1.898,0.615-3.032,0.652-3.406
						c0-0.787-0.234-1.404-0.703-1.855c-0.47-0.452-1.121-0.677-1.959-0.677c-0.908,0-1.918,0.373-3.029,1.119
						c-1.107,0.746-1.979,1.731-2.616,2.956c-0.476,0.874-1.007,2.655-1.601,5.341l-1.883,9.221h-6.016L244.234,9.06z"/>
					<path fill="#DFC44A" d="M265.643,32.746l6.416,0.92c0,0.642,0.102,1.128,0.309,1.456c0.205,0.324,0.535,0.605,0.994,0.836
						c0.459,0.229,1.084,0.346,1.879,0.346c1.358,0,2.449-0.259,3.271-0.771c0.612-0.4,1.113-1.046,1.503-1.935
						c0.237-0.56,0.543-1.778,0.918-3.654l0.218-1.046c-2.197,1.747-4.471,2.621-6.813,2.621c-2.179,0-3.964-0.771-5.358-2.315
						c-1.396-1.544-2.093-3.805-2.093-6.782c0-2.624,0.476-5.032,1.427-7.221c0.949-2.19,2.283-3.847,4.004-4.971
						c1.719-1.12,3.471-1.684,5.262-1.684c1.473,0,2.818,0.391,4.041,1.174c1.227,0.783,2.176,1.879,2.856,3.291l0.827-3.947h5.684
						l-3.569,18.646c-0.646,3.021-1.188,5.175-1.634,6.466c-0.445,1.29-0.955,2.318-1.527,3.083
						c-0.573,0.767-1.298,1.407-2.172,1.927c-0.876,0.518-1.906,0.893-3.096,1.116c-1.191,0.226-2.481,0.341-3.871,0.341
						c-3.144,0-5.52-0.541-7.125-1.621c-1.607-1.08-2.41-2.877-2.41-5.39C265.576,33.362,265.6,33.069,265.643,32.746z
						 M272.771,21.788c0,1.69,0.381,2.979,1.141,3.869c0.761,0.887,1.714,1.331,2.857,1.331c1.071,0,2.109-0.398,3.117-1.195
						c1.01-0.797,1.781-1.928,2.316-3.395c0.535-1.468,0.805-2.887,0.805-4.257c0-1.577-0.441-2.849-1.322-3.814
						c-0.885-0.964-1.902-1.447-3.062-1.447c-1.073,0-2.062,0.427-2.959,1.279c-0.898,0.854-1.642,2.166-2.228,3.941
						C272.992,19.469,272.771,20.698,272.771,21.788z"/>
				</g>
			</g>
		</g>
	</g>
	<g>
		<path fill="#DFC44A" d="M297.493,19.408h11.583l-1.207,5.758h-11.582L297.493,19.408z"/>
		<g>
			<path fill="#EC7563" d="M310.572,33.276l6.363-30.486h22.604l-1.063,5.094h-16.321l-1.456,6.925h15.783l-1.06,5.095H319.64
				l-1.913,8.277h17.736l-1.081,5.096H310.572L310.572,33.276z"/>
		</g>
		<path fill="#DFC44A" d="M343.637,11.193h5.655l-0.579,2.868c1.413-1.219,2.732-2.089,3.962-2.609
			c1.227-0.52,2.517-0.779,3.877-0.779c1.814,0,3.247,0.521,4.295,1.558c1.045,1.041,1.568,2.421,1.568,4.14
			c0,0.776-0.229,2.244-0.687,4.408l-2.601,12.5h-5.969l2.62-12.542c0.39-1.871,0.582-2.987,0.582-3.347
			c0-0.763-0.227-1.363-0.676-1.799c-0.45-0.438-1.08-0.656-1.883-0.656c-0.873,0-1.844,0.368-2.912,1.103
			c-1.066,0.735-1.904,1.705-2.516,2.91c-0.443,0.86-0.941,2.616-1.497,5.262l-1.893,9.066h-5.97L343.637,11.193z"/>
		<path fill="#DFC44A" d="M364.641,34.44l6.301,0.915c0,0.639,0.105,1.12,0.313,1.444c0.208,0.325,0.545,0.604,1.009,0.831
			c0.465,0.229,1.101,0.345,1.902,0.345c1.263,0,2.271-0.25,3.037-0.748c0.567-0.389,1.03-1.012,1.395-1.872
			c0.22-0.541,0.505-1.719,0.852-3.536l0.209-1.039c-2.066,1.72-4.2,2.578-6.405,2.578c-2.164,0-3.938-0.762-5.321-2.287
			c-1.388-1.525-2.081-3.757-2.081-6.696c0-2.593,0.472-4.969,1.413-7.132c0.941-2.163,2.269-3.8,3.974-4.908
			c1.703-1.109,3.444-1.663,5.219-1.663c1.471,0,2.814,0.387,4.035,1.164c1.219,0.777,2.169,1.864,2.849,3.265l0.831-3.908h5.597
			l-3.828,18.403c-0.623,2.952-1.149,5.06-1.579,6.322c-0.431,1.261-0.923,2.266-1.477,3.014c-0.555,0.75-1.257,1.375-2.103,1.883
			c-0.846,0.506-1.845,0.869-2.994,1.092s-2.397,0.332-3.743,0.332c-3.119,0-5.478-0.533-7.069-1.603
			c-1.594-1.065-2.392-2.842-2.392-5.322C364.579,35.052,364.6,34.76,364.641,34.44z M371.669,23.774
			c0,1.677,0.378,2.956,1.135,3.836c0.755,0.879,1.7,1.319,2.838,1.319c1.039,0,2.048-0.394,3.026-1.184
			c0.978-0.791,1.726-1.913,2.244-3.369c0.521-1.455,0.78-2.863,0.78-4.223c0-1.565-0.423-2.827-1.271-3.783
			c-0.847-0.957-1.821-1.436-2.931-1.436c-1.067,0-2.05,0.423-2.944,1.269c-0.896,0.847-1.633,2.151-2.215,3.911
			C371.893,21.472,371.669,22.692,371.669,23.774z"/>
		<path fill="#DFC44A" d="M390.926,33.276L397.31,2.79h5.946l-6.36,30.486H390.926z"/>
		<path fill="#DFC44A" d="M407.416,11.193h5.969l-4.617,22.083H402.8L407.416,11.193z M409.163,2.79h5.969l-1.122,5.407h-5.969
			L409.163,2.79z"/>
		<path fill="#DFC44A" d="M413.864,27.099l5.78-0.914c0.513,1.219,1.148,2.083,1.913,2.589c0.765,0.505,1.803,0.758,3.118,0.758
			c1.358,0,2.447-0.305,3.267-0.914c0.568-0.417,0.852-0.922,0.852-1.521c0-0.401-0.146-0.76-0.438-1.081
			c-0.305-0.304-1.13-0.679-2.473-1.123c-3.604-1.191-5.84-2.136-6.698-2.829c-1.345-1.08-2.018-2.495-2.018-4.241
			c0-1.746,0.651-3.251,1.954-4.513c1.814-1.76,4.515-2.64,8.092-2.64c2.842,0,4.99,0.521,6.444,1.558
			c1.456,1.041,2.379,2.449,2.768,4.223l-5.512,0.957c-0.291-0.804-0.764-1.406-1.414-1.81c-0.888-0.54-1.955-0.811-3.202-0.811
			c-1.249,0-2.146,0.208-2.693,0.625c-0.546,0.416-0.819,0.894-0.819,1.435c0,0.554,0.277,1.012,0.831,1.372
			c0.348,0.222,1.464,0.611,3.349,1.165c2.911,0.847,4.857,1.678,5.845,2.495c1.385,1.151,2.079,2.537,2.079,4.159
			c0,2.094-0.881,3.911-2.642,5.448c-1.763,1.539-4.243,2.311-7.443,2.311c-3.188,0-5.654-0.586-7.395-1.76
			C415.669,30.868,414.485,29.222,413.864,27.099z"/>
		<path fill="#DFC44A" d="M444.37,33.276h-5.969l6.386-30.486h5.968l-2.287,10.856c1.345-1.054,2.6-1.814,3.764-2.277
			c1.165-0.465,2.413-0.696,3.743-0.696c1.79,0,3.203,0.512,4.243,1.54c1.038,1.024,1.561,2.368,1.561,4.033
			c0,0.887-0.194,2.259-0.584,4.116l-2.701,12.915h-5.971l2.768-13.164c0.292-1.428,0.438-2.344,0.438-2.746
			c0-0.734-0.229-1.323-0.687-1.768c-0.459-0.442-1.081-0.666-1.872-0.666c-0.999,0-1.955,0.348-2.868,1.039
			c-1.193,0.917-2.103,2.039-2.726,3.37c-0.349,0.736-0.806,2.463-1.373,5.179L444.37,33.276z"/>
	</g>
</g>
</svg>
